<?xml version="1.0" encoding="UTF-8"?>
<svg width="96px" height="96px" viewBox="0 0 96 96" version="1.1" xmlns="http://www.w3.org/2000/svg" xmlns:xlink="http://www.w3.org/1999/xlink">
    <title>apps/96/dde-calendar</title>
    <defs>
        <filter x="-9.1%" y="-6.3%" width="118.7%" height="120.0%" filterUnits="objectBoundingBox" id="filter-1">
            <feOffset dx="-0.278346202" dy="1.98053614" in="SourceAlpha" result="shadowOffsetOuter1"></feOffset>
            <feGaussianBlur stdDeviation="2" in="shadowOffsetOuter1" result="shadowBlurOuter1"></feGaussianBlur>
            <feColorMatrix values="0 0 0 0 0   0 0 0 0 0   0 0 0 0 0  0 0 0 0.2 0" type="matrix" in="shadowBlurOuter1" result="shadowMatrixOuter1"></feColorMatrix>
            <feMerge>
                <feMergeNode in="shadowMatrixOuter1"></feMergeNode>
                <feMergeNode in="SourceGraphic"></feMergeNode>
            </feMerge>
        </filter>
        <radialGradient cx="54.3240802%" cy="55.7793187%" fx="54.3240802%" fy="55.7793187%" r="61.9689111%" gradientTransform="translate(0.5432, 0.5578), scale(1, 0.88), rotate(-144.9267), scale(1, 1.2647), translate(-0.5432, -0.5578)" id="radialGradient-2">
            <stop stop-color="#000000" offset="0%"></stop>
            <stop stop-color="#000000" stop-opacity="0.148218969" offset="100%"></stop>
        </radialGradient>
        <path d="M38.0625,57.625 L38.0625,53.4130102 L26.6259025,53.4130102 L36.2556408,41.5630102 C37.4602136,40.0582483 38.0625,38.3385204 38.0625,36.4038265 C38.0351233,33.9854592 37.2069795,31.9903061 35.5780686,30.4183673 C33.9765343,28.8329932 31.8890644,28.0268707 29.3156588,28 C27.0160199,28.0268707 25.0791215,28.8195578 23.5049639,30.3780612 C21.9444946,31.9768707 21.1095066,33.9988946 21,36.4441327 L21,36.4441327 L25.2707581,36.4441327 C25.4213297,35.1005952 25.9004212,34.0593537 26.7080325,33.3204082 C27.4882671,32.5814626 28.4669826,32.2119898 29.6441787,32.2119898 C30.9719465,32.2388605 31.998571,32.6620748 32.7240523,33.4816327 C33.422157,34.3011905 33.7712094,35.2618197 33.7712094,36.3635204 C33.7712094,36.780017 33.7164561,37.2233844 33.6069495,37.6936224 C33.4426895,38.1907313 33.1347022,38.7281463 32.6829874,39.3058673 L32.6829874,39.3058673 L21,53.6548469 L21,57.625 L38.0625,57.625 Z M49.6572289,57.4375 L59.8125,32.2197788 L59.8125,28 L42.75,28 L42.75,36.4799383 L47.0464608,36.4799383 L47.0464608,32.2197788 L55.0021084,32.2197788 L44.8673946,57.4375 L49.6572289,57.4375 Z" id="path-3"></path>
        <filter x="-18.0%" y="-16.9%" width="136.1%" height="147.3%" filterUnits="objectBoundingBox" id="filter-4">
            <feOffset dx="0" dy="2" in="SourceAlpha" result="shadowOffsetOuter1"></feOffset>
            <feGaussianBlur stdDeviation="2" in="shadowOffsetOuter1" result="shadowBlurOuter1"></feGaussianBlur>
            <feColorMatrix values="0 0 0 0 0.000854821203   0 0 0 0 0.168099661   0 0 0 0 0.309386322  0 0 0 0.2 0" type="matrix" in="shadowBlurOuter1"></feColorMatrix>
        </filter>
        <linearGradient x1="69.7602459%" y1="71.0965544%" x2="56.9833471%" y2="57.7013487%" id="linearGradient-5">
            <stop stop-color="#C6C6C6" offset="0%"></stop>
            <stop stop-color="#E7E7E7" offset="53.0517663%"></stop>
            <stop stop-color="#F4F4F4" offset="100%"></stop>
        </linearGradient>
        <path d="M80,54 C80,54 78.7993866,60.7153889 77.4375,62.90625 C75.28125,66.375 73.6875,65.0625 70.6875,68.71875 C67.6875,72.375 69.75,73.03125 65.25,76.875 C62.8384357,78.9348779 57,80 57,80 C75.65625,80 80,64.03125 80,54 Z" id="path-6"></path>
        <filter x="-8.7%" y="-3.8%" width="117.4%" height="115.4%" filterUnits="objectBoundingBox" id="filter-7">
            <feOffset dx="0" dy="1" in="SourceAlpha" result="shadowOffsetOuter1"></feOffset>
            <feGaussianBlur stdDeviation="0.5" in="shadowOffsetOuter1" result="shadowBlurOuter1"></feGaussianBlur>
            <feColorMatrix values="0 0 0 0 0   0 0 0 0 0   0 0 0 0 0  0 0 0 0.05 0" type="matrix" in="shadowBlurOuter1"></feColorMatrix>
        </filter>
    </defs>
    <g id="apps/96/dde-calendar" stroke="none" fill="none">
        <g id="编组-2" filter="url(#filter-1)" stroke-width="1" fill-rule="evenodd" transform="translate(48, 48) rotate(-8) translate(-48, -48)translate(8, 8)">
            <g id="编组" transform="translate(0, 0)">
                <rect id="矩形备份-2" fill="#FFFFFF" x="1.25859152e-12" y="-3.6880025e-13" width="80" height="80" rx="14.625"></rect>
                <path d="M80,55 L80,55.068 L80,65.375 C80,73.4260237 73.4944785,79.9576014 65.4533741,79.9997944 L58,80 C65.5166667,79.0808824 70.8027778,76.1703431 73.8583333,71.2683824 C76.9138889,66.3664216 78.9611111,60.9436275 80,55 Z" id="形状结合" fill-opacity="0.39" fill="url(#radialGradient-2)"></path>
                <g id="MARCH" transform="translate(17, 5)" fill="#E06164" fill-rule="nonzero">
                    <path d="M1.273125,15 L2.638125,15 L2.638125,10.2225 C2.638125,9.35625 2.52,8.109375 2.454375,7.23 L2.506875,7.23 L3.268125,9.46125 L4.96125,14.068125 L5.90625,14.068125 L7.58625,9.46125 L8.360625,7.23 L8.413125,7.23 C8.334375,8.109375 8.21625,9.35625 8.21625,10.2225 L8.21625,15 L9.63375,15 L9.63375,5.326875 L7.875,5.326875 L6.129375,10.2225 C5.90625,10.865625 5.7225,11.521875 5.499375,12.165 L5.43375,12.165 C5.210625,11.521875 5.01375,10.865625 4.790625,10.2225 L3.01875,5.326875 L1.273125,5.326875 L1.273125,15 Z" id="路径"></path>
                    <path d="M14.0175,9.75 C14.3325,8.7 14.634375,7.636875 14.91,6.534375 L14.975625,6.534375 C15.264375,7.62375 15.553125,8.7 15.88125,9.75 L16.261875,11.049375 L13.62375,11.049375 L14.0175,9.75 Z M10.89375,15 L12.4425,15 L13.269375,12.24375 L16.629375,12.24375 L17.443125,15 L19.0575,15 L15.855,5.326875 L14.09625,5.326875 L10.89375,15 Z" id="形状"></path>
                    <path d="M20.330625,15 L21.853125,15 L21.853125,11.101875 L23.415,11.101875 L25.606875,15 L27.32625,15 L24.96375,10.905 C26.184375,10.524375 26.985,9.631875 26.985,8.135625 C26.985,6.04875 25.48875,5.326875 23.49375,5.326875 L20.330625,5.326875 L20.330625,15 Z M21.853125,9.88125 L21.853125,6.560625 L23.31,6.560625 C24.714375,6.560625 25.475625,6.9675 25.475625,8.135625 C25.475625,9.30375 24.714375,9.88125 23.31,9.88125 L21.853125,9.88125 Z" id="形状"></path>
                    <path d="M32.7075,15.170625 C33.954375,15.170625 34.93875,14.671875 35.713125,13.779375 L34.899375,12.82125 C34.321875,13.45125 33.6525,13.845 32.76,13.845 C31.05375,13.845 29.9775,12.440625 29.9775,10.14375 C29.9775,7.873125 31.1325,6.481875 32.799375,6.481875 C33.586875,6.481875 34.190625,6.83625 34.689375,7.348125 L35.51625,6.376875 C34.925625,5.73375 33.980625,5.15625 32.773125,5.15625 C30.331875,5.15625 28.415625,7.04625 28.415625,10.19625 C28.415625,13.359375 30.279375,15.170625 32.7075,15.170625 Z" id="路径"></path>
                    <polygon id="路径" points="37.419375 15 38.941875 15 38.941875 10.603125 43.07625 10.603125 43.07625 15 44.59875 15 44.59875 5.326875 43.07625 5.326875 43.07625 9.2775 38.941875 9.2775 38.941875 5.326875 37.419375 5.326875"></polygon>
                </g>
                <g id="27" fill-rule="nonzero">
                    <use fill="black" fill-opacity="1" filter="url(#filter-4)" xlink:href="#path-3"></use>
                    <use fill="#2D394F" xlink:href="#path-3"></use>
                </g>
            </g>
            <g id="MONDAY" transform="translate(24, 61)" fill="#2D394F" fill-rule="nonzero">
                <path d="M0.7275,9 L1.5075,9 L1.5075,6.27 C1.5075,5.775 1.44,5.0625 1.4025,4.56 L1.4325,4.56 L1.8675,5.835 L2.835,8.4675 L3.375,8.4675 L4.335,5.835 L4.7775,4.56 L4.8075,4.56 C4.7625,5.0625 4.695,5.775 4.695,6.27 L4.695,9 L5.505,9 L5.505,3.4725 L4.5,3.4725 L3.5025,6.27 C3.375,6.6375 3.27,7.0125 3.1425,7.38 L3.105,7.38 C2.9775,7.0125 2.865,6.6375 2.7375,6.27 L1.725,3.4725 L0.7275,3.4725 L0.7275,9 Z" id="路径"></path>
                <path d="M9.0525,9.0975 C10.47,9.0975 11.46,7.995 11.46,6.2175 C11.46,4.44 10.47,3.375 9.0525,3.375 C7.635,3.375 6.6525,4.44 6.6525,6.2175 C6.6525,7.995 7.635,9.0975 9.0525,9.0975 Z M9.0525,8.34 C8.1375,8.34 7.545,7.5075 7.545,6.2175 C7.545,4.92 8.1375,4.1325 9.0525,4.1325 C9.9675,4.1325 10.5675,4.92 10.5675,6.2175 C10.5675,7.5075 9.9675,8.34 9.0525,8.34 Z" id="形状"></path>
                <path d="M12.6075,9 L13.4325,9 L13.4325,6.3975 C13.4325,5.7975 13.365,5.16 13.32,4.59 L13.3575,4.59 L13.935,5.745 L15.765,9 L16.6575,9 L16.6575,3.4725 L15.8325,3.4725 L15.8325,6.0525 C15.8325,6.6525 15.9,7.32 15.945,7.89 L15.9075,7.89 L15.33,6.72 L13.5,3.4725 L12.6075,3.4725 L12.6075,9 Z" id="路径"></path>
                <path d="M18.1125,9 L19.59,9 C21.24,9 22.2075,8.01 22.2075,6.2175 C22.2075,4.4175 21.24,3.4725 19.545,3.4725 L18.1125,3.4725 L18.1125,9 Z M18.9825,8.2875 L18.9825,4.185 L19.485,4.185 C20.67,4.185 21.3075,4.8375 21.3075,6.2175 C21.3075,7.59 20.67,8.2875 19.485,8.2875 L18.9825,8.2875 Z" id="形状"></path>
                <path d="M24.4125,6 C24.5925,5.4 24.765,4.7925 24.9225,4.1625 L24.96,4.1625 C25.125,4.785 25.29,5.4 25.4775,6 L25.695,6.7425 L24.1875,6.7425 L24.4125,6 Z M22.6275,9 L23.5125,9 L23.985,7.425 L25.905,7.425 L26.37,9 L27.2925,9 L25.4625,3.4725 L24.4575,3.4725 L22.6275,9 Z" id="形状"></path>
                <path d="M28.9275,9 L29.7975,9 L29.7975,6.9075 L31.4625,3.4725 L30.555,3.4725 L29.91,4.9425 C29.745,5.355 29.565,5.7375 29.385,6.1575 L29.355,6.1575 C29.1675,5.7375 29.01,5.355 28.8375,4.9425 L28.2,3.4725 L27.27,3.4725 L28.9275,6.9075 L28.9275,9 Z" id="路径"></path>
            </g>
            <g id="路径-11">
                <use fill="black" fill-opacity="1" filter="url(#filter-7)" xlink:href="#path-6"></use>
                <use fill="url(#linearGradient-5)" fill-rule="evenodd" xlink:href="#path-6"></use>
            </g>
        </g>
        <g id="Guide-96"></g>
    </g>
</svg>