<?xml version="1.0" encoding="UTF-8"?>
<svg width="96px" height="96px" viewBox="0 0 96 96" version="1.1" xmlns="http://www.w3.org/2000/svg" xmlns:xlink="http://www.w3.org/1999/xlink">
    <title>apps/96/deepin-clone</title>
    <defs>
        <filter x="-8.1%" y="-5.8%" width="116.3%" height="116.3%" filterUnits="objectBoundingBox" id="filter-1">
            <feOffset dx="0" dy="2" in="SourceAlpha" result="shadowOffsetOuter1"></feOffset>
            <feGaussianBlur stdDeviation="2" in="shadowOffsetOuter1" result="shadowBlurOuter1"></feGaussianBlur>
            <feColorMatrix values="0 0 0 0 0   0 0 0 0 0   0 0 0 0 0  0 0 0 0.2 0" type="matrix" in="shadowBlurOuter1" result="shadowMatrixOuter1"></feColorMatrix>
            <feMerge>
                <feMergeNode in="shadowMatrixOuter1"></feMergeNode>
                <feMergeNode in="SourceGraphic"></feMergeNode>
            </feMerge>
        </filter>
        <radialGradient cx="47.156569%" cy="18.8587223%" fx="47.156569%" fy="18.8587223%" r="79.4742743%" id="radialGradient-2">
            <stop stop-color="#00812B" offset="0%"></stop>
            <stop stop-color="#006174" offset="100%"></stop>
        </radialGradient>
        <linearGradient x1="50%" y1="1.85852605%" x2="50%" y2="100%" id="linearGradient-3">
            <stop stop-color="#FFFFFF" offset="0%"></stop>
            <stop stop-color="#21CCDF" offset="100%"></stop>
        </linearGradient>
    </defs>
    <g id="apps/96/deepin-clone" stroke="none" stroke-width="1" fill="none" fill-rule="evenodd">
        <g id="Group" filter="url(#filter-1)" transform="translate(5, 5)">
            <circle id="Oval" fill="url(#radialGradient-2)" cx="43" cy="43" r="43"></circle>
            <g id="编组" transform="translate(4.5551, 4.5551)" fill="url(#linearGradient-3)" fill-rule="nonzero">
                <path d="M38.4449153,0 C59.6774557,0 76.8898305,17.2123749 76.8898305,38.4449153 C76.8898305,59.4651303 60.0199819,76.545181 39.0806722,76.88468 L38.4449153,76.8898305 C38.1739827,76.8898305 37.9037047,76.8870279 37.6341087,76.8814502 L37.8631507,76.8854928 C37.6600324,76.8824625 37.4571842,76.8778474 37.2546204,76.8716557 L37.6341087,76.8814502 C37.412735,76.8768701 37.1918211,76.8704188 36.9713822,76.8621115 L37.2546204,76.8716557 C37.0626336,76.8657872 36.8709023,76.8585026 36.6794388,76.8498089 L36.9713822,76.8621115 C36.7735098,76.8546547 36.5760202,76.8457024 36.3789243,76.8352656 L36.6794388,76.8498089 C36.4976993,76.8415567 36.3162011,76.8320349 36.1349548,76.8212497 L36.3789243,76.8352656 C36.1614876,76.8237517 35.9445301,76.8104311 35.7280665,76.7953186 L36.1349548,76.8212497 C35.9684211,76.81134 35.8021,76.8003635 35.6359996,76.7883252 C31.633906,76.4982676 27.7599557,75.5917092 24.1279867,74.1349054 L24.3232305,74.2133335 C24.1548944,74.1468183 23.9871403,74.0791492 23.8199779,74.0103359 L24.1279867,74.1349054 C23.9539105,74.0650825 23.7803902,73.9939955 23.6074383,73.9216518 L23.8199779,74.0103359 C23.6463504,73.9388612 23.4733613,73.866152 23.3010214,73.7922194 L23.6074383,73.9216518 C23.4387817,73.8511048 23.2706657,73.7793627 23.1031018,73.7064323 L23.3010214,73.7922194 C23.1253893,73.7168743 22.9504316,73.6402586 22.7761597,73.5623837 L23.1031018,73.7064323 C22.9253953,73.6290875 22.7483099,73.5504062 22.5718594,73.4703964 L22.7761597,73.5623837 C22.6115366,73.4888204 22.4475256,73.4141336 22.2841363,73.3383329 L22.5718594,73.4703964 C22.4039622,73.3942651 22.2366399,73.3169311 22.0699044,73.2384012 L22.2841363,73.3383329 C22.1098489,73.2574763 21.936269,73.1753523 21.7634084,73.0919728 C17.44009,71.0066143 13.5667399,68.1358905 10.3284943,64.6649375 L10.4934436,64.8409054 C10.3628931,64.7026464 10.2332709,64.5633355 10.1045896,64.4229801 L10.3284943,64.6649375 C10.2010808,64.5283677 10.0746504,64.3908687 9.94921463,64.2524517 L10.1045896,64.4229801 C9.96785973,64.273846 9.83219214,64.1235327 9.69760195,63.9720489 L9.94921463,64.2524517 C9.82219302,64.1122848 9.69619123,63.9711766 9.57122096,63.8291388 L9.4488252,63.6893512 L9.46772752,63.7109807 C8.67378791,62.8011415 8.76774316,61.4199558 9.67758246,60.6260161 C10.5874217,59.8320765 11.9686074,59.9260318 12.7625471,60.8358711 C19.1957122,68.2081528 28.468925,72.5169492 38.4449153,72.5169492 C57.26238,72.5169492 72.5169492,57.26238 72.5169492,38.4449153 C72.5169492,19.6274505 57.26238,4.37288136 38.4449153,4.37288136 C19.6274505,4.37288136 4.37288136,19.6274505 4.37288136,38.4449153 L12.2076271,38.4449153 L3.96203258,55.4625784 C1.42548142,50.3325708 0,44.5552126 0,38.4449153 C0,17.4247003 16.8698486,0.344649514 37.8091583,0.00515052025 L38.4449153,0 Z M42.8437441,15.0276749 L44.2559972,15.3483222 C44.853818,15.4840555 45.2548936,16.046424 45.1885171,16.6558561 L44.8686596,19.5926083 C44.8132078,20.1017355 45.0851409,20.590416 45.5470215,20.8116664 L47.1982823,21.6026547 C47.6633718,21.8254422 48.2186327,21.7280863 48.5801854,21.3603606 L50.6199567,19.2857631 C51.0525931,18.84574 51.747484,18.8029784 52.2308074,19.186636 L53.3710453,20.0917461 C53.8491535,20.4712638 53.9685851,21.1480307 53.6492613,21.6682743 L52.1191579,24.1611249 C51.8511157,24.5978204 51.8880589,25.1561701 52.2113003,25.5537433 L53.4447605,27.0708467 C53.7669786,27.4671612 54.3037975,27.6177069 54.7851059,27.4467337 L57.5229524,26.47418 C58.0990035,26.2695518 58.7370777,26.5279807 59.008378,27.0757979 L59.6528007,28.3770343 C59.9254789,28.9276337 59.7409509,29.5952063 59.2242004,29.9275948 L56.816541,31.4762688 C56.3824496,31.7554885 56.1739793,32.2798575 56.2978632,32.7809082 L56.8062061,34.836911 C56.9269889,35.3254191 57.3382155,35.6877054 57.8380511,35.7459555 L60.7772677,36.0884872 C61.3647406,36.1569504 61.8160279,36.6410781 61.8431235,37.2319059 L61.8981855,38.4325494 C61.8995127,38.4614904 61.8997974,38.4904697 61.8990389,38.5194311 L61.8831434,39.1263825 C61.8733689,39.4996113 61.5907,39.8088859 61.219853,39.8521038 L57.9942151,40.2280146 C57.4740788,40.2886305 57.0523859,40.6777671 56.9502635,41.1913692 L56.5092537,43.4093308 C56.4125726,43.8955672 56.62309,44.3914674 57.0400382,44.6596601 L59.5530756,46.2761163 C60.055822,46.5994968 60.2460762,47.2421909 60.0003756,47.7871314 L59.4425201,49.0244018 C59.1843689,49.5969564 58.5302247,49.8757983 57.9383947,49.665565 L55.304684,48.7300031 C54.8078318,48.5535084 54.2539185,48.7200028 53.9367151,49.141185 L52.5202157,51.0220111 C52.2218306,51.4182063 52.1962376,51.9566228 52.4556966,52.3793346 L54.0359463,54.9538836 C54.3491973,55.4642335 54.2408425,56.1270978 53.7813903,56.5111381 L52.7947879,57.3358052 C52.3123449,57.7390626 51.6011144,57.7043157 51.1602771,57.2559518 L49.1684245,55.2300911 C48.8002958,54.8556771 48.2323199,54.7622596 47.7636647,54.999044 L45.6210797,56.0815685 C45.1723049,56.3083085 44.9111336,56.7895337 44.9655746,57.2893797 L45.2906733,60.2742548 C45.3565892,60.8794581 44.9614202,61.4389965 44.3690187,61.5792689 L43.1655939,61.864223 C42.5621609,62.0071075 41.9486534,61.6694062 41.7465792,61.0831355 L40.8078439,58.3596164 C40.6319944,57.8494305 40.1388141,57.517999 39.6000025,57.5479119 L38.5118188,57.608324 C38.4672563,57.610798 38.4225909,57.610798 38.3780284,57.608324 L37.2898446,57.5479119 C36.7510331,57.517999 36.2578528,57.8494305 36.0820033,58.3596164 L35.143268,61.0831355 C34.9411938,61.6694062 34.3276863,62.0071075 33.7242533,61.864223 L32.5208285,61.5792689 C31.928427,61.4389965 31.5332579,60.8794581 31.5991738,60.2742548 L31.9242726,57.2893797 C31.9787135,56.7895337 31.7175423,56.3083085 31.2687675,56.0815685 L29.1261825,54.999044 C28.6575272,54.7622596 28.0895514,54.8556771 27.7214227,55.2300911 L25.7295701,57.2559518 C25.2887328,57.7043157 24.5775022,57.7390626 24.0950593,57.3358052 L23.1084568,56.5111381 C22.6490047,56.1270978 22.5406498,55.4642335 22.8539009,54.9538836 L24.4341505,52.3793346 C24.6936096,51.9566228 24.6680165,51.4182063 24.3696315,51.0220111 L22.9531321,49.141185 C22.6359287,48.7200028 22.0820153,48.5535084 21.5851632,48.7300031 L18.9514524,49.665565 C18.3596224,49.8757983 17.7054782,49.5969564 17.4473271,49.0244018 L16.8894715,47.7871314 C16.6437709,47.2421909 16.8340252,46.5994968 17.3367716,46.2761163 L19.849809,44.6596601 C20.2667572,44.3914674 20.4772746,43.8955672 20.3805934,43.4093308 L19.9395837,41.1913692 C19.8374613,40.6777671 19.4157684,40.2886305 18.8956321,40.2280146 L15.6699942,39.8521038 C15.2991472,39.8088859 15.0164782,39.4996113 15.0067037,39.1263825 L14.9908082,38.5194311 C14.9900498,38.4904697 14.9903344,38.4614904 14.9916617,38.4325494 L15.0467237,37.2319059 C15.0738193,36.6410781 15.5251065,36.1569504 16.1125795,36.0884872 L19.0517961,35.7459555 C19.5516317,35.6877054 19.9628583,35.3254191 20.083641,34.836911 L20.591984,32.7809082 C20.7158678,32.2798575 20.5073975,31.7554885 20.0733062,31.4762688 L17.6656468,29.9275948 C17.1488963,29.5952063 16.9643683,28.9276337 17.2370465,28.3770343 L17.8814692,27.0757979 C18.1527695,26.5279807 18.7908436,26.2695518 19.3668947,26.47418 L22.1047412,27.4467337 C22.5860497,27.6177069 23.1228686,27.4671612 23.4450867,27.0708467 L24.6785468,25.5537433 C25.0017883,25.1561701 25.0387314,24.5978204 24.7706892,24.1611249 L23.2405858,21.6682743 C22.921262,21.1480307 23.0406937,20.4712638 23.5188018,20.0917461 L24.6590397,19.186636 C25.1423632,18.8029784 25.837254,18.84574 26.2698905,19.2857631 L28.3096618,21.3603606 C28.6712145,21.7280863 29.2264754,21.8254422 29.6915649,21.6026547 L31.3428256,20.8116664 C31.8047063,20.590416 32.0766393,20.1017355 32.0211875,19.5926083 L31.7013301,16.6558561 C31.6349536,16.046424 32.0360291,15.4840555 32.63385,15.3483222 L34.0461031,15.0276749 C34.6466705,14.8913181 35.2535686,15.2290448 35.4542526,15.8112822 L36.3929077,18.5371883 C36.5674177,19.0468936 37.0586385,19.3791904 37.5966782,19.3515046 C37.939981,19.3340668 38.2227289,19.3253308 38.4449236,19.3253308 C38.6226793,19.3253308 38.8391891,19.3309218 39.094453,19.342104 L39.293169,19.3515046 C39.8312087,19.3791904 40.3224295,19.0468936 40.4969395,18.5371883 L41.4355946,15.8112822 C41.6362786,15.2290448 42.2431767,14.8913181 42.8437441,15.0276749 Z M42.0003673,41.0856247 C39.7464582,44.9898754 39.9921261,49.6514124 42.2417949,53.2175769 C48.8252251,51.5302875 53.6915341,45.5568215 53.6915341,38.4466616 C53.6915341,37.3610917 53.5780966,36.3020191 53.3621932,35.2804553 C48.9051041,34.8225443 44.3856507,36.9538057 42.0003673,41.0856247 Z M23.7239512,35.2620826 L23.5288089,35.2806529 C23.3131421,36.3020191 23.1997047,37.3610917 23.1997047,38.4466616 C23.1997047,45.5569839 28.066236,51.5305604 34.6504367,53.2168416 C36.8991126,49.6514124 37.1447805,44.9898754 34.8908714,41.0856247 C32.5403511,37.0140228 28.1174143,34.8850912 23.7239512,35.2620826 Z M38.4456563,36.1016489 C37.1502584,36.1016489 36.100131,37.1518747 36.100131,38.4473939 C36.100131,39.7429131 37.1502584,40.7931389 38.4456563,40.7931389 C39.7410542,40.7931389 40.7911816,39.7429131 40.7911816,38.4473939 C40.7911816,37.1518747 39.7410542,36.1016489 38.4456563,36.1016489 Z M38.4456194,23.1993189 C34.2114038,23.1993189 30.3803426,24.9255897 27.6178584,27.7128948 C29.3858379,31.9500454 33.5679868,34.9280441 38.4456194,34.9280441 C43.323252,34.9280441 47.5054009,31.9500454 49.2735277,27.7127935 C46.5108962,24.9255897 42.679835,23.1993189 38.4456194,23.1993189 Z" id="形状结合"></path>
            </g>
        </g>
        <g id="Guide-96" transform="translate(3, 3)"></g>
    </g>
</svg>