<?xml version="1.0" encoding="UTF-8"?>
<svg width="96px" height="96px" viewBox="0 0 96 96" version="1.1" xmlns="http://www.w3.org/2000/svg" xmlns:xlink="http://www.w3.org/1999/xlink">
    <title>apps/96/org.deepin.browser</title>
    <defs>
        <filter x="-8.1%" y="-5.8%" width="116.3%" height="116.3%" filterUnits="objectBoundingBox" id="filter-1">
            <feOffset dx="0" dy="2" in="SourceAlpha" result="shadowOffsetOuter1"></feOffset>
            <feGaussianBlur stdDeviation="2" in="shadowOffsetOuter1" result="shadowBlurOuter1"></feGaussianBlur>
            <feColorMatrix values="0 0 0 0 0   0 0 0 0 0   0 0 0 0 0  0 0 0 0.2 0" type="matrix" in="shadowBlurOuter1" result="shadowMatrixOuter1"></feColorMatrix>
            <feMerge>
                <feMergeNode in="shadowMatrixOuter1"></feMergeNode>
                <feMergeNode in="SourceGraphic"></feMergeNode>
            </feMerge>
        </filter>
        <linearGradient x1="50%" y1="0%" x2="50%" y2="98.1385523%" id="linearGradient-2">
            <stop stop-color="#FFFFFF" offset="0%"></stop>
            <stop stop-color="#EDEDED" offset="100%"></stop>
        </linearGradient>
        <linearGradient x1="47.5007201%" y1="17.8673453%" x2="55.4671848%" y2="50%" id="linearGradient-3">
            <stop stop-color="#4E56FD" offset="0%"></stop>
            <stop stop-color="#4F52FF" offset="100%"></stop>
        </linearGradient>
        <linearGradient x1="0%" y1="50%" x2="87.8403076%" y2="34.0932226%" id="linearGradient-4">
            <stop stop-color="#6B5BFE" offset="0%"></stop>
            <stop stop-color="#58CDFF" offset="100%"></stop>
        </linearGradient>
    </defs>
    <g id="apps/96/org.deepin.browser" stroke="none" fill="none">
        <g id="编组" filter="url(#filter-1)" stroke-width="1" fill-rule="evenodd" transform="translate(5, 5)">
            <path d="M75.9391441,70.6392237 C91.2038659,52.4474367 88.8310107,25.3255776 70.6392237,10.0608559 C52.4474367,-5.2038659 25.3255776,-2.83101069 10.0608559,15.3607763 C-5.2038659,33.5525633 -2.83101069,60.6744224 15.3607763,75.9391441 C33.5525633,91.2038659 60.6744224,88.8310107 75.9391441,70.6392237 Z" id="椭圆形" fill="url(#linearGradient-2)"></path>
            <path d="M36.9793248,31.4653221 C38.1274761,24.6730587 36.5231081,21.7759517 32.1662206,22.7740009 C25.6308894,24.2710748 21.9344147,34.6073983 22.0392246,40.0124785 C22.1426371,45.3454909 24.8939931,55.1331239 35.18282,61.9517744 L35.604076,62.2265613 C46.2393143,69.0546546 34.6193229,80.345356 25.8840497,67.2846795 C20.0605343,58.5775618 15.9931238,45.7106714 13.6818182,28.6840083 L19.4564657,13.5782011 L27.874281,7.37210219 L37.7430422,5.86363636 L44.9545455,9.78348589 L44.8455939,19.7803923 L36.9793248,31.4653221 Z" id="路径-39" fill="url(#linearGradient-3)"></path>
            <path d="M10.0608629,15.3607763 C20.3442491,3.10552227 36.0087726,-1.97061421 50.6991142,0.688384853 C57.5565109,2.62122898 65.0848064,7.4674038 67.9245492,15.259189 C71.4039878,24.8061939 66.2324805,37.6417505 58.4174748,42.8472138 C45.7188019,51.3056179 31.7363131,46.9736794 32.1679395,38.1577439 C32.3122008,35.2112171 33.688344,32.58851 35.2263791,29.9732826 L36.1656055,28.3931937 C37.2362838,26.5914038 38.2818167,24.7631538 38.9561904,22.8061457 C40.8107182,17.4243732 40.7893896,12.2763125 37.2932833,9.34273298 C35.6956001,8.0021186 32.6800729,6.7591289 28.6958852,8.26591537 C24.433715,9.87783244 18.580233,15.0335532 16.5339346,23.8994525 C15.8022088,27.0697662 15.3757848,30.9622151 15.5630867,34.1190502 C16.0231811,41.8735994 19.8359231,48.8177777 24.9719274,54.5179542 L25.2586095,54.8333481 C27.5280693,57.308393 36.4692464,64.3341468 45.35328,64.9373956 C56.6126534,65.7019361 69.2568899,60.3441829 75.5143896,52.8867903 C81.5153442,45.7351361 84.370075,38.1982839 84.0785818,30.2762339 C88.2424802,43.7631899 85.6871628,59.0220585 75.939197,70.6392237 C60.6744646,88.8310107 33.5525866,91.2038659 15.360787,75.9391441 C-2.83101266,60.6744224 -5.20386952,33.5525633 10.0608629,15.3607763 Z" id="路径" fill="url(#linearGradient-4)"></path>
            <path d="M10.0608559,15.3607763 C25.3255776,-2.83101069 52.4474367,-5.2038659 70.6392237,10.0608559 C88.8310107,25.3255776 91.2038659,52.4474367 75.9391441,70.6392237 C60.6744224,88.8310107 33.5525633,91.2038659 15.3607763,75.9391441 C-2.83101069,60.6744224 -5.2038659,33.5525633 10.0608559,15.3607763 Z M10.8052433,15.9853915 C-4.114513,33.7660647 -1.79528164,60.2750004 15.9853915,75.1947567 C33.7660647,90.114513 60.2750004,87.7952816 75.1947567,70.0146085 C90.114513,52.2339353 87.7952816,25.7249996 70.0146085,10.8052433 C52.2339353,-4.114513 25.7249996,-1.79528164 10.8052433,15.9853915 Z" id="形状" fill-opacity="0.08" fill="#000000" fill-rule="nonzero"></path>
        </g>
        <g id="Guide/96"></g>
    </g>
</svg>