<?xml version="1.0" encoding="UTF-8" standalone="no"?>
<svg
   width="128"
   height="128"
   viewBox="0 0 33.866666 33.866667"
   version="1.1"
   id="svg6"
   sodipodi:docname="com.github.linuxhubit.catfacts.svg"
   inkscape:version="1.2.2 (b0a8486541, 2022-12-01)"
   xmlns:inkscape="http://www.inkscape.org/namespaces/inkscape"
   xmlns:sodipodi="http://sodipodi.sourceforge.net/DTD/sodipodi-0.dtd"
   xmlns:xlink="http://www.w3.org/1999/xlink"
   xmlns="http://www.w3.org/2000/svg"
   xmlns:svg="http://www.w3.org/2000/svg"
   xmlns:rdf="http://www.w3.org/1999/02/22-rdf-syntax-ns#"
   xmlns:cc="http://creativecommons.org/ns#"
   xmlns:dc="http://purl.org/dc/elements/1.1/">
  <metadata
     id="metadata112">
    <rdf:RDF>
      <cc:Work
         rdf:about="">
        <dc:format>image/svg+xml</dc:format>
        <dc:type
           rdf:resource="http://purl.org/dc/dcmitype/StillImage" />
      </cc:Work>
    </rdf:RDF>
  </metadata>
  <defs
     id="defs2">
    <linearGradient
       inkscape:collect="always"
       id="linearGradient1989">
      <stop
         style="stop-color:#ffffff;stop-opacity:1;"
         offset="0"
         id="stop1985" />
      <stop
         style="stop-color:#562efb;stop-opacity:1;"
         offset="1"
         id="stop1987" />
    </linearGradient>
    <linearGradient
       inkscape:collect="always"
       id="linearGradient9598">
      <stop
         style="stop-color:#e6f9ff;stop-opacity:1"
         offset="0"
         id="stop9594" />
      <stop
         style="stop-color:#caf9fe;stop-opacity:1"
         offset="1"
         id="stop9596" />
    </linearGradient>
    <linearGradient
       inkscape:collect="always"
       id="linearGradient1630">
      <stop
         style="stop-color:#986af3;stop-opacity:1"
         offset="0"
         id="stop1626" />
      <stop
         style="stop-color:#4a23fc;stop-opacity:1"
         offset="1"
         id="stop1628" />
    </linearGradient>
    <linearGradient
       gradientTransform="translate(0,-896)"
       gradientUnits="userSpaceOnUse"
       y2="992"
       x2="32"
       y1="32"
       x1="32"
       id="lgrad">
      <stop
         id="stop2"
         stop-color="#f8f8f8"
         offset="0%" />
      <stop
         id="stop4"
         stop-color="#ccc"
         offset="100%" />
    </linearGradient>
    <radialGradient
       gradientTransform="translate(0,-896)"
       gradientUnits="userSpaceOnUse"
       r="440"
       cy="512"
       cx="512"
       fy="494.39999"
       fx="512"
       y2="100%"
       x2="0%"
       y1="0%"
       x1="0%"
       id="rgrad">
      <stop
         id="stop7"
         stop-color="#00f0ff"
         offset="0%" />
      <stop
         id="stop9"
         stop-color="#0070e0"
         offset="100%" />
    </radialGradient>
    <radialGradient
       id="rgrad-3"
       x1="0%"
       y1="0%"
       x2="0%"
       y2="100%"
       fx="523.57568"
       fy="306.1813"
       cx="523.57568"
       cy="306.1813"
       r="440"
       gradientUnits="userSpaceOnUse"
       gradientTransform="matrix(0.03099337,0,0,0.03032562,85.198869,42.985295)">
      <stop
         offset="0%"
         stop-color="#00f0ff"
         id="stop7-6"
         style="stop-color:#03d7e4;stop-opacity:1" />
      <stop
         offset="100%"
         stop-color="#0070e0"
         id="stop9-7" />
    </radialGradient>
    <linearGradient
       inkscape:collect="always"
       xlink:href="#linearGradient1630"
       id="linearGradient1632"
       x1="132.21078"
       y1="42.151531"
       x2="132.21078"
       y2="70.679932"
       gradientUnits="userSpaceOnUse"
       gradientTransform="matrix(0.97573206,0,0,0.97573206,-111.77632,-37.20309)" />
    <filter
       y="-0.012004"
       x="-0.011996"
       width="1.023993"
       height="1.024007"
       color-interpolation-filters="sRGB"
       id="b">
      <feGaussianBlur
         id="feGaussianBlur7"
         stdDeviation=".47521291" />
    </filter>
    <linearGradient
       y2="-319.05783"
       y1="-73.89106"
       x2="-376.36255"
       x1="-350.6571"
       gradientUnits="userSpaceOnUse"
       id="k">
      <stop
         id="stop50"
         stop-color="#83a3d4"
         offset="0" />
      <stop
         id="stop52"
         stop-color="#6bb5e3"
         offset="1" />
    </linearGradient>
    <linearGradient
       y2="-156.88734"
       y1="-12.925184"
       x2="10.51211"
       x1="-206.76952"
       gradientUnits="userSpaceOnUse"
       id="i">
      <stop
         id="stop40"
         stop-color="#70c2bd"
         offset="0" />
      <stop
         id="stop42"
         stop-color="#67c381"
         offset="1" />
    </linearGradient>
    <linearGradient
       y2="-149.18999"
       y1="117.30138"
       x2="148.51404"
       x1="134.56509"
       gradientUnits="userSpaceOnUse"
       id="e">
      <stop
         id="stop20"
         stop-color="#faaa32"
         offset="0" />
      <stop
         id="stop22"
         stop-color="#fdc22b"
         offset="1" />
    </linearGradient>
    <linearGradient
       y2="144.89951"
       y1="144.89951"
       x2="123.35784"
       x1="-146.054"
       gradientUnits="userSpaceOnUse"
       id="c">
      <stop
         id="stop10"
         stop-color="#a0cf63"
         offset="0" />
      <stop
         id="stop12"
         stop-color="#c4da45"
         offset="1" />
    </linearGradient>
    <linearGradient
       y2="-150.01163"
       y1="-12.740612"
       x2="28.495264"
       x1="206.7137"
       gradientUnits="userSpaceOnUse"
       id="m">
      <stop
         id="stop60"
         stop-color="#b28cc0"
         offset="0" />
      <stop
         id="stop62"
         stop-color="#9a8ec4"
         offset="1" />
    </linearGradient>
    <linearGradient
       y2="76.406288"
       y1="147.05296"
       x2="-19.617525"
       x1="189.94229"
       gradientUnits="userSpaceOnUse"
       id="q">
      <stop
         id="stop80"
         stop-color="#f48155"
         offset="0" />
      <stop
         id="stop82"
         stop-color="#f16168"
         offset="1" />
    </linearGradient>
    <linearGradient
       y2="34.179653"
       y1="308.30261"
       x2="21.156284"
       x1="116.504"
       gradientUnits="userSpaceOnUse"
       id="l">
      <stop
         id="stop55"
         stop-color="#735194"
         offset="0" />
      <stop
         id="stop57"
         stop-color="#525da3"
         offset="1" />
    </linearGradient>
    <linearGradient
       y2="-107.16671"
       y1="111.50156"
       x2="123.3283"
       x1="30.131145"
       gradientUnits="userSpaceOnUse"
       id="j">
      <stop
         id="stop45"
         stop-color="#416db9"
         offset="0" />
      <stop
         id="stop47"
         stop-color="#337e8d"
         offset="1" />
    </linearGradient>
    <linearGradient
       y2="0.071801998"
       y1="133.12218"
       x2="205.55051"
       x1="-103.67039"
       gradientUnits="userSpaceOnUse"
       id="h">
      <stop
         id="stop35"
         stop-color="#2e9274"
         offset="0" />
      <stop
         id="stop37"
         stop-color="#469d3c"
         offset="1" />
    </linearGradient>
    <linearGradient
       y2="-100.48971"
       y1="120.22743"
       x2="146.80986"
       x1="26.97802"
       gradientUnits="userSpaceOnUse"
       id="f">
      <stop
         id="stop25"
         stop-color="#ec4001"
         offset="0" />
      <stop
         id="stop27"
         stop-color="#fb6f01"
         offset="1" />
    </linearGradient>
    <linearGradient
       y2="73.499695"
       y1="73.499695"
       x2="309.397"
       x1="-14.298616"
       gradientUnits="userSpaceOnUse"
       id="d">
      <stop
         id="stop15"
         stop-color="#58a920"
         offset="0" />
      <stop
         id="stop17"
         stop-color="#98b811"
         offset="1" />
    </linearGradient>
    <linearGradient
       y2="144.897"
       y1="144.897"
       x2="145.987"
       x1="-123.11901"
       gradientUnits="userSpaceOnUse"
       id="o">
      <stop
         id="stop70"
         stop-color="#d287af"
         offset="0" />
      <stop
         id="stop72"
         stop-color="#e07993"
         offset="1" />
    </linearGradient>
    <linearGradient
       y2="-71.695564"
       y1="-71.695564"
       x2="117.81888"
       x1="-205.78"
       gradientUnits="userSpaceOnUse"
       id="p">
      <stop
         id="stop75"
         stop-color="#bd090f"
         offset="0" />
      <stop
         id="stop77"
         stop-color="#e11f07"
         offset="1" />
    </linearGradient>
    <linearGradient
       y2="-143.7106"
       y1="-14.582834"
       x2="-308.72031"
       x1="0.176406"
       gradientUnits="userSpaceOnUse"
       id="n">
      <stop
         id="stop65"
         stop-color="#c23857"
         offset="0" />
      <stop
         id="stop67"
         stop-color="#914475"
         offset="1" />
    </linearGradient>
    <linearGradient
       y2="319.1076"
       y1="108.52529"
       x2="117.31723"
       x1="41.409683"
       gradientUnits="userSpaceOnUse"
       id="g">
      <stop
         id="stop30"
         stop-color="#e69e08"
         offset="0" />
      <stop
         id="stop32"
         stop-color="#cbc507"
         offset="1" />
    </linearGradient>
    <clipPath
       clipPathUnits="userSpaceOnUse"
       id="clipPath988">
      <path
         inkscape:connector-curvature="0"
         id="path990"
         d="m 35.277533,4.8347742 c -1.06882,0 -1.309413,0.04675 -2.013853,0.392625 -1.020627,0.501128 -1.883036,1.364674 -2.336311,2.339206 -0.481406,1.03502 -0.568641,2.6184458 -0.197896,3.5922488 0.140901,0.370015 1.429682,2.698881 2.86402,5.175363 1.434338,2.476487 2.611234,4.595724 2.61541,4.709424 0.0042,0.113688 -3.531125,6.334964 -7.856213,13.824976 l -7.863836,13.618156 -7.139025,0.03916 -7.139025,0.03916 -0.8073291,0.376593 c -1.051601,0.490639 -1.970446,1.40527 -2.445113,2.434046 -0.3216,0.696997 -0.379476,0.996457 -0.380012,1.966023 0,0.971641 0.05616,1.265185 0.376327,1.951045 0.637629,1.365989 1.898733,2.419094 3.2892361,2.746809 0.281273,0.06633 10.618178,0.124914 23.325022,0.132473 l 22.819654,0.01361 0.256479,-0.283805 c 0.216038,-0.239093 0.255118,-0.487596 0.248882,-1.581025 -0.0189,-3.316188 -1.931637,-6.482045 -4.549373,-7.530599 -0.489196,-0.195931 -1.533509,-0.231269 -8.637256,-0.29144 l -8.08091,-0.0683 2.306623,-3.969369 c 14.3518,-24.696073 18.987433,-32.733748 19.206907,-33.302314 0.20262,-0.52495 0.24771,-0.909294 0.204472,-1.7492148 -0.09808,-1.904613 -1.044956,-3.351023 -2.737875,-4.18224 -0.704012,-0.345675 -0.945268,-0.392625 -2.010963,-0.392625 -1.052802,0 -1.321515,0.05095 -2.057484,0.390785 -1.167076,0.538919 -1.872808,1.368347 -3.31446,3.895786 -0.660329,1.1576538 -1.242524,2.1047838 -1.293778,2.1047838 -0.05125,0 -0.630999,-0.945267 -1.28852,-2.1005778 -1.448648,-2.545391 -2.050182,-3.257155 -3.253497,-3.849543 -0.812451,-0.399969 -1.01046,-0.441249 -2.110307,-0.441249 z M 49.110404,23.744718 c -0.285052,-0.0087 -1.023209,0.716568 -1.535558,1.509279 -1.775618,2.747225 -2.483305,8.398153 -1.495344,11.941736 0.187616,0.672892 2.517264,4.805847 10.124725,17.962541 5.434495,9.398653 10.088246,17.318774 10.3418,17.600398 1.359961,1.510458 3.608912,1.953759 5.532775,1.090367 1.81737,-0.815577 2.951799,-2.750339 2.783338,-4.747257 -0.04135,-0.490442 -0.197291,-1.164166 -0.346356,-1.497188 -0.149102,-0.333014 -1.413335,-2.573367 -2.80936,-4.978533 l -2.538146,-4.373023 4.245585,-0.06724 4.245578,-0.06724 0.80731,-0.376856 c 1.05162,-0.490659 1.97046,-1.405301 2.44512,-2.434077 0.3216,-0.696994 0.37922,-0.996189 0.37974,-1.965762 0,-0.971433 -0.0559,-1.265326 -0.37579,-1.951045 -0.49034,-1.050928 -1.40549,-1.970162 -2.43432,-2.445638 l -0.82208,-0.3801 -7.067028,-0.03916 -7.067025,-0.03916 -7.128514,-12.368531 C 52.476142,29.315485 49.197231,23.747405 49.110404,23.744688 Z M 15.439636,60.404073 c -0.763389,0.0016 -1.409144,0.06781 -1.678779,0.206022 -0.288567,0.147968 -0.803312,0.910405 -1.996774,2.957843 -2.398908,4.115433 -2.580215,4.526623 -2.57704,5.844722 0.0049,2.086968 1.140506,3.734498 3.126035,4.535698 0.906267,0.365707 2.788868,0.284787 3.720231,-0.159799 1.242573,-0.593091 1.82259,-1.364647 4.446614,-5.914889 l 2.444326,-4.238441 -0.216302,-0.385009 c -0.575391,-1.024661 -2.29615,-2.042038 -4.291037,-2.537091 -0.820147,-0.203528 -1.99578,-0.310526 -2.977289,-0.309052 z"
         style="opacity:1;fill:url(#linearGradient992);fill-opacity:1;stroke:none;stroke-width:0.10764397;stroke-linecap:round;stroke-linejoin:round;stroke-miterlimit:4;stroke-dasharray:none;stroke-opacity:1" />
    </clipPath>
    <linearGradient
       inkscape:collect="always"
       xlink:href="#linearGradient9598"
       id="linearGradient992"
       gradientUnits="userSpaceOnUse"
       gradientTransform="matrix(3.7795276,0,0,3.7795276,-23.738441,-24.999971)"
       x1="17.757063"
       y1="25.057371"
       x2="17.757063"
       y2="11.635189" />
    <filter
       inkscape:collect="always"
       style="color-interpolation-filters:sRGB"
       id="filter963"
       x="-0.058133892"
       y="-0.060168026"
       width="1.1162678"
       height="1.1203361">
      <feGaussianBlur
         inkscape:collect="always"
         stdDeviation="0.39358164"
         id="feGaussianBlur965" />
    </filter>
    <linearGradient
       inkscape:collect="always"
       xlink:href="#linearGradient1989"
       id="linearGradient1991"
       x1="9.7410927"
       y1="21.846733"
       x2="18.967545"
       y2="55.164791"
       gradientUnits="userSpaceOnUse" />
  </defs>
  <sodipodi:namedview
     id="base"
     pagecolor="#ffffff"
     bordercolor="#666666"
     borderopacity="1.0"
     inkscape:pageopacity="0.0"
     inkscape:pageshadow="2"
     inkscape:zoom="0.6645508"
     inkscape:cx="-312.24099"
     inkscape:cy="24.828802"
     inkscape:document-units="mm"
     inkscape:current-layer="layer1"
     showgrid="false"
     units="px"
     inkscape:window-width="1920"
     inkscape:window-height="1012"
     inkscape:window-x="0"
     inkscape:window-y="0"
     inkscape:window-maximized="1"
     inkscape:showpageshadow="2"
     inkscape:pagecheckerboard="0"
     inkscape:deskcolor="#d1d1d1" />
  <g
     inkscape:label="Layer 1"
     inkscape:groupmode="layer"
     id="layer1">
    <g
       id="g1702"
       transform="matrix(0.97573206,0,0,0.97573206,-65.748383,-37.203094)"
       style="opacity:0.2967651">
      <rect
         style="fill:none;fill-opacity:1;stroke:#000000;stroke-width:0.1;stroke-linecap:round;stroke-linejoin:round;stroke-miterlimit:4;stroke-dasharray:none;stroke-opacity:0.02"
         id="rect1634"
         width="29.810888"
         height="29.810888"
         x="69.839508"
         y="40.709618"
         rx="6.6098609"
         ry="6.6098609" />
      <rect
         ry="6.6098609"
         rx="6.6098609"
         y="40.709618"
         x="69.839508"
         height="29.810888"
         width="29.810888"
         id="rect1638"
         style="fill:none;fill-opacity:1;stroke:#000000;stroke-width:0.2;stroke-linecap:round;stroke-linejoin:round;stroke-miterlimit:4;stroke-dasharray:none;stroke-opacity:0.02" />
      <rect
         style="fill:none;fill-opacity:1;stroke:#000000;stroke-width:0.3;stroke-linecap:round;stroke-linejoin:round;stroke-miterlimit:4;stroke-dasharray:none;stroke-opacity:0.02"
         id="rect1640"
         width="29.810888"
         height="29.810888"
         x="69.839508"
         y="40.709618"
         rx="6.6098609"
         ry="6.6098609" />
      <rect
         ry="6.6098609"
         rx="6.6098609"
         y="40.709618"
         x="69.839508"
         height="29.810888"
         width="29.810888"
         id="rect1642"
         style="fill:none;fill-opacity:1;stroke:#000000;stroke-width:0.4;stroke-linecap:round;stroke-linejoin:round;stroke-miterlimit:4;stroke-dasharray:none;stroke-opacity:0.02" />
      <rect
         style="fill:none;fill-opacity:1;stroke:#000000;stroke-width:0.5;stroke-linecap:round;stroke-linejoin:round;stroke-miterlimit:4;stroke-dasharray:none;stroke-opacity:0.02"
         id="rect1644"
         width="29.810888"
         height="29.810888"
         x="69.839508"
         y="40.709618"
         rx="6.6098609"
         ry="6.6098609" />
      <rect
         ry="6.6098609"
         rx="6.6098609"
         y="40.709618"
         x="69.839508"
         height="29.810888"
         width="29.810888"
         id="rect1646"
         style="fill:none;fill-opacity:1;stroke:#000000;stroke-width:0.6;stroke-linecap:round;stroke-linejoin:round;stroke-miterlimit:4;stroke-dasharray:none;stroke-opacity:0.02" />
      <rect
         style="fill:none;fill-opacity:1;stroke:#000000;stroke-width:0.7;stroke-linecap:round;stroke-linejoin:round;stroke-miterlimit:4;stroke-dasharray:none;stroke-opacity:0.02"
         id="rect1648"
         width="29.810888"
         height="29.810888"
         x="69.839508"
         y="40.709618"
         rx="6.6098609"
         ry="6.6098609" />
      <rect
         ry="6.6098609"
         rx="6.6098609"
         y="40.709618"
         x="69.839508"
         height="29.810888"
         width="29.810888"
         id="rect1650"
         style="fill:none;fill-opacity:1;stroke:#000000;stroke-width:0.8;stroke-linecap:round;stroke-linejoin:round;stroke-miterlimit:4;stroke-dasharray:none;stroke-opacity:0.02" />
      <rect
         style="fill:none;fill-opacity:1;stroke:#000000;stroke-width:1;stroke-linecap:round;stroke-linejoin:round;stroke-miterlimit:4;stroke-dasharray:none;stroke-opacity:0.02"
         id="rect1652"
         width="29.810888"
         height="29.810888"
         x="69.839508"
         y="40.709618"
         rx="6.6098609"
         ry="6.6098609" />
      <rect
         ry="6.6098609"
         rx="6.6098609"
         y="40.709618"
         x="69.839508"
         height="29.810888"
         width="29.810888"
         id="rect1654"
         style="fill:none;fill-opacity:1;stroke:#000000;stroke-width:1.2;stroke-linecap:round;stroke-linejoin:round;stroke-miterlimit:4;stroke-dasharray:none;stroke-opacity:0.02" />
      <rect
         style="fill:none;fill-opacity:1;stroke:#000000;stroke-width:1.4;stroke-linecap:round;stroke-linejoin:round;stroke-miterlimit:4;stroke-dasharray:none;stroke-opacity:0.02"
         id="rect1656"
         width="29.810888"
         height="29.810888"
         x="69.839508"
         y="40.709618"
         rx="6.6098609"
         ry="6.6098609" />
      <rect
         ry="6.6098609"
         rx="6.6098609"
         y="40.709618"
         x="69.839508"
         height="29.810888"
         width="29.810888"
         id="rect1658"
         style="fill:none;fill-opacity:1;stroke:#000000;stroke-width:1.6;stroke-linecap:round;stroke-linejoin:round;stroke-miterlimit:4;stroke-dasharray:none;stroke-opacity:0.02" />
      <rect
         style="fill:none;fill-opacity:1;stroke:#000000;stroke-width:1.8;stroke-linecap:round;stroke-linejoin:round;stroke-miterlimit:4;stroke-dasharray:none;stroke-opacity:0.02"
         id="rect1660"
         width="29.810888"
         height="29.810888"
         x="69.839508"
         y="40.709618"
         rx="6.6098609"
         ry="6.6098609" />
      <rect
         ry="6.6098609"
         rx="6.6098609"
         y="40.709618"
         x="69.839508"
         height="29.810888"
         width="29.810888"
         id="rect1662"
         style="fill:none;fill-opacity:1;stroke:#000000;stroke-width:2;stroke-linecap:round;stroke-linejoin:round;stroke-miterlimit:4;stroke-dasharray:none;stroke-opacity:0.02" />
      <rect
         style="fill:none;fill-opacity:1;stroke:#000000;stroke-width:2.2;stroke-linecap:round;stroke-linejoin:round;stroke-miterlimit:4;stroke-dasharray:none;stroke-opacity:0.02"
         id="rect1664"
         width="29.810888"
         height="29.810888"
         x="69.839508"
         y="40.709618"
         rx="6.6098609"
         ry="6.6098609" />
      <rect
         ry="6.6098609"
         rx="6.6098609"
         y="40.709618"
         x="69.839508"
         height="29.810888"
         width="29.810888"
         id="rect1666"
         style="fill:none;fill-opacity:1;stroke:#000000;stroke-width:2.6;stroke-linecap:round;stroke-linejoin:round;stroke-miterlimit:4;stroke-dasharray:none;stroke-opacity:0.02" />
      <rect
         style="fill:none;fill-opacity:1;stroke:#000000;stroke-width:3;stroke-linecap:round;stroke-linejoin:round;stroke-miterlimit:4;stroke-dasharray:none;stroke-opacity:0.02"
         id="rect1668"
         width="29.810888"
         height="29.810888"
         x="69.839508"
         y="40.709618"
         rx="6.6098609"
         ry="6.6098609" />
      <rect
         ry="6.6098609"
         rx="6.6098609"
         y="40.709618"
         x="69.839508"
         height="29.810888"
         width="29.810888"
         id="rect1670"
         style="fill:none;fill-opacity:1;stroke:#000000;stroke-width:3.4;stroke-linecap:round;stroke-linejoin:round;stroke-miterlimit:4;stroke-dasharray:none;stroke-opacity:0.02" />
      <rect
         style="fill:none;fill-opacity:1;stroke:#000000;stroke-width:3.8;stroke-linecap:round;stroke-linejoin:round;stroke-miterlimit:4;stroke-dasharray:none;stroke-opacity:0.02"
         id="rect1672"
         width="29.810888"
         height="29.810888"
         x="69.839508"
         y="40.709618"
         rx="6.6098609"
         ry="6.6098609" />
      <rect
         ry="6.6098609"
         rx="6.6098609"
         y="40.709618"
         x="69.839508"
         height="29.810888"
         width="29.810888"
         id="rect1674"
         style="fill:none;fill-opacity:1;stroke:#000000;stroke-width:4.2;stroke-linecap:round;stroke-linejoin:round;stroke-miterlimit:4;stroke-dasharray:none;stroke-opacity:0.02" />
      <rect
         style="fill:none;fill-opacity:1;stroke:#000000;stroke-width:4.6;stroke-linecap:round;stroke-linejoin:round;stroke-miterlimit:4;stroke-dasharray:none;stroke-opacity:0.02"
         id="rect1676"
         width="29.810888"
         height="29.810888"
         x="69.839508"
         y="40.709618"
         rx="6.6098609"
         ry="6.6098609" />
      <rect
         ry="6.6098609"
         rx="6.6098609"
         y="40.709618"
         x="69.839508"
         height="29.810888"
         width="29.810888"
         id="rect1678"
         style="fill:none;fill-opacity:1;stroke:#000000;stroke-width:5;stroke-linecap:round;stroke-linejoin:round;stroke-miterlimit:4;stroke-dasharray:none;stroke-opacity:0.02" />
    </g>
    <rect
       style="fill:url(#linearGradient1632);fill-opacity:1;stroke-width:2.68768001;stroke-linecap:round;stroke-linejoin:round"
       id="rect849"
       width="29.087439"
       height="29.087439"
       x="2.3962677"
       y="2.5185883"
       rx="6.4494534"
       ry="6.4494534" />
    <g
       id="g2700">
      <path
         id="path2683"
         style="fill:#00084b;fill-opacity:0.0823409;stroke-width:0.580695"
         d="m 18.889727,9.2788558 c -1.122911,0 -2.032436,1.4294812 -2.032436,3.1926912 0,1.76403 0.909525,3.194962 2.032436,3.194962 1.122095,0 2.032434,-1.430932 2.032434,-3.194962 0,-1.76321 -0.910339,-3.1926912 -2.032434,-3.1926912 z m -4.645566,1.1613922 c -1.122907,0 -2.032436,1.429482 -2.032436,3.192691 0,1.764028 0.909529,3.19496 2.032436,3.19496 1.1221,0 2.032435,-1.430932 2.032435,-3.19496 0,-1.763209 -0.910335,-3.192691 -2.032435,-3.192691 z m 9.352377,4.06487 c -0.822173,0.01319 -1.759992,0.66341 -2.292161,1.662693 -0.655872,1.229889 -0.447552,2.521915 0.463876,2.886467 0.911428,0.364554 2.181588,-0.338313 2.836562,-1.567426 0.654979,-1.229885 0.447552,-2.520775 -0.463875,-2.88533 -0.171061,-0.06835 -0.35467,-0.09945 -0.544402,-0.0964 z M 10.07041,15.085812 c -0.172897,0.0024 -0.340099,0.03274 -0.4967657,0.09527 -0.911517,0.364604 -1.118917,1.656413 -0.463877,2.886468 0.6550427,1.229277 1.9250467,1.931252 2.8365637,1.567424 0.911515,-0.364605 1.118914,-1.657188 0.463875,-2.886466 -0.542457,-1.018636 -1.506744,-1.673895 -2.339796,-1.662696 z m 6.598609,2.322784 c 0,0 -1.22553,-0.0031 -2.066459,0.749687 -1.163795,1.041492 -2.505385,3.257339 -2.505385,3.257339 -0.710489,1.112274 -1.046839,1.702145 -1.046839,2.317111 0,1.217071 0.909657,1.805602 2.134509,1.805602 0.53842,0 0.873853,0.0039 1.754564,-0.450265 0,0 0.571123,-0.524205 1.919017,-0.471816 1.33494,-0.05332 1.904273,0.466144 1.904273,0.466144 0.880712,0.455129 1.229041,0.455937 1.769308,0.455937 1.223928,0 2.132241,-0.590367 2.132241,-1.805602 0,-0.615887 -0.335219,-1.205757 -1.045705,-2.317111 0,0 -1.377457,-2.178158 -2.504251,-3.257339 -0.7882,-0.752733 -2.067594,-0.749687 -2.067594,-0.749687 z" />
      <path
         id="path2693"
         style="fill:#00084b;fill-opacity:0.0823409;stroke-width:0.580695"
         d="m 19.029503,9.5931093 c -1.122911,0 -2.032436,1.4294807 -2.032436,3.1926907 0,1.76403 0.909525,3.194962 2.032436,3.194962 1.122095,0 2.032434,-1.430932 2.032434,-3.194962 0,-1.76321 -0.910339,-3.1926907 -2.032434,-3.1926907 z m -4.645566,1.1613917 c -1.122907,0 -2.032436,1.429482 -2.032436,3.192691 0,1.764028 0.909529,3.19496 2.032436,3.19496 1.1221,0 2.032435,-1.430932 2.032435,-3.19496 0,-1.763209 -0.910335,-3.192691 -2.032435,-3.192691 z m 9.352377,4.06487 c -0.822173,0.01319 -1.759992,0.66341 -2.292161,1.662693 -0.655872,1.229889 -0.447552,2.521915 0.463876,2.886467 0.911428,0.364554 2.181588,-0.338313 2.836562,-1.567426 0.654979,-1.229885 0.447552,-2.520775 -0.463875,-2.88533 -0.171061,-0.06835 -0.35467,-0.09945 -0.544402,-0.0964 z m -13.526128,0.580694 c -0.172897,0.0024 -0.3400988,0.03274 -0.4967655,0.09527 -0.911517,0.364604 -1.118917,1.656413 -0.463877,2.886468 0.6550427,1.229277 1.9250465,1.931252 2.8365635,1.567424 0.911515,-0.364605 1.118914,-1.657188 0.463875,-2.886466 -0.542457,-1.018636 -1.506744,-1.673895 -2.339796,-1.662696 z m 6.598609,2.322784 c 0,0 -1.22553,-0.0031 -2.066459,0.749687 -1.163795,1.041492 -2.505385,3.257339 -2.505385,3.257339 -0.710489,1.112274 -1.046839,1.702145 -1.046839,2.317111 0,1.217071 0.909657,1.805602 2.134509,1.805602 0.53842,0 0.873853,0.0039 1.754564,-0.450265 0,0 0.571123,-0.524205 1.919017,-0.471816 1.33494,-0.05332 1.904273,0.466144 1.904273,0.466144 0.880712,0.455129 1.229041,0.455937 1.769308,0.455937 1.223928,0 2.132241,-0.590367 2.132241,-1.805602 0,-0.615887 -0.335219,-1.205757 -1.045705,-2.317111 0,0 -1.377457,-2.178158 -2.504251,-3.257339 -0.7882,-0.752733 -2.067594,-0.749687 -2.067594,-0.749687 z" />
      <path
         id="path2695"
         style="fill:#00084b;fill-opacity:0.0823409;stroke-width:0.580695"
         d="m 19.308764,10.094379 c -1.122911,0 -2.032436,1.429481 -2.032436,3.192691 0,1.76403 0.909525,3.194962 2.032436,3.194962 1.122095,0 2.032434,-1.430932 2.032434,-3.194962 0,-1.76321 -0.910339,-3.192691 -2.032434,-3.192691 z m -4.645566,1.161392 c -1.122907,0 -2.032436,1.429482 -2.032436,3.192691 0,1.764028 0.909529,3.19496 2.032436,3.19496 1.1221,0 2.032435,-1.430932 2.032435,-3.19496 0,-1.763209 -0.910335,-3.192691 -2.032435,-3.192691 z m 9.352377,4.06487 c -0.822173,0.01319 -1.759992,0.66341 -2.292161,1.662693 -0.655872,1.229889 -0.447552,2.521915 0.463876,2.886467 0.911428,0.364554 2.181588,-0.338313 2.836562,-1.567426 0.654979,-1.229885 0.447552,-2.520775 -0.463875,-2.88533 -0.171061,-0.06835 -0.35467,-0.09945 -0.544402,-0.0964 z m -13.526128,0.580694 c -0.172897,0.0024 -0.340099,0.03274 -0.4967657,0.09527 -0.911517,0.364604 -1.118917,1.656413 -0.463877,2.886468 0.6550427,1.229277 1.9250467,1.931252 2.8365637,1.567424 0.911515,-0.364605 1.118914,-1.657188 0.463875,-2.886466 -0.542457,-1.018636 -1.506744,-1.673895 -2.339796,-1.662696 z m 6.598609,2.322784 c 0,0 -1.22553,-0.0031 -2.066459,0.749687 -1.163795,1.041492 -2.505385,3.257339 -2.505385,3.257339 -0.710489,1.112274 -1.046839,1.702145 -1.046839,2.317111 0,1.217071 0.909657,1.805602 2.134509,1.805602 0.53842,0 0.873853,0.0039 1.754564,-0.450265 0,0 0.571123,-0.524205 1.919017,-0.471816 1.33494,-0.05332 1.904273,0.466144 1.904273,0.466144 0.880712,0.455129 1.229041,0.455937 1.769308,0.455937 1.223928,0 2.132241,-0.590367 2.132241,-1.805602 0,-0.615887 -0.335219,-1.205757 -1.045705,-2.317111 0,0 -1.377457,-2.178158 -2.504251,-3.257339 -0.7882,-0.752733 -2.067594,-0.749687 -2.067594,-0.749687 z" />
    </g>
    <path
       id="path8"
       style="fill:url(#linearGradient1991);stroke-width:0.580695;fill-opacity:1"
       d="m 18.52036,9.0544164 c -1.122911,0 -2.032436,1.4294816 -2.032436,3.1926916 0,1.76403 0.909525,3.194962 2.032436,3.194962 1.122095,0 2.032434,-1.430932 2.032434,-3.194962 0,-1.76321 -0.910339,-3.1926916 -2.032434,-3.1926916 z m -4.645566,1.1613926 c -1.122907,0 -2.032436,1.429482 -2.032436,3.192691 0,1.764028 0.909529,3.19496 2.032436,3.19496 1.1221,0 2.032435,-1.430932 2.032435,-3.19496 0,-1.763209 -0.910335,-3.192691 -2.032435,-3.192691 z m 9.352377,4.06487 c -0.822173,0.01319 -1.759992,0.66341 -2.292161,1.662693 -0.655872,1.229889 -0.447552,2.521915 0.463876,2.886467 0.911428,0.364554 2.181588,-0.338313 2.836562,-1.567426 0.654979,-1.229885 0.447552,-2.520775 -0.463875,-2.88533 -0.171061,-0.06835 -0.35467,-0.09945 -0.544402,-0.0964 z M 9.7010434,14.861373 c -0.172897,0.0024 -0.340099,0.03274 -0.496766,0.09527 -0.9115168,0.364604 -1.1189166,1.656413 -0.4638766,2.886468 0.6550426,1.229277 1.9250462,1.931252 2.8365632,1.567424 0.911515,-0.364605 1.118914,-1.657188 0.463875,-2.886466 -0.542457,-1.018636 -1.506744,-1.673895 -2.3397956,-1.662696 z m 6.5986086,2.322784 c 0,0 -1.22553,-0.0031 -2.066459,0.749687 -1.163795,1.041492 -2.505385,3.257339 -2.505385,3.257339 -0.710489,1.112274 -1.046839,1.702145 -1.046839,2.317111 0,1.217071 0.909657,1.805602 2.134509,1.805602 0.53842,0 0.873853,0.0039 1.754564,-0.450265 0,0 0.571123,-0.524205 1.919017,-0.471816 1.33494,-0.05332 1.904273,0.466144 1.904273,0.466144 0.880712,0.455129 1.229041,0.455937 1.769308,0.455937 1.223928,0 2.132241,-0.590367 2.132241,-1.805602 0,-0.615887 -0.335219,-1.205757 -1.045705,-2.317111 0,0 -1.377457,-2.178158 -2.504251,-3.257339 -0.7882,-0.752733 -2.067594,-0.749687 -2.067594,-0.749687 z" />
    <path
       id="path402"
       style="fill:#43009c;stroke-width:0.580695;fill-opacity:0.22801828;filter:url(#filter963)"
       d="M 18.520317 9.0542277 C 17.397407 9.0542277 16.487882 10.484106 16.487882 12.247314 C 16.487882 13.171528 16.737734 14.00376 17.136938 14.587223 C 17.019906 14.183756 16.954521 13.735564 16.954521 13.263273 C 16.954521 11.500065 17.864045 10.070703 18.986955 10.070703 C 19.521475 10.070703 20.007428 10.395641 20.370333 10.925948 C 20.050298 9.8222304 19.342429 9.0542277 18.520317 9.0542277 z M 13.874605 10.215914 C 12.751699 10.215914 11.842171 11.645277 11.842171 13.408484 C 11.842171 14.332539 12.092658 15.164428 12.491744 15.747876 C 12.374837 15.344587 12.308809 14.896981 12.308809 14.424959 C 12.308809 12.661752 13.218338 11.232389 14.341243 11.232389 C 14.875657 11.232389 15.361741 11.557003 15.724622 12.087118 C 15.404551 10.983542 14.696655 10.215914 13.874605 10.215914 z M 23.227006 14.280782 C 22.404834 14.293972 21.467325 14.943931 20.935156 15.943213 C 20.379876 16.984472 20.443886 18.070105 21.029724 18.599898 C 20.981397 18.104194 21.099591 17.525409 21.401278 16.959688 C 21.933446 15.960406 22.871472 15.310447 23.693644 15.297257 C 23.883376 15.294207 24.066736 15.325026 24.237797 15.393376 C 24.377583 15.449288 24.500672 15.527406 24.606767 15.623336 C 24.550247 15.041437 24.26401 14.573826 23.771676 14.3769 C 23.600615 14.30855 23.416738 14.277732 23.227006 14.280782 z M 9.7012166 14.861625 C 9.5283198 14.864025 9.3607562 14.89418 9.2040894 14.95671 C 8.2925735 15.321313 8.0855124 16.613302 8.7405518 17.843355 C 8.7971308 17.949534 8.8583586 18.051316 8.9234863 18.14928 C 8.6578837 17.166369 8.9346554 16.267612 9.6707275 15.973185 C 9.8273944 15.910655 9.9944414 15.879984 10.167338 15.877584 C 10.914129 15.867544 11.765546 16.394407 12.324829 17.237191 C 12.261516 17.001832 12.167322 16.761853 12.040609 16.524056 C 11.498152 15.505421 10.534267 14.850426 9.7012166 14.861625 z M 16.29978 17.183964 C 16.29978 17.183964 15.074168 17.181003 14.23324 17.933789 C 13.743879 18.371723 13.224021 19.016764 12.784749 19.617924 C 12.692128 19.883883 12.538685 20.107591 12.32793 20.266463 C 11.96661 20.797805 11.727966 21.190955 11.727966 21.190955 C 11.017478 22.303227 10.681002 22.89316 10.681002 23.508126 C 10.681002 24.043829 10.85723 24.457958 11.159009 24.753528 C 11.151528 24.679917 11.14764 24.603482 11.14764 24.524601 C 11.14764 23.909636 11.483599 23.319703 12.194088 22.20743 C 12.194088 22.20743 13.535567 19.991755 14.699361 18.950264 C 15.540289 18.197478 16.765902 18.200439 16.765902 18.200439 L 17.143656 18.200439 C 17.143656 18.200439 18.423031 18.197532 19.21123 18.950264 C 20.338023 20.029444 21.71547 22.20743 21.71547 22.20743 C 21.917685 22.523737 22.088344 22.797044 22.230684 23.041488 C 22.102904 22.563931 21.781812 22.023843 21.249349 21.190955 C 21.249349 21.190955 19.871902 19.012969 18.745109 17.933789 C 17.95691 17.181057 16.677535 17.183964 16.677535 17.183964 L 16.29978 17.183964 z " />
  </g>
</svg>
