<?xml version="1.0" encoding="UTF-8" standalone="no"?>
<svg
   width="128"
   height="128"
   viewBox="0 0 33.866666 33.866668"
   version="1.1"
   id="svg2117"
   inkscape:version="1.2.2 (b0a8486541, 2022-12-01)"
   sodipodi:docname="io.github.lainsce.DotMatrix.svg"
   xmlns:inkscape="http://www.inkscape.org/namespaces/inkscape"
   xmlns:sodipodi="http://sodipodi.sourceforge.net/DTD/sodipodi-0.dtd"
   xmlns:xlink="http://www.w3.org/1999/xlink"
   xmlns="http://www.w3.org/2000/svg"
   xmlns:svg="http://www.w3.org/2000/svg"
   xmlns:rdf="http://www.w3.org/1999/02/22-rdf-syntax-ns#"
   xmlns:cc="http://creativecommons.org/ns#"
   xmlns:dc="http://purl.org/dc/elements/1.1/">
  <defs
     id="defs2111">
    <linearGradient
       inkscape:collect="always"
       id="linearGradient1016">
      <stop
         style="stop-color:#008af6;stop-opacity:1;"
         offset="0"
         id="stop1012" />
      <stop
         style="stop-color:#006ce3;stop-opacity:1;"
         offset="1"
         id="stop1014" />
    </linearGradient>
    <linearGradient
       inkscape:collect="always"
       xlink:href="#linearGradient1630"
       id="linearGradient912"
       gradientUnits="userSpaceOnUse"
       gradientTransform="matrix(0.97573207,0,0,0.97573207,-111.88908,-37.234129)"
       x1="132.21078"
       y1="42.151531"
       x2="132.21078"
       y2="70.679932" />
    <linearGradient
       id="linearGradient1630"
       inkscape:collect="always">
      <stop
         id="stop1626"
         offset="0"
         style="stop-color:#f8fcfc;stop-opacity:1;" />
      <stop
         id="stop1628"
         offset="1"
         style="stop-color:#e3e5e8;stop-opacity:1" />
    </linearGradient>
    <linearGradient
       id="linearGradient895">
      <stop
         id="stop3335"
         offset="0" />
      <stop
         id="stop3337"
         offset="1"
         stop-opacity="0" />
    </linearGradient>
    <linearGradient
       inkscape:collect="always"
       xlink:href="#linearGradient1016"
       id="linearGradient1018"
       x1="15.850739"
       y1="9.5503664"
       x2="24.525492"
       y2="23.529554"
       gradientUnits="userSpaceOnUse" />
  </defs>
  <sodipodi:namedview
     id="base"
     pagecolor="#ffffff"
     bordercolor="#666666"
     borderopacity="1.0"
     inkscape:pageopacity="0.0"
     inkscape:pageshadow="2"
     inkscape:zoom="3.959798"
     inkscape:cx="22.602163"
     inkscape:cy="68.059027"
     inkscape:document-units="mm"
     inkscape:current-layer="layer1"
     inkscape:document-rotation="0"
     showgrid="false"
     units="px"
     inkscape:window-width="1920"
     inkscape:window-height="1016"
     inkscape:window-x="0"
     inkscape:window-y="0"
     inkscape:window-maximized="1"
     showguides="true"
     inkscape:guide-bbox="true"
     inkscape:showpageshadow="2"
     inkscape:pagecheckerboard="0"
     inkscape:deskcolor="#d1d1d1">
    <sodipodi:guide
       position="33.898569,11.655842"
       orientation="0,-1"
       id="guide1374"
       inkscape:locked="false" />
  </sodipodi:namedview>
  <metadata
     id="metadata2114">
    <rdf:RDF>
      <cc:Work
         rdf:about="">
        <dc:format>image/svg+xml</dc:format>
        <dc:type
           rdf:resource="http://purl.org/dc/dcmitype/StillImage" />
      </cc:Work>
    </rdf:RDF>
  </metadata>
  <g
     inkscape:label="Capa 1"
     inkscape:groupmode="layer"
     id="layer1">
    <g
       style="opacity:0.139618"
       transform="matrix(0.97573206,0,0,0.97573206,-65.829986,-36.914633)"
       id="g1702">
      <rect
         ry="6.6098609"
         rx="6.6098609"
         y="40.709618"
         x="69.839508"
         height="29.810888"
         width="29.810888"
         id="rect1634"
         style="fill:none;fill-opacity:1;stroke:#000000;stroke-width:0.1;stroke-linecap:round;stroke-linejoin:round;stroke-miterlimit:4;stroke-dasharray:none;stroke-opacity:0.02" />
      <rect
         style="fill:none;fill-opacity:1;stroke:#000000;stroke-width:0.2;stroke-linecap:round;stroke-linejoin:round;stroke-miterlimit:4;stroke-dasharray:none;stroke-opacity:0.02"
         id="rect1638"
         width="29.810888"
         height="29.810888"
         x="69.839508"
         y="40.709618"
         rx="6.6098609"
         ry="6.6098609" />
      <rect
         ry="6.6098609"
         rx="6.6098609"
         y="40.709618"
         x="69.839508"
         height="29.810888"
         width="29.810888"
         id="rect1640"
         style="fill:none;fill-opacity:1;stroke:#000000;stroke-width:0.3;stroke-linecap:round;stroke-linejoin:round;stroke-miterlimit:4;stroke-dasharray:none;stroke-opacity:0.02" />
      <rect
         style="fill:none;fill-opacity:1;stroke:#000000;stroke-width:0.4;stroke-linecap:round;stroke-linejoin:round;stroke-miterlimit:4;stroke-dasharray:none;stroke-opacity:0.02"
         id="rect1642"
         width="29.810888"
         height="29.810888"
         x="69.839508"
         y="40.709618"
         rx="6.6098609"
         ry="6.6098609" />
      <rect
         ry="6.6098609"
         rx="6.6098609"
         y="40.709618"
         x="69.839508"
         height="29.810888"
         width="29.810888"
         id="rect1644"
         style="fill:none;fill-opacity:1;stroke:#000000;stroke-width:0.5;stroke-linecap:round;stroke-linejoin:round;stroke-miterlimit:4;stroke-dasharray:none;stroke-opacity:0.02" />
      <rect
         style="fill:none;fill-opacity:1;stroke:#000000;stroke-width:0.6;stroke-linecap:round;stroke-linejoin:round;stroke-miterlimit:4;stroke-dasharray:none;stroke-opacity:0.02"
         id="rect1646"
         width="29.810888"
         height="29.810888"
         x="69.839508"
         y="40.709618"
         rx="6.6098609"
         ry="6.6098609" />
      <rect
         ry="6.6098609"
         rx="6.6098609"
         y="40.709618"
         x="69.839508"
         height="29.810888"
         width="29.810888"
         id="rect1648"
         style="fill:none;fill-opacity:1;stroke:#000000;stroke-width:0.7;stroke-linecap:round;stroke-linejoin:round;stroke-miterlimit:4;stroke-dasharray:none;stroke-opacity:0.02" />
      <rect
         style="fill:none;fill-opacity:1;stroke:#000000;stroke-width:0.8;stroke-linecap:round;stroke-linejoin:round;stroke-miterlimit:4;stroke-dasharray:none;stroke-opacity:0.02"
         id="rect1650"
         width="29.810888"
         height="29.810888"
         x="69.839508"
         y="40.709618"
         rx="6.6098609"
         ry="6.6098609" />
      <rect
         ry="6.6098609"
         rx="6.6098609"
         y="40.709618"
         x="69.839508"
         height="29.810888"
         width="29.810888"
         id="rect1652"
         style="fill:none;fill-opacity:1;stroke:#000000;stroke-width:1;stroke-linecap:round;stroke-linejoin:round;stroke-miterlimit:4;stroke-dasharray:none;stroke-opacity:0.02" />
      <rect
         style="fill:none;fill-opacity:1;stroke:#000000;stroke-width:1.2;stroke-linecap:round;stroke-linejoin:round;stroke-miterlimit:4;stroke-dasharray:none;stroke-opacity:0.02"
         id="rect1654"
         width="29.810888"
         height="29.810888"
         x="69.839508"
         y="40.709618"
         rx="6.6098609"
         ry="6.6098609" />
      <rect
         ry="6.6098609"
         rx="6.6098609"
         y="40.709618"
         x="69.839508"
         height="29.810888"
         width="29.810888"
         id="rect1656"
         style="fill:none;fill-opacity:1;stroke:#000000;stroke-width:1.4;stroke-linecap:round;stroke-linejoin:round;stroke-miterlimit:4;stroke-dasharray:none;stroke-opacity:0.02" />
      <rect
         style="fill:none;fill-opacity:1;stroke:#000000;stroke-width:1.6;stroke-linecap:round;stroke-linejoin:round;stroke-miterlimit:4;stroke-dasharray:none;stroke-opacity:0.02"
         id="rect1658"
         width="29.810888"
         height="29.810888"
         x="69.839508"
         y="40.709618"
         rx="6.6098609"
         ry="6.6098609" />
      <rect
         ry="6.6098609"
         rx="6.6098609"
         y="40.709618"
         x="69.839508"
         height="29.810888"
         width="29.810888"
         id="rect1660"
         style="fill:none;fill-opacity:1;stroke:#000000;stroke-width:1.8;stroke-linecap:round;stroke-linejoin:round;stroke-miterlimit:4;stroke-dasharray:none;stroke-opacity:0.02" />
      <rect
         style="fill:none;fill-opacity:1;stroke:#000000;stroke-width:2;stroke-linecap:round;stroke-linejoin:round;stroke-miterlimit:4;stroke-dasharray:none;stroke-opacity:0.02"
         id="rect1662"
         width="29.810888"
         height="29.810888"
         x="69.839508"
         y="40.709618"
         rx="6.6098609"
         ry="6.6098609" />
      <rect
         ry="6.6098609"
         rx="6.6098609"
         y="40.709618"
         x="69.839508"
         height="29.810888"
         width="29.810888"
         id="rect1664"
         style="fill:none;fill-opacity:1;stroke:#000000;stroke-width:2.2;stroke-linecap:round;stroke-linejoin:round;stroke-miterlimit:4;stroke-dasharray:none;stroke-opacity:0.02" />
      <rect
         style="fill:none;fill-opacity:1;stroke:#000000;stroke-width:2.6;stroke-linecap:round;stroke-linejoin:round;stroke-miterlimit:4;stroke-dasharray:none;stroke-opacity:0.02"
         id="rect1666"
         width="29.810888"
         height="29.810888"
         x="69.839508"
         y="40.709618"
         rx="6.6098609"
         ry="6.6098609" />
      <rect
         ry="6.6098609"
         rx="6.6098609"
         y="40.709618"
         x="69.839508"
         height="29.810888"
         width="29.810888"
         id="rect1668"
         style="fill:none;fill-opacity:1;stroke:#000000;stroke-width:3;stroke-linecap:round;stroke-linejoin:round;stroke-miterlimit:4;stroke-dasharray:none;stroke-opacity:0.02" />
      <rect
         style="fill:none;fill-opacity:1;stroke:#000000;stroke-width:3.4;stroke-linecap:round;stroke-linejoin:round;stroke-miterlimit:4;stroke-dasharray:none;stroke-opacity:0.02"
         id="rect1670"
         width="29.810888"
         height="29.810888"
         x="69.839508"
         y="40.709618"
         rx="6.6098609"
         ry="6.6098609" />
      <rect
         ry="6.6098609"
         rx="6.6098609"
         y="40.709618"
         x="69.839508"
         height="29.810888"
         width="29.810888"
         id="rect1672"
         style="fill:none;fill-opacity:1;stroke:#000000;stroke-width:3.8;stroke-linecap:round;stroke-linejoin:round;stroke-miterlimit:4;stroke-dasharray:none;stroke-opacity:0.02" />
      <rect
         style="fill:none;fill-opacity:1;stroke:#000000;stroke-width:4.2;stroke-linecap:round;stroke-linejoin:round;stroke-miterlimit:4;stroke-dasharray:none;stroke-opacity:0.02"
         id="rect1674"
         width="29.810888"
         height="29.810888"
         x="69.839508"
         y="40.709618"
         rx="6.6098609"
         ry="6.6098609" />
      <rect
         ry="6.6098609"
         rx="6.6098609"
         y="40.709618"
         x="69.839508"
         height="29.810888"
         width="29.810888"
         id="rect1676"
         style="fill:none;fill-opacity:1;stroke:#000000;stroke-width:4.6;stroke-linecap:round;stroke-linejoin:round;stroke-miterlimit:4;stroke-dasharray:none;stroke-opacity:0.02" />
      <rect
         style="fill:none;fill-opacity:1;stroke:#000000;stroke-width:5;stroke-linecap:round;stroke-linejoin:round;stroke-miterlimit:4;stroke-dasharray:none;stroke-opacity:0.02"
         id="rect1678"
         width="29.810888"
         height="29.810888"
         x="69.839508"
         y="40.709618"
         rx="6.6098609"
         ry="6.6098609" />
    </g>
    <rect
       style="fill:url(#linearGradient912);fill-opacity:1;stroke-width:2.68769;stroke-linecap:round;stroke-linejoin:round"
       id="rect910"
       width="29.08744"
       height="29.08744"
       x="2.2835085"
       y="2.4875498"
       rx="6.4494534"
       ry="6.4494534" />
    <path
       style="opacity:0.2;stroke-width:0.494806"
       d="m 6.5171256,6.7207598 c -0.8204895,0 -1.4844192,0.6639276 -1.4844192,1.4844192 0,0.8204897 0.6639297,1.4844192 1.4844192,1.4844192 0.8204906,0 1.4844196,-0.6639295 1.4844196,-1.4844192 0,-0.8204916 -0.663929,-1.4844192 -1.4844196,-1.4844192 z m 20.7818684,0 c -0.820489,0 -1.484419,0.6639276 -1.484419,1.4844192 0,0.8204897 0.66393,1.4844192 1.484419,1.4844192 0.82049,0 1.484419,-0.6639295 1.484419,-1.4844192 0,-0.8204916 -0.663929,-1.4844192 -1.484419,-1.4844192 z M 12.2074,7.2155656 c -0.410246,0 -0.74221,0.3319638 -0.74221,0.7422096 0,0.4102439 0.331964,0.7422096 0.74221,0.7422096 0.410244,0 0.74221,-0.3319657 0.74221,-0.7422096 0,-0.4102458 -0.331966,-0.7422096 -0.74221,-0.7422096 z m 4.948063,0 c -0.410245,0 -0.742209,0.3319638 -0.742209,0.7422096 0,0.4102458 0.331964,0.7422096 0.742209,0.7422096 0.410244,0 0.74221,-0.3319638 0.74221,-0.7422096 0,-0.4102458 -0.331966,-0.7422096 -0.74221,-0.7422096 z m 4.453258,0 c -0.410246,0 -0.742209,0.3319638 -0.742209,0.7422096 0,0.4102458 0.331963,0.7422096 0.742209,0.7422096 0.410244,0 0.74221,-0.3319638 0.74221,-0.7422096 0,-0.4102458 -0.331966,-0.7422096 -0.74221,-0.7422096 z M 6.2697225,12.163629 c -0.4102444,0 -0.7422096,0.331964 -0.7422096,0.74221 0,0.410245 0.3319652,0.742209 0.7422096,0.742209 0.4102449,0 0.7422097,-0.331964 0.7422097,-0.742209 0,-0.410246 -0.3319648,-0.74221 -0.7422097,-0.74221 z m 5.9376775,0 c -0.410246,0 -0.74221,0.331964 -0.74221,0.74221 0,0.410245 0.331964,0.742209 0.74221,0.742209 0.410244,0 0.74221,-0.331964 0.74221,-0.742209 0,-0.410246 -0.331966,-0.74221 -0.74221,-0.74221 z m 4.948063,0 c -0.410245,0 -0.742209,0.331964 -0.742209,0.74221 0,0.410245 0.331964,0.742209 0.742209,0.742209 0.410244,0 0.74221,-0.331964 0.74221,-0.742209 0,-0.410246 -0.331966,-0.74221 -0.74221,-0.74221 z m 4.453258,0 c -0.410246,0 -0.742209,0.331964 -0.742209,0.74221 0,0.410245 0.331963,0.742209 0.742209,0.742209 0.410244,0 0.74221,-0.331964 0.74221,-0.742209 0,-0.410246 -0.331966,-0.74221 -0.74221,-0.74221 z m 5.937677,0 c -0.410246,0 -0.74221,0.331964 -0.74221,0.74221 0,0.410245 0.331964,0.742209 0.74221,0.742209 0.410244,0 0.74221,-0.331964 0.74221,-0.742209 0,-0.410246 -0.331966,-0.74221 -0.74221,-0.74221 z M 6.2697225,16.122081 c -0.4102444,0 -0.7422096,0.331964 -0.7422096,0.742209 0,0.410244 0.3319652,0.74221 0.7422096,0.74221 0.4102449,0 0.7422097,-0.331966 0.7422097,-0.74221 0,-0.410245 -0.3319648,-0.742209 -0.7422097,-0.742209 z m 5.9376775,0 c -0.410246,0 -0.74221,0.331964 -0.74221,0.742209 0,0.410244 0.331964,0.74221 0.74221,0.74221 0.410244,0 0.74221,-0.331966 0.74221,-0.74221 0,-0.410245 -0.331966,-0.742209 -0.74221,-0.742209 z m 4.948063,0 c -0.410245,0 -0.742209,0.331964 -0.742209,0.742209 0,0.410246 0.331964,0.74221 0.742209,0.74221 0.410244,0 0.74221,-0.331964 0.74221,-0.74221 0,-0.410245 -0.331966,-0.742209 -0.74221,-0.742209 z m 4.453258,0 c -0.410246,0 -0.742209,0.331964 -0.742209,0.742209 0,0.410246 0.331963,0.74221 0.742209,0.74221 0.410244,0 0.74221,-0.331964 0.74221,-0.74221 0,-0.410245 -0.331966,-0.742209 -0.74221,-0.742209 z m 5.937677,0 c -0.410246,0 -0.74221,0.331964 -0.74221,0.742209 0,0.410244 0.331964,0.74221 0.74221,0.74221 0.410244,0 0.74221,-0.331966 0.74221,-0.74221 0,-0.410245 -0.331966,-0.742209 -0.74221,-0.742209 z M 6.2697225,20.080533 c -0.4102444,0 -0.7422096,0.331962 -0.7422096,0.742209 0,0.410244 0.3319652,0.74221 0.7422096,0.74221 0.4102449,0 0.7422097,-0.331966 0.7422097,-0.74221 0,-0.410247 -0.3319648,-0.742209 -0.7422097,-0.742209 z m 5.9376775,0 c -0.410246,0 -0.74221,0.331962 -0.74221,0.742209 0,0.410244 0.331964,0.74221 0.74221,0.74221 0.410244,0 0.74221,-0.331966 0.74221,-0.74221 0,-0.410247 -0.331966,-0.742209 -0.74221,-0.742209 z m 4.948063,0 c -0.410245,0 -0.742209,0.331962 -0.742209,0.742209 0,0.410244 0.331964,0.74221 0.742209,0.74221 0.410244,0 0.74221,-0.331966 0.74221,-0.74221 0,-0.410247 -0.331966,-0.742209 -0.74221,-0.742209 z m 4.453258,0 c -0.410246,0 -0.742209,0.331962 -0.742209,0.742209 0,0.410244 0.331963,0.74221 0.742209,0.74221 0.410244,0 0.74221,-0.331966 0.74221,-0.74221 0,-0.410247 -0.331966,-0.742209 -0.74221,-0.742209 z m 5.937677,0 c -0.410246,0 -0.74221,0.331962 -0.74221,0.742209 0,0.410244 0.331964,0.74221 0.74221,0.74221 0.410244,0 0.74221,-0.331966 0.74221,-0.74221 0,-0.410247 -0.331966,-0.742209 -0.74221,-0.742209 z M 6.5171256,24.53379 c -0.8204895,0 -1.4844192,0.663928 -1.4844192,1.484418 0,0.820491 0.6639297,1.484419 1.4844192,1.484419 0.8204906,0 1.4844196,-0.663928 1.4844196,-1.484419 0,-0.82049 -0.663929,-1.484418 -1.4844196,-1.484418 z m 20.7818684,0 c -0.820489,0 -1.484419,0.663928 -1.484419,1.484418 0,0.820491 0.66393,1.484419 1.484419,1.484419 0.82049,0 1.484419,-0.663928 1.484419,-1.484419 0,-0.82049 -0.663929,-1.484418 -1.484419,-1.484418 z M 12.2074,25.028596 c -0.410246,0 -0.74221,0.331964 -0.74221,0.74221 0,0.410244 0.331964,0.742209 0.74221,0.742209 0.410244,0 0.74221,-0.331965 0.74221,-0.742209 0,-0.410246 -0.331966,-0.74221 -0.74221,-0.74221 z m 4.948063,0 c -0.410245,0 -0.742209,0.331964 -0.742209,0.74221 0,0.410246 0.331964,0.742209 0.742209,0.742209 0.410244,0 0.74221,-0.331963 0.74221,-0.742209 0,-0.410246 -0.331966,-0.74221 -0.74221,-0.74221 z m 4.453258,0 c -0.410246,0 -0.742209,0.331964 -0.742209,0.74221 0,0.410246 0.331963,0.742209 0.742209,0.742209 0.410244,0 0.74221,-0.331963 0.74221,-0.742209 0,-0.410246 -0.331966,-0.74221 -0.74221,-0.74221 z"
       id="path6" />
    <path
       style="opacity:0.1;stroke-width:0.494806"
       d="m 6.5931026,8.2170787 c -0.4330599,-0.012904 -0.6501245,0.47974 -0.5442657,0.8526335 0.2117182,3.6124698 1.4061093,7.4429028 4.2974521,9.8106128 1.088532,0.893235 2.384506,1.523627 3.75105,1.861261 -2.0017,1.177444 -3.193387,3.609262 -3.184833,5.833798 0.144355,0.57056 0.862914,0.429524 1.289559,0.379305 2.033778,-0.181646 4.124733,-1.707401 4.722463,-3.640249 0.649055,2.154019 3.021227,3.723589 5.277419,3.681919 0.460859,0.09296 0.804099,-0.397467 0.671509,-0.820577 -0.12831,-2.097392 -1.223762,-4.331544 -3.121741,-5.434196 3.145834,-0.719074 5.684315,-3.184014 6.841281,-6.146859 C 27.344704,12.706755 27.792732,10.672404 27.7938,8.6391231 27.652661,8.0706995 26.942651,8.2160108 26.517076,8.2373809 23.473892,8.3388918 20.50663,9.8956328 18.81716,12.447119 17.918961,13.739958 17.316955,15.217639 16.924528,16.735924 16.137534,13.4878 14.101616,10.350797 10.918357,9.0419333 9.5571602,8.459622 8.0687152,8.214943 6.5931026,8.2170787 Z m 0.6041456,1.1453919 c 2.661448,0.064108 5.3207568,1.3163444 6.8284498,3.5494294 1.421078,2.063199 2.170646,4.55592 2.294683,7.046504 -2.660378,-0.06411 -5.320759,-1.315277 -6.8284498,-3.548362 -1.418939,-2.056789 -2.171715,-4.564467 -2.294683,-7.0475714 z m 19.4545578,0 c -0.166816,2.9553644 -1.148412,5.9972744 -3.233517,8.1641144 -1.530144,1.571706 -3.723247,2.351683 -5.888546,2.431819 0.166816,-2.955365 1.14841,-5.996207 3.233515,-8.163046 1.533353,-1.574913 3.720039,-2.3495468 5.888548,-2.4328874 z M 16.315036,21.191408 c -0.167882,1.818522 -1.400199,3.833641 -3.277863,4.407403 -0.677926,0.313059 -1.222191,0.241472 -0.855426,-0.583379 0.316508,-1.658254 1.710289,-3.3336 3.459639,-3.703289 0.221341,-0.05556 0.44696,-0.0951 0.67365,-0.120735 z m 1.220052,0 c 1.636005,0.10151 3.274648,1.306728 3.772934,2.841039 0.220274,0.684884 0.877882,2.265138 -0.413812,1.612308 -1.972829,-0.507519 -3.183758,-2.582471 -3.359122,-4.453347 z"
       id="path8" />
    <path
       style="fill:url(#linearGradient1018);stroke-width:0.494806;fill-opacity:1"
       d="m 6.5931026,7.7222729 c -0.4330599,-0.012904 -0.6501245,0.47974 -0.5442657,0.8526317 0.2117182,3.6124694 1.4061093,7.4429034 4.2974521,9.8106154 1.088532,0.893234 2.384506,1.523624 3.75105,1.861258 -2.0017,1.177446 -3.193387,3.609264 -3.184833,5.833801 0.144355,0.570559 0.862914,0.429521 1.289559,0.379304 2.033778,-0.181646 4.124733,-1.707401 4.722463,-3.640248 0.649055,2.154019 3.021227,3.723589 5.277419,3.681918 0.460859,0.09295 0.804099,-0.397467 0.671509,-0.820579 -0.12831,-2.09739 -1.223762,-4.331542 -3.121741,-5.434196 3.145834,-0.719074 5.684315,-3.184014 6.841281,-6.146857 C 27.344704,12.211949 27.792732,10.177597 27.7938,8.1443155 27.652661,7.5758937 26.942651,7.721205 26.517076,7.7425751 23.473892,7.844086 20.50663,9.400827 18.81716,11.952313 17.918961,13.24515 17.316955,14.722833 16.924528,16.241117 16.137534,12.992994 14.101616,9.8559916 10.918357,8.5471256 9.5571602,7.9648144 8.0687152,7.7201372 6.5931026,7.7222729 Z m 0.6041456,1.1453919 c 2.661448,0.064108 5.3207568,1.3163442 6.8284498,3.5494292 1.421078,2.0632 2.170646,4.555919 2.294683,7.046504 -2.660378,-0.06411 -5.320759,-1.315277 -6.8284498,-3.548362 -1.418939,-2.056788 -2.171715,-4.564468 -2.294683,-7.0475712 z m 19.4545578,0 c -0.166816,2.9553642 -1.148412,5.9972742 -3.233517,8.1641152 -1.530144,1.571706 -3.723247,2.351683 -5.888546,2.431818 0.166816,-2.955366 1.14841,-5.996207 3.233515,-8.163047 1.533353,-1.5749115 3.720039,-2.3495474 5.888548,-2.4328862 z M 16.315036,20.696602 c -0.167882,1.81852 -1.400199,3.833639 -3.277863,4.407404 -0.677926,0.313058 -1.222191,0.241471 -0.855426,-0.583379 0.316508,-1.658254 1.710289,-3.333601 3.459639,-3.703289 0.221341,-0.05556 0.44696,-0.0951 0.67365,-0.120736 z m 1.220052,0 c 1.636005,0.101511 3.274648,1.306728 3.772934,2.841039 0.220274,0.684884 0.877882,2.265139 -0.413812,1.612308 -1.972829,-0.507519 -3.183758,-2.58247 -3.359122,-4.453347 z"
       id="path10" />
  </g>
</svg>
