<svg height="32" width="32" xmlns="http://www.w3.org/2000/svg" xmlns:xlink="http://www.w3.org/1999/xlink">
  <filter id="a" color-interpolation-filters="sRGB" height="1.7226" width="1.2148" x="-.10742" y="-.36128">
    <feGaussianBlur stdDeviation="1.204113"/>
  </filter>
  <path d="m140.87 624.91c-.0977.0171-.19284.0488-.28125.0937l-6 3c-.68519.3198-.68519 1.4927 0 1.8125l6 3c.5108.2396 1.1992-.0576 1.375-.59375l.84375-2.5c.0373-.0999.0585-.20589.0625-.3125v-1c-.004-.10661-.0252-.21256-.0625-.3125l-.84375-2.5c-.14169-.4462-.63024-.75329-1.0938-.6875zm13.031 0c-.37038.0526-.69929.33094-.8125.6875l-.84375 2.5c-.0373.0999-.0585.20589-.0625.3125v1c.004.10661.0252.21256.0625.3125l.84375 2.5c.17584.53611.8642.83335 1.375.59375l6-3c.68519-.3198.68519-1.4927 0-1.8125l-6-3c-.17322-.0846-.37122-.11755-.5625-.0937zm-6.4062.46875c-1.9212 0-3.5 1.5788-3.5 3.5s1.5788 3.5 3.5 3.5 3.5-1.5788 3.5-3.5-1.5788-3.5-3.5-3.5z" filter="url(#a)" opacity=".2" transform="matrix(-1 0 0 1 164.06 -612.36)"/>
  <path d="m23.184 11.546c.0977.0171.19284.0488.28125.0937l6 3c.68519.3198.68519 1.4927 0 1.8125l-6 3c-.51081.2396-1.1992-.0576-1.375-.59375l-.84374-2.5c-.0373-.1-.0585-.20589-.0625-.3125l-.00001-1c.004-.10663.0252-.21256.0625-.3125l.84375-2.5c.14168-.44621.63024-.75329 1.0938-.6875zm-13.031 0c.37039.0526.6993.33093.81251.68749l.84376 2.5c.0373.1.0585.20588.0625.31249l.00001 1c-.004.10663-.0252.21257-.0625.31251l-.84376 2.5c-.17584.5361-.86418.83336-1.375.59375l-6-3c-.68519-.3198-.68519-1.4927 0-1.8125l6-3c.17323-.0846.37122-.11755.5625-.0937z" fill="#d8dee9"/>
  <path d="m23.028 12.546 6 3-6 3-.84375-2.5v-1zm-13 .00001.84375 2.5v1l-.84375 2.5-6-3z" fill="#3b4252"/>
  <path d="m13.056 15.5a3.5 3.5 0 0 0 3.5 3.5 3.5 3.5 0 0 0 3.5-3.5 3.5 3.5 0 0 0 -3.5-3.5 3.5 3.5 0 0 0 -3.5 3.5z" fill="#3b4252"/>
  <path d="m14.056 15.5a2.5 2.5 0 0 0 2.5 2.5 2.5 2.5 0 0 0 2.5-2.5 2.5 2.5 0 0 0 -2.5-2.5 2.5 2.5 0 0 0 -2.5 2.5z" fill="#81a1c1" stroke-width="1.25"/>
</svg>
