<svg height="32" width="32" xmlns="http://www.w3.org/2000/svg" xmlns:xlink="http://www.w3.org/1999/xlink">
  <filter id="a" color-interpolation-filters="sRGB" height="1.2739" width="1.3145" x="-.15726" y="-.13695">
    <feGaussianBlur stdDeviation="1.201792"/>
  </filter>
  <path d="m15 5.0128c-2.9005-.007-5.217 1.7254-6.3438 3.9062-1.0471 2.0266-.99908 4.5485.59375 6.375v.71875c.005.4135.29468.80828.6875.9375l.3125.0937-1.25-.59375c-.0531.0769-.0953.16137-.125.25-.10444-.0366-.23041-.0131-.34375-.0312-.0102-.002-.021.001-.0312 0-.12686-.0592-.26627-.0914-.40625-.0937v.0625c-.0991.0102-.17993-.0616-.28125-.0312-.0655.0246-.12851.056-.1875.0937-.0548.0264-.10716.0578-.15625.0937-.0106.0102-.021.0206-.0312.0312-.0713.0549-.25064.13453-.28125.15625-.6288.4462-1.0941.85152-1.2812 1.5938-.0936.37112-.006.90597.3125 1.25.24284.26216 1.5391 1.3148 1.8125 1.375-.18916.0275-.36716.034-.5625.15625-.30189.18885-1.535 1.5604-1.5938 1.875-.11756.62926.11511 1.0105.3125 1.3438s.42262.62634.6875.875.46488.49849 1.0625.59375c.71061.11327.89976-.11404 1.2812-.28125s.83789-.38427 1.3438-.625c.95091-.45253 3.1559-1.9729 4.4688-2.3438 1.2986.37013 3.5021 1.8639 4.4375 2.3125.50165.24055.93366.45752 1.3125.625s.5721.42551 1.2812.3125c.59617-.095.79549-.3468 1.0625-.59375s.51717-.54405.71875-.875.42001-.67924.3125-1.3125c-.0538-.31663-1.29-1.7142-1.5938-1.9062-.19658-.1243-.37293-.12865-.5625-.15625.27338-.0602 1.5697-1.1128 1.8125-1.375.31867-.34402.40607-.87888.3125-1.25-.18713-.74224-.65245-1.1476-1.2812-1.5938-.41006-.29098-.90869-.45487-1.375-.40625-.13539.0141-1.195 1.1158-1.3125 1.1562-.0269-.0994-.0692-.19466-.1251-.2812l-.25-.40625.3125-.0937c.39282-.12922.68232-.524.6875-.9375v-.71875c1.5921-1.8252 1.641-4.3515.59375-6.375-1.127-2.1775-3.446-3.8988-6.3438-3.9062z" filter="url(#a)" opacity=".2"/>
  <path d="m15 4.0128c-2.9005-.007-5.217 1.7254-6.3438 3.9062-1.0471 2.0266-.99908 4.5485.59375 6.375v.71875c.005.4135.29468.80828.6875.9375l.3125.0937-.25.40625c-.0226.03-.0435.0614-.0625.0937-.0765-.13149-.0542-.16004-.1875-.3125-.23389-.26749-.69381-.4774-1.2188-.5625-.0102-.002-.0211.001-.0312 0-.12686-.0592-.26627-.0914-.40625-.0937v.0625c-.0991.0102-.17993-.0616-.28125-.0312-.0655.0246-.12851.0561-.1875.0937-.0548.0264-.10716.0578-.15625.0937-.0106.0102-.0211.0206-.0312.0312-.0713.0549-.25064.13453-.28125.15625-.6288.4462-1.0941.85152-1.2812 1.5938-.0936.37112-.006.90597.3125 1.25.31867.34403.71705.46215 1.0625.5-.11582-.0127.19621.0517.5625.1875.36629.13576.84524.32701 1.375.53125.19725.076.44634.13986.65625.21875-.14603.0576-.29541.10042-.4375.15625-.53204.20906-1.0143.39945-1.4062.53125s-.74346.1875-.6875.1875c-.27774 0-.57311.0299-.875.21875s-.53497.56037-.59375.875c-.11756.62926.11511 1.0105.3125 1.3438s.42262.62634.6875.875.46488.49849 1.0625.59375c.52308.0834.6654-.0663.875-.15625.2096-.0899.42347-.21368.65625-.34375.46555-.26014 1.0282-.60554 1.6562-.96875 1.1901-.68828 2.6182-1.4035 3.9062-1.7812 1.2799.38002 2.7005 1.0978 3.875 1.7812.62393.36305 1.1622.70843 1.625.96875.23138.13016.4471.2535.65625.34375.20915.0903.35265.23949.875.15625.59617-.095.79549-.3468 1.0625-.59375s.51717-.54405.71875-.875.42001-.67924.3125-1.3125c-.0537-.31663-.28995-.71415-.59375-.90625s-.59726-.21875-.875-.21875c.0579 0-.29514-.0555-.6875-.1875-.39236-.13196-.87371-.3221-1.4062-.53125-.14222-.0559-.29136-.0986-.4375-.15625.20991-.0789.459-.14271.65625-.21875.52976-.20423 1.0087-.39549 1.375-.53125s.67826-.20018.5625-.1875c.34544-.0379.74383-.15598 1.0625-.5s.40607-.87888.3125-1.25c-.18713-.74224-.65245-1.1476-1.2812-1.5938-.41006-.29098-.90869-.45487-1.375-.40625-.46631.0486-.85546.2764-1.0938.5-.22586.21193-.18097.28959-.28125.46875-.019-.0324-.0399-.0637-.0625-.0937l-.25-.40625.3125-.0937c.39282-.12922.68232-.524.6875-.9375v-.71875c1.5921-1.8252 1.641-4.3515.59375-6.375-1.127-2.1775-3.446-3.8988-6.3438-3.9062z" fill="#3b4252"/>
  <path d="m15 5.0128c-5-.0128-8 5.9872-4.75 9v1l1.5.5-.90625 1.4688 1.7812 1 .875-1.4688h.6875v1.5h1.625v-1.5h.6875l.875 1.4688 1.7812-1-.90625-1.4688 1.5-.5v-1c3.25-3.0128.25-8.9872-4.75-9zm-2.5 4c.82843 0 1.5.67157 1.5 1.5s-.67157 1.5-1.5 1.5-1.5-.67157-1.5-1.5.67157-1.5 1.5-1.5zm5 0c.82843 0 1.5.67157 1.5 1.5s-.67157 1.5-1.5 1.5-1.5-.67157-1.5-1.5.67157-1.5 1.5-1.5zm-9.4062 7.5625c-.11511.0344-.2114.12484-.34375.21875-1.0588.7513-1.2129 1.4429-.40625 1.5312.61908.0678 3.4195 1.3977 5.5938 1.9062-1.8164.45122-4.7457 1.9062-5.625 1.9062-1.2604 0 .19542 1.8178.75 1.9062.5546.0884 3.8812-2.517 6.9062-3.3125.0101.003.0212-.003.0312 0 3.025.79549 6.3204 3.4009 6.875 3.3125.55458-.0884 2.0417-1.9062.78125-1.9062-.87628 0-3.8134-1.4564-5.625-1.9062 2.1742-.50852 4.9747-1.8384 5.5938-1.9062.80668-.0884.65252-.77995-.40625-1.5312-1.0588-.7513-1.5625.59375-1.5625.59375s-3.5025 1.7951-5.4688 2.2812c-.0583.0144-.15764.0473-.21875.0625-.0531-.0132-.13657-.0499-.1875-.0625-1.9663-.48614-5.4688-2.2812-5.4688-2.2812s-.41296-1.0536-1.2188-.8125z" fill="#bf616a"/>
</svg>
