<?xml version="1.0" encoding="UTF-8" standalone="no"?>
<svg
   width="22"
   height="22"
   version="1.1"
   id="svg1"
   sodipodi:docname="yakuake-symbolic.svg"
   inkscape:version="1.3.2 (091e20ef0f, 2023-11-25)"
   xmlns:inkscape="http://www.inkscape.org/namespaces/inkscape"
   xmlns:sodipodi="http://sodipodi.sourceforge.net/DTD/sodipodi-0.dtd"
   xmlns="http://www.w3.org/2000/svg"
   xmlns:svg="http://www.w3.org/2000/svg">
  <defs
     id="defs1" />
  <sodipodi:namedview
     id="namedview1"
     pagecolor="#ffffff"
     bordercolor="#999999"
     borderopacity="1"
     inkscape:showpageshadow="2"
     inkscape:pageopacity="0"
     inkscape:pagecheckerboard="0"
     inkscape:deskcolor="#d1d1d1"
     inkscape:zoom="17.318182"
     inkscape:cx="10.913386"
     inkscape:cy="19.979002"
     inkscape:window-width="1920"
     inkscape:window-height="996"
     inkscape:window-x="0"
     inkscape:window-y="0"
     inkscape:window-maximized="1"
     inkscape:current-layer="svg1" />
  <style
     type="text/css"
     id="current-color-scheme">.ColorScheme-Background{color:#181818;}.ColorScheme-ButtonBackground{color:#343434;}.ColorScheme-Highlight{color:#1a73e8;}.ColorScheme-Text{color:#232629;}.ColorScheme-ViewBackground{color:#242424;}.ColorScheme-NegativeText { color: #ff4747; } </style>
  <g
     id="22-22-yakuake-5"
     transform="translate(-32,-10)">
    <rect
       id="rect2-3"
       width="22"
       height="22"
       opacity="0.00100002"
       style="fill:#fcfcfc;fill-opacity:1"
       x="32"
       y="10" />
    <path
       id="rect43-2"
       class="ColorScheme-Text"
       d="m 34.000001,14.6 v 0 h 18.000001 v 0 z M 51,15 V 27 H 35 V 15 h -2 v 12.4 c 0,0.8 1.000001,1.6 1.75,1.6 H 51.25001 C 52.000002,29 53,28.2 53,27.4 V 15 Z"
       fill-opacity=".3"
       style="color:#d1d5e9;fill:#e1e1e1;fill-opacity:0.6;stroke-width:0.774596"
       sodipodi:nodetypes="cccccccccccccccc" />
    <path
       id="rect63-9"
       class="ColorScheme-Text"
       d="M 33.25,13 H 52.750008 C 53.5,13 53.5,14 53.5,14 v 0 c 0,0 0,1 -0.749992,1 H 33.25 C 32.5,15 32.5,14 32.5,14 v 0 c 0,0 0,-1 0.75,-1 z"
       style="color:#d1d5e9;fill:#e1e1e1;fill-opacity:1;stroke-width:0.801784"
       sodipodi:nodetypes="scsssssss" />
    <path
       d="m 40.59305,20.94515 3.626818,-3.603992 c 0.928647,-0.916093 1.920005,0.202472 0.997708,1.125717 l -3.626806,3.604011 c -0.928698,0.916038 -1.920023,-0.202477 -0.99772,-1.125736 z m 3.826356,-3.378861 z"
       id="path8-6-7-36-2-9-2"
       style="color:#d6dbf1;fill:#e1e1e1;fill-opacity:0.6;stroke-width:0.171859"
       sodipodi:nodetypes="cccccccccc"
       class="ColorScheme-Text" />
    <path
       d="m 42.968844,24 h 5.062325 c 1.291787,0.0062 1.291787,1.993623 0,2 h -5.062325 c -1.291792,-0.0062 -1.291792,-1.993623 0,-2 z m 5.062325,0.399995 z"
       id="path8-6-7-36-2-9-3-7"
       style="color:#d6dbf1;fill:#af905e;fill-opacity:1;stroke-width:0.197337"
       sodipodi:nodetypes="cccccccccc"
       class="ColorScheme-Text" />
    <path
       d="m 42.093237,21.393835 c 2.01e-4,0.127001 -0.04737,0.248862 -0.132312,0.338576 l -3.597999,3.809753 c -0.74628,0.783495 -1.859369,-0.395118 -1.11941,-1.185302 l 2.798567,-2.963027 -2.798567,-2.963031 c -0.308276,-0.327686 -0.308276,-0.857625 0,-1.185302 v 0 c 0.309107,-0.327336 0.810302,-0.327336 1.11941,0 l 3.597999,3.809731 c 0.0849,0.08974 0.132514,0.211589 0.132312,0.338602 z m -0.452073,0 z"
       id="path4-3-9-2-1-7-5"
       style="color:#d6dbf1;fill:#af905e;fill-opacity:1;stroke-width:0.232714"
       sodipodi:nodetypes="ccccccsscccccccccccc"
       class="ColorScheme-Text" />
  </g>
</svg>
