<svg height="32" width="32" xmlns="http://www.w3.org/2000/svg" xmlns:xlink="http://www.w3.org/1999/xlink">
  <filter id="a" color-interpolation-filters="sRGB" height="1.8769" width="1.3513" x="-.17563" y="-.43843">
    <feGaussianBlur stdDeviation="1.4639489"/>
  </filter>
  <path d="m9.75 12.513c-.0655.0246-.12851.056-.1875.0937l-6 3c-.28679.13254-.50278.40856-.5625.7188-.001.0312-.001.0625 0 .0937-.0401.40534.19529.82375.5625 1l6 3c.5108.2396 1.1992-.0576 1.375-.59375l.625-1.8125h10.438c.52358-.00005.99995-.47642 1-1v-1c-.00005-.52358-.47642-.99995-1-1h-10.438l-.625-1.8125c-.14416-.48298-.69688-.80295-1.1875-.68745z" filter="url(#a)" opacity=".2"/>
  <path d="m3.0048 15.312a1.0001 1.0001 0 0 1 .5625-.71875l6-3a1.0001 1.0001 0 0 1 1.375.59375l.625 1.8125h10.438a1.0001 1.0001 0 0 1 1 1v1a1.0001 1.0001 0 0 1 -1 1h-10.438l-.625 1.8125a1.0001 1.0001 0 0 1 -1.375.59375l-6-3a1.0001 1.0001 0 0 1 -.5625-1 1.0001 1.0001 0 0 1 0-.0937z" fill="#d8dee9"/>
  <path d="m4.0048 15.499 6-3 .84375 2.5h11.156v1h-11.156l-.84375 2.5z" fill="#3b4252"/>
</svg>
