<?xml version="1.0" encoding="UTF-8" standalone="no"?>
<svg
   viewBox="0 0 64 64"
   version="1.1"
   id="svg4"
   sodipodi:docname="start-here-kde-plasma.svg"
   width="64"
   height="64"
   inkscape:version="1.3.2 (091e20ef0f, 2023-11-25)"
   xmlns:inkscape="http://www.inkscape.org/namespaces/inkscape"
   xmlns:sodipodi="http://sodipodi.sourceforge.net/DTD/sodipodi-0.dtd"
   xmlns="http://www.w3.org/2000/svg"
   xmlns:svg="http://www.w3.org/2000/svg">
  <sodipodi:namedview
     id="namedview4"
     pagecolor="#cfcfcf"
     bordercolor="#999999"
     borderopacity="1"
     inkscape:showpageshadow="2"
     inkscape:pageopacity="0"
     inkscape:pagecheckerboard="0"
     inkscape:deskcolor="#d1d1d1"
     inkscape:zoom="8.4189901"
     inkscape:cx="30.407448"
     inkscape:cy="28.150645"
     inkscape:window-width="1920"
     inkscape:window-height="996"
     inkscape:window-x="0"
     inkscape:window-y="0"
     inkscape:window-maximized="1"
     inkscape:current-layer="svg4"
     showgrid="true">
    <inkscape:grid
       id="grid1"
       units="px"
       originx="0"
       originy="0"
       spacingx="1"
       spacingy="1"
       empcolor="#0099e5"
       empopacity="0.30196078"
       color="#0099e5"
       opacity="0.14901961"
       empspacing="5"
       dotted="false"
       gridanglex="30"
       gridanglez="30"
       visible="true" />
  </sodipodi:namedview>
  <defs
     id="defs3051">
    <style
       type="text/css"
       id="current-color-scheme">.ColorScheme-Text { color: #fcfcfc; } </style>
  </defs>
  <rect
     style="opacity:0.00100002;vector-effect:none;fill:#000000;fill-opacity:1;stroke:none;stroke-width:6.45636;stroke-linecap:round;stroke-linejoin:round;stroke-miterlimit:4;stroke-dasharray:none;stroke-dashoffset:0;stroke-opacity:1"
     y="0"
     x="0"
     height="64"
     width="64"
     id="rect860" />
  <path
     sodipodi:type="arc"
     sodipodi:cx="32.415421"
     sodipodi:cy="32.379383"
     sodipodi:rx="25.601151"
     sodipodi:ry="25.564943"
     sodipodi:start="1.8148121"
     sodipodi:end="6.0278024"
     sodipodi:arc-type="arc"
     d="M 26.230147,57.18698 A 25.601151,25.564943 0 0 1 6.8912132,30.39882 25.601151,25.564943 0 0 1 30.14205,6.9154337 25.601151,25.564943 0 0 1 57.18624,25.921272"
     id="path7-7-75"
     class=" "
     sodipodi:open="true"
     style="fill:none;fill-opacity:1;stroke:#af905e;stroke-width:3.62713;stroke-linecap:round;stroke-miterlimit:4;stroke-dasharray:none;stroke-opacity:1;stop-color:#31363b" />
  <path
     d="M 58.999983,42.999957 C 58.999983,51.836811 51.836664,59 42.999994,59 34.163382,59 27,51.836684 27,42.999957 27,34.163386 34.163382,27 42.999994,27 c 8.83667,0 15.999989,7.163386 15.999989,15.999957"
     id="path3950-3"
     class=" "
     style="fill:#666666;fill-opacity:1;stroke:none;stroke-width:0.0489" />
  <path
     id="path11-3"
     style="color:#31363b;fill:#fefefe;fill-opacity:1;stroke-width:0.829979"
     d="m 37.399995,32.669625 c -1.051977,0 -1.904778,0.845928 -1.904778,1.88945 0,1.04352 0.852801,1.889437 1.904778,1.889437 1.051977,0 1.904767,-0.845917 1.904767,-1.889437 0,-1.043522 -0.85279,-1.88945 -1.904767,-1.88945 z m 9.523807,0 c -1.676048,-0.75497 -3.670859,0.937567 -2.857147,2.834168 l 4.761892,4.723567 -4.761892,4.723561 c -1.001505,1.777424 0.956798,3.757415 2.857147,2.834153 l 7.61904,-7.557714 z m -13.333312,8.50247 c -1.051995,0 -1.904779,0.845929 -1.904779,1.889391 0,1.043516 0.852784,1.889435 1.904779,1.889435 1.051935,0 1.904727,-0.845919 1.904727,-1.889435 0,-1.043462 -0.852792,-1.889391 -1.904727,-1.889391 z m 6.666648,8.502443 c -1.57794,0 -2.857143,1.268854 -2.857143,2.834161 0,1.565235 1.279203,2.834155 2.857143,2.834155 1.57795,0 2.857135,-1.26892 2.857135,-2.834155 0,-1.565307 -1.279185,-2.834161 -2.857135,-2.834161 z"
     class="ColorScheme-Text"
     sodipodi:nodetypes="ssssscccccccssssssssss" />
</svg>
