<svg height="32" width="32" xmlns="http://www.w3.org/2000/svg" xmlns:xlink="http://www.w3.org/1999/xlink">
  <filter id="a" color-interpolation-filters="sRGB" height="1.2716" width="1.4405" x="-.22025" y="-.13579">
    <feGaussianBlur stdDeviation="1.1924025"/>
  </filter>
  <path d="m3.8125 3.9191c-.46695.0551-.823.4979-.8125 1.0938v16c.00005.52358.47642.99995 1 1h3.5938l2.6875 2.6875c.29466.29526.78338.37451 1.1562.1875l1-.5c.32794-.15944.55359-.51046.5625-.875v-3.5938l2.7188-2.7188c.36548-.36968.36548-1.0366 0-1.4062l-11-11.5c-.3075-.3075-.62608-.40806-.90625-.375z" filter="url(#a)" opacity=".2"/>
  <path d="m3 4.0128v16c.00005.52358.47642.99995 1 1h3.5938l2.6875 2.6875c.29466.29526.78338.37451 1.1562.1875l1-.5c.32794-.15944.55359-.51046.5625-.875v-3.5938l2.7188-2.7188c.36548-.36968.36548-1.0366 0-1.4062l-11-11.5c-.81999-.81999-1.7356-.23461-1.7188.71875z" fill="#d8dee9"/>
  <path d="m4 20v-16l11 11.5-3 3v4l-1 .5-3-3z" fill="#3b4252"/>
</svg>
