<?xml version="1.0" encoding="UTF-8" standalone="no"?>
<svg
   width="128"
   height="128"
   viewBox="0 0 33.866666 33.866668"
   version="1.1"
   id="svg1604"
   inkscape:version="1.2.2 (b0a8486541, 2022-12-01)"
   sodipodi:docname="kasumi.svg"
   xml:space="preserve"
   xmlns:inkscape="http://www.inkscape.org/namespaces/inkscape"
   xmlns:sodipodi="http://sodipodi.sourceforge.net/DTD/sodipodi-0.dtd"
   xmlns:xlink="http://www.w3.org/1999/xlink"
   xmlns="http://www.w3.org/2000/svg"
   xmlns:svg="http://www.w3.org/2000/svg"
   xmlns:rdf="http://www.w3.org/1999/02/22-rdf-syntax-ns#"
   xmlns:cc="http://creativecommons.org/ns#"
   xmlns:dc="http://purl.org/dc/elements/1.1/"><defs
     id="defs1598"><linearGradient
       inkscape:collect="always"
       id="linearGradient7158"><stop
         style="stop-color:#6bb1e5;stop-opacity:1;"
         offset="0"
         id="stop7154" /><stop
         style="stop-color:#ffffff;stop-opacity:1;"
         offset="1"
         id="stop7156" /></linearGradient><linearGradient
       gradientUnits="userSpaceOnUse"
       y2="3.2720017"
       x2="19.33639"
       y1="31.326756"
       x1="19.33639"
       id="linearGradient4292"
       xlink:href="#linearGradient4290"
       inkscape:collect="always"
       gradientTransform="translate(0.11421025,-0.00653055)" /><linearGradient
       id="linearGradient4290"
       inkscape:collect="always"><stop
         id="stop4286"
         offset="0"
         style="stop-color:#4a718b;stop-opacity:1;" /><stop
         id="stop4288"
         offset="1"
         style="stop-color:#ab5d59;stop-opacity:1" /></linearGradient><linearGradient
       gradientTransform="translate(0.11421025,-1.0674399)"
       y2="17.867891"
       x2="-0.021682218"
       y1="17.867891"
       x1="32.643162"
       gradientUnits="userSpaceOnUse"
       id="linearGradient4259"
       xlink:href="#linearGradient4273"
       inkscape:collect="always" /><linearGradient
       id="linearGradient4273"
       inkscape:collect="always"><stop
         id="stop4261"
         offset="0"
         style="stop-color:#507297;stop-opacity:1;" /><stop
         style="stop-color:#c3ccda;stop-opacity:1;"
         offset="0.2586937"
         id="stop4263" /><stop
         id="stop4265"
         offset="0.51738739"
         style="stop-color:#c3cad5;stop-opacity:1;" /><stop
         id="stop4267"
         offset="0.71043241"
         style="stop-color:#c0c9d3;stop-opacity:1;" /><stop
         id="stop4271"
         offset="1"
         style="stop-color:#223c62;stop-opacity:1;" /></linearGradient><linearGradient
       gradientUnits="userSpaceOnUse"
       y2="18.620737"
       x2="15.52189"
       y1="18.620737"
       x1="2.3962648"
       id="linearGradient4390"
       xlink:href="#linearGradient4388"
       inkscape:collect="always"
       gradientTransform="translate(0.11421025,-0.00653055)" /><linearGradient
       id="linearGradient4388"
       inkscape:collect="always"><stop
         id="stop4384"
         offset="0"
         style="stop-color:#000000;stop-opacity:1;" /><stop
         id="stop4386"
         offset="1"
         style="stop-color:#85a2e9;stop-opacity:0;" /></linearGradient><linearGradient
       gradientTransform="translate(0.02354985,0.07692335)"
       y2="14.837414"
       x2="4.1613555"
       y1="14.837414"
       x1="2.4519663"
       gradientUnits="userSpaceOnUse"
       id="linearGradient4223"
       xlink:href="#linearGradient4229"
       inkscape:collect="always" /><linearGradient
       id="linearGradient4229"
       inkscape:collect="always"><stop
         id="stop4225"
         offset="0"
         style="stop-color:#3397d8;stop-opacity:1;" /><stop
         style="stop-color:#73b8e4;stop-opacity:1;"
         offset="0.22937378"
         id="stop4239" /><stop
         id="stop4237"
         offset="0.50313646"
         style="stop-color:#87c3e8;stop-opacity:1;" /><stop
         style="stop-color:#75bae4;stop-opacity:1;"
         offset="0.78809863"
         id="stop4241" /><stop
         id="stop4227"
         offset="1"
         style="stop-color:#2c77b3;stop-opacity:1;" /></linearGradient><linearGradient
       gradientTransform="translate(0.11421025,-0.00653055)"
       gradientUnits="userSpaceOnUse"
       y2="4.8309593"
       x2="18.560169"
       y1="26.492117"
       x1="18.560169"
       id="linearGradient4327"
       xlink:href="#linearGradient4325"
       inkscape:collect="always" /><linearGradient
       id="linearGradient4325"
       inkscape:collect="always"><stop
         id="stop4321"
         offset="0"
         style="stop-color:#65abe6;stop-opacity:1;" /><stop
         id="stop4323"
         offset="1"
         style="stop-color:#86cae1;stop-opacity:1;" /></linearGradient><linearGradient
       gradientUnits="userSpaceOnUse"
       y2="107.98306"
       x2="16.759779"
       y1="95.191864"
       x1="13.332388"
       id="linearGradient4319"
       xlink:href="#linearGradient4317"
       inkscape:collect="always"
       gradientTransform="matrix(0.26458333,0,0,0.26458333,0.11421025,-0.00653055)" /><linearGradient
       id="linearGradient4317"
       inkscape:collect="always"><stop
         id="stop4313"
         offset="0"
         style="stop-color:#2b4e5d;stop-opacity:0;" /><stop
         id="stop4315"
         offset="1"
         style="stop-color:#4c718a;stop-opacity:1;" /></linearGradient><linearGradient
       inkscape:collect="always"
       xlink:href="#linearGradient7158"
       id="linearGradient7160"
       x1="19.082533"
       y1="36.417122"
       x2="16.568007"
       y2="4.2080135"
       gradientUnits="userSpaceOnUse" /><filter
       inkscape:collect="always"
       style="color-interpolation-filters:sRGB"
       id="filter7174"
       x="-0.09539575"
       y="-0.082638172"
       width="1.1907915"
       height="1.1652763"><feGaussianBlur
         inkscape:collect="always"
         stdDeviation="0.50460525"
         id="feGaussianBlur7176" /></filter></defs><sodipodi:namedview
     id="base"
     pagecolor="#ffffff"
     bordercolor="#666666"
     borderopacity="1.0"
     inkscape:pageopacity="0.0"
     inkscape:pageshadow="2"
     inkscape:zoom="0.7"
     inkscape:cx="-89.285714"
     inkscape:cy="-78.571428"
     inkscape:document-units="mm"
     inkscape:current-layer="layer1"
     inkscape:document-rotation="0"
     showgrid="false"
     units="px"
     inkscape:window-width="1514"
     inkscape:window-height="941"
     inkscape:window-x="0"
     inkscape:window-y="0"
     inkscape:window-maximized="0"
     inkscape:showpageshadow="2"
     inkscape:pagecheckerboard="0"
     inkscape:deskcolor="#d1d1d1" /><metadata
     id="metadata1601"><rdf:RDF><cc:Work
         rdf:about=""><dc:format>image/svg+xml</dc:format><dc:type
           rdf:resource="http://purl.org/dc/dcmitype/StillImage" /></cc:Work></rdf:RDF></metadata><g
     inkscape:label="Capa 1"
     inkscape:groupmode="layer"
     id="layer1"><g
       style="opacity:0.295"
       transform="matrix(0.97573206,0,0,0.97573206,-65.634175,-37.209624)"
       id="g1702"><rect
         ry="6.6098609"
         rx="6.6098609"
         y="40.709618"
         x="69.839508"
         height="29.810888"
         width="29.810888"
         id="rect1634"
         style="fill:none;fill-opacity:1;stroke:#000000;stroke-width:0.1;stroke-linecap:round;stroke-linejoin:round;stroke-miterlimit:4;stroke-dasharray:none;stroke-opacity:0.02" /><rect
         style="fill:none;fill-opacity:1;stroke:#000000;stroke-width:0.2;stroke-linecap:round;stroke-linejoin:round;stroke-miterlimit:4;stroke-dasharray:none;stroke-opacity:0.02"
         id="rect1638"
         width="29.810888"
         height="29.810888"
         x="69.839508"
         y="40.709618"
         rx="6.6098609"
         ry="6.6098609" /><rect
         ry="6.6098609"
         rx="6.6098609"
         y="40.709618"
         x="69.839508"
         height="29.810888"
         width="29.810888"
         id="rect1640"
         style="fill:none;fill-opacity:1;stroke:#000000;stroke-width:0.3;stroke-linecap:round;stroke-linejoin:round;stroke-miterlimit:4;stroke-dasharray:none;stroke-opacity:0.02" /><rect
         style="fill:none;fill-opacity:1;stroke:#000000;stroke-width:0.4;stroke-linecap:round;stroke-linejoin:round;stroke-miterlimit:4;stroke-dasharray:none;stroke-opacity:0.02"
         id="rect1642"
         width="29.810888"
         height="29.810888"
         x="69.839508"
         y="40.709618"
         rx="6.6098609"
         ry="6.6098609" /><rect
         ry="6.6098609"
         rx="6.6098609"
         y="40.709618"
         x="69.839508"
         height="29.810888"
         width="29.810888"
         id="rect1644"
         style="fill:none;fill-opacity:1;stroke:#000000;stroke-width:0.5;stroke-linecap:round;stroke-linejoin:round;stroke-miterlimit:4;stroke-dasharray:none;stroke-opacity:0.02" /><rect
         style="fill:none;fill-opacity:1;stroke:#000000;stroke-width:0.6;stroke-linecap:round;stroke-linejoin:round;stroke-miterlimit:4;stroke-dasharray:none;stroke-opacity:0.02"
         id="rect1646"
         width="29.810888"
         height="29.810888"
         x="69.839508"
         y="40.709618"
         rx="6.6098609"
         ry="6.6098609" /><rect
         ry="6.6098609"
         rx="6.6098609"
         y="40.709618"
         x="69.839508"
         height="29.810888"
         width="29.810888"
         id="rect1648"
         style="fill:none;fill-opacity:1;stroke:#000000;stroke-width:0.7;stroke-linecap:round;stroke-linejoin:round;stroke-miterlimit:4;stroke-dasharray:none;stroke-opacity:0.02" /><rect
         style="fill:none;fill-opacity:1;stroke:#000000;stroke-width:0.8;stroke-linecap:round;stroke-linejoin:round;stroke-miterlimit:4;stroke-dasharray:none;stroke-opacity:0.02"
         id="rect1650"
         width="29.810888"
         height="29.810888"
         x="69.839508"
         y="40.709618"
         rx="6.6098609"
         ry="6.6098609" /><rect
         ry="6.6098609"
         rx="6.6098609"
         y="40.709618"
         x="69.839508"
         height="29.810888"
         width="29.810888"
         id="rect1652"
         style="fill:none;fill-opacity:1;stroke:#000000;stroke-width:1;stroke-linecap:round;stroke-linejoin:round;stroke-miterlimit:4;stroke-dasharray:none;stroke-opacity:0.02" /><rect
         style="fill:none;fill-opacity:1;stroke:#000000;stroke-width:1.2;stroke-linecap:round;stroke-linejoin:round;stroke-miterlimit:4;stroke-dasharray:none;stroke-opacity:0.02"
         id="rect1654"
         width="29.810888"
         height="29.810888"
         x="69.839508"
         y="40.709618"
         rx="6.6098609"
         ry="6.6098609" /><rect
         ry="6.6098609"
         rx="6.6098609"
         y="40.709618"
         x="69.839508"
         height="29.810888"
         width="29.810888"
         id="rect1656"
         style="fill:none;fill-opacity:1;stroke:#000000;stroke-width:1.4;stroke-linecap:round;stroke-linejoin:round;stroke-miterlimit:4;stroke-dasharray:none;stroke-opacity:0.02" /><rect
         style="fill:none;fill-opacity:1;stroke:#000000;stroke-width:1.6;stroke-linecap:round;stroke-linejoin:round;stroke-miterlimit:4;stroke-dasharray:none;stroke-opacity:0.02"
         id="rect1658"
         width="29.810888"
         height="29.810888"
         x="69.839508"
         y="40.709618"
         rx="6.6098609"
         ry="6.6098609" /><rect
         ry="6.6098609"
         rx="6.6098609"
         y="40.709618"
         x="69.839508"
         height="29.810888"
         width="29.810888"
         id="rect1660"
         style="fill:none;fill-opacity:1;stroke:#000000;stroke-width:1.8;stroke-linecap:round;stroke-linejoin:round;stroke-miterlimit:4;stroke-dasharray:none;stroke-opacity:0.02" /><rect
         style="fill:none;fill-opacity:1;stroke:#000000;stroke-width:2;stroke-linecap:round;stroke-linejoin:round;stroke-miterlimit:4;stroke-dasharray:none;stroke-opacity:0.02"
         id="rect1662"
         width="29.810888"
         height="29.810888"
         x="69.839508"
         y="40.709618"
         rx="6.6098609"
         ry="6.6098609" /><rect
         ry="6.6098609"
         rx="6.6098609"
         y="40.709618"
         x="69.839508"
         height="29.810888"
         width="29.810888"
         id="rect1664"
         style="fill:none;fill-opacity:1;stroke:#000000;stroke-width:2.2;stroke-linecap:round;stroke-linejoin:round;stroke-miterlimit:4;stroke-dasharray:none;stroke-opacity:0.02" /><rect
         style="fill:none;fill-opacity:1;stroke:#000000;stroke-width:2.6;stroke-linecap:round;stroke-linejoin:round;stroke-miterlimit:4;stroke-dasharray:none;stroke-opacity:0.02"
         id="rect1666"
         width="29.810888"
         height="29.810888"
         x="69.839508"
         y="40.709618"
         rx="6.6098609"
         ry="6.6098609" /><rect
         ry="6.6098609"
         rx="6.6098609"
         y="40.709618"
         x="69.839508"
         height="29.810888"
         width="29.810888"
         id="rect1668"
         style="fill:none;fill-opacity:1;stroke:#000000;stroke-width:3;stroke-linecap:round;stroke-linejoin:round;stroke-miterlimit:4;stroke-dasharray:none;stroke-opacity:0.02" /><rect
         style="fill:none;fill-opacity:1;stroke:#000000;stroke-width:3.4;stroke-linecap:round;stroke-linejoin:round;stroke-miterlimit:4;stroke-dasharray:none;stroke-opacity:0.02"
         id="rect1670"
         width="29.810888"
         height="29.810888"
         x="69.839508"
         y="40.709618"
         rx="6.6098609"
         ry="6.6098609" /><rect
         ry="6.6098609"
         rx="6.6098609"
         y="40.709618"
         x="69.839508"
         height="29.810888"
         width="29.810888"
         id="rect1672"
         style="fill:none;fill-opacity:1;stroke:#000000;stroke-width:3.8;stroke-linecap:round;stroke-linejoin:round;stroke-miterlimit:4;stroke-dasharray:none;stroke-opacity:0.02" /><rect
         style="fill:none;fill-opacity:1;stroke:#000000;stroke-width:4.2;stroke-linecap:round;stroke-linejoin:round;stroke-miterlimit:4;stroke-dasharray:none;stroke-opacity:0.02"
         id="rect1674"
         width="29.810888"
         height="29.810888"
         x="69.839508"
         y="40.709618"
         rx="6.6098609"
         ry="6.6098609" /><rect
         ry="6.6098609"
         rx="6.6098609"
         y="40.709618"
         x="69.839508"
         height="29.810888"
         width="29.810888"
         id="rect1676"
         style="fill:none;fill-opacity:1;stroke:#000000;stroke-width:4.6;stroke-linecap:round;stroke-linejoin:round;stroke-miterlimit:4;stroke-dasharray:none;stroke-opacity:0.02" /><rect
         style="fill:none;fill-opacity:1;stroke:#000000;stroke-width:5;stroke-linecap:round;stroke-linejoin:round;stroke-miterlimit:4;stroke-dasharray:none;stroke-opacity:0.02"
         id="rect1678"
         width="29.810888"
         height="29.810888"
         x="69.839508"
         y="40.709618"
         rx="6.6098609"
         ry="6.6098609" /></g><rect
       ry="6.4494534"
       rx="6.4494534"
       y="2.5120573"
       x="2.5104759"
       height="29.08744"
       width="29.08744"
       id="rect849"
       style="fill:url(#linearGradient4292);fill-opacity:1;stroke-width:2.68801;stroke-linecap:round;stroke-linejoin:round;stroke-miterlimit:4;stroke-dasharray:none" /><path
       sodipodi:nodetypes="sssssssss"
       d="M 8.9599285,6.6898257 H 24.304582 c 3.572997,0 6.449454,2.876456 6.449454,6.4494543 v 10.949856 c 0,3.572997 -2.876457,6.449454 -6.449454,6.449454 H 8.9599285 c -2.6808196,0 -6.4494533,-2.876457 -6.4494533,-6.449454 V 13.13928 c 0,-3.5729983 2.8764562,-6.4494543 6.4494533,-6.4494543 z"
       style="fill:url(#linearGradient4259);fill-opacity:1;stroke-width:2.68801;stroke-linecap:round;stroke-linejoin:round;stroke-miterlimit:4;stroke-dasharray:none"
       id="rect4247" /><path
       id="path4382"
       style="opacity:0.451759;fill:url(#linearGradient4390);fill-opacity:1;stroke-width:2.68801;stroke-linecap:round;stroke-linejoin:round;stroke-miterlimit:4;stroke-dasharray:none"
       d="M 8.9599285,6.6898257 H 24.304582 c 3.572997,0 6.449454,2.876456 6.449454,6.4494543 v 10.949856 c 0,3.572997 -2.876457,6.449454 -6.449454,6.449454 H 8.9599285 c -2.6808196,0 -6.4494533,-2.876457 -6.4494533,-6.449454 V 13.13928 c 0,-3.5729983 2.8764562,-6.4494543 6.4494533,-6.4494543 z"
       sodipodi:nodetypes="sssssssss" /><path
       sodipodi:nodetypes="cscsscccc"
       d="m 5.2038222,3.7312257 c -0.1333629,0.09195 -0.2628286,0.188924 -0.3886067,0.290421 -0.085241,0.06879 -0.1685547,0.139935 -0.2501138,0.212907 -1.2649177,1.176023 -2.0546552,2.855482 -2.0546552,4.726844 V 25.150073 c 0,2.489414 1.3971359,4.639011 3.4525026,5.714899 l 0.815454,-0.692465 C 4.6544552,29.603396 4.6470127,26.802946 4.6470127,22.808211 Z"
       style="fill:url(#linearGradient4223);fill-opacity:1;stroke-width:2.68801;stroke-linecap:round;stroke-linejoin:round;stroke-miterlimit:4;stroke-dasharray:none"
       id="rect4221" /><path
       sodipodi:nodetypes="scsssccssss"
       d="m 15.005291,2.5121788 c -0.813641,0 -1.482596,0.1506476 -2.032434,0.42323 H 7.0119804 c -1.3086743,0 -2.3621295,1.0539719 -2.3621295,2.3626459 V 25.851323 c 0,1.308675 1.7928404,2.36213 3.1015148,2.36213 l 17.4036933,0.0021 c 3.572996,0 6.449734,-2.876741 6.449734,-6.449738 V 8.9613977 c 0,-3.572997 -2.876738,-6.4492189 -6.449734,-6.4492189 z"
       style="fill:url(#linearGradient4327);fill-opacity:1;stroke-width:2.68801;stroke-linecap:round;stroke-linejoin:round;stroke-miterlimit:4;stroke-dasharray:none"
       id="rect4244" /><path
       id="path4311"
       style="fill:url(#linearGradient4319);fill-opacity:1;stroke-width:2.68801;stroke-linecap:round;stroke-linejoin:round;stroke-miterlimit:4;stroke-dasharray:none"
       d="m 5.2038222,3.7312257 c -0.1333629,0.09195 -0.2628286,0.188924 -0.3886067,0.290421 -0.085241,0.06879 -0.1685547,0.139935 -0.2501138,0.212907 -1.2649177,1.176023 -2.0546552,2.855482 -2.0546552,4.726844 V 25.150073 c 0,2.489414 1.3971359,4.639011 3.4525026,5.714899 L 7.2451775,30.200333 C 5.1212296,29.631223 4.6470127,26.802946 4.6470127,22.808211 Z"
       sodipodi:nodetypes="cscsscccc" /><path
       d="m 8.9601822,2.5121788 c -3.5729974,0 -6.4497357,2.8762219 -6.4497357,6.4492189 v 0.487308 c 0,-3.572997 2.8767383,-6.449735 6.4497357,-6.449735 H 25.148342 c 3.572996,0 6.449733,2.876738 6.449733,6.449735 v -0.487308 c 0,-3.572997 -2.876737,-6.4492189 -6.449733,-6.4492189 z"
       style="fill:#c2e3f1;fill-opacity:1;stroke-width:2.68801;stroke-linecap:round;stroke-linejoin:round;stroke-miterlimit:4;stroke-dasharray:none"
       id="rect4329" /><g
       style="opacity:0.346275"
       id="g4380"
       transform="translate(0.11421025,-0.00653055)"><path
         id="path4344"
         style="fill:#000000;fill-opacity:0.179389;stroke-width:10.1594;stroke-linecap:round;stroke-linejoin:round;stroke-miterlimit:4;stroke-dasharray:none"
         d="m 119.01953,81.693359 c 0,13.504241 -10.87271,24.376951 -24.376952,24.376951 l -65.777344,-0.008 c -4.946171,0 -11.722656,-3.98156 -11.722656,-8.927734 v 0.595703 c 0,4.946171 6.776485,8.927731 11.722656,8.927731 l 65.777344,0.008 c 13.504242,0 24.376952,-10.872717 24.376952,-24.376958 z"
         transform="scale(0.26458333)" /><path
         id="path4351"
         style="fill:#000000;fill-opacity:0.179389;stroke-width:10.1594;stroke-linecap:round;stroke-linejoin:round;stroke-miterlimit:4;stroke-dasharray:none"
         d="m 119.01953,81.169922 c 0,13.504241 -10.87271,24.376958 -24.376952,24.376958 l -65.777344,-0.008 c -4.946171,0 -11.722656,-3.98156 -11.722656,-8.927732 v 1.119141 c 0,4.946171 6.776485,8.927731 11.722656,8.927731 l 65.777344,0.008 c 13.504242,0 24.376952,-10.872717 24.376952,-24.376958 z"
         transform="scale(0.26458333)" /><path
         id="path4360"
         style="fill:#000000;fill-opacity:0.179389;stroke-width:10.1594;stroke-linecap:round;stroke-linejoin:round;stroke-miterlimit:4;stroke-dasharray:none"
         d="m 119.01953,80.683594 c 0,13.50424 -10.87271,24.376956 -24.376952,24.376956 l -65.777344,-0.008 c -4.946171,0 -11.722656,-3.98156 -11.722656,-8.92773 v 1.605469 c 0,4.946171 6.776485,8.927731 11.722656,8.927731 l 65.777344,0.008 c 13.504242,0 24.376952,-10.872717 24.376952,-24.376958 z"
         transform="scale(0.26458333)" /><path
         id="path4365"
         style="fill:#000000;fill-opacity:0.179389;stroke-width:10.1594;stroke-linecap:round;stroke-linejoin:round;stroke-miterlimit:4;stroke-dasharray:none"
         d="m 119.01953,80.232422 c 0,13.504241 -10.87271,24.376958 -24.376952,24.376958 l -65.777344,-0.008 c -4.946171,0 -11.722656,-3.98156 -11.722656,-8.927732 v 2.056641 c 0,4.946171 6.776485,8.927731 11.722656,8.927731 l 65.777344,0.008 c 13.504242,0 24.376952,-10.872717 24.376952,-24.376958 z"
         transform="scale(0.26458333)" /><path
         id="path4370"
         style="fill:#000000;fill-opacity:0.268833;stroke-width:10.1594;stroke-linecap:round;stroke-linejoin:round;stroke-miterlimit:4;stroke-dasharray:none"
         d="m 119.01953,79.527344 c 0,13.50424 -10.87271,24.376956 -24.376952,24.376956 l -65.777344,-0.008 c -4.946171,0 -11.722656,-3.981557 -11.722656,-8.92773 v 2.761719 c 0,4.946171 6.776485,8.927731 11.722656,8.927731 l 65.777344,0.008 c 13.504242,0 24.376952,-10.872717 24.376952,-24.376958 z"
         transform="scale(0.26458333)" /></g><path
       style="fill:#00001d;fill-opacity:0.306446;stroke-width:0.0284744;filter:url(#filter7174);opacity:0.4562854"
       d="m 18.679364,23.139095 c -0.108572,-0.04953 -0.302925,-0.268525 -0.468055,-0.527412 -0.390307,-0.611911 -0.398644,-0.819371 -0.03482,-0.866532 0.476279,-0.06174 1.204001,-0.296655 1.704939,-0.550368 0.580423,-0.293972 0.965032,-0.580645 1.339992,-0.998783 0.544109,-0.606765 0.831949,-1.398732 0.789957,-2.173498 -0.03266,-0.60262 -0.253698,-1.133737 -0.658686,-1.582725 -0.30291,-0.33582 -1.000824,-0.75594 -1.130605,-0.680586 -0.0258,0.01497 -0.159399,0.258279 -0.296898,0.540672 -0.633252,1.300561 -1.341397,2.293869 -2.468852,3.463028 -0.572556,0.593736 -0.54777,0.533736 -0.412054,0.997448 0.04628,0.158129 0.09181,0.359699 0.101185,0.447933 0.01534,0.144442 0.0097,0.169441 -0.05637,0.250944 -0.07911,0.09754 -0.462389,0.315369 -0.75813,0.430862 -0.374224,0.146143 -0.514611,0.08264 -0.74841,-0.338518 -0.118244,-0.213004 -0.142081,-0.210469 -0.562494,0.0598 -0.85044,0.546717 -1.993062,0.639752 -2.811685,0.228934 -0.194188,-0.09745 -0.28324,-0.166889 -0.49261,-0.384114 -0.21708,-0.225225 -0.274912,-0.306517 -0.383997,-0.539772 -0.173627,-0.37126 -0.242367,-0.676225 -0.261296,-1.159225 -0.04196,-1.070716 0.372509,-2.182664 1.204166,-3.230558 0.57665,-0.726584 1.301502,-1.339657 2.098133,-1.774581 0.19465,-0.106271 0.372442,-0.222564 0.395092,-0.258429 0.04089,-0.06474 0.0474,-0.133054 0.127973,-1.341252 0.0307,-0.460296 0.02956,-0.50732 -0.01325,-0.551738 -0.05051,-0.0524 0.01458,-0.04734 -1.780234,-0.138441 -0.936939,-0.04756 -1.118993,-0.07034 -1.230017,-0.153953 -0.152874,-0.115124 -0.171241,-0.202932 -0.162109,-0.774934 0.0094,-0.589448 0.0266,-0.648707 0.211403,-0.728819 0.08581,-0.0372 0.155331,-0.03902 0.466071,-0.01219 0.995619,0.08597 2.5126,0.153868 2.606885,0.116677 0.03609,-0.01424 0.07841,-0.0608 0.09405,-0.103467 0.03312,-0.09038 0.15193,-1.0916227 0.194645,-1.6403077 0.04626,-0.594204 0.09711,-0.647639 0.614571,-0.645823 0.485941,0.0017 0.97026,0.15037 1.155383,0.354651 0.121204,0.133748 0.120307,0.239361 -0.0082,0.963889 -0.130638,0.7365687 -0.14845,0.9439557 -0.0849,0.9884677 0.05069,0.03551 0.28416,0.01906 1.080869,-0.07616 1.092377,-0.130555 2.23097,-0.337018 3.138513,-0.569115 0.630121,-0.161148 0.783054,-0.137172 0.901814,0.141377 0.120551,0.282748 0.09262,1.033169 -0.0497,1.33545 -0.119239,0.253256 -0.281056,0.322938 -1.056314,0.454874 -0.788943,0.134266 -2.086487,0.24983 -3.442106,0.306566 -0.837526,0.03505 -0.898552,0.0432 -0.94906,0.126672 -0.03761,0.06215 -0.155981,1.098212 -0.155444,1.360547 2e-4,0.09873 0.01286,0.143683 0.04393,0.156052 0.024,0.0096 0.234712,-0.0067 0.468245,-0.03609 0.534271,-0.06728 1.622039,-0.07509 2.068614,-0.01486 0.361057,0.04869 0.32884,0.06888 0.534961,-0.33523 0.219144,-0.429647 0.277666,-0.440413 0.843641,-0.155209 0.352636,0.177698 0.444959,0.277351 0.415298,0.448271 -0.0112,0.06459 -0.02196,0.174018 -0.0239,0.243179 l -0.0035,0.125748 0.322425,0.110009 c 0.782416,0.266956 1.383753,0.712898 1.873062,1.389032 0.542191,0.749207 0.794184,1.549691 0.791102,2.513009 -0.0033,1.023341 -0.294438,1.838736 -0.947641,2.653839 -0.829969,1.035683 -2.098552,1.791457 -3.506582,2.089091 -0.454113,0.09599 -0.509789,0.100034 -0.628986,0.04567 z m -4.556656,-2.822571 c 0.20582,-0.0557 0.728636,-0.3301 0.852399,-0.447381 0.10304,-0.09764 0.103925,-0.05523 -0.01282,-0.614254 -0.131778,-0.631016 -0.236861,-1.725213 -0.238659,-2.485089 -7.29e-4,-0.307753 -0.01565,-0.394991 -0.07134,-0.417164 -0.125902,-0.05013 -0.992643,0.786597 -1.33346,1.287275 -0.570733,0.838438 -0.738862,1.586919 -0.485459,2.161188 0.217218,0.492271 0.684561,0.679095 1.289341,0.515425 z m 2.770913,-2.161797 c 0.709385,-0.756582 1.364242,-1.690985 1.689003,-2.410008 0.143997,-0.318811 0.144946,-0.38594 0.0059,-0.41654 -0.158536,-0.03489 -1.023382,-0.02429 -1.292916,0.01585 -0.475771,0.07084 -0.814901,0.156146 -0.891116,0.224158 -0.07267,0.06484 -0.07342,0.06971 -0.08337,0.537874 -0.01548,0.728242 0.08117,2.230719 0.151039,2.348009 0.04207,0.07062 0.139422,0.0015 0.421474,-0.299343 z"
       id="path7162" /><path
       style="fill:url(#linearGradient7160);stroke-width:0.0284744;fill-opacity:1"
       d="m 18.428277,22.957175 c -0.108572,-0.04953 -0.302925,-0.268525 -0.468055,-0.527412 -0.390307,-0.611911 -0.398644,-0.819371 -0.03482,-0.866532 0.476279,-0.06174 1.204001,-0.296655 1.704939,-0.550368 0.580423,-0.293972 0.965032,-0.580645 1.339992,-0.998783 0.544109,-0.606765 0.831949,-1.398732 0.789957,-2.173498 -0.03266,-0.60262 -0.253698,-1.133737 -0.658686,-1.582725 -0.30291,-0.33582 -1.000824,-0.75594 -1.130605,-0.680586 -0.0258,0.01497 -0.159399,0.258279 -0.296898,0.540672 -0.633252,1.300561 -1.341397,2.293869 -2.468852,3.463028 -0.572556,0.593736 -0.54777,0.533736 -0.412054,0.997448 0.04628,0.158129 0.09181,0.359699 0.101185,0.447933 0.01534,0.144442 0.0097,0.169441 -0.05637,0.250944 -0.07911,0.09754 -0.462389,0.315369 -0.75813,0.430862 -0.374224,0.146143 -0.514611,0.08264 -0.74841,-0.338518 -0.118244,-0.213004 -0.142081,-0.210469 -0.562494,0.0598 -0.85044,0.546717 -1.993062,0.639752 -2.811685,0.228934 -0.194188,-0.09745 -0.28324,-0.166889 -0.49261,-0.384114 -0.21708,-0.225225 -0.274912,-0.306517 -0.383997,-0.539772 -0.173627,-0.37126 -0.242367,-0.676225 -0.261296,-1.159225 -0.04196,-1.070716 0.372509,-2.182664 1.204166,-3.230558 0.57665,-0.726584 1.301502,-1.339657 2.098133,-1.774581 0.19465,-0.106271 0.372442,-0.222564 0.395092,-0.258429 0.04089,-0.06474 0.0474,-0.133054 0.127973,-1.341252 0.0307,-0.460296 0.02956,-0.50732 -0.01325,-0.551738 -0.05051,-0.0524 0.01458,-0.04734 -1.780234,-0.138441 -0.936939,-0.04756 -1.118993,-0.07034 -1.230017,-0.153953 -0.152874,-0.115124 -0.171241,-0.202932 -0.162109,-0.774934 0.0094,-0.589448 0.0266,-0.648707 0.211403,-0.728819 0.08581,-0.0372 0.155331,-0.03902 0.466071,-0.01219 0.995619,0.08597 2.5126,0.153868 2.606885,0.116677 0.03609,-0.01424 0.07841,-0.0608 0.09405,-0.103467 0.03312,-0.09038 0.15193,-1.0916226 0.194645,-1.6403076 0.04626,-0.5942042 0.09711,-0.647639 0.614571,-0.6458231 0.485941,0.00174 0.97026,0.1503699 1.155383,0.3546511 0.121204,0.133748 0.120307,0.239361 -0.0082,0.963889 -0.130638,0.7365686 -0.14845,0.9439556 -0.0849,0.9884676 0.05069,0.03551 0.28416,0.01906 1.080869,-0.07616 1.092377,-0.130555 2.23097,-0.337018 3.138513,-0.5691146 0.630121,-0.161148 0.783054,-0.137172 0.901814,0.1413766 0.120551,0.282748 0.09262,1.033169 -0.0497,1.33545 -0.119239,0.253256 -0.281056,0.322938 -1.056314,0.454874 -0.788943,0.134266 -2.086487,0.24983 -3.442106,0.306566 -0.837526,0.03505 -0.898552,0.0432 -0.94906,0.126672 -0.03761,0.06215 -0.155981,1.098212 -0.155444,1.360547 2e-4,0.09873 0.01286,0.143683 0.04393,0.156052 0.024,0.0096 0.234712,-0.0067 0.468245,-0.03609 0.534271,-0.06728 1.622039,-0.07509 2.068614,-0.01486 0.361057,0.04869 0.32884,0.06888 0.534961,-0.33523 0.219144,-0.429647 0.277666,-0.440413 0.843641,-0.155209 0.352636,0.177698 0.444959,0.277351 0.415298,0.448271 -0.0112,0.06459 -0.02196,0.174018 -0.0239,0.243179 l -0.0035,0.125748 0.322425,0.110009 c 0.782416,0.266956 1.383753,0.712898 1.873062,1.389032 0.542191,0.749207 0.794184,1.549691 0.791102,2.513009 -0.0033,1.023341 -0.294438,1.838736 -0.947641,2.653839 -0.829969,1.035683 -2.098552,1.791457 -3.506582,2.089091 -0.454113,0.09599 -0.509789,0.100034 -0.628986,0.04567 z m -4.556656,-2.822571 c 0.20582,-0.0557 0.728636,-0.3301 0.852399,-0.447381 0.10304,-0.09764 0.103925,-0.05523 -0.01282,-0.614254 -0.131778,-0.631016 -0.236861,-1.725213 -0.238659,-2.485089 -7.29e-4,-0.307753 -0.01565,-0.394991 -0.07134,-0.417164 -0.125902,-0.05013 -0.992643,0.786597 -1.33346,1.287275 -0.570733,0.838438 -0.738862,1.586919 -0.485459,2.161188 0.217218,0.492271 0.684561,0.679095 1.289341,0.515425 z m 2.770913,-2.161797 c 0.709385,-0.756582 1.364242,-1.690985 1.689003,-2.410008 0.143997,-0.318811 0.144946,-0.38594 0.0059,-0.41654 -0.158536,-0.03489 -1.023382,-0.02429 -1.292916,0.01585 -0.475771,0.07084 -0.814901,0.156146 -0.891116,0.224158 -0.07267,0.06484 -0.07342,0.06971 -0.08337,0.537874 -0.01548,0.728242 0.08117,2.230719 0.151039,2.348009 0.04207,0.07062 0.139422,0.0015 0.421474,-0.299343 z"
       id="path6807" /></g></svg>
