<?xml version="1.0" encoding="UTF-8" standalone="no"?>
<svg
   width="128"
   height="128"
   viewBox="0 0 33.866666 33.866668"
   version="1.1"
   id="svg1312"
   inkscape:version="1.2.2 (b0a8486541, 2022-12-01)"
   sodipodi:docname="moonlighter.svg"
   xmlns:inkscape="http://www.inkscape.org/namespaces/inkscape"
   xmlns:sodipodi="http://sodipodi.sourceforge.net/DTD/sodipodi-0.dtd"
   xmlns:xlink="http://www.w3.org/1999/xlink"
   xmlns="http://www.w3.org/2000/svg"
   xmlns:svg="http://www.w3.org/2000/svg"
   xmlns:rdf="http://www.w3.org/1999/02/22-rdf-syntax-ns#"
   xmlns:cc="http://creativecommons.org/ns#"
   xmlns:dc="http://purl.org/dc/elements/1.1/">
  <defs
     id="defs1306">
    <linearGradient
       gradientTransform="matrix(0.97573206,0,0,0.97573206,-111.74204,-37.237124)"
       gradientUnits="userSpaceOnUse"
       y2="70.679932"
       x2="132.21078"
       y1="42.151531"
       x1="132.21078"
       id="linearGradient1632"
       xlink:href="#linearGradient1630"
       inkscape:collect="always" />
    <linearGradient
       id="linearGradient1630"
       inkscape:collect="always">
      <stop
         id="stop1626"
         offset="0"
         style="stop-color:#affcaf;stop-opacity:1" />
      <stop
         id="stop1628"
         offset="1"
         style="stop-color:#118585;stop-opacity:1" />
    </linearGradient>
  </defs>
  <sodipodi:namedview
     id="base"
     pagecolor="#ffffff"
     bordercolor="#666666"
     borderopacity="1.0"
     inkscape:pageopacity="0.0"
     inkscape:pageshadow="2"
     inkscape:zoom="2.8"
     inkscape:cx="60.714286"
     inkscape:cy="48.392857"
     inkscape:document-units="mm"
     inkscape:current-layer="layer1"
     inkscape:document-rotation="0"
     showgrid="false"
     units="px"
     inkscape:window-width="1507"
     inkscape:window-height="1056"
     inkscape:window-x="0"
     inkscape:window-y="0"
     inkscape:window-maximized="0"
     inkscape:showpageshadow="2"
     inkscape:pagecheckerboard="0"
     inkscape:deskcolor="#d1d1d1" />
  <metadata
     id="metadata1309">
    <rdf:RDF>
      <cc:Work
         rdf:about="">
        <dc:format>image/svg+xml</dc:format>
        <dc:type
           rdf:resource="http://purl.org/dc/dcmitype/StillImage" />
      </cc:Work>
    </rdf:RDF>
  </metadata>
  <g
     inkscape:label="Capa 1"
     inkscape:groupmode="layer"
     id="layer1">
    <g
       style="opacity:0.295"
       transform="matrix(0.97573206,0,0,0.97573206,-65.714103,-37.237124)"
       id="g1702">
      <rect
         ry="6.6098609"
         rx="6.6098609"
         y="40.709618"
         x="69.839508"
         height="29.810888"
         width="29.810888"
         id="rect1634"
         style="fill:none;fill-opacity:1;stroke:#000000;stroke-width:0.1;stroke-linecap:round;stroke-linejoin:round;stroke-miterlimit:4;stroke-dasharray:none;stroke-opacity:0.02" />
      <rect
         style="fill:none;fill-opacity:1;stroke:#000000;stroke-width:0.2;stroke-linecap:round;stroke-linejoin:round;stroke-miterlimit:4;stroke-dasharray:none;stroke-opacity:0.02"
         id="rect1638"
         width="29.810888"
         height="29.810888"
         x="69.839508"
         y="40.709618"
         rx="6.6098609"
         ry="6.6098609" />
      <rect
         ry="6.6098609"
         rx="6.6098609"
         y="40.709618"
         x="69.839508"
         height="29.810888"
         width="29.810888"
         id="rect1640"
         style="fill:none;fill-opacity:1;stroke:#000000;stroke-width:0.3;stroke-linecap:round;stroke-linejoin:round;stroke-miterlimit:4;stroke-dasharray:none;stroke-opacity:0.02" />
      <rect
         style="fill:none;fill-opacity:1;stroke:#000000;stroke-width:0.4;stroke-linecap:round;stroke-linejoin:round;stroke-miterlimit:4;stroke-dasharray:none;stroke-opacity:0.02"
         id="rect1642"
         width="29.810888"
         height="29.810888"
         x="69.839508"
         y="40.709618"
         rx="6.6098609"
         ry="6.6098609" />
      <rect
         ry="6.6098609"
         rx="6.6098609"
         y="40.709618"
         x="69.839508"
         height="29.810888"
         width="29.810888"
         id="rect1644"
         style="fill:none;fill-opacity:1;stroke:#000000;stroke-width:0.5;stroke-linecap:round;stroke-linejoin:round;stroke-miterlimit:4;stroke-dasharray:none;stroke-opacity:0.02" />
      <rect
         style="fill:none;fill-opacity:1;stroke:#000000;stroke-width:0.6;stroke-linecap:round;stroke-linejoin:round;stroke-miterlimit:4;stroke-dasharray:none;stroke-opacity:0.02"
         id="rect1646"
         width="29.810888"
         height="29.810888"
         x="69.839508"
         y="40.709618"
         rx="6.6098609"
         ry="6.6098609" />
      <rect
         ry="6.6098609"
         rx="6.6098609"
         y="40.709618"
         x="69.839508"
         height="29.810888"
         width="29.810888"
         id="rect1648"
         style="fill:none;fill-opacity:1;stroke:#000000;stroke-width:0.7;stroke-linecap:round;stroke-linejoin:round;stroke-miterlimit:4;stroke-dasharray:none;stroke-opacity:0.02" />
      <rect
         style="fill:none;fill-opacity:1;stroke:#000000;stroke-width:0.8;stroke-linecap:round;stroke-linejoin:round;stroke-miterlimit:4;stroke-dasharray:none;stroke-opacity:0.02"
         id="rect1650"
         width="29.810888"
         height="29.810888"
         x="69.839508"
         y="40.709618"
         rx="6.6098609"
         ry="6.6098609" />
      <rect
         ry="6.6098609"
         rx="6.6098609"
         y="40.709618"
         x="69.839508"
         height="29.810888"
         width="29.810888"
         id="rect1652"
         style="fill:none;fill-opacity:1;stroke:#000000;stroke-width:1;stroke-linecap:round;stroke-linejoin:round;stroke-miterlimit:4;stroke-dasharray:none;stroke-opacity:0.02" />
      <rect
         style="fill:none;fill-opacity:1;stroke:#000000;stroke-width:1.2;stroke-linecap:round;stroke-linejoin:round;stroke-miterlimit:4;stroke-dasharray:none;stroke-opacity:0.02"
         id="rect1654"
         width="29.810888"
         height="29.810888"
         x="69.839508"
         y="40.709618"
         rx="6.6098609"
         ry="6.6098609" />
      <rect
         ry="6.6098609"
         rx="6.6098609"
         y="40.709618"
         x="69.839508"
         height="29.810888"
         width="29.810888"
         id="rect1656"
         style="fill:none;fill-opacity:1;stroke:#000000;stroke-width:1.4;stroke-linecap:round;stroke-linejoin:round;stroke-miterlimit:4;stroke-dasharray:none;stroke-opacity:0.02" />
      <rect
         style="fill:none;fill-opacity:1;stroke:#000000;stroke-width:1.6;stroke-linecap:round;stroke-linejoin:round;stroke-miterlimit:4;stroke-dasharray:none;stroke-opacity:0.02"
         id="rect1658"
         width="29.810888"
         height="29.810888"
         x="69.839508"
         y="40.709618"
         rx="6.6098609"
         ry="6.6098609" />
      <rect
         ry="6.6098609"
         rx="6.6098609"
         y="40.709618"
         x="69.839508"
         height="29.810888"
         width="29.810888"
         id="rect1660"
         style="fill:none;fill-opacity:1;stroke:#000000;stroke-width:1.8;stroke-linecap:round;stroke-linejoin:round;stroke-miterlimit:4;stroke-dasharray:none;stroke-opacity:0.02" />
      <rect
         style="fill:none;fill-opacity:1;stroke:#000000;stroke-width:2;stroke-linecap:round;stroke-linejoin:round;stroke-miterlimit:4;stroke-dasharray:none;stroke-opacity:0.02"
         id="rect1662"
         width="29.810888"
         height="29.810888"
         x="69.839508"
         y="40.709618"
         rx="6.6098609"
         ry="6.6098609" />
      <rect
         ry="6.6098609"
         rx="6.6098609"
         y="40.709618"
         x="69.839508"
         height="29.810888"
         width="29.810888"
         id="rect1664"
         style="fill:none;fill-opacity:1;stroke:#000000;stroke-width:2.2;stroke-linecap:round;stroke-linejoin:round;stroke-miterlimit:4;stroke-dasharray:none;stroke-opacity:0.02" />
      <rect
         style="fill:none;fill-opacity:1;stroke:#000000;stroke-width:2.6;stroke-linecap:round;stroke-linejoin:round;stroke-miterlimit:4;stroke-dasharray:none;stroke-opacity:0.02"
         id="rect1666"
         width="29.810888"
         height="29.810888"
         x="69.839508"
         y="40.709618"
         rx="6.6098609"
         ry="6.6098609" />
      <rect
         ry="6.6098609"
         rx="6.6098609"
         y="40.709618"
         x="69.839508"
         height="29.810888"
         width="29.810888"
         id="rect1668"
         style="fill:none;fill-opacity:1;stroke:#000000;stroke-width:3;stroke-linecap:round;stroke-linejoin:round;stroke-miterlimit:4;stroke-dasharray:none;stroke-opacity:0.02" />
      <rect
         style="fill:none;fill-opacity:1;stroke:#000000;stroke-width:3.4;stroke-linecap:round;stroke-linejoin:round;stroke-miterlimit:4;stroke-dasharray:none;stroke-opacity:0.02"
         id="rect1670"
         width="29.810888"
         height="29.810888"
         x="69.839508"
         y="40.709618"
         rx="6.6098609"
         ry="6.6098609" />
      <rect
         ry="6.6098609"
         rx="6.6098609"
         y="40.709618"
         x="69.839508"
         height="29.810888"
         width="29.810888"
         id="rect1672"
         style="fill:none;fill-opacity:1;stroke:#000000;stroke-width:3.8;stroke-linecap:round;stroke-linejoin:round;stroke-miterlimit:4;stroke-dasharray:none;stroke-opacity:0.02" />
      <rect
         style="fill:none;fill-opacity:1;stroke:#000000;stroke-width:4.2;stroke-linecap:round;stroke-linejoin:round;stroke-miterlimit:4;stroke-dasharray:none;stroke-opacity:0.02"
         id="rect1674"
         width="29.810888"
         height="29.810888"
         x="69.839508"
         y="40.709618"
         rx="6.6098609"
         ry="6.6098609" />
      <rect
         ry="6.6098609"
         rx="6.6098609"
         y="40.709618"
         x="69.839508"
         height="29.810888"
         width="29.810888"
         id="rect1676"
         style="fill:none;fill-opacity:1;stroke:#000000;stroke-width:4.6;stroke-linecap:round;stroke-linejoin:round;stroke-miterlimit:4;stroke-dasharray:none;stroke-opacity:0.02" />
      <rect
         style="fill:none;fill-opacity:1;stroke:#000000;stroke-width:5;stroke-linecap:round;stroke-linejoin:round;stroke-miterlimit:4;stroke-dasharray:none;stroke-opacity:0.02"
         id="rect1678"
         width="29.810888"
         height="29.810888"
         x="69.839508"
         y="40.709618"
         rx="6.6098609"
         ry="6.6098609" />
    </g>
    <rect
       ry="6.4494534"
       rx="6.4494534"
       y="2.4845543"
       x="2.4305434"
       height="29.087439"
       width="29.087439"
       id="rect849"
       style="fill:url(#linearGradient1632);fill-opacity:1;stroke-width:2.68768;stroke-linecap:round;stroke-linejoin:round" />
    <path
       style="opacity:0.2;stroke-width:0.485607"
       d="m 13.65907,7.4035315 v 0.4856072 h -0.971215 v 2.4280363 h 0.971215 v 0.485608 h 0.485608 v 0.971215 0.971215 H 15.6015 V 17.11568 H 14.144678 V 16.144465 H 13.65907 V 13.716427 H 12.687855 V 12.259604 H 12.202249 V 11.288391 H 10.745426 V 10.802783 H 8.8029961 v 0.485608 H 7.8317815 v 0.971213 H 7.3461741 v 1.942432 h 0.4856074 v 0.485606 h 2.9136445 v 1.456823 H 8.3173887 V 17.11568 H 7.3461741 v 1.942429 h 0.9712146 v 0.485607 h 2.4280373 v 0.971216 h 0.485607 v 2.428036 h -0.485607 v 0.485607 h 0.485607 v 0.971216 h 0.971216 v 0.971213 0.485609 0.485607 h 0.485606 v 0.971215 h 0.971215 v 0.485607 h 3.399252 3.399251 v -0.485607 h 0.971215 V 26.34222 h 0.485607 v -0.485607 -0.485609 -0.971213 h 0.971216 v -0.971216 h 0.485606 v -0.485607 h -0.485606 v -2.428036 h 0.485606 v -0.971216 h 2.428038 v -0.485607 h 0.971216 V 17.11568 h -0.971216 v -0.971215 h -2.428038 v -1.456823 h 2.913645 v -0.485606 h 0.485609 v -1.942432 h -0.485609 v -0.971213 h -0.971213 v -0.485608 h -1.942432 v 0.485608 h -1.456822 v 0.971213 h -0.485607 v 1.456823 h -0.971215 v 2.428038 h -0.485607 v 0.971215 h -1.456822 v -4.370467 h 1.456822 v -0.971215 -0.971215 h 0.485607 v -0.485608 h 0.971215 V 7.8891387 H 20.457573 V 7.4035315 H 18.515144 V 8.3747461 H 17.543929 V 8.8603532 H 17.058322 16.572716 V 8.3747461 H 15.6015 V 7.4035315 Z M 15.6015,20.029325 h 1.456822 1.456822 v 0.971213 h 0.485607 v 1.94243 h -0.485607 v 0.971215 H 17.058322 15.6015 v -0.971215 h -0.485607 v -1.94243 H 15.6015 Z"
       id="path6" />
    <path
       style="fill:#ffffff;stroke-width:0.485607"
       d="m 13.65907,6.917924 v 0.4856075 h -0.971215 v 2.4280367 h 0.971215 v 0.4856068 h 0.485608 v 0.971216 0.971213 H 15.6015 v 4.370467 H 14.144678 V 15.658858 H 13.65907 V 13.23082 H 12.687855 V 11.773998 H 12.202249 V 10.802783 H 10.745426 V 10.317175 H 8.8029961 v 0.485608 H 7.8317815 v 0.971215 H 7.3461741 v 1.942429 h 0.4856074 v 0.485609 h 2.9136445 v 1.456822 H 8.3173887 v 0.971213 H 7.3461741 v 1.942432 h 0.9712146 v 0.485606 h 2.4280373 v 0.971216 h 0.485607 v 2.428036 h -0.485607 v 0.485607 h 0.485607 v 0.971215 h 0.971216 v 0.971214 0.485607 0.485609 h 0.485606 v 0.971213 h 0.971215 v 0.485609 h 3.399252 3.399251 v -0.485609 h 0.971215 v -0.971213 h 0.485607 v -0.485609 -0.485607 -0.971214 h 0.971216 v -0.971215 h 0.485606 v -0.485607 h -0.485606 v -2.428036 h 0.485606 v -0.971216 h 2.428038 v -0.485606 h 0.971216 v -1.942432 h -0.971216 v -0.971213 h -2.428038 v -1.456822 h 2.913645 v -0.485609 h 0.485609 v -1.942429 h -0.485609 v -0.971215 h -0.971213 v -0.485608 h -1.942432 v 0.485608 h -1.456822 v 0.971215 h -0.485607 v 1.456822 h -0.971215 v 2.428038 h -0.485607 v 0.971213 h -1.456822 v -4.370467 h 1.456822 v -0.971213 -0.971216 h 0.485607 V 9.8315682 h 0.971215 V 7.4035315 H 20.457573 V 6.917924 H 18.515144 V 7.8891387 H 17.543929 V 8.3747461 H 17.058322 16.572716 V 7.8891387 H 15.6015 V 6.917924 Z m 1.94243,12.625792 h 1.456822 1.456822 v 0.971216 h 0.485607 v 1.942429 h -0.485607 v 0.971214 H 17.058322 15.6015 V 22.457361 H 15.115893 V 20.514932 H 15.6015 Z"
       id="path8" />
  </g>
</svg>
