<svg height="32" width="32" xmlns="http://www.w3.org/2000/svg" xmlns:xlink="http://www.w3.org/1999/xlink">
  <filter id="a" color-interpolation-filters="sRGB" height="1.444" width="1.444" x="-.22201" y="-.22199">
    <feGaussianBlur stdDeviation="1.2025347"/>
  </filter>
  <path d="m12.812 10.013c-.4584.0875-.82072.5334-.8125 1v2h-2c-.52358.00005-.99995.47642-1 1v5c.00005.52358.47642.99995 1 1h2v2c.00005.52358.47642.99995 1 1h5c.52358-.00005.99995-.47642 1-1v-2h2c.52358-.00005.99995-.47642 1-1v-5c-.00005-.52358-.47642-.99995-1-1h-2v-2c-.00005-.52358-.47642-.99995-1-1h-5c-.0312-.001-.0625-.001-.0937 0-.0312-.001-.0625-.001-.0937 0z" filter="url(#a)" opacity=".2"/>
  <path d="m12.812 9.0128c-.4584.0875-.82072.5334-.8125 1v2h-2c-.52358.00005-.99995.47642-1 1v5c.00005.52358.47642.99995 1 1h2v2c.00005.52358.47642.99995 1 1h5c.52358-.00005.99995-.47642 1-1v-2h2c.52358-.00005.99995-.47642 1-1v-5c-.00005-.52358-.47642-.99995-1-1h-2v-2c-.00005-.52358-.47642-.99995-1-1h-5c-.0312-.001-.0625-.001-.0937 0-.0312-.001-.0625-.001-.0937 0z" fill="#d8dee9"/>
  <path d="m13 10.013v3h-3v5h3v3h5v-3h3v-5h-3v-3z" fill="#3b4252"/>
</svg>
