<?xml version="1.0" encoding="UTF-8"?>
<svg width="24px" height="24px" viewBox="0 0 24 24" version="1.1" xmlns="http://www.w3.org/2000/svg" xmlns:xlink="http://www.w3.org/1999/xlink">
    <title>apps/24/dde-calendar</title>
    <defs>
        <filter x="-7.0%" y="-7.0%" width="114.0%" height="118.6%" filterUnits="objectBoundingBox" id="filter-1">
            <feOffset dx="0" dy="0" in="SourceAlpha" result="shadowOffsetOuter1"></feOffset>
            <feGaussianBlur stdDeviation="0.5" in="shadowOffsetOuter1" result="shadowBlurOuter1"></feGaussianBlur>
            <feColorMatrix values="0 0 0 0 0   0 0 0 0 0   0 0 0 0 0  0 0 0 0.15 0" type="matrix" in="shadowBlurOuter1" result="shadowMatrixOuter1"></feColorMatrix>
            <feMerge>
                <feMergeNode in="shadowMatrixOuter1"></feMergeNode>
                <feMergeNode in="SourceGraphic"></feMergeNode>
            </feMerge>
        </filter>
        <radialGradient cx="54.3240802%" cy="55.7793187%" fx="54.3240802%" fy="55.7793187%" r="59.6161702%" gradientTransform="translate(0.5432, 0.5578), rotate(-148.2897), scale(1, 1.2647), translate(-0.5432, -0.5578)" id="radialGradient-2">
            <stop stop-color="#000000" offset="0%"></stop>
            <stop stop-color="#000000" stop-opacity="0.148218969" offset="100%"></stop>
        </radialGradient>
        <linearGradient x1="71.7727859%" y1="71.0965544%" x2="57.6945865%" y2="57.7013487%" id="linearGradient-3">
            <stop stop-color="#C6C6C6" offset="0%"></stop>
            <stop stop-color="#E7E7E7" offset="53.0517663%"></stop>
            <stop stop-color="#F4F4F4" offset="100%"></stop>
        </linearGradient>
        <path d="M20.4709233,13.6561002 C20.4709233,13.6561002 20.3156151,15.0699664 19.9841502,15.6031925 C19.459348,16.4474395 18.7672175,16.1736297 18.0370579,17.0635117 C17.3068983,17.9533938 17.6719781,18.5618601 16.5767386,19.4973771 C15.9897963,19.9987237 14.1428732,20.4709233 14.1428732,20.4709233 C18.6835534,20.4709233 20.4709233,16.0975714 20.4709233,13.6561002 Z" id="path-4"></path>
        <filter x="-31.6%" y="-14.7%" width="163.2%" height="158.7%" filterUnits="objectBoundingBox" id="filter-5">
            <feOffset dx="0" dy="1" in="SourceAlpha" result="shadowOffsetOuter1"></feOffset>
            <feGaussianBlur stdDeviation="0.5" in="shadowOffsetOuter1" result="shadowBlurOuter1"></feGaussianBlur>
            <feColorMatrix values="0 0 0 0 0   0 0 0 0 0   0 0 0 0 0  0 0 0 0.05 0" type="matrix" in="shadowBlurOuter1"></feColorMatrix>
        </filter>
    </defs>
    <g id="apps/24/dde-calendar" stroke="none" fill="none">
        <g id="编组-2" filter="url(#filter-1)" stroke-width="1" fill-rule="evenodd" transform="translate(12, 12) rotate(-8) translate(-12, -12)translate(1.2645, 1.2645)">
            <g id="编组" transform="translate(-0, 0)">
                <rect id="矩形备份-2" fill="#FFFFFF" x="1" y="1" width="19.4709233" height="19.4709233" rx="3.65625"></rect>
                <path d="M16.8146733,2.55211231e-13 C19.3862492,2.55211231e-13 21.4709233,2.08467413 21.4709233,4.65625 L21.4709233,16.8146733 C21.4709233,19.3862492 19.3862492,21.4709233 16.8146733,21.4709233 L4.65625,21.4709233 C2.08467413,21.4709233 1.68602716e-12,19.3862492 1.68602716e-12,16.8146733 L1.68602716e-12,4.65625 C1.68602716e-12,2.08467413 2.08467413,2.55211231e-13 4.65625,2.55211231e-13 L16.8146733,2.55211231e-13 Z M16.8146733,1 L4.65625,1 C2.63695888,1 1,2.63695888 1,4.65625 L1,16.8146733 C1,18.8339644 2.63695888,20.4709233 4.65625,20.4709233 L16.8146733,20.4709233 C18.8339644,20.4709233 20.4709233,18.8339644 20.4709233,16.8146733 L20.4709233,4.65625 C20.4709233,2.63695888 18.8339644,1 16.8146733,1 Z" id="矩形备份-2" fill-opacity="0.0504295509" fill="#000000" fill-rule="nonzero"></path>
                <path d="M20.4709233,14.1428732 L20.4709233,16.8146733 C20.4709233,18.8339644 18.8339644,20.4709233 16.8146733,20.4709233 L14.1428732,20.4709233 C16.0794314,20.1961372 17.56708,19.4040977 18.6058188,18.0948048 C19.6445577,16.7855118 20.2662592,15.4682013 20.4709233,14.1428732 Z" id="形状结合" fill-opacity="0.39" fill="url(#radialGradient-2)"></path>
                <g id="MARCH" transform="translate(4.7222, 1.6153)" fill="#E06164" fill-rule="nonzero">
                    <path d="M0.3395,4 L0.7035,4 L0.7035,2.726 C0.7035,2.495 0.672,2.1625 0.6545,1.928 L0.6685,1.928 L0.8715,2.523 L1.323,3.7515 L1.575,3.7515 L2.023,2.523 L2.2295,1.928 L2.2435,1.928 C2.2225,2.1625 2.191,2.495 2.191,2.726 L2.191,4 L2.569,4 L2.569,1.4205 L2.1,1.4205 L1.6345,2.726 C1.575,2.8975 1.526,3.0725 1.4665,3.244 L1.449,3.244 C1.3895,3.0725 1.337,2.8975 1.2775,2.726 L0.805,1.4205 L0.3395,1.4205 L0.3395,4 Z" id="路径"></path>
                    <path d="M3.738,2.6 C3.822,2.32 3.9025,2.0365 3.976,1.7425 L3.9935,1.7425 C4.0705,2.033 4.1475,2.32 4.235,2.6 L4.3365,2.9465 L3.633,2.9465 L3.738,2.6 Z M2.905,4 L3.318,4 L3.5385,3.265 L4.4345,3.265 L4.6515,4 L5.082,4 L4.228,1.4205 L3.759,1.4205 L2.905,4 Z" id="形状"></path>
                    <path d="M5.4215,4 L5.8275,4 L5.8275,2.9605 L6.244,2.9605 L6.8285,4 L7.287,4 L6.657,2.908 C6.9825,2.8065 7.196,2.5685 7.196,2.1695 C7.196,1.613 6.797,1.4205 6.265,1.4205 L5.4215,1.4205 L5.4215,4 Z M5.8275,2.635 L5.8275,1.7495 L6.216,1.7495 C6.5905,1.7495 6.7935,1.858 6.7935,2.1695 C6.7935,2.481 6.5905,2.635 6.216,2.635 L5.8275,2.635 Z" id="形状"></path>
                    <path d="M8.722,4.0455 C9.0545,4.0455 9.317,3.9125 9.5235,3.6745 L9.3065,3.419 C9.1525,3.587 8.974,3.692 8.736,3.692 C8.281,3.692 7.994,3.3175 7.994,2.705 C7.994,2.0995 8.302,1.7285 8.7465,1.7285 C8.9565,1.7285 9.1175,1.823 9.2505,1.9595 L9.471,1.7005 C9.3135,1.529 9.0615,1.375 8.7395,1.375 C8.0885,1.375 7.5775,1.879 7.5775,2.719 C7.5775,3.5625 8.0745,4.0455 8.722,4.0455 Z" id="路径"></path>
                    <polygon id="路径" points="9.9785 4 10.3845 4 10.3845 2.8275 11.487 2.8275 11.487 4 11.893 4 11.893 1.4205 11.487 1.4205 11.487 2.474 10.3845 2.474 10.3845 1.4205 9.9785 1.4205"></polygon>
                </g>
                <path d="M10.3534372,14.6296463 L10.3534372,13.5223203 L7.3467724,13.5223203 L9.87841656,10.4069726 C10.195097,10.0113729 10.3534372,9.55925894 10.3534372,9.05063074 C10.3462399,8.41484549 10.1285221,7.89032266 9.70028382,7.47706224 C9.27924278,7.06026969 8.73044998,6.84834127 8.05390542,6.84127699 C7.44933368,6.84834127 6.94012594,7.05673755 6.52628219,7.46646582 C6.11603708,7.88679052 5.89651996,8.41837763 5.86773083,9.06122716 L5.86773083,9.06122716 L6.99050691,9.06122716 C7.03009197,8.70801313 7.15604441,8.43427226 7.36836425,8.24000455 C7.57348681,8.04573683 7.83078966,7.94860297 8.14027281,7.94860297 C8.48934102,7.95566725 8.75923911,8.06692967 8.9499671,8.28239023 C9.13349781,8.49785079 9.22526316,8.75039882 9.22526316,9.04003432 C9.22526316,9.14953067 9.2108686,9.2660913 9.18207947,9.38971621 C9.13889577,9.5204054 9.05792634,9.66169101 8.93917118,9.81357304 L8.93917118,9.81357304 L5.86773083,13.5858989 L5.86773083,14.6296463 L10.3534372,14.6296463 Z M13.5249082,14.5803528 L16.1947142,7.95065069 L16.1947142,6.84127699 L11.7090078,6.84127699 L11.7090078,9.07064041 L12.8385411,9.07064041 L12.8385411,7.95065069 L14.9300693,7.95065069 L12.2656678,14.5803528 L13.5249082,14.5803528 Z" id="27" fill="#2D394F" fill-rule="nonzero"></path>
            </g>
            <g id="MONDAY" transform="translate(6.7222, 15.5635)" fill="#2D394F" fill-rule="nonzero">
                <path d="M0.194,2 L0.402,2 L0.402,1.272 C0.402,1.14 0.384,0.95 0.374,0.816 L0.382,0.816 L0.498,1.156 L0.756,1.858 L0.9,1.858 L1.156,1.156 L1.274,0.816 L1.282,0.816 C1.27,0.95 1.252,1.14 1.252,1.272 L1.252,2 L1.468,2 L1.468,0.526 L1.2,0.526 L0.934,1.272 C0.9,1.37 0.872,1.47 0.838,1.568 L0.828,1.568 C0.794,1.47 0.764,1.37 0.73,1.272 L0.46,0.526 L0.194,0.526 L0.194,2 Z" id="路径"></path>
                <path d="M2.414,2.026 C2.792,2.026 3.056,1.732 3.056,1.258 C3.056,0.784 2.792,0.5 2.414,0.5 C2.036,0.5 1.774,0.784 1.774,1.258 C1.774,1.732 2.036,2.026 2.414,2.026 Z M2.414,1.824 C2.17,1.824 2.012,1.602 2.012,1.258 C2.012,0.912 2.17,0.702 2.414,0.702 C2.658,0.702 2.818,0.912 2.818,1.258 C2.818,1.602 2.658,1.824 2.414,1.824 Z" id="形状"></path>
                <path d="M3.362,2 L3.582,2 L3.582,1.306 C3.582,1.146 3.564,0.976 3.552,0.824 L3.562,0.824 L3.716,1.132 L4.204,2 L4.442,2 L4.442,0.526 L4.222,0.526 L4.222,1.214 C4.222,1.374 4.24,1.552 4.252,1.704 L4.242,1.704 L4.088,1.392 L3.6,0.526 L3.362,0.526 L3.362,2 Z" id="路径"></path>
                <path d="M4.83,2 L5.224,2 C5.664,2 5.922,1.736 5.922,1.258 C5.922,0.778 5.664,0.526 5.212,0.526 L4.83,0.526 L4.83,2 Z M5.062,1.81 L5.062,0.716 L5.196,0.716 C5.512,0.716 5.682,0.89 5.682,1.258 C5.682,1.624 5.512,1.81 5.196,1.81 L5.062,1.81 Z" id="形状"></path>
                <path d="M6.51,1.2 C6.558,1.04 6.604,0.878 6.646,0.71 L6.656,0.71 C6.7,0.876 6.744,1.04 6.794,1.2 L6.852,1.398 L6.45,1.398 L6.51,1.2 Z M6.034,2 L6.27,2 L6.396,1.58 L6.908,1.58 L7.032,2 L7.278,2 L6.79,0.526 L6.522,0.526 L6.034,2 Z" id="形状"></path>
                <path d="M7.714,2 L7.946,2 L7.946,1.442 L8.39,0.526 L8.148,0.526 L7.976,0.918 C7.932,1.028 7.884,1.13 7.836,1.242 L7.828,1.242 C7.778,1.13 7.736,1.028 7.69,0.918 L7.52,0.526 L7.272,0.526 L7.714,1.442 L7.714,2 Z" id="路径"></path>
            </g>
            <g id="路径-11">
                <use fill="black" fill-opacity="1" filter="url(#filter-5)" xlink:href="#path-4"></use>
                <use fill="url(#linearGradient-3)" fill-rule="evenodd" xlink:href="#path-4"></use>
            </g>
        </g>
        <g id="Guide/24"></g>
    </g>
</svg>