<?xml version="1.0" encoding="UTF-8"?>
<svg width="24px" height="24px" viewBox="0 0 24 24" version="1.1" xmlns="http://www.w3.org/2000/svg" xmlns:xlink="http://www.w3.org/1999/xlink">
    <title>apps/24/org.deepin.browser</title>
    <defs>
        <filter x="-6.8%" y="-6.8%" width="113.6%" height="113.6%" filterUnits="objectBoundingBox" id="filter-1">
            <feOffset dx="0" dy="0" in="SourceAlpha" result="shadowOffsetOuter1"></feOffset>
            <feGaussianBlur stdDeviation="0.5" in="shadowOffsetOuter1" result="shadowBlurOuter1"></feGaussianBlur>
            <feColorMatrix values="0 0 0 0 0   0 0 0 0 0   0 0 0 0 0  0 0 0 0.15 0" type="matrix" in="shadowBlurOuter1" result="shadowMatrixOuter1"></feColorMatrix>
            <feMerge>
                <feMergeNode in="shadowMatrixOuter1"></feMergeNode>
                <feMergeNode in="SourceGraphic"></feMergeNode>
            </feMerge>
        </filter>
        <linearGradient x1="50%" y1="0%" x2="50%" y2="98.1385523%" id="linearGradient-2">
            <stop stop-color="#FFFFFF" offset="0%"></stop>
            <stop stop-color="#EDEDED" offset="100%"></stop>
        </linearGradient>
        <linearGradient x1="47.4612927%" y1="17.8673453%" x2="55.5534326%" y2="50%" id="linearGradient-3">
            <stop stop-color="#4E56FD" offset="0%"></stop>
            <stop stop-color="#4F52FF" offset="100%"></stop>
        </linearGradient>
        <linearGradient x1="0%" y1="50%" x2="93.6490887%" y2="33.1866296%" id="linearGradient-4">
            <stop stop-color="#6B5BFE" offset="0%"></stop>
            <stop stop-color="#58CDFF" offset="100%"></stop>
        </linearGradient>
    </defs>
    <g id="apps/24/org.deepin.browser" stroke="none" fill="none">
        <g id="编组" filter="url(#filter-1)" stroke-width="1" fill-rule="evenodd" transform="translate(1, 1)">
            <path d="M19.4262927,18.0704991 C23.3312215,13.4167861 22.724212,6.47863613 18.0704991,2.57370731 C13.4167861,-1.33122151 6.47863613,-0.724212037 2.57370731,3.92950091 C-1.33122151,8.58321386 -0.724212037,15.5213639 3.92950091,19.4262927 C8.58321386,23.3312215 15.5213639,22.724212 19.4262927,18.0704991 Z" id="椭圆形" fill="url(#linearGradient-2)"></path>
            <path d="M9.36064689,8.01688318 C9.65731715,6.27551529 9.24276525,5.53276889 8.11699121,5.78864397 C6.42833013,6.17245659 5.47319982,8.82243359 5.50028161,10.2081621 C5.52646067,11.5476997 6.20938384,13.9834613 8.73717199,15.7256257 L9.005297,15.9033021 C11.7533311,17.6538559 8.75084712,20.5485117 6.4937441,17.2000781 C4.98900876,14.9677891 3.93803252,11.6690375 3.34081539,7.30382329 L4.83292378,3.43106894 L7.007999,1.83997907 L9.55798345,1.45324584 L11.4213603,2.45819805 L11.3932083,5.02115696 L9.36064689,8.01688318 Z" id="路径-39" fill="url(#linearGradient-3)"></path>
            <path d="M2.57370731,3.92950091 C5.20433918,0.794435929 9.21154008,-0.504110612 12.9695318,0.176098451 C14.7237484,0.670546948 16.6495901,1.91026609 17.3760354,3.90351347 C18.2661237,6.34577054 16.9431809,9.62928501 14.9439948,10.9609152 C11.6954993,13.124693 8.11858608,12.0165226 8.22900205,9.76128332 C8.26590609,9.00752065 8.61794246,8.33659558 9.01139303,7.66758393 L9.25166009,7.26337514 C9.52555434,6.80245213 9.79301607,6.33476028 9.96553016,5.83413028 C10.4399439,4.45739779 10.4344878,3.14045204 9.54013559,2.39000146 C9.13142624,2.0470536 8.36001283,1.72907949 7.34080273,2.11453649 C6.2504809,2.52688737 4.75307956,3.84579269 4.22960824,6.11381344 C4.04242269,6.92482391 3.93333755,7.92056666 3.98125197,8.72812912 C4.09895045,10.711851 5.07430237,12.4882687 6.38816303,13.9464534 L6.46150025,14.0271356 C7.04205934,14.6602866 9.32933561,16.4575724 11.6019938,16.6118919 C14.4822966,16.807472 17.7168665,15.436884 19.3176211,13.5291789 C20.852748,11.699686 21.5830274,9.77165402 21.5084595,7.74508309 C22.573642,11.1952346 21.9199566,15.0986661 19.4262927,18.0704991 C15.5213639,22.724212 8.58321386,23.3312215 3.92950091,19.4262927 C-0.724212037,15.5213639 -1.33122151,8.58321386 2.57370731,3.92950091 Z" id="路径" fill="url(#linearGradient-4)"></path>
        </g>
        <path d="M12,0.9375 C18.10965,0.9375 23.0625,5.89034996 23.0625,12 C23.0625,18.10965 18.10965,23.0625 12,23.0625 C5.89034996,23.0625 0.9375,18.10965 0.9375,12 C0.9375,5.89034996 5.89034996,0.9375 12,0.9375 Z M12,1.9375 C6.44263471,1.9375 1.9375,6.44263471 1.9375,12 C1.9375,17.5573653 6.44263471,22.0625 12,22.0625 C17.5573653,22.0625 22.0625,17.5573653 22.0625,12 C22.0625,6.44263471 17.5573653,1.9375 12,1.9375 Z" id="椭圆形" fill-opacity="0.08" fill="#000000" fill-rule="nonzero" transform="translate(12, 12) rotate(-50) translate(-12, -12)"></path>
        <g id="Guide/24"></g>
    </g>
</svg>