<svg height="32" width="32" xmlns="http://www.w3.org/2000/svg" xmlns:xlink="http://www.w3.org/1999/xlink">
  <filter id="a" color-interpolation-filters="sRGB" height="1.2878" width="1.3029" x="-.15147" y="-.14392">
    <feGaussianBlur stdDeviation="1.2035199"/>
  </filter>
  <path d="m15.5 9.0128c-4.1303 0-7.5 3.3697-7.5 7.5s3.3697 7.5 7.5 7.5c1.2629 0 2.404-.38645 3.4375-.9375l.28125.28125c-.38424.37177-.38424 1.0657 0 1.4375l4 4c.37177.38424 1.0657.38424 1.4375 0l2.125-2.125c.38424-.37177.38424-1.0657 0-1.4375l-4-4c-.36968-.36548-1.0366-.36548-1.4062 0l-.125-.125c1.0287-1.2772 1.75-2.8226 1.75-4.5938 0-4.1303-3.3697-7.5-7.5-7.5z" filter="url(#a)" opacity=".2"/>
  <path d="m15.5 8.0128c-4.1303 0-7.5 3.3697-7.5 7.5s3.3697 7.5 7.5 7.5c1.2629 0 2.404-.38645 3.4375-.9375l.28125.28125a1.0001 1.0001 0 0 0 0 1.4375l4 4a1.0001 1.0001 0 0 0 1.4375 0l2.125-2.125a1.0001 1.0001 0 0 0 0-1.4375l-4-4a1.0001 1.0001 0 0 0 -1.4062 0l-.125-.125c1.0287-1.2772 1.75-2.8226 1.75-4.5938 0-4.1303-3.3697-7.5-7.5-7.5z" fill="#d8dee9"/>
  <path d="m15.5 9.0128c-3.5898 0-6.5 2.9102-6.5 6.5s2.9102 6.5 6.5 6.5c1.3619 0 2.6118-.44035 3.6562-1.1562l1.5 1.5-.71875.71875 4 4 2.125-2.125-4-4-.71875.6875-1.4062-1.4062c1.2608-1.1856 2.0625-2.8515 2.0625-4.7188 0-3.5898-2.9102-6.5-6.5-6.5z" fill="#3b4252"/>
  <path d="m21 15.5a5.5 5.5 0 0 1 -5.5 5.5 5.5 5.5 0 0 1 -5.5-5.5 5.5 5.5 0 0 1 5.5-5.5 5.5 5.5 0 0 1 5.5 5.5z" fill="#d8dee9"/>
  <path d="m15 12.013v3h-3v1h3v3h1v-3h3v-1h-3v-3z" fill="#3b4252"/>
</svg>
