<?xml version="1.0" encoding="UTF-8" standalone="no"?>
<svg
   width="32"
   height="32"
   version="1.1"
   id="svg1"
   sodipodi:docname="quassel_message.svg"
   inkscape:version="1.3.2 (091e20ef0f, 2023-11-25)"
   xmlns:inkscape="http://www.inkscape.org/namespaces/inkscape"
   xmlns:sodipodi="http://sodipodi.sourceforge.net/DTD/sodipodi-0.dtd"
   xmlns="http://www.w3.org/2000/svg"
   xmlns:svg="http://www.w3.org/2000/svg">
  <defs
     id="defs1" />
  <sodipodi:namedview
     id="namedview1"
     pagecolor="#ffffff"
     bordercolor="#999999"
     borderopacity="1"
     inkscape:showpageshadow="2"
     inkscape:pageopacity="0"
     inkscape:pagecheckerboard="0"
     inkscape:deskcolor="#d1d1d1"
     inkscape:zoom="12.277945"
     inkscape:cx="15.963583"
     inkscape:cy="23.945375"
     inkscape:window-width="1920"
     inkscape:window-height="996"
     inkscape:window-x="0"
     inkscape:window-y="0"
     inkscape:window-maximized="1"
     inkscape:current-layer="svg1" />
  <style
     type="text/css"
     id="current-color-scheme">
      .ColorScheme-Text {
        color:#7B7C7E;
      }
      .ColorScheme-Background{
        color:#EFF0F1;
      }
      .ColorScheme-Highlight{
        color:#3DAEE6;
      }
      .ColorScheme-ViewText {
        color:#7B7C7E;
      }
      .ColorScheme-ViewBackground{
        color:#FCFCFC;
      }
      .ColorScheme-ViewHover {
        color:#3DAEE6;
      }
      .ColorScheme-ViewFocus{
        color:#1E92FF;
      }
      .ColorScheme-ButtonText {
        color:#7B7C7E;
      }
      .ColorScheme-ButtonBackground{
        color:#EFF0F1;
      }
      .ColorScheme-ButtonHover {
        color:#3DAEE6;
      }
      .ColorScheme-ButtonFocus{
        color:#1E92FF;
      }
</style>
  <g
     id="quassel-message">
    <rect
       style="opacity:0.00100002;fill:#7390bf;fill-opacity:1"
       width="32"
       height="32"
       x="0"
       y="0"
       id="rect22-1" />
    <rect
       style="fill:#af905e;fill-opacity:1;stroke-width:0.214297"
       width="12"
       height="12"
       x="-24.000002"
       y="-25.000006"
       rx="6"
       ry="5.9999995"
       transform="matrix(0,-1,-1,0,0,0)"
       id="rect396-5" />
    <path
       style="fill:#1d2030;fill-opacity:1;stroke-width:0.214297"
       d="m 18.999878,14.571586 a 3.4285217,3.4285221 0 0 0 -3.42851,3.42852 3.4285217,3.4285221 0 0 0 3.42851,3.428531 3.4285217,3.4285221 0 0 0 2.15706,-0.765083 1.9285444,1.9285446 0 0 1 -1.08556,0.336427 1.9285444,1.9285446 0 0 1 -1.92854,-1.928541 1.9285444,1.9285446 0 0 1 1.92854,-1.928543 1.9285444,1.9285446 0 0 1 1.92855,1.928543 1.9285444,1.9285446 0 0 1 -0.31971,1.061555 3.4285217,3.4285221 0 0 0 0.74827,-2.132977 3.4285217,3.4285221 0 0 0 -3.42852,-3.428509 z"
       id="path404-629" />
    <path
       style="color:#d6dbf1;fill:none;fill-opacity:1;stroke:#af905e;stroke-width:1.60402;stroke-linecap:round;stroke-miterlimit:4;stroke-dasharray:none;stroke-opacity:1;stop-color:#31363b"
       sodipodi:type="arc"
       sodipodi:cx="-16.000002"
       sodipodi:cy="-16.00001"
       sodipodi:rx="11.201572"
       sodipodi:ry="11.201572"
       sodipodi:start="3.7596615"
       sodipodi:end="3.7574109"
       sodipodi:open="true"
       sodipodi:arc-type="arc"
       transform="scale(-1)"
       d="m -25.129272,-22.490899 a 11.201572,11.201572 0 0 1 15.615022,-2.642032 11.201572,11.201572 0 0 1 2.6508169,15.6135337 11.201572,11.201572 0 0 1 -15.6120389,2.6596014 11.201572,11.201572 0 0 1 -2.668386,-15.6105401"
       id="path7-1"
       class="ColorScheme-Text" />
  </g>
</svg>
