<?xml version="1.0" encoding="UTF-8" standalone="no"?>
<svg
   width="32"
   height="32"
   version="1.1"
   id="svg1"
   sodipodi:docname="preferences-desktop-display-randr.svg"
   inkscape:version="1.3.2 (091e20ef0f, 2023-11-25)"
   xmlns:inkscape="http://www.inkscape.org/namespaces/inkscape"
   xmlns:sodipodi="http://sodipodi.sourceforge.net/DTD/sodipodi-0.dtd"
   xmlns="http://www.w3.org/2000/svg"
   xmlns:svg="http://www.w3.org/2000/svg">
  <defs
     id="defs1" />
  <sodipodi:namedview
     id="namedview1"
     pagecolor="#ffffff"
     bordercolor="#999999"
     borderopacity="1"
     inkscape:showpageshadow="2"
     inkscape:pageopacity="0"
     inkscape:pagecheckerboard="0"
     inkscape:deskcolor="#d1d1d1"
     inkscape:zoom="8.659091"
     inkscape:cx="18.47769"
     inkscape:cy="12.992126"
     inkscape:window-width="1920"
     inkscape:window-height="996"
     inkscape:window-x="0"
     inkscape:window-y="0"
     inkscape:window-maximized="1"
     inkscape:current-layer="svg1"
     showgrid="true">
    <inkscape:grid
       id="grid1"
       units="px"
       originx="5"
       originy="-18"
       spacingx="1"
       spacingy="1"
       empcolor="#0099e5"
       empopacity="0.30196078"
       color="#0099e5"
       opacity="0.14902"
       empspacing="5"
       dotted="false"
       gridanglex="30"
       gridanglez="30"
       visible="true" />
  </sodipodi:namedview>
  <style
     type="text/css"
     id="current-color-scheme">.ColorScheme-Text{color:#232629;}.ColorScheme-Background{color:#eff0f1;}.ColorScheme-ViewBackground{color:#fcfcfc;}.ColorScheme-ButtonFocus{color:#3daee9;}.ColorScheme-PositiveText{color:#27ae60;}.ColorScheme-NeutralText{color:#f67400;}.ColorScheme-NegativeText { color: #da4453; } </style>
  <g
     id="preferences-desktop-display-randr">
    <rect
       y="0"
       x="0"
       height="32"
       width="32"
       id="rect2991"
       style="opacity:0.01;fill:#d1d5e9;fill-opacity:1;stroke:none;stroke-width:1.33333" />
    <path
       d="M 28,4 H 4 V 4 C 3,4 2,5 2,6 v 17 c 0,1 1,2 2,2 v 0 h 10 v 1.315031 l -1.823227,2.06e-4 c -0.452479,9.76e-4 -0.889127,0.17279 -1.22758,0.483082 -0.338234,0.310293 -0.555183,0.737522 -0.609673,1.201434 H 21.656026 C 21.601542,27.535826 21.384775,27.108575 21.046352,26.798319 20.707925,26.488027 20.27146,26.31625 19.818766,26.315237 H 18 V 25 h 10 v 0 c 1,0 2,-1 2,-2 V 6 C 30,5 29,4 28,4 27.983,3.980657 28.03401,4.038686 28,4 Z M 17.548,24 H 14.447 C 14.205434,24 14,23.749401 14,23.5 14,23.250598 14.205434,23 14.447,23 h 3.101 C 17.789761,23 18,23.250587 18,23.5 18,23.749401 17.789761,24 17.548,24 Z M 29,21 c 0,0 0,1 -1.062499,1 H 3.9687502 C 3,22 3,21 3,21 V 6 C 3,6 3.0999293,5 4.121,5 H 27.9 C 28.900453,5 29,6 29,6 Z"
       id="path43"
       style="fill:#e1e1e1;fill-opacity:1;stroke-width:0.0507976"
       sodipodi:nodetypes="cccccccccccccccccccccccsssssssccccccccc" />
    <path
       d="M 25.614173,18.787402 24.508038,20 c -0.280578,5e-6 -0.508048,0.219432 -0.508038,0.5 -10e-6,0.280584 0.227425,0.50001 0.50801,0.5 h 2.604187 v 0 0 0 h 0.887783 v -0.443889 -0.443891 0 0 -2.604211 C 27.999976,17.227434 27.780571,17.000001 27.5,17 c -0.280566,-10e-6 -0.500003,0.168315 -0.5,0.448892 z"
       style="fill:#af905e;fill-opacity:1;fill-rule:evenodd;stroke:none;stroke-width:0.33866"
       id="path2830"
       sodipodi:nodetypes="ccccccccccccccccc" />
    <path
       d="M 6.1548556,8.328084 7.491938,7 C 7.772514,6.9999956 7.9999851,6.7805662 7.999978,6.5 7.9999827,6.2194176 7.77255,5.99999 7.4919667,6 H 4.8877772 V 6 6 6 H 4 v 0.4438889 0.4438883 0 0 2.604213 C 4.000002,9.7725674 4.2194263,9.999999 4.5,10 4.7805651,10.000012 5.0000015,9.8316848 5,9.5511078 Z"
       style="fill:#af905e;fill-opacity:1;fill-rule:evenodd;stroke:none;stroke-width:0.33866"
       id="path2830-3"
       sodipodi:nodetypes="ccccccccccccccccc" />
    <path
       d="m 3.4363186,20.289258 c -0.4664378,0.294426 -0.5762845,0.970878 -0.2449517,1.385375 0.3313431,0.4145 0.978373,0.410167 1.4448211,0.115741 L 28.627496,6.7107413 C 29.093915,6.4163104 29.100345,5.7398942 28.76904,5.3253659 28.437727,4.9108716 27.790963,4.9151959 27.324546,5.209627 Z"
       id="path2216"
       style="fill:#af905e;fill-opacity:0.980456;stroke-width:0.976599"
       inkscape:transform-center-x="-0.99758663"
       inkscape:transform-center-y="-9.867818"
       sodipodi:nodetypes="ccccccc" />
  </g>
</svg>
