<?xml version="1.0" encoding="UTF-8" standalone="no"?>
<!-- Created with Inkscape (http://www.inkscape.org/) -->

<svg
   width="16"
   version="1.1"
   height="16"
   id="svg1"
   sodipodi:docname="start-here-kde.svg"
   inkscape:version="1.3.2 (091e20ef0f, 2023-11-25)"
   xmlns:inkscape="http://www.inkscape.org/namespaces/inkscape"
   xmlns:sodipodi="http://sodipodi.sourceforge.net/DTD/sodipodi-0.dtd"
   xmlns="http://www.w3.org/2000/svg"
   xmlns:svg="http://www.w3.org/2000/svg">
  <sodipodi:namedview
     id="namedview1"
     pagecolor="#ffffff"
     bordercolor="#999999"
     borderopacity="1"
     inkscape:showpageshadow="2"
     inkscape:pageopacity="0"
     inkscape:pagecheckerboard="0"
     inkscape:deskcolor="#d1d1d1"
     inkscape:zoom="11.90625"
     inkscape:cx="7.6430446"
     inkscape:cy="1.2598425"
     inkscape:window-width="1920"
     inkscape:window-height="996"
     inkscape:window-x="0"
     inkscape:window-y="0"
     inkscape:window-maximized="1"
     inkscape:current-layer="layer1" />
  <defs
     id="defs5455" />
  <metadata
     id="metadata5458" />
  <g
     inkscape:label="Capa 1"
     inkscape:groupmode="layer"
     id="layer1"
     transform="translate(-416.57143,-643.48041)">
    <flowRoot
       line-height="125%"
       style="font-size:32.5px;font-family:sans-serif"
       id="flowRoot4170"><flowRegion
         id="flowRegion4172"><rect
           width="87.75001"
           x="452.32144"
           y="489.79807"
           height="48.750004"
           id="rect4174" /></flowRegion><flowPara
         id="flowPara4176">Plasm</flowPara></flowRoot>
    <g
       id="16-16-start-here-kde"
       transform="translate(416.57143,643.48041)">
      <path
         style="fill:none"
         d="M 0,0 V 16 H 16 V 0 Z"
         id="path17-7" />
      <path
         sodipodi:type="arc"
         sodipodi:cx="8.1075478"
         sodipodi:cy="8.0982046"
         sodipodi:rx="6.632834"
         sodipodi:ry="6.6234541"
         sodipodi:start="1.8148121"
         sodipodi:end="6.0278024"
         sodipodi:arc-type="arc"
         d="M 6.505046,14.525443 A 6.632834,6.6234541 0 0 1 1.4946485,7.5850734 6.632834,6.6234541 0 0 1 7.518555,1.5009164 6.632834,6.6234541 0 0 1 14.525257,6.4250147"
         id="path7-7-75-3-5"
         class=" "
         sodipodi:open="true"
         style="fill:none;fill-opacity:1;stroke:#af905e;stroke-width:0.949116;stroke-linecap:round;stroke-miterlimit:4;stroke-dasharray:none;stroke-opacity:1;stop-color:#31363b" />
      <path
         d="m 14.999827,10.916535 c 0,2.255201 -1.828123,4.083282 -4.083286,4.083282 -2.2551518,0 -4.0832818,-1.828123 -4.0832818,-4.083282 0,-2.2551524 1.82813,-4.0832874 4.0832818,-4.0832874 2.255163,0 4.083286,1.828135 4.083286,4.0832874"
         id="path3950-3-6-3"
         class=" "
         style="fill:#666666;fill-opacity:1;stroke:none;stroke-width:0.028525" />
      <path
         id="path11-3-7-5"
         style="color:#31363b;fill:#fefefe;fill-opacity:1;stroke-width:0.484155"
         d="m 9.4873892,8.2801646 c -0.268478,0 -0.486111,0.215882 -0.486111,0.482198 0,0.266304 0.217633,0.482188 0.486111,0.482188 0.268464,0 0.4861106,-0.215884 0.4861106,-0.482188 0,-0.266316 -0.2176466,-0.482198 -0.4861106,-0.482198 z m 2.4305278,0 c -0.42774,-0.192679 -0.93683,0.23927 -0.729165,0.723284 l 1.215266,1.2054954 -1.215266,1.205476 c -0.255585,0.453596 0.244182,0.958906 0.729165,0.723304 l 1.944422,-1.92878 z M 8.5151732,10.450039 c -0.268463,0 -0.486106,0.215887 -0.486106,0.482188 0,0.266307 0.217643,0.482193 0.486106,0.482193 0.268474,0 0.486105,-0.215886 0.486105,-0.482193 0,-0.266301 -0.217631,-0.482188 -0.486105,-0.482188 z m 1.7013748,2.169882 c -0.4026988,0 -0.7291588,0.323827 -0.7291588,0.723277 0,0.399469 0.32646,0.723303 0.7291588,0.723303 0.402698,0 0.729153,-0.323834 0.729153,-0.723303 0,-0.39945 -0.326455,-0.723277 -0.729153,-0.723277 z"
         class="ColorScheme-Text"
         sodipodi:nodetypes="ssssscccccccssssssssss" />
    </g>
  </g>
</svg>
