<svg height="32" width="32" xmlns="http://www.w3.org/2000/svg" xmlns:xlink="http://www.w3.org/1999/xlink">
  <filter id="a" color-interpolation-filters="sRGB" height="1.2568" width="1.2568" x="-.1284" y="-.1284">
    <feGaussianBlur stdDeviation="1.177"/>
  </filter>
  <path d="m16.025 4.9752c-6.0751 0-11 4.9249-11 11s4.9249 11 11 11 11-4.9249 11-11-4.9249-11-11-11z" filter="url(#a)" opacity=".2"/>
  <path d="m13.178 25.588a11 11 0 0 1 -7.7782-13.472 11 11 0 0 1 13.472-7.7782 11 11 0 0 1 7.7782 13.472 11 11 0 0 1 -13.472 7.7782z" fill="#3b4252"/>
  <g fill="#8fbcbb">
    <path d="m22.119 7.019c-1.0127-.77812-2.2082-1.3681-3.5187-1.7193-5.3347-1.4294-10.818 1.7364-12.247 7.0711-.97218 3.6282.1781 7.3045 2.6938 9.7481l2.1729-.74422c-2.5477-1.9002-3.8086-5.2253-2.9348-8.4863.91005-3.3964 3.8681-5.7121 7.1874-5.9358l1.127 1.9519z"/>
    <path d="m9.9055 22.899c1.0127.77812 2.2082 1.3681 3.5187 1.7193 5.3347 1.4294 10.818-1.7364 12.247-7.0711.97218-3.6282-.1781-7.3045-2.6938-9.7481l-2.1729.74422c2.5477 1.9002 3.8086 5.2253 2.9348 8.4863-.91005 3.3964-3.8681 5.7121-7.1874 5.9358l-1.127-1.9519z"/>
  </g>
</svg>
