<?xml version="1.0" encoding="UTF-8" standalone="no"?>
<svg
   width="32"
   height="32"
   version="1.1"
   id="svg1"
   sodipodi:docname="start-here-kde.svg"
   inkscape:version="1.3.2 (091e20ef0f, 2023-11-25)"
   xmlns:inkscape="http://www.inkscape.org/namespaces/inkscape"
   xmlns:sodipodi="http://sodipodi.sourceforge.net/DTD/sodipodi-0.dtd"
   xmlns="http://www.w3.org/2000/svg"
   xmlns:svg="http://www.w3.org/2000/svg">
  <defs
     id="defs1" />
  <sodipodi:namedview
     id="namedview1"
     pagecolor="#ffffff"
     bordercolor="#999999"
     borderopacity="1"
     inkscape:showpageshadow="2"
     inkscape:pageopacity="0"
     inkscape:pagecheckerboard="0"
     inkscape:deskcolor="#d1d1d1"
     inkscape:zoom="5.953125"
     inkscape:cx="15.958005"
     inkscape:cy="16.293963"
     inkscape:window-width="1920"
     inkscape:window-height="996"
     inkscape:window-x="0"
     inkscape:window-y="0"
     inkscape:window-maximized="1"
     inkscape:current-layer="svg1" />
  <style
     type="text/css"
     id="current-color-scheme">.ColorScheme-Text { color: #fcfcfc; } </style>
  <g
     id="start-here-kde-9">
    <rect
       style="fill:none;fill-rule:evenodd;stroke:none;stroke-width:1px;stroke-linecap:butt;stroke-linejoin:miter;stroke-opacity:1"
       id="rect3343"
       width="32"
       height="32"
       x="0"
       y="0" />
    <path
       sodipodi:type="arc"
       sodipodi:cx="16.18453"
       sodipodi:cy="16.168499"
       sodipodi:rx="11.370697"
       sodipodi:ry="11.354604"
       sodipodi:start="1.8148121"
       sodipodi:end="6.0278024"
       sodipodi:arc-type="arc"
       d="M 13.437354,27.186729 A 11.370697,11.354604 0 0 1 4.8480074,15.288837 11.370697,11.354604 0 0 1 15.174817,4.8587514 11.370697,11.354604 0 0 1 27.186437,13.300145"
       id="path7-7-75"
       class=" "
       sodipodi:open="true"
       style="fill:none;fill-opacity:1;stroke:#af905e;stroke-width:1.62713;stroke-linecap:round;stroke-miterlimit:4;stroke-dasharray:none;stroke-opacity:1;stop-color:#31363b" />
    <path
       d="m 28,21 c 0,3.866113 -3.133958,7 -7,7 -3.866018,0 -7,-3.133958 -7,-7 0,-3.866018 3.133982,-7 7,-7 3.866042,0 7,3.133982 7,7"
       id="path3950-3"
       class=" "
       style="fill:#666666;fill-opacity:1;stroke:none;stroke-width:0.0489" />
    <path
       id="path11-3"
       style="color:#31363b;fill:#fefefe;fill-opacity:1;stroke-width:0.829979"
       d="m 18.549997,16.480462 c -0.460237,0 -0.833338,0.370092 -0.833338,0.826634 0,0.45654 0.373101,0.826632 0.833338,0.826632 0.460244,0 0.833339,-0.370092 0.833339,-0.826632 0,-0.456542 -0.373095,-0.826634 -0.833339,-0.826634 z m 4.16667,0 c -0.733272,-0.330299 -1.606,0.410187 -1.250003,1.23995 l 2.083329,2.066564 -2.083329,2.066571 c -0.438158,0.777602 0.418598,1.64384 1.250003,1.239943 L 26.05,19.786976 Z m -5.833328,3.719831 c -0.460244,0 -0.833339,0.370092 -0.833339,0.826629 0,0.456526 0.373095,0.826625 0.833339,0.826625 0.460225,0 0.83332,-0.370099 0.83332,-0.826625 0,-0.456537 -0.373095,-0.826629 -0.83332,-0.826629 z m 2.916663,3.719826 c -0.690352,0 -1.250005,0.555134 -1.250005,1.239934 0,0.684801 0.559653,1.239947 1.250005,1.239947 0.690355,0 1.249992,-0.555146 1.249992,-1.239947 0,-0.6848 -0.559637,-1.239934 -1.249992,-1.239934 z"
       class="ColorScheme-Text"
       sodipodi:nodetypes="ssssscccccccssssssssss" />
  </g>
</svg>
