<?xml version="1.0" encoding="UTF-8" standalone="no"?>
<svg
   width="22"
   height="22"
   version="1"
   id="svg14"
   sodipodi:docname="antimicro-symbolic.svg"
   inkscape:version="1.3.2 (091e20ef0f, 2023-11-25)"
   xmlns:inkscape="http://www.inkscape.org/namespaces/inkscape"
   xmlns:sodipodi="http://sodipodi.sourceforge.net/DTD/sodipodi-0.dtd"
   xmlns="http://www.w3.org/2000/svg"
   xmlns:svg="http://www.w3.org/2000/svg">
  <style
     id="current-color-scheme"
     type="text/css">.ColorScheme-Text { color:#eceff4; }
</style>
  <sodipodi:namedview
     id="namedview16"
     pagecolor="#201933"
     bordercolor="#000000"
     borderopacity="1"
     inkscape:showpageshadow="true"
     inkscape:pageopacity="0"
     inkscape:pagecheckerboard="true"
     inkscape:deskcolor="#201933"
     showgrid="true"
     inkscape:zoom="10.429825"
     inkscape:cx="10.738435"
     inkscape:cy="11.21783"
     inkscape:window-width="1920"
     inkscape:window-height="996"
     inkscape:window-x="0"
     inkscape:window-y="0"
     inkscape:window-maximized="1"
     inkscape:current-layer="svg14">
    <inkscape:grid
       type="xygrid"
       id="grid1266"
       originx="-36.999996"
       originy="-38"
       spacingy="1"
       spacingx="1"
       units="px"
       visible="true" />
  </sodipodi:namedview>
  <defs
     id="defs5">
    <style
       type="text/css"
       id="style646" />
  </defs>
  <g
     id="22-22-antimicro-3">
    <rect
       style="opacity:0.00100002"
       width="22"
       height="22"
       x="0"
       y="0"
       id="rect402" />
    <path
       d="m 14.565946,9.76774 h -0.02718 c -0.582365,0.01499 -1.042552,0.500065 -1.027529,1.084316 0.01542,0.572566 0.484216,1.027253 1.053549,1.027253 0.0097,0 0.01955,0 0.02923,-4.03e-4 0.582773,-0.01499 1.042552,-0.500064 1.027908,-1.082836 -0.01471,-0.573771 -0.485011,-1.02832 -1.055717,-1.02832 z"
       id="path1613-3"
       style="fill:#af905e;fill-opacity:1;stroke-width:0.0343761" />
    <path
       d="m 16.322895,6.955795 h -0.0282 c -0.582774,0.01588 -1.04255,0.500068 -1.027907,1.08391 0.01542,0.57256 0.485009,1.027245 1.053827,1.027245 0.0097,0 0.01993,0 0.03013,-4e-4 0.582362,-0.01471 1.042963,-0.500059 1.027907,-1.082423 -0.01542,-0.57377 -0.484631,-1.028321 -1.055715,-1.028321 z"
       id="path1615-6"
       style="fill:#af905e;fill-opacity:1;stroke-width:0.0343761" />
    <path
       d="M 20.649096,15.102182 C 20.603976,12.590615 20.307347,10.050652 19.820847,7.487247 19.424589,5.706166 17.998788,4.119895 15.720836,4.0036 15.662206,4.0006 15.605085,4 15.54936,4 14.028918,4 13.654805,4.874552 11.861868,4.874552 h -0.05339 c -0.259835,-0.0021 -0.519662,-0.003 -0.779372,-0.003 -0.259829,0 -0.523679,0.0012 -0.785794,0.003 h -0.05339 c -1.793045,0 -2.168633,-0.874178 -3.687497,-0.874178 -0.0556,0 -0.112794,0.0015 -0.171477,0.0038 -2.278463,0.116152 -3.748682,1.698371 -4.10172,3.483645 -0.487452,2.563274 -0.784073,5.102404 -0.829177,7.613904 -0.01086,1.748733 1.715551,2.91201 2.854804,2.991763 0.04615,0.0036 0.09212,0.0059 0.13804,0.0059 2.13601,0 3.838749,-3.719469 5.142966,-3.719817 0.497384,0.0036 0.995284,0.005 1.492669,0.005 0.497383,0 0.990711,-0.0021 1.485964,-0.005 1.304252,0 3.006406,3.720498 5.143312,3.720498 0.04587,0 0.09172,-0.0026 0.13804,-0.0059 1.138834,-0.07972 2.910125,-1.250968 2.853331,-2.99176 z m -2.95337,1.56678 c -0.0036,0 -0.0053,0 -0.0071,4.02e-4 -0.01026,0.0012 -0.02034,0.0015 -0.03041,0.0015 -0.192151,0 -0.480194,-0.143953 -0.81024,-0.405669 -0.439907,-0.348607 -0.890265,-0.84558 -1.325731,-1.326153 -0.92681,-1.022683 -1.802051,-1.988159 -3.007476,-1.98857 h -0.0085 c -0.49027,0.0036 -0.987378,0.0044 -1.477609,0.0044 -0.49027,0 -0.991816,-0.0021 -1.484074,-0.005 h -0.0085 c -1.205048,0 -2.080665,0.965888 -3.007478,1.988569 -0.435333,0.480472 -0.885862,0.977169 -1.325736,1.32574 -0.330063,0.261715 -0.617701,0.40567 -0.809862,0.40567 -0.01024,0 -0.02034,-4.01e-4 -0.03013,-0.0015 -0.0036,0 -0.0059,-4.08e-4 -0.0071,-0.0012 C 3.888095,16.634361 2.829664,16.014822 2.830077,15.116236 2.872187,12.787413 3.134623,10.380278 3.631995,7.758435 3.75419,7.147062 4.068944,6.585358 4.519302,6.175944 5.013315,5.726655 5.66271,5.469107 6.396946,5.430405 c 0.03605,-0.0021 0.0714,-0.0031 0.105676,-0.0031 0.432794,0 0.688446,0.11011 1.112129,0.292865 0.568542,0.245196 1.346846,0.581297 2.575506,0.581297 h 0.06427 c 0.257147,-0.0021 0.517771,-0.003 0.774931,-0.003 0.257152,0 0.513611,0.0012 0.768474,0.003 h 0.06426 c 1.228663,0 2.006965,-0.336105 2.575094,-0.581297 0.423373,-0.182755 0.679059,-0.293266 1.112506,-0.293266 0.03426,0 0.06989,0.0012 0.106081,0.0031 1.664133,0.08796 2.518716,1.265199 2.766465,2.346562 0.4959,2.618752 0.757196,5.022998 0.798962,7.349551 0,0.0071 0,0.01391 4.05e-4,0.02106 0.0282,0.862902 -1.058812,1.487442 -1.525432,1.520062 z"
       id="path1617-7"
       style="fill:#e1e1e1;fill-opacity:1;stroke-width:0.0343761" />
    <path
       d="M 8.543646,8.703463 H 7.478134 V 7.637948 c 0,-0.394393 -0.31999,-0.714358 -0.714366,-0.714358 -0.394373,0 -0.714366,0.319986 -0.714366,0.714358 V 8.703463 H 4.98389 c -0.394394,0 -0.714365,0.319996 -0.714365,0.714368 0,0.394391 0.319993,0.714357 0.714365,0.714357 h 1.065512 v 1.065514 c 0,0.394396 0.319993,0.714367 0.714366,0.714367 0.394376,0 0.714366,-0.319991 0.714366,-0.714367 v -1.065514 h 1.065512 c 0.394394,0 0.714363,-0.319983 0.714363,-0.714357 0,-0.394395 -0.319991,-0.714368 -0.714363,-0.714368 z"
       id="path1619-5"
       style="fill:#af905e;fill-opacity:1;stroke-width:0.0343761" />
  </g>
</svg>
