<?xml version="1.0" encoding="UTF-8"?>
<svg width="32px" height="32px" viewBox="0 0 32 32" version="1.1" xmlns="http://www.w3.org/2000/svg" xmlns:xlink="http://www.w3.org/1999/xlink">
    <title>apps/32/dde-calendar</title>
    <defs>
        <filter x="-7.6%" y="-3.6%" width="114.3%" height="117.9%" filterUnits="objectBoundingBox" id="filter-1">
            <feOffset dx="-0.139173101" dy="0.990268069" in="SourceAlpha" result="shadowOffsetOuter1"></feOffset>
            <feGaussianBlur stdDeviation="0.5" in="shadowOffsetOuter1" result="shadowBlurOuter1"></feGaussianBlur>
            <feColorMatrix values="0 0 0 0 0   0 0 0 0 0   0 0 0 0 0  0 0 0 0.15 0" type="matrix" in="shadowBlurOuter1" result="shadowMatrixOuter1"></feColorMatrix>
            <feMerge>
                <feMergeNode in="shadowMatrixOuter1"></feMergeNode>
                <feMergeNode in="SourceGraphic"></feMergeNode>
            </feMerge>
        </filter>
        <radialGradient cx="54.3240802%" cy="55.7793187%" fx="54.3240802%" fy="55.7793187%" r="61.9143954%" gradientTransform="translate(0.5432, 0.5578), scale(1, 0.8824), rotate(-144.9986), scale(1, 1.2647), translate(-0.5432, -0.5578)" id="radialGradient-2">
            <stop stop-color="#000000" offset="0%"></stop>
            <stop stop-color="#000000" stop-opacity="0.148218969" offset="100%"></stop>
        </radialGradient>
        <path d="M13.0556619,19.3533958 L13.0556619,18.0060439 L9.39726717,18.0060439 L12.477675,14.2154079 C12.8629996,13.7340573 13.0556619,13.1839423 13.0556619,12.565063 C13.0469046,11.7914638 12.7819939,11.1532445 12.2609299,10.650405 C11.7486232,10.1432677 11.0808731,9.88540135 10.2576796,9.8768058 C9.52205981,9.88540135 8.9024753,10.13897 8.39892605,10.6375117 C7.89975549,11.1489467 7.63265545,11.7957616 7.59762594,12.5779563 L7.59762594,12.5779563 L8.96377694,12.5779563 C9.01194253,12.148179 9.16519664,11.8151015 9.4235393,11.578724 C9.67312458,11.3423465 9.98620086,11.2241577 10.3627681,11.2241577 C10.787501,11.2327533 11.1159027,11.3681331 11.3479732,11.6302973 C11.5712863,11.8924615 11.6829429,12.1997522 11.6829429,12.5521696 C11.6829429,12.6854006 11.6654281,12.8272271 11.6303986,12.9776492 C11.5778544,13.1366668 11.4793339,13.3085777 11.3348371,13.493382 L11.3348371,13.493382 L7.59762594,18.0834038 L7.59762594,19.3533958 L13.0556619,19.3533958 Z M16.7646406,19.2934174 L20.0131584,11.2266493 L20.0131584,9.8768058 L14.5551224,9.8768058 L14.5551224,12.58941 L15.9294953,12.58941 L15.9294953,11.2266493 L18.4743868,11.2266493 L15.2324449,19.2934174 L16.7646406,19.2934174 Z" id="path-3"></path>
        <filter x="-28.2%" y="-26.4%" width="156.4%" height="173.9%" filterUnits="objectBoundingBox" id="filter-4">
            <feOffset dx="0" dy="1" in="SourceAlpha" result="shadowOffsetOuter1"></feOffset>
            <feGaussianBlur stdDeviation="1" in="shadowOffsetOuter1" result="shadowBlurOuter1"></feGaussianBlur>
            <feColorMatrix values="0 0 0 0 0.000854821203   0 0 0 0 0.168099661   0 0 0 0 0.309386322  0 0 0 0.2 0" type="matrix" in="shadowBlurOuter1"></feColorMatrix>
        </filter>
        <linearGradient x1="69.8093701%" y1="71.0965544%" x2="57.0007078%" y2="57.7013487%" id="linearGradient-5">
            <stop stop-color="#C6C6C6" offset="0%"></stop>
            <stop stop-color="#E7E7E7" offset="53.0517663%"></stop>
            <stop stop-color="#F4F4F4" offset="100%"></stop>
        </linearGradient>
        <path d="M26.9106764,18.5136979 C26.9106764,18.5136979 26.3146749,20.6653557 25.9510217,21.392662 C25.4711944,22.3523167 24.975635,22.1758087 24.0317124,23.3119713 C23.0877897,24.4481339 23.7249375,24.6674836 22.3090535,25.8619109 C21.5502768,26.5020083 19.4733526,26.9106764 19.4733526,26.9106764 C25.3433715,26.9106764 26.9106764,21.630862 26.9106764,18.5136979 Z" id="path-6"></path>
        <filter x="-26.9%" y="-11.9%" width="153.8%" height="147.6%" filterUnits="objectBoundingBox" id="filter-7">
            <feOffset dx="0" dy="1" in="SourceAlpha" result="shadowOffsetOuter1"></feOffset>
            <feGaussianBlur stdDeviation="0.5" in="shadowOffsetOuter1" result="shadowBlurOuter1"></feGaussianBlur>
            <feColorMatrix values="0 0 0 0 0   0 0 0 0 0   0 0 0 0 0  0 0 0 0.05 0" type="matrix" in="shadowBlurOuter1"></feColorMatrix>
        </filter>
    </defs>
    <g id="apps/32/dde-calendar" stroke="none" fill="none">
        <g id="编组-2" filter="url(#filter-1)" stroke-width="1" fill-rule="evenodd" transform="translate(15.9975, 15.9975) rotate(-8) translate(-15.9975, -15.9975)translate(2.0421, 2.0421)">
            <g id="编组" transform="translate(-0, 0)">
                <rect id="矩形备份-2" fill="#FFFFFF" x="1" y="1" width="25.9106764" height="25.9106764" rx="4.875"></rect>
                <path d="M22.0356764,4.62831413e-13 C25.2803493,4.62831413e-13 27.9106764,2.63032709 27.9106764,5.875 L27.9106764,22.0356764 C27.9106764,25.2803493 25.2803493,27.9106764 22.0356764,27.9106764 L5.875,27.9106764 C2.63032709,27.9106764 5.76360265e-12,25.2803493 5.76360265e-12,22.0356764 L5.76360265e-12,5.875 C5.76360265e-12,2.63032709 2.63032709,4.62831413e-13 5.875,4.62831413e-13 L22.0356764,4.62831413e-13 Z M22.0356764,1 L5.875,1 C3.18261184,1 1,3.18261184 1,5.875 L1,22.0356764 C1,24.7280646 3.18261184,26.9106764 5.875,26.9106764 L22.0356764,26.9106764 C24.7280646,26.9106764 26.9106764,24.7280646 26.9106764,22.0356764 L26.9106764,5.875 C26.9106764,3.18261184 24.7280646,1 22.0356764,1 Z" id="矩形备份-2" fill-opacity="0.05" fill="#000000" fill-rule="nonzero"></path>
                <path d="M26.9106764,18.7536116 L26.9106764,22.0356764 C26.9106764,24.7280646 24.7280646,26.9106764 22.0356764,26.9106764 L19.7132663,26.9106764 C22.1723814,26.6107843 23.9017591,25.661126 24.9013994,24.0617016 C25.9010397,22.4622771 26.5707987,20.6929138 26.9106764,18.7536116 Z" id="形状结合" fill-opacity="0.39" fill="url(#radialGradient-2)"></path>
                <g id="MARCH" transform="translate(6.1953, 2.3184)" fill="#E06164" fill-rule="nonzero">
                    <path d="M0.424375,5 L0.879375,5 L0.879375,3.4075 C0.879375,3.11875 0.84,2.703125 0.818125,2.41 L0.835625,2.41 L1.089375,3.15375 L1.65375,4.689375 L1.96875,4.689375 L2.52875,3.15375 L2.786875,2.41 L2.804375,2.41 C2.778125,2.703125 2.73875,3.11875 2.73875,3.4075 L2.73875,5 L3.21125,5 L3.21125,1.775625 L2.625,1.775625 L2.043125,3.4075 C1.96875,3.621875 1.9075,3.840625 1.833125,4.055 L1.81125,4.055 C1.736875,3.840625 1.67125,3.621875 1.596875,3.4075 L1.00625,1.775625 L0.424375,1.775625 L0.424375,5 Z" id="路径"></path>
                    <path d="M4.6725,3.25 C4.7775,2.9 4.878125,2.545625 4.97,2.178125 L4.991875,2.178125 C5.088125,2.54125 5.184375,2.9 5.29375,3.25 L5.420625,3.683125 L4.54125,3.683125 L4.6725,3.25 Z M3.63125,5 L4.1475,5 L4.423125,4.08125 L5.543125,4.08125 L5.814375,5 L6.3525,5 L5.285,1.775625 L4.69875,1.775625 L3.63125,5 Z" id="形状"></path>
                    <path d="M6.776875,5 L7.284375,5 L7.284375,3.700625 L7.805,3.700625 L8.535625,5 L9.10875,5 L8.32125,3.635 C8.728125,3.508125 8.995,3.210625 8.995,2.711875 C8.995,2.01625 8.49625,1.775625 7.83125,1.775625 L6.776875,1.775625 L6.776875,5 Z M7.284375,3.29375 L7.284375,2.186875 L7.77,2.186875 C8.238125,2.186875 8.491875,2.3225 8.491875,2.711875 C8.491875,3.10125 8.238125,3.29375 7.77,3.29375 L7.284375,3.29375 Z" id="形状"></path>
                    <path d="M10.9025,5.056875 C11.318125,5.056875 11.64625,4.890625 11.904375,4.593125 L11.633125,4.27375 C11.440625,4.48375 11.2175,4.615 10.92,4.615 C10.35125,4.615 9.9925,4.146875 9.9925,3.38125 C9.9925,2.624375 10.3775,2.160625 10.933125,2.160625 C11.195625,2.160625 11.396875,2.27875 11.563125,2.449375 L11.83875,2.125625 C11.641875,1.91125 11.326875,1.71875 10.924375,1.71875 C10.110625,1.71875 9.471875,2.34875 9.471875,3.39875 C9.471875,4.453125 10.093125,5.056875 10.9025,5.056875 Z" id="路径"></path>
                    <polygon id="路径" points="12.473125 5 12.980625 5 12.980625 3.534375 14.35875 3.534375 14.35875 5 14.86625 5 14.86625 1.775625 14.35875 1.775625 14.35875 3.0925 12.980625 3.0925 12.980625 1.775625 12.473125 1.775625"></polygon>
                </g>
                <g id="27" fill-rule="nonzero">
                    <use fill="black" fill-opacity="1" filter="url(#filter-4)" xlink:href="#path-3"></use>
                    <use fill="#2D394F" xlink:href="#path-3"></use>
                </g>
            </g>
            <g id="MONDAY" transform="translate(8.5153, 20.3523)" fill="#2D394F" fill-rule="nonzero">
                <path d="M0.2425,3 L0.5025,3 L0.5025,2.09 C0.5025,1.925 0.48,1.6875 0.4675,1.52 L0.4775,1.52 L0.6225,1.945 L0.945,2.8225 L1.125,2.8225 L1.445,1.945 L1.5925,1.52 L1.6025,1.52 C1.5875,1.6875 1.565,1.925 1.565,2.09 L1.565,3 L1.835,3 L1.835,1.1575 L1.5,1.1575 L1.1675,2.09 C1.125,2.2125 1.09,2.3375 1.0475,2.46 L1.035,2.46 C0.9925,2.3375 0.955,2.2125 0.9125,2.09 L0.575,1.1575 L0.2425,1.1575 L0.2425,3 Z" id="路径"></path>
                <path d="M3.0175,3.0325 C3.49,3.0325 3.82,2.665 3.82,2.0725 C3.82,1.48 3.49,1.125 3.0175,1.125 C2.545,1.125 2.2175,1.48 2.2175,2.0725 C2.2175,2.665 2.545,3.0325 3.0175,3.0325 Z M3.0175,2.78 C2.7125,2.78 2.515,2.5025 2.515,2.0725 C2.515,1.64 2.7125,1.3775 3.0175,1.3775 C3.3225,1.3775 3.5225,1.64 3.5225,2.0725 C3.5225,2.5025 3.3225,2.78 3.0175,2.78 Z" id="形状"></path>
                <path d="M4.2025,3 L4.4775,3 L4.4775,2.1325 C4.4775,1.9325 4.455,1.72 4.44,1.53 L4.4525,1.53 L4.645,1.915 L5.255,3 L5.5525,3 L5.5525,1.1575 L5.2775,1.1575 L5.2775,2.0175 C5.2775,2.2175 5.3,2.44 5.315,2.63 L5.3025,2.63 L5.11,2.24 L4.5,1.1575 L4.2025,1.1575 L4.2025,3 Z" id="路径"></path>
                <path d="M6.0375,3 L6.53,3 C7.08,3 7.4025,2.67 7.4025,2.0725 C7.4025,1.4725 7.08,1.1575 6.515,1.1575 L6.0375,1.1575 L6.0375,3 Z M6.3275,2.7625 L6.3275,1.395 L6.495,1.395 C6.89,1.395 7.1025,1.6125 7.1025,2.0725 C7.1025,2.53 6.89,2.7625 6.495,2.7625 L6.3275,2.7625 Z" id="形状"></path>
                <path d="M8.1375,2 C8.1975,1.8 8.255,1.5975 8.3075,1.3875 L8.32,1.3875 C8.375,1.595 8.43,1.8 8.4925,2 L8.565,2.2475 L8.0625,2.2475 L8.1375,2 Z M7.5425,3 L7.8375,3 L7.995,2.475 L8.635,2.475 L8.79,3 L9.0975,3 L8.4875,1.1575 L8.1525,1.1575 L7.5425,3 Z" id="形状"></path>
                <path d="M9.6425,3 L9.9325,3 L9.9325,2.3025 L10.4875,1.1575 L10.185,1.1575 L9.97,1.6475 C9.915,1.785 9.855,1.9125 9.795,2.0525 L9.785,2.0525 C9.7225,1.9125 9.67,1.785 9.6125,1.6475 L9.4,1.1575 L9.09,1.1575 L9.6425,2.3025 L9.6425,3 Z" id="路径"></path>
            </g>
            <g id="路径-11">
                <use fill="black" fill-opacity="1" filter="url(#filter-7)" xlink:href="#path-6"></use>
                <use fill="url(#linearGradient-5)" fill-rule="evenodd" xlink:href="#path-6"></use>
            </g>
        </g>
        <g id="Guide/32"></g>
    </g>
</svg>