<?xml version="1.0" encoding="UTF-8"?>
<svg width="32px" height="32px" viewBox="0 0 32 32" version="1.1" xmlns="http://www.w3.org/2000/svg" xmlns:xlink="http://www.w3.org/1999/xlink">
    <title>apps/32/org.deepin.browser</title>
    <defs>
        <filter x="-6.9%" y="-3.4%" width="113.8%" height="113.8%" filterUnits="objectBoundingBox" id="filter-1">
            <feOffset dx="0" dy="1" in="SourceAlpha" result="shadowOffsetOuter1"></feOffset>
            <feGaussianBlur stdDeviation="0.5" in="shadowOffsetOuter1" result="shadowBlurOuter1"></feGaussianBlur>
            <feColorMatrix values="0 0 0 0 0   0 0 0 0 0   0 0 0 0 0  0 0 0 0.15 0" type="matrix" in="shadowBlurOuter1" result="shadowMatrixOuter1"></feColorMatrix>
            <feMerge>
                <feMergeNode in="shadowMatrixOuter1"></feMergeNode>
                <feMergeNode in="SourceGraphic"></feMergeNode>
            </feMerge>
        </filter>
        <linearGradient x1="50%" y1="0%" x2="50%" y2="98.1385523%" id="linearGradient-2">
            <stop stop-color="#FFFFFF" offset="0%"></stop>
            <stop stop-color="#EDEDED" offset="100%"></stop>
        </linearGradient>
        <linearGradient x1="47.5589538%" y1="17.8673453%" x2="55.3397985%" y2="50%" id="linearGradient-3">
            <stop stop-color="#4E56FD" offset="0%"></stop>
            <stop stop-color="#4F52FF" offset="100%"></stop>
        </linearGradient>
        <linearGradient x1="0%" y1="50%" x2="87.8403076%" y2="34.0932226%" id="linearGradient-4">
            <stop stop-color="#6B5BFE" offset="0%"></stop>
            <stop stop-color="#58CDFF" offset="100%"></stop>
        </linearGradient>
    </defs>
    <g id="apps/32/org.deepin.browser" stroke="none" fill="none">
        <g id="编组" filter="url(#filter-1)" stroke-width="1" fill-rule="evenodd" transform="translate(1.5, 1.5)">
            <path d="M25.6073858,23.8202033 C30.754792,17.6857635 29.9546431,8.54002035 23.8202033,3.39261418 C17.6857635,-1.75479199 8.54002035,-0.95464314 3.39261418,5.17979666 C-1.75479199,11.3142365 -0.95464314,20.4599796 5.17979666,25.6073858 C11.3142365,30.754792 20.4599796,29.9546431 25.6073858,23.8202033 Z" id="椭圆形" fill="url(#linearGradient-2)"></path>
            <path d="M12.7549371,10.7416248 C13.1453308,8.40473824 12.5998145,7.407985 11.1183884,7.75136507 C8.89624912,8.26643518 7.63937608,11.82266 7.67501349,13.6822845 C7.70966097,15.4902527 8.61849188,18.7862932 11.9920873,21.1268452 L12.2873258,21.325067 C15.903513,23.6742809 11.9524907,27.5588606 8.98232853,23.0653188 C7.00222042,20.0696242 5.61922202,15.6427547 4.83333333,9.78471037 L6.79682541,4.58753884 L9.65904573,2.45232286 L13.0146158,1.93333333 L15.4666667,3.28196238 L15.429621,6.72141035 L12.7549371,10.7416248 Z" id="路径-39" fill="url(#linearGradient-3)"></path>
            <path d="M3.39261654,5.17979666 C6.86027006,1.047211 12.1424931,-0.664509443 17.0962129,0.232129776 C19.4085909,0.883902795 21.9472022,2.51807803 22.9047898,5.14554049 C24.0780889,8.36487934 22.3342085,12.6931484 19.6989159,14.4484791 C15.4168053,17.3007316 10.70178,15.8399617 10.8473284,12.8671462 C10.8959747,11.8735499 11.360023,10.9891487 11.8786627,10.1072697 L12.1953786,9.57444904 C12.5564213,8.96686872 12.9089847,8.35036582 13.1363898,7.69044447 C13.7617538,5.87566073 13.7545616,4.13968677 12.575642,3.15045647 C12.0368884,2.69838883 11.0200246,2.27924114 9.67651942,2.78734355 C8.239276,3.33089699 6.26542742,5.069454 5.57539656,8.05911771 C5.3286518,9.12817697 5.18485765,10.440747 5.24801761,11.5052611 C5.40316572,14.1201672 6.68885778,16.4618088 8.42076622,18.3839613 L8.51743808,18.490315 C9.28272104,19.3249232 12.2977691,21.6940728 15.2935479,21.8974939 C19.0903134,22.155304 23.3540675,20.3486198 25.4641546,17.8339177 C27.4877324,15.4223133 28.4503741,12.8808167 28.3520799,10.2094277 C29.7561852,14.7573547 28.8945084,19.9027872 25.6074036,23.8202033 C20.4599939,29.9546431 11.3142443,30.754792 5.17980026,25.6073858 C-0.954643804,20.4599796 -1.75479321,11.3142365 3.39261654,5.17979666 Z" id="路径" fill="url(#linearGradient-4)"></path>
            <path d="M3.39261418,5.17979666 C8.54002035,-0.95464314 17.6857635,-1.75479199 23.8202033,3.39261418 C29.9546431,8.54002035 30.754792,17.6857635 25.6073858,23.8202033 C20.4599796,29.9546431 11.3142365,30.754792 5.17979666,25.6073858 C-0.95464314,20.4599796 -1.75479199,11.3142365 3.39261418,5.17979666 Z M4.14565729,5.81167485 C-0.652772193,11.5302204 0.0931292766,20.0559132 5.81167485,24.8543427 C11.5302204,29.6527722 20.0559132,28.9068707 24.8543427,23.1883251 C29.6527722,17.4697796 28.9068707,8.94408677 23.1883251,4.14565729 C17.4697796,-0.652772193 8.94408677,0.0931292766 4.14565729,5.81167485 Z" id="形状" fill-opacity="0.08" fill="#000000" fill-rule="nonzero"></path>
        </g>
        <g id="Guide/32"></g>
    </g>
</svg>