<?xml version="1.0" encoding="UTF-8" standalone="no"?>
<svg
   width="22"
   height="22"
   version="1.1"
   id="svg1"
   sodipodi:docname="caffeine-cup-empty.svg"
   inkscape:version="1.4.2 (unknown)"
   xmlns:inkscape="http://www.inkscape.org/namespaces/inkscape"
   xmlns:sodipodi="http://sodipodi.sourceforge.net/DTD/sodipodi-0.dtd"
   xmlns="http://www.w3.org/2000/svg"
   xmlns:svg="http://www.w3.org/2000/svg">
  <defs
     id="defs1" />
  <sodipodi:namedview
     id="namedview1"
     pagecolor="#ffffff"
     bordercolor="#999999"
     borderopacity="1"
     inkscape:showpageshadow="2"
     inkscape:pageopacity="0"
     inkscape:pagecheckerboard="0"
     inkscape:deskcolor="#d1d1d1"
     inkscape:zoom="12.245804"
     inkscape:cx="11.024184"
     inkscape:cy="23.59992"
     inkscape:window-width="1920"
     inkscape:window-height="994"
     inkscape:window-x="0"
     inkscape:window-y="0"
     inkscape:window-maximized="1"
     inkscape:current-layer="svg1" />
  <style
     type="text/css"
     id="current-color-scheme">.ColorScheme-Text{color:#31363b;}.ColorScheme-Background{color:#eff0f1;}.ColorScheme-Highlight{color:#3daee9;}.ColorScheme-ViewText{color:#31363b;}.ColorScheme-ViewBackground{color:#fcfcfc;}.ColorScheme-ViewHover{color:#93cee9;}.ColorScheme-ViewFocus{color:#3daee9;}.ColorScheme-ButtonText{color:#31363b;}.ColorScheme-ButtonBackground{color:#eff0f1;}.ColorScheme-ButtonHover{color:#93cee9;}.ColorScheme-ButtonFocus { color: #3daee9; } </style>
  <g
     id="22-22-kteatime"
     transform="translate(-32,-10)">
    <rect
       style="opacity:0.00100002"
       width="22"
       height="22"
       x="32"
       y="10"
       id="rect2" />
    <path
       d="M 49.864463,29 H 33.996694 C 33.778116,29 33.6,28.689653 33.6,28.471075 c 0,-0.218579 0.178116,-0.528926 0.396694,-0.528926 h 15.867769 c 0.218578,0 0.396694,0.310347 0.396694,0.528926 C 50.261157,28.689653 50.083041,29 49.864463,29 Z"
       id="path2-3"
       style="color:#eff0f1;fill:currentColor;fill-opacity:1;stroke-width:0.0396695"
       sodipodi:nodetypes="sssssss"
       class="ColorScheme-Text" />
    <path
       d="m 47.485488,26.090909 h -0.0016 c -0.209455,0 -0.383207,-0.163834 -0.395544,-0.373289 -0.01309,-0.218181 0.153917,-0.406215 0.372535,-0.419305 h 3.97e-4 c 0.0024,-3.98e-4 0.0067,-8e-4 0.01309,-0.0011 0.019,-0.0021 0.03884,-0.0041 0.06029,-0.0068 0.05117,-0.0059 0.134876,-0.01825 0.243173,-0.03923 0.194024,-0.03852 0.498645,-0.114684 0.849323,-0.257851 0.901329,-0.368925 1.63557,-0.971108 2.181421,-1.789488 0.607736,-0.903272 0.645421,-1.345984 0.642645,-1.460232 -8.66e-4,-0.104766 -0.02181,-0.15471 -0.04245,-0.190056 -0.02539,-0.04125 -0.05951,-0.0722 -0.114248,-0.10314 -0.117818,-0.06902 -0.344727,-0.111868 -0.593058,-0.111868 -0.0059,0 -0.01191,0 -0.01785,0 h -0.0087 c -0.487934,0 -1.055206,0.140034 -1.146406,0.167406 -0.0037,0.0012 -0.0041,0.0012 -0.0044,0.0012 -0.03571,0.01032 -0.0722,0.01547 -0.109091,0.01547 -0.176132,0 -0.332827,-0.118214 -0.381223,-0.287604 -0.02936,-0.10195 -0.01705,-0.209057 0.03451,-0.301884 0.05157,-0.09243 0.136066,-0.15947 0.238017,-0.188826 0.0012,0 0.0067,-0.0016 0.01468,-0.0036 0.215404,-0.05832 0.779106,-0.193587 1.362644,-0.19557 0.297124,8e-4 0.53637,0.03451 0.753322,0.105917 0.202354,0.06665 0.479603,0.206281 0.652166,0.494281 0.102346,0.169388 0.156257,0.376463 0.155504,0.598254 -0.006,0.51134 -0.245197,1.097217 -0.775974,1.900126 -0.348694,0.523636 -0.773117,0.978248 -1.261091,1.351538 -0.391497,0.299504 -0.822307,0.54585 -1.280489,0.732693 -0.740628,0.301885 -1.310678,0.354645 -1.417389,0.362183 h -0.0016 c -0.0084,3.69e-4 -0.01551,8e-4 -0.02265,8e-4 z"
       id="path6-6"
       style="color:#eff0f1;fill:currentColor;fill-opacity:1;stroke-width:0.0396695"
       class="ColorScheme-Text" />
    <path
       d="m 49.467768,19.743801 h -8.330577 c -0.218579,0 -0.396695,-0.178116 -0.396695,-0.396693 0,-0.218579 0.178116,-0.396695 0.396695,-0.396695 h 7.603305 V 17.760331 H 35.120661 v 1.190082 h 2.049587 c 0.218579,0 0.396694,0.178116 0.396694,0.396695 0,0.218577 -0.178115,0.396693 -0.396694,0.396693 h -2.776859 c -0.104331,0 -0.206678,-0.04244 -0.280464,-0.11623 -0.07378,-0.07379 -0.116231,-0.176132 -0.116231,-0.280463 v -1.983472 c 0,-0.104331 0.04245,-0.537123 0.116231,-0.610909 0.07379,-0.07379 0.176133,-0.116364 0.280464,-0.116364 h 15.074379 c 0.104331,0 0.206679,0.04258 0.280424,0.116364 0.07379,0.07379 0.116271,0.506578 0.116271,0.610909 v 1.983472 c 0,0.104331 -0.04245,0.206677 -0.116271,0.280463 -0.07375,0.07379 -0.176093,0.11623 -0.280424,0.11623 z m -10.314049,0 c -0.218975,0 -0.396694,-0.178116 -0.396694,-0.396693 0,-0.218579 0.177719,-0.396695 0.396694,-0.396695 0.218578,0 0.396694,0.178116 0.396694,0.396695 0,0.218577 -0.178116,0.396693 -0.396694,0.396693 z"
       id="path10-7"
       style="color:#eff0f1;fill:currentColor;fill-opacity:1;stroke-width:0.0396695"
       sodipodi:nodetypes="ssssccccsssssssssscsscssssss"
       class="ColorScheme-Text" />
    <path
       d="m 43.151603,28.867768 h -2.410711 c -0.02856,0 -0.05157,-0.0024 -0.07973,-0.0079 -0.900893,-0.18486 -1.765686,-0.558943 -2.570182,-1.111538 -0.780297,-0.53637 -1.400235,-1.106324 -1.998846,-1.925062 -0.176697,-0.261251 -0.04377,-0.57458 0.142581,-0.724723 0.06823,-0.04999 0.211998,-0.114805 0.361653,-0.156032 0.151199,-0.04165 0.378315,0.06069 0.452893,0.162644 1.095669,1.498353 2.165157,2.307399 3.732496,2.638677 h 2.328992 c 1.566109,-0.331636 2.698671,-1.01223 3.788429,-2.516058 1.108364,-1.5289 1.759207,-3.476668 1.833388,-5.483942 h -13.6119 c 0.02618,0.693422 0.128264,1.383274 0.288926,2.050474 0.0075,0.03095 0.01124,0.06268 0.01124,0.09441 -0.06147,0.210759 -0.253884,0.324668 -0.432397,0.367511 -0.03055,0.0075 -0.131702,0.02764 -0.162645,0.02764 -0.184066,0 -0.474842,-0.124959 -0.518082,-0.303868 -0.178512,-0.742215 -0.28086,-1.509064 -0.305058,-2.279008 -0.004,-0.13448 -0.0059,-0.24714 -0.0059,-0.353851 0,-0.104331 0.04245,-0.206679 0.116232,-0.280464 0.07378,-0.07379 0.176128,-0.116235 0.280458,-0.116235 h 15.074379 c 0.104331,0 0.206679,0.04245 0.280424,0.116231 0.07379,0.07379 0.116271,0.176133 0.116271,0.280464 0,0.107504 -0.002,0.220165 -0.006,0.353851 -0.03451,1.113124 -0.228892,2.20324 -0.577943,3.238968 -0.338381,1.003676 -0.812073,1.929917 -1.408265,2.753454 -0.595875,0.822348 -1.292865,1.512199 -2.071577,2.050514 -0.803305,0.555372 -1.667701,0.930644 -2.569388,1.1159 -0.02816,0.0056 -0.05117,0.008 -0.07974,0.008 z m -7.815272,-4.710743 c -0.155504,0 -0.297124,-0.09124 -0.361389,-0.232464 v -3.96e-4 c -0.04403,-0.0964 -0.0476,-0.204297 -0.01031,-0.303074 0.03729,-0.09917 0.110678,-0.178116 0.207471,-0.222188 0.05197,-0.0234 0.107108,-0.03531 0.163835,-0.03531 0.155107,0 0.297124,0.09124 0.361388,0.232423 v 4.36e-4 c 0.09045,0.199141 0.002,0.434341 -0.197157,0.524786 -0.05197,0.02388 -0.107107,0.03579 -0.163834,0.03579 z"
       id="path22-3"
       style="color:#eff0f1;fill:currentColor;fill-opacity:1;stroke-width:0.0396695"
       sodipodi:nodetypes="ssccccscccccccccsccsssscscccccssccccscccs"
       class="ColorScheme-Text" />
    <path
       d="M 48.476033,21.727273 H 39.74876 c -0.218579,0 -0.396693,-0.178116 -0.396693,-0.396694 0,-0.218579 0.178114,-0.396695 0.396693,-0.396695 h 8.727273 c 0.218579,0 0.396694,0.178116 0.396694,0.396695 0,0.218578 -0.178115,0.396694 -0.396694,0.396694 z"
       id="path26-5"
       style="color:#eff0f1;fill:currentColor;fill-opacity:1;stroke-width:0.0396695"
       class="ColorScheme-Text" />
  </g>
</svg>
