<svg height="32" width="32" xmlns="http://www.w3.org/2000/svg" xmlns:xlink="http://www.w3.org/1999/xlink">
  <filter id="a" color-interpolation-filters="sRGB" height="1.2736" width="1.2736" x="-.1368" y="-.1368">
    <feGaussianBlur stdDeviation="1.254"/>
  </filter>
  <path d="m16.5 5.5128c-1.3992 0-2.7377.27366-3.9688.75-.14561-.0352-.27367-.0625-.40625-.0625-.53033 0-1.4018.26072-1.8438.4375-.24253.097-.4938.4006-.59375 1.2188-2.5542 2.0143-4.1875 5.1509-4.1875 8.6562 0 6.0751 4.9249 11 11 11s11-4.9249 11-11c0-2.7842-1.0445-5.3123-2.75-7.25-.005-.006.005-.0255 0-.0312-.1408-.15931-.28781-.31787-.4375-.46875.14434-.91809.36632-2.5575.0625-2.625-.39775-.0884-1.3308.32636-1.375.8125-.0119.13079-.0397.42237-.0625.65625-.66831-.48392-1.3866-.89323-2.1562-1.2188 0-.15865-.1226-.28125-.28125-.28125-.0793 0-.13702.0433-.1875.0937-1.1871-.43829-2.4732-.6875-3.8125-.6875zm-5.9688 1.4375s.2251.0562.375.0937c-.0643.0381-.12402.0856-.1875.125-.0912-.10297-.1875-.21875-.1875-.21875z" filter="url(#a)" opacity=".2"/>
  <path d="m27.5 15.5a11 11 0 0 1 -11 11 11 11 0 0 1 -11-11 11 11 0 0 1 11-11 11 11 0 0 1 11 11z" fill="#3b4252"/>
  <path d="m26.5 15.5a10 10 0 0 1 -10 10 10 10 0 0 1 -10-10 10 10 0 0 1 10-10 10 10 0 0 1 10 10z" fill="#d08770"/>
  <path d="m20.5 6.1066c-.15865 0-.28125.1226-.28125.28125s.1226.28125.28125.28125.28125-.1226.28125-.28125-.1226-.28125-.28125-.28125zm3.875.0312c-.39775-.0884-1.3308.32636-1.375.8125s-.16698 1.9384-.34375 2.4688l-1.1875 3.5625h-1.75l1.5312.3125s-.59375 1.6777-.59375 2.0312c0 .35356-.56028 2.2812-.78125 2.2812s-1.792-3.0581-1.9688-3.5c-.17678-.44195-.81878-2.6433-1.4375-2.6875s-.94823.74556-1.125 1.1875c-.17678.44195-1.3469 3.6067-1.6562 3.5625s-1.0312-2.8706-1.0312-3.3125-.125-1.5938-.125-1.5938l.53125-.84375-.875.0937-.15625-.84375.375-.21875-.4375-.15625s-.48483-1.1022-.75-1.5c-.26516-.39775-.6875-.84375-.6875-.84375s1.2089.33839 1.5625.25c.35355-.0884 1.196-.30713 1.5938-.21875.39775.0884 1.321.0442 1.7188 0s.875-.25.875-.25-.31656-.58839-1.1562-.5c-.83969.0884-.90181.34375-1.3438.34375s-1.1259-.375-1.6562-.375-1.4018.26072-1.8438.4375-.92364.96446-.4375 4.5c.48613 3.5355-.48836 3.5943.21875 5.4062.7071 1.812.67012 4.0924 1.1562 4.8438.48614.75131 1.8835 1.7188 2.2812 1.7188s.82858-1.1988 1.0938-3.1875c.26516-1.9887.86206-1.8737.90625-2.625.0442-.7513.64108-2.888.90625-2.8438.26516.0442.40939 1.3608.71875 2.1562.30936.7955.0375 1.6925.65625 3.0625.61872 1.37.92455 1.85.96875 2.4688.0442.61871.49019 1.4192.84375 1.375.35355-.0442 1.4978-2.0656 1.7188-2.375s.625-.6875.625-.6875l-.21875-.375.8125-.4375-.375-.25.5-.375-.4375-.1875.84375-1.2188-.6875-.28125s.4558-.23039.5-.9375c.0442-.7071-.0335-1.5246.1875-2.1875.22097-.66291.8125-2.2973.8125-2.5625 0-.26516.90625-2.4375.90625-2.4375l-.59375.34375s.58525-3.3179.1875-3.4062zm-7.4375.0625c-.14645 0-.25.10355-.25.25s.10355.28125.25.28125.28125-.1348.28125-.28125-.1348-.25-.28125-.25zm2.1875.59375c-.17085 0-.3125.14165-.3125.3125s.14165.3125.3125.3125.3125-.14165.3125-.3125-.14165-.3125-.3125-.3125zm-1.1562.90625s-.49019.52367-.84375.65625c-.35355.13259-.53976.12815-.9375.4375-.39775.30936-.3112-.008-1.0625.125-.7513.13258-.875.71875-.875.71875.17678 0 .4902.11965.84375.0312.35356-.0884.51608-.31028.78125-.53125.26516-.22097.93842-.39109 1.4688-.65625.53032-.26517.625-.78125.625-.78125zm.34375 1.6562c-.20747 0-.40625.16753-.40625.375s.19878.375.40625.375.375-.16753.375-.375-.16753-.375-.375-.375zm2.4688.1875c-.12204 0-.21875.0967-.21875.21875 0 .12204.0967.21875.21875.21875.12204 0 .21875-.0967.21875-.21875 0-.12204-.0967-.21875-.21875-.21875zm-1.0938 1.0625c-.19526 0-.34375.14849-.34375.34375s.14849.375.34375.375.34375-.17974.34375-.375-.14849-.34375-.34375-.34375zm4.0312 6.5c-.14645 0-.28125.10355-.28125.25s.1348.28125.28125.28125.25-.1348.25-.28125-.10355-.25-.25-.25z" fill="#3b4252"/>
</svg>
