<?xml version="1.0" encoding="UTF-8" standalone="no"?>
<svg
   version="1.1"
   viewBox="0 0 24 24"
   id="svg1"
   sodipodi:docname="activities.svg"
   width="24"
   height="24"
   inkscape:version="1.3.2 (091e20ef0f, 2023-11-25)"
   xmlns:inkscape="http://www.inkscape.org/namespaces/inkscape"
   xmlns:sodipodi="http://sodipodi.sourceforge.net/DTD/sodipodi-0.dtd"
   xmlns="http://www.w3.org/2000/svg"
   xmlns:svg="http://www.w3.org/2000/svg">
  <defs
     id="defs1" />
  <sodipodi:namedview
     id="namedview1"
     pagecolor="#ffffff"
     bordercolor="#999999"
     borderopacity="1"
     inkscape:showpageshadow="2"
     inkscape:pageopacity="0"
     inkscape:pagecheckerboard="0"
     inkscape:deskcolor="#d1d1d1"
     inkscape:zoom="12.245804"
     inkscape:cx="10.697542"
     inkscape:cy="17.638695"
     inkscape:window-width="1920"
     inkscape:window-height="996"
     inkscape:window-x="0"
     inkscape:window-y="0"
     inkscape:window-maximized="1"
     inkscape:current-layer="svg1"
     showgrid="true">
    <inkscape:grid
       id="grid1"
       units="px"
       originx="0"
       originy="0"
       spacingx="1"
       spacingy="1"
       empcolor="#0099e5"
       empopacity="0.30196078"
       color="#0099e5"
       opacity="0.14901961"
       empspacing="5"
       dotted="false"
       gridanglex="30"
       gridanglez="30"
       visible="true" />
  </sodipodi:namedview>
  <style
     type="text/css"
     id="current-color-scheme">.ColorScheme-Text {color:#fcfcfc;}</style>
  <rect
     style="opacity:0.003;fill:#e1e1e1;fill-opacity:1;stroke-width:1.37501"
     id="rect1430-3-7-5"
     width="24"
     height="24"
     x="-2.9107566e-06"
     y="-2.4964263e-06" />
  <path
     d="M 19.000046,4.5000037 C 18.976234,4.3214729 18.733697,3.9992415 18.500406,4.0000013 h -6.000024 c -0.247263,1.63e-5 -0.500004,0.3098996 -0.500004,0.5000024 V 10.50003 c 2e-5,0.190151 0.252509,0.499988 0.500004,0.5 h 6.000024 c 0.247101,-1.7e-5 0.499575,-0.309899 0.499648,-0.5 z m 0,8.9000403 c -0.02269,-0.178529 -0.239058,-0.400752 -0.47227,-0.400003 h -6.027394 c -0.247263,2.3e-5 -0.500004,0.209895 -0.500004,0.400003 v 6.200028 c 2.3e-5,0.190125 0.252432,0.394838 0.500004,0.394859 h 6.027373 c 0.247141,-2.2e-5 0.472282,-0.204743 0.472348,-0.394859 z M 18.000403,5.000006 v 5.000021 H 13.000386 V 5.000006 Z m 0,9.000041 v 5.000022 h -5.000017 5.000021 z M 9.0003612,4.3464612 C 8.9875107,4.1562974 8.7478498,3.9914414 8.5003616,4.0003458 8.2531793,4.0094181 7.9887701,4.1903623 8.0003582,4.3804954 v 9.9859816 c -0.00376,0.191835 0.2504326,0.368187 0.5000034,0.368187 0.2494498,0 0.503439,-0.176364 0.4999996,-0.368187 z m -3.0000115,0 C 5.9890867,4.1562974 5.7476421,3.9914414 5.5003476,4.0003458 5.2530332,4.0094168 4.988775,4.1903623 5.0003682,4.3804954 V 19.631802 C 4.9968882,19.823633 5.2508158,20 5.5003476,20 5.7498391,20 6.0037994,19.823617 6.0003497,19.631802 Z"
     id="path2-3-6"
     style="fill:#e1e1e1;fill-opacity:1;stroke-width:0.207218"
     sodipodi:nodetypes="cccccccccccccccccccccccccccccccccccccccccc" />
  <path
     d="m 17.000401,7.5000094 c 0,0.8288364 -0.671191,1.5000131 -1.500006,1.5000131 -0.828143,1.2e-6 -1.500006,-0.6711767 -1.500006,-1.5000131 0,-0.8281304 0.671863,-1.4999997 1.500006,-1.4999997 0.828815,0 1.500006,0.6718693 1.500006,1.4999997 z"
     id="path72-3-6"
     style="color:#e5e9ef;fill:#af905e;fill-opacity:1;stroke-width:0.0178575"
     class="ColorScheme-Text" />
</svg>
