<?xml version="1.0" encoding="UTF-8" standalone="no"?>
<svg
   viewBox="0 0 22 22"
   version="1.1"
   id="svg1"
   sodipodi:docname="edit-find-replace.svg"
   inkscape:version="1.3.2 (091e20ef0f, 2023-11-25)"
   width="22"
   height="22"
   xmlns:inkscape="http://www.inkscape.org/namespaces/inkscape"
   xmlns:sodipodi="http://sodipodi.sourceforge.net/DTD/sodipodi-0.dtd"
   xmlns:xlink="http://www.w3.org/1999/xlink"
   xmlns="http://www.w3.org/2000/svg"
   xmlns:svg="http://www.w3.org/2000/svg">
  <sodipodi:namedview
     id="namedview1"
     pagecolor="#ffffff"
     bordercolor="#000000"
     borderopacity="0.25"
     inkscape:showpageshadow="2"
     inkscape:pageopacity="0.0"
     inkscape:pagecheckerboard="0"
     inkscape:deskcolor="#d1d1d1"
     inkscape:zoom="16.948466"
     inkscape:cx="5.4872223"
     inkscape:cy="18.792261"
     inkscape:window-width="1920"
     inkscape:window-height="996"
     inkscape:window-x="0"
     inkscape:window-y="0"
     inkscape:window-maximized="1"
     inkscape:current-layer="svg1"
     showgrid="true">
    <inkscape:grid
       id="grid1"
       units="px"
       originx="0"
       originy="0"
       spacingx="1"
       spacingy="1"
       empcolor="#0099e5"
       empopacity="0.30196078"
       color="#0099e5"
       opacity="0.14901961"
       empspacing="5"
       dotted="false"
       gridanglex="30"
       gridanglez="30"
       visible="true" />
  </sodipodi:namedview>
  <defs
     id="defs1">
    <linearGradient
       id="linearGradient1"
       inkscape:collect="always">
      <stop
         style="stop-color:#e1e1e1;stop-opacity:1;"
         offset="0"
         id="stop1" />
      <stop
         style="stop-color:#af905e;stop-opacity:1;"
         offset="0.04238939"
         id="stop3" />
      <stop
         style="stop-color:#af905e;stop-opacity:1;"
         offset="1"
         id="stop2" />
    </linearGradient>
    <style
       type="text/css"
       id="style1">.ColorScheme-Text {
        color:#d8dee9;
      }</style>
    <linearGradient
       inkscape:collect="always"
       xlink:href="#linearGradient1"
       id="linearGradient2"
       x1="40.782238"
       y1="23.183109"
       x2="50.822922"
       y2="12.916694"
       gradientUnits="userSpaceOnUse" />
  </defs>
  <g
     id="22-22-search"
     transform="translate(-32.000002,-10.000001)">
    <path
       style="opacity:0.00100002;fill:#d3dae3;fill-opacity:1"
       d="m 32.000002,10.000001 v 22 h 22 v -22 z"
       id="path2" />
    <path
       d="m 45.258332,13.000046 c -3.171271,3.09e-4 -5.741414,2.570319 -5.741724,5.741377 1.28e-4,1.397562 0.50037,2.677499 1.330291,3.673031 l -1.177876,1.177813 c -0.0048,0.0046 -0.006,0.01005 -0.0099,0.01478 -0.581309,-0.274843 -1.293127,-0.186843 -1.772683,0.292625 l -2.428437,2.427345 c -0.610668,0.610656 -0.610668,1.603562 0,2.214188 0.611813,0.611782 1.602493,0.611782 2.214298,0 l 2.428455,-2.427315 c 0.480803,-0.480781 0.568565,-1.192405 0.292139,-1.773905 0.0047,-0.0043 0.0097,-0.005 0.01422,-0.0096 l 1.177884,-1.177813 c 0.995584,0.829844 2.275595,1.330032 3.673235,1.330157 3.171274,-3.12e-4 5.741384,-2.570313 5.741693,-5.741316 -2.84e-4,-3.171093 -2.570399,-5.741103 -5.741656,-5.741412 z m 0,9.394939 c -2.016275,-8.99e-4 -3.652854,-1.637437 -3.653828,-3.653532 0.0014,-2.016159 1.637524,-3.652717 3.653828,-3.65363 2.016265,0.0014 3.652846,1.63744 3.653814,3.65363 -0.0015,2.016095 -1.637549,3.652595 -3.653814,3.653532 z"
       id="path2-3-6-6"
       style="fill:url(#linearGradient2);fill-opacity:1;stroke-width:0.0312512" />
  </g>
  <circle
     cx="10"
     cy="18"
     style="fill:#af905e;fill-opacity:1;stroke-width:2.00006;stroke-linecap:round;stroke-linejoin:round"
     id="path4292-3-6-2"
     inkscape:transform-center-x="2.3776681"
     inkscape:transform-center-y="0.31630204"
     r="1" />
  <circle
     cx="17"
     cy="18"
     style="fill:#af905e;fill-opacity:1;stroke-width:2.00006;stroke-linecap:round;stroke-linejoin:round"
     id="path4292-3-6-2-7"
     inkscape:transform-center-x="2.3776681"
     inkscape:transform-center-y="0.31630204"
     r="1" />
  <circle
     cx="13.5"
     cy="18"
     style="fill:#af905e;fill-opacity:1;stroke-width:2.00006;stroke-linecap:round;stroke-linejoin:round"
     id="path4292-3-6-2-29"
     inkscape:transform-center-x="2.3776681"
     inkscape:transform-center-y="0.31630204"
     r="1" />
</svg>
