<?xml version="1.0" encoding="UTF-8" standalone="no"?>
<svg
   width="22"
   height="22"
   version="1.1"
   id="svg6"
   sodipodi:docname="system-user-prompt.svg"
   inkscape:version="1.3.2 (091e20ef0f, 2023-11-25)"
   xmlns:inkscape="http://www.inkscape.org/namespaces/inkscape"
   xmlns:sodipodi="http://sodipodi.sourceforge.net/DTD/sodipodi-0.dtd"
   xmlns="http://www.w3.org/2000/svg"
   xmlns:svg="http://www.w3.org/2000/svg">
  <defs
     id="defs10" />
  <sodipodi:namedview
     id="namedview8"
     pagecolor="#ffffff"
     bordercolor="#000000"
     borderopacity="0.25"
     inkscape:showpageshadow="2"
     inkscape:pageopacity="0.0"
     inkscape:pagecheckerboard="0"
     inkscape:deskcolor="#d1d1d1"
     showgrid="false"
     inkscape:zoom="12.422581"
     inkscape:cx="11.028304"
     inkscape:cy="11.430797"
     inkscape:window-width="1920"
     inkscape:window-height="996"
     inkscape:window-x="0"
     inkscape:window-y="0"
     inkscape:window-maximized="1"
     inkscape:current-layer="svg6" />
  <style
     type="text/css"
     id="current-color-scheme">
        .ColorScheme-Text {
            color:#d8d8d8;
        }
    </style>
  <g
     id="22-22-system-user-prompt-3">
    <path
       style="fill:none;stroke-width:1"
       d="M 0,0 V 22 H 22 V 0 Z"
       id="path44-5-7-6" />
    <path
       d="M 19.524512,9.9918087 H 2.5122874 c -0.8352133,0 -1.51228743,-0.6770743 -1.51228743,-1.5122874 V 4.5122874 C 0.99999997,3.6770741 1.6770741,3 2.5122874,3 H 19.524512 C 20.359726,3 21.0368,3.6770741 21.0368,4.5122874 v 3.9621929 c 0.0028,0.8371812 -0.675101,1.5173334 -1.512288,1.5173284 z M 2.4938875,4 C 2.215483,4 2,4.2338829 2,4.5122874 V 8.4744803 C 2,8.7528848 2.2338829,9.0000002 2.5122874,9.0000002 H 19.524512 C 19.802916,9.0000002 20,8.7528848 20,8.4744803 V 4.5122874 C 20,4.2338829 19.784517,4 19.506113,4 Z"
       id="path491-7"
       style="color:#e5e9ef;fill:#af905e;fill-opacity:1;stroke-width:1.00819"
       sodipodi:nodetypes="cssssssccsssssssss" />
    <path
       d="M 19.524512,19.000001 H 2.5122874 c -0.8352133,0 -1.51228743,-0.677075 -1.51228743,-1.512288 V 13.52552 c 0,-0.835213 0.67707413,-1.512287 1.51228743,-1.512287 H 19.524512 c 0.835214,0 1.512288,0.677074 1.512288,1.512287 v 3.962193 c 0,0.835213 -0.677074,1.512288 -1.512288,1.512288 z M 2.5122874,13 C 2.2338829,13 2,13.247116 2,13.52552 v 3.962193 C 2,17.766117 2.2338829,18 2.5122874,18 H 19.524512 C 19.802916,18 20,17.766117 20,17.487713 V 13.52552 C 20,13.247116 19.802916,13 19.524512,13 Z"
       id="path493-5"
       style="color:#e5e9ef;fill:#af905e;fill-opacity:1;stroke-width:1.00819"
       sodipodi:nodetypes="ssssssssssssssssss" />
    <circle
       cx="4.5286708"
       cy="6.4933839"
       r="0.50409579"
       id="circle495-3"
       style="color:#e5e9ef;fill:currentColor;fill-opacity:1;stroke-width:1.00819" />
    <circle
       cx="6.5"
       cy="6.5"
       r="0.5"
       id="circle497-5"
       style="color:#e5e9ef;fill:currentColor;fill-opacity:1;stroke-width:1" />
    <path
       d="m 12.499795,7 a 0.50004098,0.50000003 0 0 1 0,-1 h 5.000411 a 0.50004098,0.50000003 0 0 1 0,1 z"
       id="path499-6"
       style="color:#e5e9ef;fill:currentColor;fill-opacity:1;stroke-width:1.00004" />
    <circle
       cx="4.5"
       cy="15.499999"
       id="circle501-2"
       style="color:#e5e9ef;fill:currentColor;fill-opacity:1;stroke-width:1"
       r="0.5" />
    <circle
       cx="6.4999995"
       cy="15.499999"
       r="0.5"
       id="circle503-9"
       style="color:#e5e9ef;fill:currentColor;fill-opacity:1;stroke-width:1" />
    <path
       d="M 12.5,16.000001 A 0.5000005,0.5000005 0 0 1 12.5,15 h 5 a 0.5000005,0.5000005 0 0 1 0,1.000001 z"
       id="path505-1"
       style="color:#e5e9ef;fill:currentColor;fill-opacity:1;stroke-width:1" />
  </g>
</svg>
