<?xml version="1.0" encoding="UTF-8" standalone="no"?>
<svg
   viewBox="0 0 22 22"
   version="1.1"
   id="svg1"
   sodipodi:docname="system-suspend-hibernate.svg"
   width="22"
   height="22"
   inkscape:version="1.3.2 (091e20ef0f, 2023-11-25)"
   xmlns:inkscape="http://www.inkscape.org/namespaces/inkscape"
   xmlns:sodipodi="http://sodipodi.sourceforge.net/DTD/sodipodi-0.dtd"
   xmlns="http://www.w3.org/2000/svg"
   xmlns:svg="http://www.w3.org/2000/svg">
  <defs
     id="defs1" />
  <sodipodi:namedview
     id="namedview1"
     pagecolor="#ffffff"
     bordercolor="#999999"
     borderopacity="1"
     inkscape:showpageshadow="2"
     inkscape:pageopacity="0"
     inkscape:pagecheckerboard="0"
     inkscape:deskcolor="#d1d1d1"
     inkscape:zoom="8.6590909"
     inkscape:cx="10.855643"
     inkscape:cy="-7.0446194"
     inkscape:window-width="1920"
     inkscape:window-height="996"
     inkscape:window-x="0"
     inkscape:window-y="0"
     inkscape:window-maximized="1"
     inkscape:current-layer="svg1" />
  <style
     type="text/css"
     id="current-color-scheme">.ColorScheme-Text {color:#fcfcfc;}</style>
  <g
     id="22-22-system-suspend-hibernate">
    <path
       style="fill:none"
       d="M 0,0 V 22 H 22 V 0 Z"
       id="path49-1" />
    <path
       style="opacity:1;fill:none;fill-opacity:1;stroke:#af905e;stroke-width:1.36506;stroke-linecap:round;stroke-miterlimit:4;stroke-dasharray:none;stroke-opacity:1;stop-color:#31363b"
       sodipodi:type="arc"
       sodipodi:cx="11.210831"
       sodipodi:cy="11.220055"
       sodipodi:rx="9.5281897"
       sodipodi:ry="9.5371971"
       sodipodi:start="1.8756443"
       sodipodi:end="5.9846366"
       sodipodi:arc-type="arc"
       d="M 8.3509621,20.317516 A 9.5281897,9.5371971 0 0 1 1.7338423,10.23267 9.5281897,9.5371971 0 0 1 10.284095,1.7280756 9.5281897,9.5371971 0 0 1 20.317535,8.4148462"
       id="path7-7-7-6-6-3"
       class=" "
       sodipodi:open="true" />
    <path
       d="m 21.000001,15 c 0,3.313813 -2.686253,6 -6.000001,6 -3.313732,0 -6,-2.686251 -6,-6 0,-3.31373 2.686268,-6 6,-6 3.313748,0 6.000001,2.68627 6.000001,6"
       id="path3950-3-5-9-5-6-7-6"
       class=" "
       style="opacity:1;fill:#666666;fill-opacity:1;stroke:none;stroke-width:0.0419141" />
    <path
       d="m 14.14286,17.479762 v -4.959519 c 0.0055,-1.265086 1.7084,-1.265086 1.714281,0 v 4.959519 c -0.0055,1.265082 -1.708392,1.265082 -1.714281,0 z m 1.371431,-4.959519 z"
       id="path8-6-7-7-06-2-5-2"
       sodipodi:nodetypes="cccccccccc"
       style="fill:#ffffff;fill-opacity:1" />
  </g>
</svg>
