<?xml version="1.0" encoding="UTF-8" standalone="no"?>
<svg
   viewBox="0 0 22 22"
   version="1.1"
   id="svg1"
   sodipodi:docname="system-switch-user.svg"
   width="22"
   height="22"
   inkscape:version="1.3.2 (091e20ef0f, 2023-11-25)"
   xmlns:inkscape="http://www.inkscape.org/namespaces/inkscape"
   xmlns:sodipodi="http://sodipodi.sourceforge.net/DTD/sodipodi-0.dtd"
   xmlns="http://www.w3.org/2000/svg"
   xmlns:svg="http://www.w3.org/2000/svg">
  <sodipodi:namedview
     id="namedview1"
     pagecolor="#ffffff"
     bordercolor="#999999"
     borderopacity="1"
     inkscape:showpageshadow="2"
     inkscape:pageopacity="0"
     inkscape:pagecheckerboard="0"
     inkscape:deskcolor="#d1d1d1"
     inkscape:zoom="12.245804"
     inkscape:cx="10.860863"
     inkscape:cy="17.557034"
     inkscape:window-width="1920"
     inkscape:window-height="996"
     inkscape:window-x="0"
     inkscape:window-y="0"
     inkscape:window-maximized="1"
     inkscape:current-layer="svg1" />
  <defs
     id="defs3051">
    <style
       type="text/css"
       id="current-color-scheme">
      .ColorScheme-Text {
        color:#d8d8d8;
      }
      </style>
  </defs>
  <g
     id="22-22-system-switch-user">
    <path
       style="fill:none"
       d="M 0,0 V 22 H 22 V 0 Z"
       id="path9" />
    <path
       d="m 21,15 c 0,3.313813 -2.68625,6 -6,6 -3.31373,0 -6,-2.68625 -6,-6 0,-3.31373 2.68627,-6 6,-6 3.31375,0 6,2.68627 6,6"
       id="path3950-0"
       style="opacity:1;fill:#666666;fill-opacity:1;stroke-width:0.041914"
       class=" " />
    <path
       d="m 12.879342,12 c 0.722337,0 1.307868,0.587615 1.307868,1.312535 0,0.724847 -0.585531,1.312452 -1.307868,1.312452 -0.722339,0 -1.307916,-0.587605 -1.307916,-1.312452 C 11.571426,12.587626 12.15699,12 12.879342,12 m 4.857902,0.750025 H 14.85498 c 0.05068,0.17923 0.07947,0.367145 0.07947,0.56251 0,0.19536 -0.0288,0.383199 -0.07947,0.56249 h 2.882264 c 0.308284,0 0.560524,-0.253119 0.560524,-0.56249 0,-0.309374 -0.25224,-0.56251 -0.560524,-0.56251 m 0.934194,3.937513 c 0,0.724847 -0.58556,1.312462 -1.30787,1.312462 -0.722368,0 -1.307944,-0.587615 -1.307944,-1.312462 0,-0.724907 0.585559,-1.312525 1.307944,-1.312525 0.72231,0 1.30787,0.587605 1.30787,1.312525 m -3.283614,0.562492 h -2.882216 c -0.308297,0 -0.560537,-0.253119 -0.560537,-0.562492 0,-0.309368 0.25224,-0.562513 0.560537,-0.562513 h 2.882216 c -0.05076,0.179241 -0.07955,0.36715 -0.07955,0.562513 0,0.195368 0.02881,0.383207 0.07955,0.562492"
       fill-rule="evenodd"
       id="path1768-7-9"
       style="fill:#ffffff;fill-opacity:1" />
    <path
       style="opacity:0.8;fill:none;fill-opacity:1;stroke:#af905e;stroke-width:1.36398;stroke-linecap:round;stroke-miterlimit:4;stroke-dasharray:none;stroke-opacity:1;stop-color:#31363b"
       sodipodi:type="arc"
       sodipodi:cx="11.199654"
       sodipodi:cy="11.215133"
       sodipodi:rx="9.5173407"
       sodipodi:ry="9.532877"
       sodipodi:start="1.8722935"
       sodipodi:end="5.9925616"
       sodipodi:arc-type="arc"
       d="M 8.3734776,20.31801 A 9.5173407,9.532877 0 0 1 1.7338585,10.224328 9.5173407,9.532877 0 0 1 10.313446,1.7236727 9.5173407,9.532877 0 0 1 20.317888,8.4834884"
       id="path7-7-7-6-7-1"
       class=" "
       sodipodi:open="true" />
  </g>
</svg>
