<?xml version="1.0" encoding="UTF-8" standalone="no"?>
<svg
   viewBox="0 0 16 16"
   version="1.1"
   id="svg1"
   sodipodi:docname="window-pin.svg"
   width="16"
   height="16"
   inkscape:version="1.3.2 (091e20ef0f, 2023-11-25)"
   xmlns:inkscape="http://www.inkscape.org/namespaces/inkscape"
   xmlns:sodipodi="http://sodipodi.sourceforge.net/DTD/sodipodi-0.dtd"
   xmlns="http://www.w3.org/2000/svg"
   xmlns:svg="http://www.w3.org/2000/svg">
  <defs
     id="defs1" />
  <sodipodi:namedview
     id="namedview1"
     pagecolor="#ffffff"
     bordercolor="#999999"
     borderopacity="1"
     inkscape:showpageshadow="2"
     inkscape:pageopacity="0"
     inkscape:pagecheckerboard="0"
     inkscape:deskcolor="#d1d1d1"
     inkscape:zoom="16.882174"
     inkscape:cx="8.2335365"
     inkscape:cy="3.5540446"
     inkscape:window-width="1920"
     inkscape:window-height="996"
     inkscape:window-x="0"
     inkscape:window-y="0"
     inkscape:window-maximized="1"
     inkscape:current-layer="svg1" />
  <style
     type="text/css"
     id="current-color-scheme">
        .ColorScheme-Text {
            color:#fcfcfc;
        }
    </style>
  <g
     id="16-16-window-pin">
    <rect
       style="opacity:0.00100002"
       width="16"
       height="16"
       x="0"
       y="0"
       id="rect27-7" />
    <rect
       style="opacity:0.00100002"
       width="16"
       height="16"
       x="0"
       y="0"
       id="rect27-2" />
    <path
       style="fill:#e1e1e1;fill-opacity:1;stroke-width:0.0402607"
       d="M 7.99999,14 C 7.795767,14 7,13.881863 7,13.736258 V 8 C 7,7.85438 7.795767,7.72598 7.99999,7.72598 8.204207,7.72598 9.0159009,7.8552491 9,8 L 8.369872,13.736258 C 8.3539703,13.881017 8.204207,14 7.99999,14 Z"
       id="path6-3-3-3"
       sodipodi:nodetypes="sssssss" />
    <path
       style="fill:#af905e;fill-opacity:1;stroke-width:0.0402607"
       d="m 8,7.727 v 6.272007 c 0.197648,-0.006 1,-0.120468 1,-0.262715 V 8 C 9,7.857646 8.1977,7.732256 8,7.727 Z"
       id="path8-6-6-5"
       sodipodi:nodetypes="ccssc" />
    <path
       style="fill:#e1e1e1;fill-opacity:1;stroke-width:0.0402607"
       d="M 10,7 9.799993,2.885926 C 9.7762328,2.3971864 9.24374,2 8.55758,2 H 7.2425 C 6.556383,2 6,2.3966357 6,2.885926 V 7 H 5 L 5.01563,8 H 11 V 7 Z"
       id="path10-7-7-6"
       sodipodi:nodetypes="csssscccccc" />
    <path
       style="fill:#af905e;fill-opacity:1;stroke-width:0.0402607"
       d="M 11,7 H 10 V 2.885926 C 10,2.396618 9.44366,2 8.7575,2 H 8 v 6 h 3 z"
       id="path12-5-5-2-0"
       sodipodi:nodetypes="ccsscccc" />
  </g>
</svg>
