<?xml version="1.0" encoding="UTF-8" standalone="no"?>
<svg
   version="1.1"
   viewBox="0 0 21.999996 21.999996"
   id="svg1"
   sodipodi:docname="activities.svg"
   width="21.999996"
   height="21.999996"
   inkscape:version="1.3.2 (091e20ef0f, 2023-11-25)"
   xmlns:inkscape="http://www.inkscape.org/namespaces/inkscape"
   xmlns:sodipodi="http://sodipodi.sourceforge.net/DTD/sodipodi-0.dtd"
   xmlns="http://www.w3.org/2000/svg"
   xmlns:svg="http://www.w3.org/2000/svg">
  <defs
     id="defs1" />
  <sodipodi:namedview
     id="namedview1"
     pagecolor="#ffffff"
     bordercolor="#999999"
     borderopacity="1"
     inkscape:showpageshadow="2"
     inkscape:pageopacity="0"
     inkscape:pagecheckerboard="0"
     inkscape:deskcolor="#d1d1d1"
     inkscape:zoom="12.245804"
     inkscape:cx="10.697542"
     inkscape:cy="17.638695"
     inkscape:window-width="1920"
     inkscape:window-height="996"
     inkscape:window-x="0"
     inkscape:window-y="0"
     inkscape:window-maximized="1"
     inkscape:current-layer="svg1"
     showgrid="true">
    <inkscape:grid
       id="grid1"
       units="px"
       originx="0"
       originy="0"
       spacingx="0.99999999"
       spacingy="0.99999999"
       empcolor="#0099e5"
       empopacity="0.30196078"
       color="#0099e5"
       opacity="0.14901961"
       empspacing="5"
       dotted="false"
       gridanglex="30"
       gridanglez="30"
       visible="true" />
  </sodipodi:namedview>
  <style
     type="text/css"
     id="current-color-scheme">.ColorScheme-Text {color:#fcfcfc;}</style>
  <rect
     style="opacity:0.003;fill:#e1e1e1;fill-opacity:1;stroke-width:1.375"
     id="rect1430-3-7-5"
     width="21.999996"
     height="21.999996"
     x="2.6805395e-08"
     y="4.338014e-08" />
  <path
     d="M 17.999633,3.5000003 C 17.975822,3.3214705 17.733289,2.9992405 17.499994,3.0000002 h -6 c -0.247256,1.62e-5 -0.500001,0.3098985 -0.500001,0.5000001 v 5.9999999 c 1.9e-5,0.1901556 0.25251,0.4999854 0.500001,0.4999967 h 6 C 17.7471,9.9999814 17.999572,9.6900983 17.99964,9.5000002 Z m 0,8.8999997 c -0.02268,-0.178529 -0.239055,-0.400746 -0.472264,-0.400001 H 11.499994 C 11.252738,12.00002 10.999993,12.209895 10.999993,12.4 v 6.2 c 2.3e-5,0.190133 0.252435,0.39484 0.500001,0.394859 h 6.027349 c 0.247143,-2e-5 0.472282,-0.204737 0.47235,-0.394859 z M 16.999993,4.0000004 V 9.0000005 H 11.999996 V 4.0000004 Z m 0,8.9999996 v 5 h -4.999997 5.000001 z M 7.9999931,3.3464589 C 7.9871427,3.1562957 7.7474829,2.9914403 7.4999956,3.0003449 7.2528145,3.0094157 6.9884064,3.1903606 6.9999944,3.3804928 v 9.9859342 c -0.00371,0.191834 0.2504315,0.368194 0.5000012,0.368194 0.2494489,0 0.5034369,-0.176371 0.4999975,-0.368194 z m -2.9999984,0 C 4.9887317,3.1562957 4.7472879,2.9914403 4.4999946,3.0003449 4.2526812,3.0094157 3.9884238,3.1903606 4.0000171,3.3804928 V 18.631738 c -0.00346,0.19183 0.2504466,0.368194 0.4999775,0.368194 0.2494903,0 0.5034493,-0.176383 0.5000001,-0.368194 z"
     id="path2-3-6"
     style="fill:#e1e1e1;fill-opacity:1;stroke-width:0.207219"
     sodipodi:nodetypes="cccccccccccccccccccccccccccccccccccccccccc" />
  <path
     d="m 15.999994,6.4999934 c 0,0.828833 -0.671183,1.5000068 -1.5,1.5000068 -0.828132,1.2e-6 -1.5,-0.6711738 -1.5,-1.5000068 0,-0.8281269 0.671868,-1.4999931 1.5,-1.4999931 0.828817,0 1.5,0.6718662 1.5,1.4999931 z"
     id="path72-3-6"
     style="color:#e5e9ef;fill:#af905e;fill-opacity:1;stroke-width:0.0178574"
     class="ColorScheme-Text" />
</svg>
