<?xml version="1.0" encoding="UTF-8" standalone="no"?>
<svg
   viewBox="0 0 24.444444 24.444444"
   version="1.1"
   id="svg1"
   sodipodi:docname="system-save-session.svg"
   width="22"
   height="22"
   inkscape:version="1.3.2 (091e20ef0f, 2023-11-25)"
   xmlns:inkscape="http://www.inkscape.org/namespaces/inkscape"
   xmlns:sodipodi="http://sodipodi.sourceforge.net/DTD/sodipodi-0.dtd"
   xmlns="http://www.w3.org/2000/svg"
   xmlns:svg="http://www.w3.org/2000/svg">
  <sodipodi:namedview
     id="namedview1"
     pagecolor="#d4d4d4"
     bordercolor="#999999"
     borderopacity="1"
     inkscape:showpageshadow="2"
     inkscape:pageopacity="0"
     inkscape:pagecheckerboard="0"
     inkscape:deskcolor="#d1d1d1"
     inkscape:zoom="12.277945"
     inkscape:cx="11.484006"
     inkscape:cy="11.484006"
     inkscape:window-width="1920"
     inkscape:window-height="996"
     inkscape:window-x="0"
     inkscape:window-y="0"
     inkscape:window-maximized="1"
     inkscape:current-layer="svg1" />
  <defs
     id="defs3051">
    <style
       type="text/css"
       id="current-color-scheme">.ColorScheme-Text {color:#fcfcfc;}</style>
  </defs>
  <g
     id="22-22-system-save-session"
     transform="scale(1.1111111)">
    <path
       style="fill:none"
       d="M 0,0 V 22 H 22 V 0 Z"
       id="path39" />
    <path
       d="m 3.5,1.0019235 c -1.666676,0 -2.5,0.8332549 -2.5,2.4997597 V 11.000971 18.500232 19.333 C 1,21 2.35,21 2.35,21 H 2.625 3.5 c 0.875,0 0.875,-1 0,-1 v 0 0 C 2.3,20 2,20 2,18.5 V 10 3.5000002 v 0 C 2,2.2500002 3.5,2 3.5,2 V 2 H 5 6 v 3 2 c 0,1 1,1 1,1 v 0 h 4 4 c 0,0 1,0 1,-1 V 7 L 15.99998,5.1681914 16,2 h 1 L 17.716,2.6684315 20,4.65 V 5 12 18.5 C 20,20 19.75,20 18.5,20 h -0.125 c -0.75,0 -0.75,1 0.125,1 h 0.24998 0.73302 c 0,0 1.51698,0 1.51698,-1.666521 V 11.834216 4.3349378 c 0,0 -3.58899,-3.2230103 -3.76012,-3.2860433 C 17.05258,0.98545853 3.5,1.0019215 3.5,1.0019235 Z M 15,5 V 7 H 13 11 V 5 2 h 3 1 z"
       id="path1808-3"
       style="fill:#af905e;fill-opacity:1;stroke-width:0.0020241"
       sodipodi:nodetypes="cccccccccccccccccccccccccccccccccccccccccscccccccccccc"
       class=" " />
    <path
       d="m 5,12 v 8 c 0,1 0.999986,1 0.999986,1 H 10.99999 16 c 0,0 1,0 1,-1 v -8 0 0 c 0,0 0,-1 -1.00002,-0.999029 H 5.999986 C 5.999986,11.000971 5,11 5,12 Z m 10,1 v 1 H 7 v -1 h 4 z m 0,3 v 1 0 H 7 v -1 l 3.99999,4.65e-4 z m 0,3 v 0 1 H 11 7 v -1 h 4 z"
       id="path1810-6"
       style="fill:#fcfbf9;fill-opacity:1;stroke-width:0.0020241"
       sodipodi:nodetypes="ccccccccccccccccccscccccscccccccc"
       class=" " />
  </g>
</svg>
