<?xml version="1.0" encoding="UTF-8" standalone="no"?>
<svg
   width="22"
   height="22"
   version="1.1"
   id="svg3"
   sodipodi:docname="notification-active.svg"
   inkscape:version="1.3.2 (091e20ef0f, 2023-11-25)"
   xmlns:inkscape="http://www.inkscape.org/namespaces/inkscape"
   xmlns:sodipodi="http://sodipodi.sourceforge.net/DTD/sodipodi-0.dtd"
   xmlns="http://www.w3.org/2000/svg"
   xmlns:svg="http://www.w3.org/2000/svg">
  <defs
     id="defs3" />
  <sodipodi:namedview
     id="namedview3"
     pagecolor="#ffffff"
     bordercolor="#999999"
     borderopacity="1"
     inkscape:showpageshadow="2"
     inkscape:pageopacity="0"
     inkscape:pagecheckerboard="0"
     inkscape:deskcolor="#d1d1d1"
     showgrid="true"
     inkscape:zoom="17.318182"
     inkscape:cx="16.803149"
     inkscape:cy="17.207349"
     inkscape:window-width="1920"
     inkscape:window-height="996"
     inkscape:window-x="0"
     inkscape:window-y="0"
     inkscape:window-maximized="1"
     inkscape:current-layer="svg3">
    <inkscape:grid
       id="grid1"
       units="px"
       originx="0"
       originy="0"
       spacingx="1"
       spacingy="1"
       empcolor="#0099e5"
       empopacity="0.30196078"
       color="#0099e5"
       opacity="0.14901961"
       empspacing="5"
       dotted="false"
       gridanglex="30"
       gridanglez="30"
       visible="true" />
  </sodipodi:namedview>
  <style
     type="text/css"
     id="current-color-scheme">.ColorScheme-Text{color:#232629;}.ColorScheme-ButtonFocus{color:#3daee9;}.ColorScheme-NegativeText { color: #da4453; } </style>
  <g
     id="g1"
     transform="translate(0.63517063,-24.083994)">
    <path
       style="fill:none;stroke-width:1"
       inkscape:connector-curvature="0"
       d="M -6.2499998e-7,3.75e-6 H 21.999999 V 22.000004 H -6.2499998e-7 Z"
       id="path14" />
    <path
       id="Path_164-9"
       data-name="Path 164"
       d="M 18.195258,13.700546 16.666241,12.680547 A 1.4990163,1.5000883 0 0 1 15.996687,11.430544 V 9.0002103 a 4.9967212,5.0002944 0 0 0 -3.106939,-4.6232704 1.9856968,1.9871169 0 0 0 -3.7795279,0 4.9967212,5.0002944 0 0 0 -3.1069472,4.6232704 v 2.4303337 a 1.4990163,1.5000883 0 0 1 -0.6675564,1.248001 l -1.5310064,1.022001 a 1.7988197,1.800106 0 0 0 0.9993596,3.300336 h 4.1972417 a 1.998689,2.0001182 0 0 0 3.9973776,0 h 4.197243 a 1.7988197,1.800106 0 0 0 0.999358,-3.300336 z m -0.99936,2.300004 H 4.804043 A 0.79947525,0.80004697 0 0 1 4.3603266,14.530548 l 1.530007,-1.019999 A 2.4983606,2.5001472 0 0 0 7.0026058,11.430544 V 9.0002103 a 3.9973778,4.0002364 0 0 1 7.9947542,0 v 2.4303337 a 2.4983606,2.5001472 0 0 0 1.112274,2.080005 l 1.531005,1.020998 a 0.79947525,0.80004697 0 0 1 -0.444741,1.469003 z m -6.195934,2.000001 a 0.9993444,1.0000591 0 0 1 -0.999353,-1.000002 h 1.998669 a 0.9993444,1.0000591 0 0 1 -0.999352,1.000002 z M 11.499639,6.499875 a 0.49967209,0.50002941 0 0 1 -0.499675,0.5000003 1.9986881,2.0001175 0 0 0 -1.9986658,2.0000015 0.4996798,0.50003712 0 0 1 -0.9993596,0 2.9980328,3.0001767 0 0 1 2.9980254,-3.0000024 0.49967209,0.50002941 0 0 1 0.499675,0.5000006 z"
       style="fill:#d3dae3;fill-opacity:1;stroke-width:0.999673" />
    <path
       d="m 17.47797,6.3333616 c 0,1.0985542 -0.889,1.9881415 -1.986788,1.9881415 -1.096872,0 -1.986852,-0.8895873 -1.986852,-1.9881415 0,-1.0976277 0.88998,-1.9881951 1.986852,-1.9881951 1.097788,0 1.986788,0.8905674 1.986788,1.9881951 z"
       id="path72-3-7-36-2"
       style="color:#e5e9ef;fill:#00ccff;fill-opacity:1;stroke:#bac8df;stroke-width:0.0236609;stroke-opacity:1"
       class="ColorScheme-Text" />
  </g>
  <g
     id="notification-active"
     transform="matrix(0.6875,0,0,0.6875,-140.81714,-495.85625)"
     style="stroke-width:1.45455">
    <path
       style="fill:none;stroke-width:2.11571"
       inkscape:connector-curvature="0"
       d="m 204.82493,721.24546 h 32 v 32 h -32 z"
       id="path14-6" />
    <path
       d="m 230.0012,741.60908 h -17.80276 c -0.20544,0 -0.37352,-0.32728 -0.37352,-0.72727 0,-0.4 0.16803,-0.72728 0.37352,-0.72728 h 17.80276 c 0.20546,0 0.37354,0.32728 0.37354,0.72728 0,0.39999 -0.16804,0.72727 -0.37354,0.72727 z"
       id="path38-7"
       style="color:#d1d5e9;fill:#af905e;fill-opacity:1;stroke-width:0.875712"
       class="ColorScheme-Text" />
    <path
       fill-rule="evenodd"
       clip-rule="evenodd"
       d="m 220.43909,727.54849 c -3.00022,0 -5.43232,2.43212 -5.43232,5.43229 v 4.03583 c 0,1.79947 -0.87864,3.48558 -2.35355,4.51656 l -0.74721,0.52228 c -0.48761,0.34075 -0.77804,0.89813 -0.77804,1.49305 0,0.26772 0.21706,0.48485 0.48485,0.48485 h 18.42424 c 0.26773,0 0.48485,-0.21713 0.48485,-0.48485 0,-0.60462 -0.28868,-1.17285 -0.77683,-1.52942 l -0.7648,-0.55863 c -1.4688,-1.07278 -2.33716,-2.78236 -2.33716,-4.60122 v -3.93941 c 0,-2.9665 -2.40485,-5.37133 -5.37135,-5.37133 z m 0.87069,21.33333 c -1.70976,0 -3.1243,-1.26438 -3.35957,-2.90909 h -6.33739 c -1.33886,0 -2.42425,-1.08538 -2.42425,-2.42423 0,-1.22823 0.59967,-2.37907 1.60634,-3.08267 l 0.74721,-0.52228 c 0.95585,-0.66812 1.52525,-1.76078 1.52525,-2.92694 v -4.03583 c 0,-4.07128 3.3004,-7.37169 7.37172,-7.37169 h 0.83268 c 4.03763,0 7.31075,3.27313 7.31075,7.31073 v 3.93941 c 0,1.1998 0.5728,2.32747 1.54161,3.03515 l 0.76481,0.55855 c 0.98822,0.72174 1.57236,1.8719 1.57236,3.09557 0,1.33885 -1.08537,2.42423 -2.42424,2.42423 h -5.36766 c -0.23535,1.64471 -1.64984,2.90909 -3.35962,2.90909 z m -1.37173,-2.90909 c 0.19967,0.56495 0.73842,0.9697 1.37173,0.9697 0.63332,0 1.17209,-0.40475 1.37174,-0.9697 z"
       id="path1145-3-6-5"
       style="fill:#e1e1e1;fill-opacity:1;stroke-width:1.45455" />
    <path
       d="m 231.04538,730.70002 c 0,1.99025 -1.61178,3.60192 -3.6021,3.60192 -1.98865,0 -3.6021,-1.61167 -3.6021,-3.60192 0,-1.98857 1.61345,-3.60196 3.6021,-3.60196 1.99032,0 3.6021,1.61339 3.6021,3.60196 z"
       id="path72-3-7-36-3"
       style="color:#e5e9ef;fill:#af905e;fill-opacity:1;stroke:#bac8df;stroke-width:0.0688534;stroke-opacity:1"
       class="ColorScheme-Text" />
  </g>
</svg>
