<?xml version="1.0" encoding="UTF-8" standalone="no"?>
<svg
   width="22"
   height="22"
   viewBox="0 0 22 22"
   version="1.1"
   id="svg2"
   sodipodi:docname="notifications.svg"
   inkscape:version="1.3.2 (091e20ef0f, 2023-11-25)"
   xmlns:inkscape="http://www.inkscape.org/namespaces/inkscape"
   xmlns:sodipodi="http://sodipodi.sourceforge.net/DTD/sodipodi-0.dtd"
   xmlns="http://www.w3.org/2000/svg"
   xmlns:svg="http://www.w3.org/2000/svg">
  <defs
     id="defs2" />
  <sodipodi:namedview
     id="namedview2"
     pagecolor="#ffffff"
     bordercolor="#999999"
     borderopacity="1"
     inkscape:showpageshadow="2"
     inkscape:pageopacity="0"
     inkscape:pagecheckerboard="0"
     inkscape:deskcolor="#d1d1d1"
     showgrid="true"
     inkscape:zoom="22.45064"
     inkscape:cx="8.5520947"
     inkscape:cy="13.273564"
     inkscape:window-width="1920"
     inkscape:window-height="996"
     inkscape:window-x="0"
     inkscape:window-y="0"
     inkscape:window-maximized="1"
     inkscape:current-layer="svg2">
    <inkscape:grid
       id="grid1"
       units="px"
       originx="0"
       originy="0"
       spacingx="1"
       spacingy="1"
       empcolor="#0099e5"
       empopacity="0.30196078"
       color="#0099e5"
       opacity="0.14901961"
       empspacing="5"
       dotted="false"
       gridanglex="30"
       gridanglez="30"
       visible="true" />
  </sodipodi:namedview>
  <style
     type="text/css"
     id="current-color-scheme">.ColorScheme-Text{color:#232629;}.ColorScheme-ButtonFocus{color:#3daee9;}.ColorScheme-NegativeText { color: #da4453; } </style>
  <path
     style="fill:none;stroke-width:1.09091"
     inkscape:connector-curvature="0"
     d="M -0.19575993,-24.126662 H 23.804241 V -0.12666235 H -0.19575993 Z"
     id="path6" />
  <path
     id="Path_164"
     data-name="Path 164"
     d="m 19.898903,-8.8886844 -1.72014,-1.1665506 c -0.470642,-0.318067 -0.753435,-0.854782 -0.75325,-1.429599 v -2.779523 c -0.0026,-2.320757 -1.383526,-4.409816 -3.495307,-5.287535 -0.665938,-2.099701 -3.586031,-2.099701 -4.2519691,0 -2.1117842,0.877717 -3.492753,2.966776 -3.4953154,5.287535 v 2.779523 c -6.78e-5,0.573571 -0.2818793,1.109166 -0.751001,1.427309 l -1.7223821,1.1688406 c -1.6733987,1.128874 -0.8835896,3.767979 1.1242793,3.762017 h 4.7218967 c 0,3.049988 4.4970506,3.049988 4.4970506,0 h 4.721897 c 2.007869,0.006 2.797679,-2.633143 1.12428,-3.762017 z m -1.12428,2.762017 H 4.8337879 c -0.898357,0.0077 -1.251519,-1.313244 -0.499181,-1.812763 l 1.7212578,-1.166551 c 0.781733,-0.530324 1.2512754,-1.4229686 1.2513061,-2.3788526 v -2.779523 c 0,-6.099976 8.9941002,-6.099976 8.9941002,0 v 2.779523 c 3.1e-5,0.955884 0.469573,1.8485286 1.251306,2.3788526 l 1.722383,1.167697 c 0.75006,0.50051 0.396652,1.818761 -0.500337,1.811617 z m -6.970424,2.155807 c -0.620892,6e-6 -1.124237,-0.524155 -1.124272,-1.155807 h 2.248507 c -3.5e-5,0.631652 -0.50338,1.155813 -1.124272,1.155807 z m 0.562137,-13.1530766 c -1.8e-5,0.315826 -0.251691,0.571843 -0.562137,0.57184 -1.241765,1.4e-5 -2.2484275,1.024074 -2.2484995,2.287358 0,0.762509 -1.1242793,0.762509 -1.1242793,0 1.079e-4,-1.894939 1.5101194,-3.431033 3.3727788,-3.431038 0.310446,-3e-6 0.562119,0.256014 0.562137,0.57184 z"
     style="fill:#d3dae3;fill-opacity:1;stroke-width:1.13396"
     sodipodi:nodetypes="cccccccccccccccccccccsscccccccccccccsc" />
  <g
     id="22-22-notifications"
     transform="matrix(3.7795277,0,0,3.7795277,-1.9233509e-7,-1122.4727)">
    <rect
       ry="1.2988282e-06"
       y="296.98755"
       x="5.0888659e-08"
       height="5.8208332"
       width="5.8208332"
       id="rect1383-2"
       style="opacity:0.003;fill:#ff1f1f;fill-opacity:1;stroke:none;stroke-width:0.10795;stroke-miterlimit:4;stroke-dasharray:none;stroke-opacity:1"
       rx="1.2988282e-06" />
    <path
       d="m 4.4441987,300.6975 h -3.047144 c -0.03515,0 -0.0639,-0.0607 -0.0639,-0.1352 0,-0.0743 0.02874,-0.13515 0.0639,-0.13515 h 3.047144 c 0.03515,0 0.0639,0.0607 0.0639,0.13515 0,0.0744 -0.02874,0.1352 -0.0639,0.1352 z"
       id="path38-5"
       style="color:#d1d5e9;fill:#af905e;fill-opacity:1;stroke-width:0.0929764"
       class="ColorScheme-Text" />
    <path
       fill-rule="evenodd"
       clip-rule="evenodd"
       d="m 2.8504427,298.14882 c -0.545745,0 -0.988153,0.44236 -0.988153,0.98816 v 0.73401 c 0,0.32744 -0.159822,0.63412 -0.428115,0.82165 l -0.135912,0.0949 c -0.0887,0.0615 -0.141532,0.16333 -0.141532,0.2716 0,0.0491 0.03947,0.088 0.08823,0.088 h 3.35139 c 0.0487,0 0.08822,-0.0396 0.08822,-0.088 0,-0.10999 -0.05249,-0.21332 -0.1413,-0.27823 l -0.139128,-0.10154 c -0.267173,-0.19515 -0.425135,-0.5062 -0.425135,-0.83703 v -0.71653 c 0,-0.5397 -0.437446,-0.97707 -0.977051,-0.97707 z m 0.158386,3.88052 c -0.311019,0 -0.568316,-0.22991 -0.61112,-0.52908 h -1.152771 c -0.243554,0 -0.4409802,-0.1975 -0.4409802,-0.44104 0,-0.22347 0.10908012,-0.43274 0.2922002,-0.56072 l 0.135915,-0.095 c 0.17387,-0.12149 0.277445,-0.32021 0.277445,-0.53244 v -0.73402 c 0,-0.74057 0.600343,-1.34097 1.340925,-1.34097 h 0.151469 c 0.734448,0 1.329831,0.59543 1.329831,1.32987 v 0.71654 c 0,0.21829 0.104187,0.42336 0.280424,0.55216 l 0.139114,0.10149 c 0.179763,0.13132 0.286023,0.34057 0.286023,0.56314 0,0.24355 -0.197432,0.44105 -0.440976,0.44105 h -0.976391 c -0.04279,0.29917 -0.300102,0.52908 -0.611108,0.52908 z m -0.249529,-0.52908 c 0.03632,0.10271 0.134329,0.17635 0.249529,0.17635 0.115199,0 0.213193,-0.0736 0.249511,-0.17635 z"
       id="path1145-3-6-6"
       style="fill:#e1e1e1;fill-opacity:1;stroke-width:0.176395" />
  </g>
</svg>
