<?xml version="1.0" encoding="UTF-8" standalone="no"?>
<svg
   width="22"
   height="22"
   version="1.1"
   id="svg6"
   sodipodi:docname="system-user-list.svg"
   inkscape:version="1.3.2 (091e20ef0f, 2023-11-25)"
   xmlns:inkscape="http://www.inkscape.org/namespaces/inkscape"
   xmlns:sodipodi="http://sodipodi.sourceforge.net/DTD/sodipodi-0.dtd"
   xmlns="http://www.w3.org/2000/svg"
   xmlns:svg="http://www.w3.org/2000/svg">
  <defs
     id="defs10">
    <linearGradient
       id="a-5"
       x1="16"
       x2="16"
       y1="1"
       y2="31"
       gradientUnits="userSpaceOnUse">
      <stop
         stop-color="#f4282c"
         offset="0"
         id="stop1009" />
      <stop
         stop-color="#fac136"
         offset="1"
         id="stop1011" />
    </linearGradient>
  </defs>
  <sodipodi:namedview
     id="namedview8"
     pagecolor="#ffffff"
     bordercolor="#000000"
     borderopacity="0.25"
     inkscape:showpageshadow="2"
     inkscape:pageopacity="0.0"
     inkscape:pagecheckerboard="0"
     inkscape:deskcolor="#d1d1d1"
     showgrid="false"
     inkscape:zoom="12.422581"
     inkscape:cx="10.545313"
     inkscape:cy="17.870682"
     inkscape:window-width="1920"
     inkscape:window-height="996"
     inkscape:window-x="0"
     inkscape:window-y="0"
     inkscape:window-maximized="1"
     inkscape:current-layer="svg6" />
  <style
     type="text/css"
     id="current-color-scheme">
        .ColorScheme-Text {
            color:#d8d8d8;
        }
    </style>
  <g
     id="22-22-system-user-list-9">
    <path
       style="fill:none;stroke-width:1"
       d="M 0,0 V 22 H 22 V 0 Z"
       id="path84-3-7-2" />
    <path
       d="m 21.000001,15 c 0,3.313813 -2.68625,6 -6,6 -3.31373,0 -5.9999989,-2.686253 -5.9999989,-6 0,-3.313733 2.6862689,-5.9999994 5.9999989,-5.9999994 3.31375,0 6,2.6862664 6,5.9999994"
       id="path3950-3-3-6-3"
       style="fill:#666666;fill-opacity:1;stroke-width:0.041914"
       class=" " />
    <path
       style="fill:none;fill-opacity:1;stroke:#af905e;stroke-width:1.36398;stroke-linecap:round;stroke-miterlimit:4;stroke-dasharray:none;stroke-opacity:1;stop-color:#31363b"
       sodipodi:type="arc"
       sodipodi:cx="11.199643"
       sodipodi:cy="11.215134"
       sodipodi:rx="9.5173407"
       sodipodi:ry="9.532877"
       sodipodi:start="1.8722935"
       sodipodi:end="5.9925616"
       sodipodi:arc-type="arc"
       d="M 8.3734671,20.318011 A 9.5173407,9.532877 0 0 1 1.733848,10.224329 9.5173407,9.532877 0 0 1 10.313436,1.7236736 9.5173407,9.532877 0 0 1 20.317877,8.4834894"
       id="path7-7-7-6-7-5-6"
       class=" "
       sodipodi:open="true" />
    <path
       d="m 11.985713,14.571431 c 0.472771,0 0.857147,-0.38438 0.857147,-0.857141 0,-0.472773 -0.384376,-0.85715 -0.857147,-0.85715 -0.472764,0 -0.857142,0.384377 -0.857142,0.85715 0,0.472761 0.384378,0.857141 0.857142,0.857141 z m 5.999997,0 c 0.472774,0 0.85715,-0.38438 0.85715,-0.857141 0,-0.472773 -0.384376,-0.85715 -0.85715,-0.85715 -0.472759,0 -0.857143,0.384377 -0.857143,0.85715 0,0.472761 0.384384,0.857141 0.857143,0.857141 z M 18.41429,15 h -0.85715 c -0.235707,0 -0.448656,0.09507 -0.604018,0.249103 0.539738,0.295982 0.922775,0.830363 1.005811,1.465187 h 0.883927 c 0.237054,0 0.428573,-0.19152 0.428573,-0.42858 V 15.857138 C 19.271433,15.384379 18.887048,15 18.41429,15 Z m -3.42858,0 c 0.82902,0 1.5,-0.670983 1.5,-1.5 0,-0.829016 -0.67098,-1.5 -1.5,-1.5 -0.82902,0 -1.5,0.670984 -1.5,1.5 0,0.829017 0.67098,1.5 1.5,1.5 z m 1.02858,0.428568 h -0.111168 c -0.278574,0.133932 -0.58795,0.214293 -0.917412,0.214293 -0.32946,0 -0.6375,-0.08035 -0.9174,-0.214293 h -0.11117 c -0.85178,0 -1.54285,0.69107 -1.54285,1.542864 v 0.385706 C 12.41429,17.712051 12.70223,18 13.05714,18 h 3.85715 c 0.3549,0 0.64285,-0.287949 0.64285,-0.642862 v -0.385706 c 0,-0.851794 -0.691073,-1.542864 -1.54285,-1.542864 z M 13.01831,15.249103 C 12.862952,15.095085 12.65,15 12.41429,15 H 11.557145 C 11.084374,15 10.7,15.384379 10.7,15.857138 v 0.428572 c 0,0.23706 0.191517,0.42858 0.428571,0.42858 h 0.882589 c 0.08437,-0.634824 0.467407,-1.169205 1.00715,-1.465187 z"
       id="path1562-9"
       style="fill:#ffffff;fill-opacity:1;stroke-width:0.0133933" />
  </g>
</svg>
