<?xml version="1.0" encoding="UTF-8" standalone="no"?>
<svg
   viewBox="0 0 22 22"
   version="1.1"
   id="svg1"
   sodipodi:docname="system-reboot-symbolic.svg"
   inkscape:version="1.3.2 (091e20ef0f, 2023-11-25)"
   width="22"
   height="22"
   xmlns:inkscape="http://www.inkscape.org/namespaces/inkscape"
   xmlns:sodipodi="http://sodipodi.sourceforge.net/DTD/sodipodi-0.dtd"
   xmlns:xlink="http://www.w3.org/1999/xlink"
   xmlns="http://www.w3.org/2000/svg"
   xmlns:svg="http://www.w3.org/2000/svg">
  <sodipodi:namedview
     id="namedview1"
     pagecolor="#ffffff"
     bordercolor="#000000"
     borderopacity="0.25"
     inkscape:showpageshadow="2"
     inkscape:pageopacity="0.0"
     inkscape:pagecheckerboard="0"
     inkscape:deskcolor="#d1d1d1"
     inkscape:zoom="12.326157"
     inkscape:cx="10.546677"
     inkscape:cy="10.627806"
     inkscape:window-width="1920"
     inkscape:window-height="996"
     inkscape:window-x="0"
     inkscape:window-y="0"
     inkscape:window-maximized="1"
     inkscape:current-layer="svg1" />
  <defs
     id="defs1">
    <style
       type="text/css"
       id="style1">.ColorScheme-Text {
        color:#d8dee9;
      }
      .ColorScheme-Highlight {
        color:#88c0d0;
      }</style>
    <linearGradient
       id="a-5"
       x1="16"
       x2="16"
       y1="1"
       y2="31"
       gradientUnits="userSpaceOnUse">
      <stop
         stop-color="#f4282c"
         offset="0"
         id="stop1009" />
      <stop
         stop-color="#fac136"
         offset="1"
         id="stop1011" />
    </linearGradient>
    <linearGradient
       inkscape:collect="always"
       xlink:href="#linearGradient52"
       id="linearGradient5"
       gradientUnits="userSpaceOnUse"
       gradientTransform="matrix(0.6875,0,0,0.6875,108.66985,103.7705)"
       x1="-199"
       y1="91"
       x2="-167"
       y2="91" />
    <linearGradient
       inkscape:collect="always"
       id="linearGradient52">
      <stop
         style="stop-color:#4e51ac;stop-opacity:1"
         offset="0"
         id="stop39" />
      <stop
         style="stop-color:#008080;stop-opacity:1"
         offset="1"
         id="stop40" />
    </linearGradient>
  </defs>
  <g
     id="22-22-system-reboot">
    <path
       style="fill:none"
       d="M 0,0 V 22 H 22 V 0 Z"
       id="path29" />
    <path
       style="opacity:1;fill:none;fill-opacity:1;stroke:#af905e;stroke-width:1.36507;stroke-linecap:round;stroke-miterlimit:4;stroke-dasharray:none;stroke-opacity:1;stop-color:#31363b"
       sodipodi:type="arc"
       sodipodi:cx="11.21582"
       sodipodi:cy="11.21528"
       sodipodi:rx="9.5330677"
       sodipodi:ry="9.532423"
       sodipodi:start="1.8723753"
       sodipodi:end="5.9812583"
       sodipodi:arc-type="arc"
       d="M 8.3842295,20.317492 A 9.5330677,9.532423 0 0 1 1.7307695,10.259734 9.5330677,9.532423 0 0 1 10.256909,1.7312034 9.5330677,9.532423 0 0 1 20.317662,8.3807126"
       id="path7-7-7-6-6"
       class=" "
       sodipodi:open="true" />
    <path
       d="m 21.00001,14.999999 c 0,3.31381 -2.686255,6 -6,6 -3.313735,0 -6,-2.686257 -6,-6 0,-3.313734 2.686265,-6 6,-6 3.313745,0 6,2.686266 6,6"
       id="path3950-3-9"
       class=" "
       style="opacity:1;fill:#666666;fill-opacity:1;stroke:none;stroke-width:0.041914" />
    <path
       d="m 18.189334,15.452849 c 0.0637,0.101525 0.08951,0.226944 0.06318,0.353218 -4.2e-4,0.0038 -4.67e-4,0.0055 -0.0024,0.0092 l -0.110267,-0.02517 0.109694,0.02536 c -0.100153,0.438897 -0.282686,0.837554 -0.527505,1.183136 -0.251591,0.355154 -0.568555,0.654125 -0.929129,0.883363 -0.0038,0.0038 -0.0082,0.0061 -0.01253,0.0093 l -4.9e-5,-1.33e-4 c -0.0038,0.0037 -0.01136,0.0066 -0.02061,0.01196 -0.0061,0.0038 -0.01205,0.0063 -0.01728,0.0095 -0.362355,0.221589 -0.766602,0.374037 -1.191587,0.443925 -0.409092,0.06721 -0.837168,0.05822 -1.265316,-0.03879 -0.0031,-0.0013 -0.0051,-0.0013 -0.0082,-0.002 l 0.02517,-0.110559 -0.02526,0.110018 c -0.437688,-0.100433 -0.835243,-0.283468 -1.179878,-0.528973 -0.354182,-0.252265 -0.652316,-0.570117 -0.880884,-0.931656 -0.0038,-0.0038 -0.0058,-0.0085 -0.0092,-0.01267 l 1.41e-4,-5.2e-5 c -0.0038,-0.0038 -0.0065,-0.01144 -0.01197,-0.02059 -0.0038,-0.0062 -0.0064,-0.01227 -0.0094,-0.01745 -0.220928,-0.363304 -0.373006,-0.768716 -0.442653,-1.194828 -0.0671,-0.410232 -0.05805,-0.839521 0.03872,-1.268815 4.62e-4,-0.0038 4.62e-4,-0.0045 0.0018,-0.008 l 0.110258,0.02516 -0.10973,-0.02531 c 0.100156,-0.438902 0.282687,-0.837556 0.527507,-1.183141 0.251579,-0.355145 0.568546,-0.654119 0.929094,-0.883332 0.0038,-0.0038 0.0084,-0.006 0.01259,-0.0093 l 5e-5,1.31e-4 c 0.0037,-0.0037 0.0113,-0.0065 0.02042,-0.01187 0.006,-0.0038 0.01202,-0.0063 0.01734,-0.0095 0.312458,-0.191071 0.656075,-0.330756 1.017258,-0.410343 0.311569,-0.06865 0.636538,-0.09266 0.966088,-0.06656 l -0.02713,-0.739043 c -0.0019,-0.02564 0.0059,-0.05183 0.02256,-0.07385 0.03755,-0.0499 0.108458,-0.06013 0.158333,-0.02236 l -0.06806,0.09059 0.06789,-0.09028 1.631854,1.231541 c 0.009,0.0051 0.01704,0.01241 0.02419,0.02073 0.04115,0.04706 0.03639,0.118777 -0.01066,0.159998 l -2.28e-4,-2.16e-4 -1.537381,1.34923 c -0.01954,0.01985 -0.0462,0.03243 -0.07613,0.03345 -0.06241,0.0031 -0.114881,-0.04657 -0.117164,-0.109129 l -0.03251,-0.882995 c -0.253455,-0.03234 -0.503797,-0.02284 -0.743242,0.02367 -0.27645,0.05368 -0.53956,0.156861 -0.777399,0.301958 -0.0037,0.003 -0.0059,0.0037 -0.0096,0.0066 l -0.009,0.0057 c -0.003,0.0023 -0.0044,0.0038 -0.0083,0.0051 -0.0038,0.0037 -0.0088,0.0043 -0.01311,0.007 -0.255631,0.163193 -0.480069,0.375216 -0.657853,0.626316 -0.173985,0.245684 -0.303761,0.52924 -0.375069,0.841734 -0.07015,0.307492 -0.07721,0.614723 -0.02976,0.908062 0.04915,0.30393 0.156748,0.592463 0.31328,0.85044 0.0031,0.0038 0.0043,0.0057 0.0065,0.0097 l 0.0051,0.009 c 0.0024,0.0037 0.0038,0.0048 0.0058,0.0082 0.0031,0.0038 0.0043,0.009 0.0068,0.01327 0.162739,0.256337 0.374178,0.4814 0.624577,0.659683 0.245011,0.174464 0.52778,0.3046 0.839466,0.376142 0.306641,0.07029 0.613032,0.07751 0.905558,0.02984 0.303089,-0.04929 0.590829,-0.157173 0.848095,-0.314141 0.0038,-0.003 0.0061,-0.0038 0.0096,-0.0066 l 0.0089,-0.0056 c 0.0032,-0.0023 0.0051,-0.0038 0.0085,-0.0053 0.0038,-0.0037 0.0088,-0.0043 0.0131,-0.007 0.255628,-0.163191 0.480068,-0.375212 0.657857,-0.626317 0.172616,-0.243739 0.301705,-0.524867 0.37333,-0.834443 l 2.56e-4,-0.002 3.1e-5,-4.1e-4 4.47e-4,-0.0027 1.01e-4,-0.0013 4.65e-4,-0.0027 1.16e-4,-0.0011 c 4.5e-4,-0.0027 4.67e-4,-0.0038 0.0023,-0.0065 l 9.1e-5,-3e-6 c 0.03059,-0.126241 0.108418,-0.228807 0.210201,-0.29294 0.101208,-0.06383 0.22627,-0.08976 0.352152,-0.0634 l 0.0038,4.11e-4 3.52e-4,8e-5 0.0032,3.61e-4 4.69e-4,1.42e-4 0.0032,3.61e-4 4.68e-4,1.16e-4 c 0.0032,4.43e-4 0.0038,0.0014 0.0062,0.0023 l 7e-6,8.8e-5 c 0.125889,0.03064 0.228176,0.108726 0.292186,0.210821 z"
       id="path1118-3-9"
       style="fill:#ffffff;fill-opacity:1;stroke-width:0.0163123" />
  </g>
</svg>
