<?xml version="1.0" encoding="UTF-8" standalone="no"?>
<svg
   viewBox="0 0 22 22"
   version="1.1"
   id="svg1"
   sodipodi:docname="system-lock-screen.svg"
   width="22"
   height="22"
   inkscape:version="1.3.2 (091e20ef0f, 2023-11-25)"
   xmlns:inkscape="http://www.inkscape.org/namespaces/inkscape"
   xmlns:sodipodi="http://sodipodi.sourceforge.net/DTD/sodipodi-0.dtd"
   xmlns="http://www.w3.org/2000/svg"
   xmlns:svg="http://www.w3.org/2000/svg">
  <sodipodi:namedview
     id="namedview1"
     pagecolor="#ffffff"
     bordercolor="#999999"
     borderopacity="1"
     inkscape:showpageshadow="2"
     inkscape:pageopacity="0"
     inkscape:pagecheckerboard="0"
     inkscape:deskcolor="#d1d1d1"
     inkscape:zoom="8.6590909"
     inkscape:cx="10.509186"
     inkscape:cy="11.433071"
     inkscape:window-width="1920"
     inkscape:window-height="996"
     inkscape:window-x="0"
     inkscape:window-y="0"
     inkscape:window-maximized="1"
     inkscape:current-layer="svg1" />
  <defs
     id="defs3051">
    <style
       type="text/css"
       id="current-color-scheme">.ColorScheme-Text {color:#fcfcfc;}</style>
  </defs>
  <g
     id="22-22-system-lock-screen"
     transform="translate(-100,-44)">
    <g
       id="g1700">
      <path
         style="fill:none"
         d="m 100,44 v 22 h 22 V 44 Z"
         id="path19" />
      <path
         style="fill:none;fill-opacity:1;stroke:#af905e;stroke-width:1.36398;stroke-linecap:round;stroke-miterlimit:4;stroke-dasharray:none;stroke-opacity:1;stop-color:#31363b"
         sodipodi:type="arc"
         sodipodi:cx="111.19965"
         sodipodi:cy="55.215134"
         sodipodi:rx="9.5173407"
         sodipodi:ry="9.532877"
         sodipodi:start="1.8722935"
         sodipodi:end="5.9925616"
         sodipodi:arc-type="arc"
         d="m 108.37348,64.318011 a 9.5173407,9.532877 0 0 1 -6.63962,-10.093682 9.5173407,9.532877 0 0 1 8.57959,-8.500655 9.5173407,9.532877 0 0 1 10.00444,6.759815"
         id="path7-7-7-6-7"
         class=" "
         sodipodi:open="true" />
      <path
         d="m 115,53 c -3.30947,0 -6,2.690528 -6,6 0,3.309472 2.69053,6 6,6 3.30947,0 6,-2.690528 6,-6 0,-3.309472 -2.69053,-6 -6,-6 z m 3e-5,3.999999 z"
         id="path3582-6"
         style="fill:#666666;fill-opacity:1;stroke-width:0.0225563"
         class=" "
         sodipodi:nodetypes="ssssscccccccccccc" />
      <path
         d="m 116.78085,57.46057 c 0,-0.940752 -0.80144,-1.71057 -1.7809,-1.71057 -0.97945,0 -1.7808,0.76976 -1.7808,1.71057 0,0.598773 0.32647,1.168875 0.89043,1.482455 L 113.57544,62.25 h 2.81939 l -0.50448,-3.2785 c 0.56397,-0.313399 0.89038,-0.883699 0.89038,-1.51093 z"
         id="path1290-3-6"
         style="fill:#ffffff;fill-opacity:1;stroke-width:0.051942" />
    </g>
  </g>
</svg>
