<?xml version="1.0" encoding="UTF-8" standalone="no"?>
<svg
   viewBox="0 0 22 22"
   version="1.1"
   id="svg1"
   sodipodi:docname="system-log-out.svg"
   width="22"
   height="22"
   inkscape:version="1.3.2 (091e20ef0f, 2023-11-25)"
   xmlns:inkscape="http://www.inkscape.org/namespaces/inkscape"
   xmlns:sodipodi="http://sodipodi.sourceforge.net/DTD/sodipodi-0.dtd"
   xmlns="http://www.w3.org/2000/svg"
   xmlns:svg="http://www.w3.org/2000/svg">
  <sodipodi:namedview
     id="namedview1"
     pagecolor="#ffffff"
     bordercolor="#999999"
     borderopacity="1"
     inkscape:showpageshadow="2"
     inkscape:pageopacity="0"
     inkscape:pagecheckerboard="0"
     inkscape:deskcolor="#d1d1d1"
     inkscape:zoom="8.6590909"
     inkscape:cx="11.086614"
     inkscape:cy="11.086614"
     inkscape:window-width="1920"
     inkscape:window-height="996"
     inkscape:window-x="0"
     inkscape:window-y="0"
     inkscape:window-maximized="1"
     inkscape:current-layer="svg1" />
  <defs
     id="defs3051">
    <style
       type="text/css"
       id="current-color-scheme">.ColorScheme-Text {color:#fcfcfc;}</style>
  </defs>
  <g
     id="22-22-system-log-out">
    <path
       style="fill:none"
       d="M 0,0 V 22 H 22 V 0 Z"
       id="path79" />
    <path
       style="opacity:1;fill:none;fill-opacity:1;stroke:#af905e;stroke-width:1.36398;stroke-linecap:round;stroke-miterlimit:4;stroke-dasharray:none;stroke-opacity:1;stop-color:#31363b"
       sodipodi:type="arc"
       sodipodi:cx="11.199482"
       sodipodi:cy="11.214931"
       sodipodi:rx="9.5173407"
       sodipodi:ry="9.532877"
       sodipodi:start="1.8722935"
       sodipodi:end="5.9925616"
       sodipodi:arc-type="arc"
       d="M 8.373306,20.317808 A 9.5173407,9.532877 0 0 1 1.7336868,10.224126 9.5173407,9.532877 0 0 1 10.313275,1.7234705 9.5173407,9.532877 0 0 1 20.317716,8.4832862"
       id="path7-7-7-6"
       class=" "
       sodipodi:open="true" />
    <path
       d="m 21,15 c 0,3.313813 -2.686258,6 -6,6 -3.313742,0 -6,-2.686258 -6,-6 0,-3.313733 2.686258,-6 6,-6 3.313742,0 6,2.686267 6,6"
       id="path3950-3-36"
       style="opacity:1;fill:#666666;fill-opacity:1;stroke-width:0.0419139"
       class=" " />
    <path
       d="m 17.553325,15.044427 c 1.79e-4,0.09376 -0.04025,0.183755 -0.112562,0.25001 l -3.059551,2.813143 c -0.634637,0.583483 -1.586525,-0.291745 -0.951939,-0.875241 l 2.379804,-2.187912 -2.379804,-2.187921 c -0.262127,-0.241951 -0.262127,-0.633263 0,-0.875226 v 0 c 0.262871,-0.241707 0.689068,-0.241707 0.951939,0 l 3.05956,2.813122 c 0.07225,0.0663 0.11266,0.15624 0.112562,0.250025 z m -0.384419,0 z"
       id="path4-3-2-3-6-7"
       sodipodi:nodetypes="ccscccsscccccccccccc"
       style="fill:#ffffff;fill-opacity:1" />
  </g>
</svg>
