<?xml version="1.0" encoding="UTF-8" standalone="no"?>
<svg
   viewBox="0 0 22 22"
   version="1.1"
   id="svg1"
   sodipodi:docname="system-suspend.svg"
   width="22"
   height="22"
   inkscape:version="1.3.2 (091e20ef0f, 2023-11-25)"
   xmlns:inkscape="http://www.inkscape.org/namespaces/inkscape"
   xmlns:sodipodi="http://sodipodi.sourceforge.net/DTD/sodipodi-0.dtd"
   xmlns="http://www.w3.org/2000/svg"
   xmlns:svg="http://www.w3.org/2000/svg">
  <defs
     id="defs1" />
  <sodipodi:namedview
     id="namedview1"
     pagecolor="#ffffff"
     bordercolor="#999999"
     borderopacity="1"
     inkscape:showpageshadow="2"
     inkscape:pageopacity="0"
     inkscape:pagecheckerboard="0"
     inkscape:deskcolor="#d1d1d1"
     inkscape:zoom="12.245804"
     inkscape:cx="11.187506"
     inkscape:cy="17.557034"
     inkscape:window-width="1920"
     inkscape:window-height="996"
     inkscape:window-x="0"
     inkscape:window-y="0"
     inkscape:window-maximized="1"
     inkscape:current-layer="svg1" />
  <style
     type="text/css"
     id="current-color-scheme">.ColorScheme-Text {color:#fcfcfc;}</style>
  <g
     id="22-22-system-suspend">
    <path
       style="fill:none"
       d="M 0,0 V 22 H 22 V 0 Z"
       id="path49-5" />
    <path
       style="opacity:1;fill:none;fill-opacity:1;stroke:#af905e;stroke-width:1.36198;stroke-linecap:round;stroke-miterlimit:4;stroke-dasharray:none;stroke-opacity:1;stop-color:#31363b"
       sodipodi:type="arc"
       sodipodi:cx="11.203458"
       sodipodi:cy="11.180843"
       sodipodi:rx="9.522316"
       sodipodi:ry="9.4997892"
       sodipodi:start="1.8476898"
       sodipodi:end="5.9898115"
       sodipodi:arc-type="arc"
       d="M 8.600354,20.318779 A 9.522316,9.4997892 0 0 1 1.7169947,10.357255 9.522316,9.4997892 0 0 1 10.221696,1.7316797 9.522316,9.4997892 0 0 1 20.31892,8.4336608"
       id="path7-7-7"
       class=" "
       sodipodi:open="true" />
    <path
       d="m 21.000001,14.999997 c 0,3.313811 -2.686251,6 -6.000001,6 -3.31373,0 -6,-2.68625 -6,-6 0,-3.31373 2.68627,-6 6,-6 3.31375,0 6.000001,2.68627 6.000001,6"
       id="path3950-3-5-9-5-6-2"
       class=" "
       style="opacity:1;fill:#666666;fill-opacity:1;stroke:none;stroke-width:0.0419141" />
    <path
       d="m 12.428549,17.479756 v -4.959517 c 0.0059,-1.265085 1.708395,-1.265085 1.714281,0 v 4.959517 c -0.0059,1.265084 -1.708394,1.265084 -1.714281,0 z m 1.371425,-4.959517 z"
       id="path8-6-7-7-06-0"
       sodipodi:nodetypes="cccccccccc"
       style="fill:#ffffff;fill-opacity:1" />
    <path
       d="M 15.857118,17.479758 V 12.52024 c 0.0055,-1.265086 1.708403,-1.265086 1.714285,0 v 4.959518 c -0.0055,1.265082 -1.708392,1.265082 -1.714285,0 z m 1.371431,-4.959518 z"
       id="path8-6-7-7-06-2-2"
       sodipodi:nodetypes="cccccccccc"
       style="fill:#ffffff;fill-opacity:1" />
  </g>
</svg>
