<?xml version="1.0" encoding="UTF-8" standalone="no"?>
<svg
   viewBox="0 0 22 22"
   version="1.1"
   id="svg1"
   sodipodi:docname="system-users.svg"
   inkscape:version="1.3.2 (091e20ef0f, 2023-11-25)"
   width="22"
   height="22"
   xmlns:inkscape="http://www.inkscape.org/namespaces/inkscape"
   xmlns:sodipodi="http://sodipodi.sourceforge.net/DTD/sodipodi-0.dtd"
   xmlns="http://www.w3.org/2000/svg"
   xmlns:svg="http://www.w3.org/2000/svg">
  <sodipodi:namedview
     id="namedview1"
     pagecolor="#ffffff"
     bordercolor="#999999"
     borderopacity="1"
     inkscape:showpageshadow="2"
     inkscape:pageopacity="0"
     inkscape:pagecheckerboard="0"
     inkscape:deskcolor="#d1d1d1"
     inkscape:zoom="12.245804"
     inkscape:cx="11.432487"
     inkscape:cy="11.432487"
     inkscape:window-width="1920"
     inkscape:window-height="996"
     inkscape:window-x="0"
     inkscape:window-y="0"
     inkscape:window-maximized="1"
     inkscape:current-layer="svg1" />
  <defs
     id="defs3051">
    <style
       type="text/css"
       id="current-color-scheme">.ColorScheme-Text { color: #fcfcfc; } </style>
  </defs>
  <g
     id="22-22-system-users"
     transform="translate(-289.00003,-44)">
    <path
       style="fill:none"
       d="m 289.00003,44 v 22 h 22 V 44 Z"
       id="path89" />
    <path
       d="m 310.00003,59 c 0,3.313813 -2.68625,6 -6,6 -3.31373,0 -6,-2.686253 -6,-6 0,-3.313733 2.68627,-6 6,-6 3.31375,0 6,2.686267 6,6"
       id="path3950-3-3-6"
       style="fill:#666666;fill-opacity:1;stroke-width:0.041914"
       class=" " />
    <path
       d="m 302.27141,59 c 0.82902,0 1.5,-0.670984 1.5,-1.5 0,-0.829016 -0.67098,-1.5 -1.5,-1.5 -0.82902,0 -1.5,0.670984 -1.5,1.5 0,0.829016 0.67098,1.5 1.5,1.5 z m 1.02858,0.428575 h -0.11115 c -0.27857,0.133922 -0.58794,0.21428 -0.91741,0.21428 -0.32946,0 -0.6375,-0.08036 -0.91741,-0.21428 h -0.11114 c -0.85178,0 -1.54285,0.69107 -1.54285,1.54285 v 0.38572 c 0,0.354911 0.28794,0.642855 0.64285,0.642855 h 3.85715 c 0.35491,0 0.64285,-0.287944 0.64285,-0.642855 v -0.38572 c 0,-0.85178 -0.69107,-1.54285 -1.54285,-1.54285 z M 306.12856,59 c 0.70982,0 1.28572,-0.57589 1.28572,-1.285717 0,-0.709819 -0.5759,-1.285708 -1.28572,-1.285708 -0.70982,0 -1.28571,0.575889 -1.28571,1.285708 0,0.709827 0.57589,1.285717 1.28571,1.285717 z m 0.64285,0.428575 h -0.0509 c -0.18616,0.06424 -0.38303,0.10717 -0.59196,0.10717 -0.20894,0 -0.40581,-0.04282 -0.59197,-0.10717 h -0.0509 c -0.27321,0 -0.525,0.07907 -0.74599,0.206243 0.3268,0.352238 0.53171,0.819646 0.53171,1.336607 v 0.514292 c 0,0.02945 -0.006,0.05759 -0.008,0.08575 h 2.36517 c 0.35491,0 0.64286,-0.287947 0.64286,-0.642861 0,-0.82902 -0.67098,-1.5 -1.5,-1.5 z"
       id="path3457-5-7"
       style="color:#000000;fill:#ffffff;fill-opacity:1;stroke:#ffffff;stroke-width:0.0133926;stroke-opacity:1"
       class="ColorScheme-Background  ColorSckeme-Background" />
    <path
       style="fill:none;fill-opacity:1;stroke:#af905e;stroke-width:1.36398;stroke-linecap:round;stroke-miterlimit:4;stroke-dasharray:none;stroke-opacity:1;stop-color:#31363b"
       sodipodi:type="arc"
       sodipodi:cx="300.19968"
       sodipodi:cy="55.215134"
       sodipodi:rx="9.5173407"
       sodipodi:ry="9.532877"
       sodipodi:start="1.8722935"
       sodipodi:end="5.9925616"
       sodipodi:arc-type="arc"
       d="m 297.3735,64.318011 a 9.5173407,9.532877 0 0 1 -6.63962,-10.093682 9.5173407,9.532877 0 0 1 8.57959,-8.500655 9.5173407,9.532877 0 0 1 10.00444,6.759815"
       id="path7-7-7-6-7-5"
       class=" "
       sodipodi:open="true" />
  </g>
</svg>
