<?xml version="1.0" encoding="UTF-8" standalone="no"?>
<svg
   width="22"
   height="22"
   version="1.1"
   id="svg6"
   sodipodi:docname="kdeconnect-symbolic.svg"
   inkscape:version="1.3.2 (091e20ef0f, 2023-11-25)"
   xmlns:inkscape="http://www.inkscape.org/namespaces/inkscape"
   xmlns:sodipodi="http://sodipodi.sourceforge.net/DTD/sodipodi-0.dtd"
   xmlns="http://www.w3.org/2000/svg"
   xmlns:svg="http://www.w3.org/2000/svg">
  <sodipodi:namedview
     id="namedview1"
     pagecolor="#ffffff"
     bordercolor="#999999"
     borderopacity="1"
     inkscape:showpageshadow="2"
     inkscape:pageopacity="0"
     inkscape:pagecheckerboard="0"
     inkscape:deskcolor="#d1d1d1"
     inkscape:zoom="16.83798"
     inkscape:cx="11.402793"
     inkscape:cy="10.749508"
     inkscape:window-width="1920"
     inkscape:window-height="996"
     inkscape:window-x="0"
     inkscape:window-y="0"
     inkscape:window-maximized="1"
     inkscape:current-layer="svg6"
     showgrid="true">
    <inkscape:grid
       id="grid2"
       units="px"
       originx="0"
       originy="-33"
       spacingx="1"
       spacingy="1"
       empcolor="#0099e5"
       empopacity="0.30196078"
       color="#0099e5"
       opacity="0.14902"
       empspacing="5"
       dotted="false"
       gridanglex="30"
       gridanglez="30"
       visible="true" />
  </sodipodi:namedview>
  <defs
     id="defs10" />
  <namedview
     id="namedview8"
     pagecolor="#ffffff"
     bordercolor="#000000"
     borderopacity="0.25"
     inkscape:showpageshadow="2"
     inkscape:pageopacity="0.0"
     inkscape:pagecheckerboard="0"
     inkscape:deskcolor="#d1d1d1"
     showgrid="false"
     inkscape:zoom="48.3125"
     inkscape:cx="6.8926261"
     inkscape:cy="7.9896507"
     inkscape:window-width="1920"
     inkscape:window-height="1011"
     inkscape:window-x="0"
     inkscape:window-y="0"
     inkscape:window-maximized="1"
     inkscape:current-layer="svg6" />
  <style
     type="text/css"
     id="current-color-scheme">.ColorScheme-Text{color:#31363b;}.ColorScheme-Background{color:#eff0f1;}.ColorScheme-Highlight{color:#3daee9;}.ColorScheme-ViewText{color:#31363b;}.ColorScheme-ViewBackground{color:#fcfcfc;}.ColorScheme-ViewHover{color:#93cee9;}.ColorScheme-ViewFocus{color:#3daee9;}.ColorScheme-ButtonText{color:#31363b;}.ColorScheme-ButtonBackground{color:#eff0f1;}.ColorScheme-ButtonHover{color:#93cee9;}.ColorScheme-ButtonFocus { color: #3daee9; } </style>
  <g
     id="22-22-kdeconnect">
    <rect
       style="fill:#000000;fill-opacity:0;stroke:none"
       id="rect3841"
       width="22"
       height="22"
       x="0"
       y="0" />
    <path
       d="m 6,4.9775867 c -0.1235383,0 -0.3,0.08126 -0.3,0.181454 v 0.356276 c 0,0.101702 0.17739,0.181454 0.3,0.181454 v 0.53923 c -0.1235383,0 -0.3,0.07976 -0.3,0.178196 v 0.722441 c 0,0.09694 0.17739,0.178071 0.3,0.178071 v 0.359518 c -0.1235383,0 -0.3,0.07976 -0.3,0.178196 v 0.722313 c 0,0.09706 0.17739,0.178196 0.3,0.178196 V 18.101251 C 6,18.597079 6.3858751,19 7,19 h 7.887823 C 15.501674,19 16,18.597592 16,18.101251 V 3.978 C 16,3.482301 15.627522,3 15.042953,3 h -0.376332 c 0,-0.09995 -0.09904,-0.4 -0.221198,-0.4 H 12.665598 C 12.545625,2.6 12.444402,2.900679 12.444402,3 H 7.3345179 C 6.7206763,3 6,3.5821087 6,4.0784497 Z m 4.333211,13.0337163 c 0,-0.34748 0.349086,-0.629149 0.777862,-0.629149 0.429518,0 0.777692,0.282404 0.777692,0.629149 0,0.34748 -0.349086,0.629278 -0.777692,0.629278 -0.429689,0 -0.777862,-0.282405 -0.777862,-0.629278 z M 7,4 h 8 V 17 H 7 Z"
       fill-rule="evenodd"
       id="path76-5"
       style="color:#d6dbf1;fill:#e1e1e1;fill-opacity:1;stroke-width:0.0356918"
       sodipodi:nodetypes="cssccssccsscsssssscsscsccsssssccccc"
       class="ColorScheme-Text" />
    <path
       style="color:#d6dbf1;fill:#af905e;fill-opacity:1;stroke-width:0.374543"
       d="m 11.377933,7.9333417 -1.129909,0.1967117 v 3.8888516 l 1.124055,-0.144789 -0.0058,-1.752838 1.326029,1.940037 1.302611,-0.187199 L 12.496145,9.866067 14,8.1812422 12.681291,7.9384581 11.366239,9.6232892 Z M 9.0017663,8.9263932 c -0.010871,7.04e-4 -0.021075,0.0056 -0.029287,0.01387 L 8.5846242,9.3322227 c -0.016859,0.01694 -0.019667,0.04338 -0.00647,0.063623 l 0.4683547,0.7188333 c -0.088344,0.15668 -0.155104,0.328474 -0.1983159,0.508226 L 8.0395553,10.821078 C 8.0171444,10.826585 8,10.84684 8,10.870092 v 0.25521 0.255211 c 0,0.02325 0.017102,0.04352 0.039554,0.04903 l 0.8086364,0.198169 c 0.043201,0.179755 0.1099651,0.351549 0.1983219,0.508231 L 8.578159,12.854767 c -0.013086,0.02025 -0.010277,0.04669 0.00647,0.06362 l 0.3878583,0.391957 c 0.016328,0.01654 0.04175,0.01785 0.061436,0.0058 l 0.7339958,-0.449723 c 0.1439999,0.08383 0.3692569,0.151274 0.5334879,0.195976 l 0.171976,0.829977 c 0.0051,0.02395 0.02385,0.04093 0.04754,0.04093 h 0.289058 0.289064 c 0.02378,0 0.04277,-0.01694 0.04754,-0.04093 l 0.171975,-0.829977 c 0.164231,-0.04473 0.389485,-0.112151 0.533487,-0.195979 l 0.734002,0.449725 c 0.01977,0.01197 0.04508,0.01066 0.06142,-0.0058 l 0.387863,-0.391958 c 0.01686,-0.01694 0.01969,-0.04338 0.0065,-0.06362 l -0.39005,-0.598899 -0.0483,0.007 -0.273698,-0.400734 c -0.279536,0.585556 -0.870705,0.958712 -1.519954,0.959416 -0.9311999,0 -1.6860819,-0.754321 -1.6860819,-1.684826 6.791e-4,-0.639535 0.3633877,-1.2236285 0.9367059,-1.5078645 V 9.2611542 C 9.9535839,9.296741 9.8485712,9.336934 9.7677373,9.3840095 L 9.0338554,8.9343078 c -0.00984,-0.00603 -0.021308,-0.0089 -0.032223,-0.00793 z"
       class="ColorScheme-Text"
       id="path10-0" />
  </g>
</svg>
