<?xml version="1.0" encoding="UTF-8" standalone="no"?>
<svg
   width="22"
   height="22"
   version="1.1"
   id="svg1"
   sodipodi:docname="klipper-symbolic.svg"
   inkscape:version="1.3.2 (091e20ef0f, 2023-11-25)"
   xmlns:inkscape="http://www.inkscape.org/namespaces/inkscape"
   xmlns:sodipodi="http://sodipodi.sourceforge.net/DTD/sodipodi-0.dtd"
   xmlns="http://www.w3.org/2000/svg"
   xmlns:svg="http://www.w3.org/2000/svg">
  <defs
     id="defs1" />
  <sodipodi:namedview
     id="namedview1"
     pagecolor="#ffffff"
     bordercolor="#999999"
     borderopacity="1"
     inkscape:showpageshadow="2"
     inkscape:pageopacity="0"
     inkscape:pagecheckerboard="0"
     inkscape:deskcolor="#d1d1d1"
     inkscape:zoom="17.318182"
     inkscape:cx="10.740157"
     inkscape:cy="11.317585"
     inkscape:window-width="1920"
     inkscape:window-height="996"
     inkscape:window-x="0"
     inkscape:window-y="0"
     inkscape:window-maximized="1"
     inkscape:current-layer="svg1"
     showgrid="true">
    <inkscape:grid
       id="grid1"
       units="px"
       originx="0"
       originy="-29"
       spacingx="1"
       spacingy="1"
       empcolor="#0099e5"
       empopacity="0.30196078"
       color="#0099e5"
       opacity="0.14902"
       empspacing="5"
       dotted="false"
       gridanglex="30"
       gridanglez="30"
       visible="true" />
  </sodipodi:namedview>
  <style
     type="text/css"
     id="current-color-scheme">
      .ColorScheme-Text {
        color:#fcfcfc;
      }
      .ColorScheme-Background {
        color:#eff0f1;
      }
      .ColorScheme-Highlight {
        color:#3daee9;
      }
      .ColorScheme-ViewText {
        color:#31363b;
      }
      .ColorScheme-ViewBackground {
        color:#fcfcfc;
      }
      .ColorScheme-ViewHover {
        color:#93cee9;
      }
      .ColorScheme-ViewFocus{
        color:#3daee9;
      }
      .ColorScheme-ButtonText {
        color:#31363b;
      }
      .ColorScheme-ButtonBackground {
        color:#eff0f1;
      }
      .ColorScheme-ButtonHover {
        color:#93cee9;
      }
      .ColorScheme-ButtonFocus{
        color:#3daee9;
      }
      </style>
  <g
     id="22-22-klipper">
    <rect
       style="opacity:0.00100002;fill:#bac8df;fill-opacity:1"
       width="22"
       height="22"
       x="0"
       y="0"
       id="rect2-1" />
    <path
       style="color:#d1d5e9;fill:#e1e1e1;fill-opacity:1;stroke-width:1"
       class="ColorScheme-Text "
       d="m 11,3 c -4.424,0 -8,3.576 -8,8 0,4.424 3.576,8 8,8 4.423999,0 8,-3.576 8,-8 0,-4.424 -3.576001,-8 -8,-8 z m 0,1 c 3.869999,0 7,3.130001 7,7 0,3.870008 -3.129999,7 -7,7 C 7.130004,18 4,14.870008 4,11 4,7.130001 7.130004,4 11,4 Z m 0.668614,5.75339 z"
       id="path58-3"
       sodipodi:nodetypes="ssssssssssccccccc" />
    <path
       d="M 15.657244,9.205389 C 15.595944,8.495801 15.274179,7.801312 14.722572,7.257706 13.573364,6.12538 11.811269,6.019705 10.799968,7.016138 l -4.30575,4.242531 c -0.21451,0.211372 -0.21451,0.543515 0,0.739789 0.214518,0.211364 0.551623,0.211364 0.750818,0 l 4.305746,-4.242533 c 0.597579,-0.588804 1.670161,-0.483118 2.405738,0.241569 0.367743,0.362339 0.582266,0.815267 0.62823,1.283294 0.03068,0.437838 -0.09193,0.830373 -0.367741,1.102132 l -1.654848,1.630548 -2.390336,2.340053 C 9.78876,14.730959 9.129889,14.685666 8.70086,14.262941 8.271818,13.840204 8.225852,13.191003 8.60892,12.813563 l 3.754139,-3.699012 c 0.09192,-0.09058 0.275796,-0.09058 0.383064,0.03018 0.107253,0.105688 0.122578,0.286854 0.03068,0.37744 l -3.064524,3.049726 c -0.214521,0.211365 -0.214521,0.543517 0,0.739789 0.107259,0.105681 0.245158,0.150971 0.383063,0.150971 0.137906,0 0.275811,-0.0453 0.383066,-0.150971 l 3.079943,-3.034713 C 14.079317,9.763647 14.063992,8.918177 13.527691,8.404859 12.991404,7.876441 12.133334,7.861344 11.627681,8.374719 l -1.379036,1.358789 -2.39033,2.340041 c -0.796774,0.785084 -0.750814,2.098491 0.09192,2.943959 0.444364,0.437833 1.011292,0.649199 1.578229,0.649199 0.520974,0 1.026626,-0.181169 1.409687,-0.55861 l 4.029769,-3.970594 c 0.505648,-0.498224 0.750811,-1.17762 0.689518,-1.932504 z"
       id="path628-6"
       style="fill:#af905e;fill-opacity:1;stroke-width:0.0173828" />
  </g>
</svg>
