<?xml version="1.0" encoding="UTF-8" standalone="no"?>
<svg
   width="22"
   height="22"
   version="1.1"
   id="svg1"
   sodipodi:docname="mail-unread.svg"
   inkscape:version="1.3.2 (091e20ef0f, 2023-11-25)"
   xmlns:inkscape="http://www.inkscape.org/namespaces/inkscape"
   xmlns:sodipodi="http://sodipodi.sourceforge.net/DTD/sodipodi-0.dtd"
   xmlns="http://www.w3.org/2000/svg"
   xmlns:svg="http://www.w3.org/2000/svg">
  <defs
     id="defs1" />
  <sodipodi:namedview
     id="namedview1"
     pagecolor="#d2d2d2"
     bordercolor="#999999"
     borderopacity="1"
     inkscape:showpageshadow="2"
     inkscape:pageopacity="0"
     inkscape:pagecheckerboard="0"
     inkscape:deskcolor="#d1d1d1"
     inkscape:zoom="12.277945"
     inkscape:cx="10.832432"
     inkscape:cy="10.832432"
     inkscape:window-width="1920"
     inkscape:window-height="996"
     inkscape:window-x="0"
     inkscape:window-y="0"
     inkscape:window-maximized="1"
     inkscape:current-layer="svg1" />
  <style
     type="text/css"
     id="current-color-scheme">
      .ColorScheme-Text {
        color:#fcfcfc;
      }
      .ColorScheme-Background {
        color:#eff0f1;
      }
      .ColorScheme-Highlight {
        color:#3daee9;
      }
      .ColorScheme-ViewText {
        color:#31363b;
      }
      .ColorScheme-ViewBackground {
        color:#fcfcfc;
      }
      .ColorScheme-ViewHover {
        color:#93cee9;
      }
      .ColorScheme-ViewFocus{
        color:#3daee9;
      }
      .ColorScheme-ButtonText {
        color:#31363b;
      }
      .ColorScheme-ButtonBackground {
        color:#eff0f1;
      }
      .ColorScheme-ButtonHover {
        color:#93cee9;
      }
      .ColorScheme-ButtonFocus{
        color:#3daee9;
      }
      </style>
  <g
     id="22-22-mail-unread-new"
     style="fill:#af905e;fill-opacity:1"
     transform="translate(-32,-10.000002)">
    <rect
       style="opacity:0.00100002;fill:#af905e;fill-opacity:1"
       width="22"
       height="22"
       x="32"
       y="10.000002"
       id="rect2-3-5" />
    <path
       d="M 50.483644,13.000001 H 35.516357 C 34.126611,13.000001 33,14.128458 33,15.52048 v 10.959042 c 0,1.392022 1.126611,2.520479 2.516357,2.520479 h 14.967287 c 1.389746,0 2.516357,-1.128457 2.516357,-2.520479 V 15.52048 c 0,-1.392022 -1.126611,-2.520479 -2.516357,-2.520479 z m -14.967287,1 h 14.967287 c 0.790717,-0.0023 1.463787,0.619314 1.516356,1.409578 -2.48616,1.330813 -4.998993,2.651544 -7.495219,3.982356 -0.33771,0.211981 -0.695002,0.39092 -1.066935,0.534342 -0.590682,0.11676 -1.20297,-0.02646 -1.680926,-0.393194 -1.42929,-0.756144 -2.85858,-1.52237 -4.277805,-2.278514 C 36.331656,16.649654 35.147459,16.034658 34,15.41966 c 0.04846,-0.793784 0.722392,-1.420608 1.516357,-1.419659 z M 52,26.479522 c 0,0.835214 -0.682508,1.520479 -1.516356,1.520479 H 35.516357 C 34.68251,28.000001 34,27.314736 34,26.479522 v -9.915564 c 2.37544,1.250158 4.747358,2.520479 7.122798,3.780719 0.424408,0.260629 0.881296,0.464022 1.358833,0.604914 0.698924,0.113822 1.415248,-0.03327 2.013085,-0.413358 1.459487,-0.766226 2.908908,-1.542533 4.368395,-2.308758 C 49.909915,17.662887 50.953195,17.118463 52,16.563958 Z"
       id="path624-3-6"
       style="fill:#e1e1e1;fill-opacity:1;stroke-width:1.00737"
       sodipodi:nodetypes="ssssssssscccccccccssssccccccs" />
    <path
       d="M 45,23.999994 C 45,25.105106 44.105103,26 43.000003,26 c -1.104169,1e-6 -1.999996,-0.894894 -1.999996,-2.000006 C 41.000007,22.895826 41.895834,22 43.000003,22 44.105103,22 45,22.895826 45,23.999994 Z"
       id="path72-3-3-6"
       style="fill:#af905e;fill-opacity:1;stroke-width:0.0238099" />
  </g>
</svg>
