<?xml version="1.0" encoding="UTF-8"?>
<svg width="128px" height="128px" viewBox="0 0 128 128" version="1.1" xmlns="http://www.w3.org/2000/svg" xmlns:xlink="http://www.w3.org/1999/xlink">
    <title>apps/128/dde-calendar</title>
    <defs>
        <filter x="-9.6%" y="-7.5%" width="119.6%" height="120.5%" filterUnits="objectBoundingBox" id="filter-1">
            <feOffset dx="-0.278346202" dy="1.98053614" in="SourceAlpha" result="shadowOffsetOuter1"></feOffset>
            <feGaussianBlur stdDeviation="3" in="shadowOffsetOuter1" result="shadowBlurOuter1"></feGaussianBlur>
            <feColorMatrix values="0 0 0 0 0   0 0 0 0 0   0 0 0 0 0  0 0 0 0.2 0" type="matrix" in="shadowBlurOuter1" result="shadowMatrixOuter1"></feColorMatrix>
            <feMerge>
                <feMergeNode in="shadowMatrixOuter1"></feMergeNode>
                <feMergeNode in="SourceGraphic"></feMergeNode>
            </feMerge>
        </filter>
        <radialGradient cx="54.3240802%" cy="55.7793187%" fx="54.3240802%" fy="55.7793187%" r="61.9143954%" gradientTransform="translate(0.5432, 0.5578), scale(1, 0.8824), rotate(-144.9986), scale(1, 1.2647), translate(-0.5432, -0.5578)" id="radialGradient-2">
            <stop stop-color="#000000" offset="0%"></stop>
            <stop stop-color="#000000" stop-opacity="0.148218969" offset="100%"></stop>
        </radialGradient>
        <path d="M50.25,76.5 L50.25,70.8840136 L35.0012034,70.8840136 L47.8408544,55.0840136 C49.4469515,53.0776644 50.25,50.7846939 50.25,48.205102 C50.2134978,44.9806122 49.1093061,42.3204082 46.9374248,40.2244898 C44.8020457,38.1106576 42.0187525,37.0358277 38.5875451,37 C35.5213598,37.0358277 32.9388287,38.0927438 30.8399519,40.1707483 C28.7593261,42.3024943 27.6460088,44.9985261 27.5,48.2588435 L27.5,48.2588435 L33.1943442,48.2588435 C33.3951063,46.4674603 34.0338949,45.0791383 35.11071,44.0938776 C36.1510229,43.1086168 37.4559767,42.6159864 39.0255716,42.6159864 C40.7959286,42.6518141 42.1647613,43.2160998 43.1320698,44.3088435 C44.0628761,45.4015873 44.5282792,46.6824263 44.5282792,48.1513605 C44.5282792,48.7066893 44.4552748,49.2978458 44.3092659,49.9248299 C44.0902527,50.5876417 43.6796029,51.304195 43.0773165,52.0744898 L43.0773165,52.0744898 L27.5,71.2064626 L27.5,76.5 L50.25,76.5 Z M65.7096386,76.25 L79.25,42.6263717 L79.25,37 L56.5,37 L56.5,48.3065844 L62.2286145,48.3065844 L62.2286145,42.6263717 L72.8361446,42.6263717 L59.3231928,76.25 L65.7096386,76.25 Z" id="path-3"></path>
        <filter x="-17.4%" y="-15.2%" width="134.8%" height="145.6%" filterUnits="objectBoundingBox" id="filter-4">
            <feOffset dx="0" dy="3" in="SourceAlpha" result="shadowOffsetOuter1"></feOffset>
            <feGaussianBlur stdDeviation="2.5" in="shadowOffsetOuter1" result="shadowBlurOuter1"></feGaussianBlur>
            <feColorMatrix values="0 0 0 0 0.000854821203   0 0 0 0 0.168099661   0 0 0 0 0.309386322  0 0 0 0.2 0" type="matrix" in="shadowBlurOuter1"></feColorMatrix>
        </filter>
        <linearGradient x1="69.1755115%" y1="71.0965544%" x2="56.7766998%" y2="57.7013487%" id="linearGradient-5">
            <stop stop-color="#C6C6C6" offset="0%"></stop>
            <stop stop-color="#E7E7E7" offset="53.0517663%"></stop>
            <stop stop-color="#F4F4F4" offset="100%"></stop>
        </linearGradient>
        <path d="M107,72 C107,72 105.565849,80.9538519 103.75,83.875 C100.875,88.5 98.75,86.75 94.75,91.625 C90.75,96.5 93.5,97.375 87.5,102.5 C84.2845809,105.246504 76.5,107 76.5,107 C101.375,107 107,85.375 107,72 Z" id="path-6"></path>
        <filter x="-6.6%" y="-2.9%" width="113.1%" height="111.4%" filterUnits="objectBoundingBox" id="filter-7">
            <feOffset dx="0" dy="1" in="SourceAlpha" result="shadowOffsetOuter1"></feOffset>
            <feGaussianBlur stdDeviation="0.5" in="shadowOffsetOuter1" result="shadowBlurOuter1"></feGaussianBlur>
            <feColorMatrix values="0 0 0 0 0   0 0 0 0 0   0 0 0 0 0  0 0 0 0.05 0" type="matrix" in="shadowBlurOuter1"></feColorMatrix>
        </filter>
    </defs>
    <g id="apps/128/dde-calendar" stroke="none" fill="none">
        <g id="编组-2" filter="url(#filter-1)" stroke-width="1" fill-rule="evenodd" transform="translate(64, 64) rotate(-8) translate(-64, -64)translate(10.5, 10.5)">
            <g id="编组" transform="translate(-0, -0)">
                <rect id="矩形备份-2" fill="#FFFFFF" x="2.14474681e-12" y="4.71161729e-13" width="107" height="107" rx="19.5"></rect>
                <path d="M107,73 L107,87.5 C107,98.2695526 98.2695526,107 87.5,107 L77,107 C87.25,105.75 94.4583333,101.791667 98.625,95.125 C102.791667,88.4583333 105.583333,81.0833333 107,73 Z" id="形状结合" fill-opacity="0.39" fill="url(#radialGradient-2)"></path>
                <g id="MARCH" transform="translate(23, 6)" fill="#E06164" fill-rule="nonzero">
                    <path d="M1.6975,20 L3.5175,20 L3.5175,13.63 C3.5175,12.475 3.36,10.8125 3.2725,9.64 L3.3425,9.64 L4.3575,12.615 L6.615,18.7575 L7.875,18.7575 L10.115,12.615 L11.1475,9.64 L11.2175,9.64 C11.1125,10.8125 10.955,12.475 10.955,13.63 L10.955,20 L12.845,20 L12.845,7.1025 L10.5,7.1025 L8.1725,13.63 C7.875,14.4875 7.63,15.3625 7.3325,16.22 L7.245,16.22 C6.9475,15.3625 6.685,14.4875 6.3875,13.63 L4.025,7.1025 L1.6975,7.1025 L1.6975,20 Z" id="路径"></path>
                    <path d="M18.69,13 C19.11,11.6 19.5125,10.1825 19.88,8.7125 L19.9675,8.7125 C20.3525,10.165 20.7375,11.6 21.175,13 L21.6825,14.7325 L18.165,14.7325 L18.69,13 Z M14.525,20 L16.59,20 L17.6925,16.325 L22.1725,16.325 L23.2575,20 L25.41,20 L21.14,7.1025 L18.795,7.1025 L14.525,20 Z" id="形状"></path>
                    <path d="M27.1075,20 L29.1375,20 L29.1375,14.8025 L31.22,14.8025 L34.1425,20 L36.435,20 L33.285,14.54 C34.9125,14.0325 35.98,12.8425 35.98,10.8475 C35.98,8.065 33.985,7.1025 31.325,7.1025 L27.1075,7.1025 L27.1075,20 Z M29.1375,13.175 L29.1375,8.7475 L31.08,8.7475 C32.9525,8.7475 33.9675,9.29 33.9675,10.8475 C33.9675,12.405 32.9525,13.175 31.08,13.175 L29.1375,13.175 Z" id="形状"></path>
                    <path d="M43.61,20.2275 C45.2725,20.2275 46.585,19.5625 47.6175,18.3725 L46.5325,17.095 C45.7625,17.935 44.87,18.46 43.68,18.46 C41.405,18.46 39.97,16.5875 39.97,13.525 C39.97,10.4975 41.51,8.6425 43.7325,8.6425 C44.7825,8.6425 45.5875,9.115 46.2525,9.7975 L47.355,8.5025 C46.5675,7.645 45.3075,6.875 43.6975,6.875 C40.4425,6.875 37.8875,9.395 37.8875,13.595 C37.8875,17.8125 40.3725,20.2275 43.61,20.2275 Z" id="路径"></path>
                    <polygon id="路径" points="49.8925 20 51.9225 20 51.9225 14.1375 57.435 14.1375 57.435 20 59.465 20 59.465 7.1025 57.435 7.1025 57.435 12.37 51.9225 12.37 51.9225 7.1025 49.8925 7.1025"></polygon>
                </g>
                <g id="27" fill-rule="nonzero">
                    <use fill="black" fill-opacity="1" filter="url(#filter-4)" xlink:href="#path-3"></use>
                    <use fill="#2D394F" xlink:href="#path-3"></use>
                </g>
            </g>
            <g id="MONDAY" transform="translate(32.25, 81)" fill="#2D394F" fill-rule="nonzero">
                <path d="M0.97,12 L2.01,12 L2.01,8.36 C2.01,7.7 1.92,6.75 1.87,6.08 L1.91,6.08 L2.49,7.78 L3.78,11.29 L4.5,11.29 L5.78,7.78 L6.37,6.08 L6.41,6.08 C6.35,6.75 6.26,7.7 6.26,8.36 L6.26,12 L7.34,12 L7.34,4.63 L6,4.63 L4.67,8.36 C4.5,8.85 4.36,9.35 4.19,9.84 L4.14,9.84 C3.97,9.35 3.82,8.85 3.65,8.36 L2.3,4.63 L0.97,4.63 L0.97,12 Z" id="路径"></path>
                <path d="M12.07,12.13 C13.96,12.13 15.28,10.66 15.28,8.29 C15.28,5.92 13.96,4.5 12.07,4.5 C10.18,4.5 8.87,5.92 8.87,8.29 C8.87,10.66 10.18,12.13 12.07,12.13 Z M12.07,11.12 C10.85,11.12 10.06,10.01 10.06,8.29 C10.06,6.56 10.85,5.51 12.07,5.51 C13.29,5.51 14.09,6.56 14.09,8.29 C14.09,10.01 13.29,11.12 12.07,11.12 Z" id="形状"></path>
                <path d="M16.81,12 L17.91,12 L17.91,8.53 C17.91,7.73 17.82,6.88 17.76,6.12 L17.81,6.12 L18.58,7.66 L21.02,12 L22.21,12 L22.21,4.63 L21.11,4.63 L21.11,8.07 C21.11,8.87 21.2,9.76 21.26,10.52 L21.21,10.52 L20.44,8.96 L18,4.63 L16.81,4.63 L16.81,12 Z" id="路径"></path>
                <path d="M24.15,12 L26.12,12 C28.32,12 29.61,10.68 29.61,8.29 C29.61,5.89 28.32,4.63 26.06,4.63 L24.15,4.63 L24.15,12 Z M25.31,11.05 L25.31,5.58 L25.98,5.58 C27.56,5.58 28.41,6.45 28.41,8.29 C28.41,10.12 27.56,11.05 25.98,11.05 L25.31,11.05 Z" id="形状"></path>
                <path d="M32.55,8 C32.79,7.2 33.02,6.39 33.23,5.55 L33.28,5.55 C33.5,6.38 33.72,7.2 33.97,8 L34.26,8.99 L32.25,8.99 L32.55,8 Z M30.17,12 L31.35,12 L31.98,9.9 L34.54,9.9 L35.16,12 L36.39,12 L33.95,4.63 L32.61,4.63 L30.17,12 Z" id="形状"></path>
                <path d="M38.57,12 L39.73,12 L39.73,9.21 L41.95,4.63 L40.74,4.63 L39.88,6.59 C39.66,7.14 39.42,7.65 39.18,8.21 L39.14,8.21 C38.89,7.65 38.68,7.14 38.45,6.59 L37.6,4.63 L36.36,4.63 L38.57,9.21 L38.57,12 Z" id="路径"></path>
            </g>
            <g id="路径-11">
                <use fill="black" fill-opacity="1" filter="url(#filter-7)" xlink:href="#path-6"></use>
                <use fill="url(#linearGradient-5)" fill-rule="evenodd" xlink:href="#path-6"></use>
            </g>
        </g>
        <g id="Guide-128"></g>
    </g>
</svg>