<?xml version="1.0" encoding="UTF-8"?>
<svg width="128px" height="128px" viewBox="0 0 128 128" version="1.1" xmlns="http://www.w3.org/2000/svg" xmlns:xlink="http://www.w3.org/1999/xlink">
    <title>apps/128/org.deepin.browser</title>
    <defs>
        <filter x="-9.7%" y="-7.3%" width="116.8%" height="116.8%" filterUnits="objectBoundingBox" id="filter-1">
            <feOffset dx="-1.53208889" dy="1.28557522" in="SourceAlpha" result="shadowOffsetOuter1"></feOffset>
            <feGaussianBlur stdDeviation="3" in="shadowOffsetOuter1" result="shadowBlurOuter1"></feGaussianBlur>
            <feColorMatrix values="0 0 0 0 0   0 0 0 0 0   0 0 0 0 0  0 0 0 0.2 0" type="matrix" in="shadowBlurOuter1" result="shadowMatrixOuter1"></feColorMatrix>
            <feMerge>
                <feMergeNode in="shadowMatrixOuter1"></feMergeNode>
                <feMergeNode in="SourceGraphic"></feMergeNode>
            </feMerge>
        </filter>
        <linearGradient x1="50%" y1="0%" x2="50%" y2="98.1385523%" id="linearGradient-2">
            <stop stop-color="#FFFFFF" offset="0%"></stop>
            <stop stop-color="#EDEDED" offset="100%"></stop>
        </linearGradient>
        <linearGradient x1="38.3798131%" y1="23.2583893%" x2="75.4192061%" y2="50%" id="linearGradient-3">
            <stop stop-color="#4E56FD" offset="0%"></stop>
            <stop stop-color="#4F52FF" offset="100%"></stop>
        </linearGradient>
        <linearGradient x1="24.1024028%" y1="12.2730876%" x2="88.2614564%" y2="56.7344125%" id="linearGradient-4">
            <stop stop-color="#6B5BFE" offset="0%"></stop>
            <stop stop-color="#58CDFF" offset="100%"></stop>
        </linearGradient>
    </defs>
    <g id="apps/128/org.deepin.browser" stroke="none" fill="none">
        <g id="编组" filter="url(#filter-1)" stroke-width="1" fill-rule="evenodd" transform="translate(64, 64) rotate(-50) translate(-64, -64)translate(6, 6)">
            <circle id="椭圆形" fill="url(#linearGradient-2)" cx="58" cy="58" r="58"></circle>
            <path d="M64.4932206,41.267518 C72.5325302,36.563782 74.1276092,32.3719012 69.2784575,28.6918757 C62.0047299,23.1718374 48.0635987,28.2954664 42.558101,33.1015373 C37.0526034,37.9076082 29.1906346,49.5286398 31.4337065,66.5617938 C33.6767783,83.5949477 11.8081889,81.2781247 17.6832568,60.8122277 C21.5999688,47.1682964 31.3623123,31.7426202 46.9702874,14.535199 L67.6704987,7.43616503 L81.4693203,10.8290934 L91.6741477,19.8183224 L93.9304925,30.7510513 L83.4826768,39.3240336 L64.4932206,41.267518 Z" id="路径-39" fill="url(#linearGradient-3)"></path>
            <path d="M58,0 C79.5793322,0 98.4061669,11.7848428 108.395688,29.2697118 C112.344099,38.0312545 113.863877,50.0119947 108.274836,59.7020384 C101.426776,71.5749137 83.6800011,77.3601235 71.5253439,73.7982604 C51.7751322,68.0105569 44.1279822,49.8066081 53.6116646,42.6088707 C56.7813708,40.20319 60.6845613,39.3511669 64.7203892,38.6729109 L67.1674271,38.2734125 C69.9575205,37.8175197 72.7531531,37.3127025 75.3600224,36.3127313 C82.5289132,33.5628104 87.8298772,29.0772177 87.8298772,22.9211977 C87.8298772,20.1079627 86.4996811,15.9143238 81.4882969,13.1039304 C76.1272612,10.0974518 65.7247132,8.51928787 54.7894256,14.091917 C50.8791295,16.0846063 46.4873633,19.0188791 43.3878241,21.9495065 C35.7740185,29.1483922 31.9044279,39.108923 30.4675715,49.3581766 L30.3902406,49.9278609 C29.8004952,54.4188301 30.2931482,69.7492638 37.3725872,79.4521083 C46.3448682,91.7492196 62.8439998,100.16905 75.9751475,100.16905 C88.5679443,100.16905 98.8308759,96.5841 106.763942,89.4141995 C96.4382083,105.410402 78.4557708,116 58,116 C25.9674845,116 0,90.0325155 0,58 C0,25.9674845 25.9674845,0 58,0 Z" id="路径" fill="url(#linearGradient-4)"></path>
            <circle id="椭圆形" stroke-opacity="0.08" stroke="#000000" cx="58" cy="58" r="57.5"></circle>
        </g>
        <g id="Guide/128"></g>
    </g>
</svg>