<?xml version="1.0" encoding="UTF-8" standalone="no"?>
<svg
   viewBox="0 0 32 32"
   version="1.1"
   id="svg1"
   sodipodi:docname="compass.svg"
   width="32"
   height="32"
   inkscape:version="1.3.2 (091e20ef0f, 2023-11-25)"
   xmlns:inkscape="http://www.inkscape.org/namespaces/inkscape"
   xmlns:sodipodi="http://sodipodi.sourceforge.net/DTD/sodipodi-0.dtd"
   xmlns="http://www.w3.org/2000/svg"
   xmlns:svg="http://www.w3.org/2000/svg">
  <sodipodi:namedview
     id="namedview1"
     pagecolor="#d7d7d7"
     bordercolor="#999999"
     borderopacity="1"
     inkscape:showpageshadow="2"
     inkscape:pageopacity="0"
     inkscape:pagecheckerboard="0"
     inkscape:deskcolor="#d1d1d1"
     inkscape:zoom="10.482736"
     inkscape:cx="15.83556"
     inkscape:cy="8.394755"
     inkscape:window-width="1920"
     inkscape:window-height="996"
     inkscape:window-x="0"
     inkscape:window-y="0"
     inkscape:window-maximized="1"
     inkscape:current-layer="svg1" />
  <defs
     id="defs3051">
    <style
       type="text/css"
       id="current-color-scheme">
            .ColorScheme-Text {
                color:#d8d8d8;
            }
        </style>
  </defs>
  <g
     id="compass">
    <path
       d="M 17.00005,23.000006 C 17.00005,22.448547 16.551305,22 15.999851,22 15.44859,22 15,22.448555 15,23.000006 15,23.551269 15.44855,24 15.999851,24 16.55131,24 17.00005,23.551259 17.00005,23.000006"
       fill-rule="evenodd"
       id="path1168-7"
       style="opacity:0.8;fill:#af905e;fill-opacity:1;stroke-width:0.0494313" />
    <path
       d="M 17.00005,9.0000062 C 17.00005,8.4487353 16.551305,8 15.999851,8 15.44859,8 15,8.4487496 15,9.0000062 15,9.5514744 15.44855,10 15.999851,10 16.55131,10 17.00005,9.5514611 17.00005,9.0000062"
       fill-rule="evenodd"
       id="path1170-5"
       style="opacity:0.8;fill:#af905e;fill-opacity:1;stroke-width:0.0494313" />
    <path
       d="M 15.661947,12.808084 9.8848556,9.0000004 12.948801,15.199817 c 0.140189,-1.383026 1.323826,-2.427254 2.713028,-2.39158"
       fill-rule="evenodd"
       id="path1172-3"
       style="opacity:1;fill:#ffffff;fill-opacity:1;stroke-width:0.0531722" />
    <path
       d="m 18.493864,16.297797 c 0.08478,-1.378181 -0.963707,-2.564107 -2.341699,-2.648873 -1.378177,-0.08478 -2.564091,0.963703 -2.648868,2.341884 -0.08476,1.377981 0.963702,2.563906 2.341879,2.648683 1.377992,0.08477 2.563923,-0.963713 2.648688,-2.341694"
       fill-rule="evenodd"
       id="path1174-5"
       style="opacity:1;fill:#ffffff;fill-opacity:1;stroke-width:0.0499469" />
    <path
       d="m 16.489985,19.337624 5.777091,3.808082 -3.063931,-6.199815 c -0.140009,1.383037 -1.323631,2.427266 -2.713034,2.391582"
       fill-rule="evenodd"
       id="path1176-6"
       style="opacity:1;fill:#ffffff;fill-opacity:1;stroke-width:0.0531723" />
    <path
       style="clip-rule:evenodd;fill:#ffffc1;fill-opacity:0;fill-rule:evenodd;stroke-width:1.00213;stroke-linejoin:round;stroke-miterlimit:1.41421"
       d="M 0,0 V 32 H 32 V 0 Z"
       id="rect817"
       inkscape:connector-curvature="0" />
    <path
       style="color:#d6dbf1;opacity:1;fill:none;fill-opacity:1;stroke:#af905e;stroke-width:1.60402;stroke-linecap:round;stroke-miterlimit:4;stroke-dasharray:none;stroke-opacity:1;stop-color:#31363b"
       sodipodi:type="arc"
       sodipodi:cx="-16"
       sodipodi:cy="-16.00001"
       sodipodi:rx="11.201572"
       sodipodi:ry="11.201572"
       sodipodi:start="3.7596615"
       sodipodi:end="3.7574109"
       sodipodi:open="true"
       sodipodi:arc-type="arc"
       transform="scale(-1)"
       d="m -25.12927,-22.490899 a 11.201572,11.201572 0 0 1 15.6150219,-2.642032 11.201572,11.201572 0 0 1 2.6508169,15.6135337 11.201572,11.201572 0 0 1 -15.6120398,2.6596014 11.201572,11.201572 0 0 1 -2.668385,-15.6105401"
       id="path7"
       class="ColorScheme-Text" />
  </g>
</svg>
