<?xml version="1.0" encoding="UTF-8" standalone="no"?>
<svg
   viewBox="0 0 32 32"
   version="1.1"
   id="svg1"
   sodipodi:docname="gtk-preferences-symbolic.svg"
   width="32"
   height="32"
   inkscape:version="1.4.2 (unknown)"
   xmlns:inkscape="http://www.inkscape.org/namespaces/inkscape"
   xmlns:sodipodi="http://sodipodi.sourceforge.net/DTD/sodipodi-0.dtd"
   xmlns="http://www.w3.org/2000/svg"
   xmlns:svg="http://www.w3.org/2000/svg">
  <sodipodi:namedview
     id="namedview1"
     pagecolor="#ffffff"
     bordercolor="#999999"
     borderopacity="1"
     inkscape:showpageshadow="2"
     inkscape:pageopacity="0"
     inkscape:pagecheckerboard="0"
     inkscape:deskcolor="#d1d1d1"
     inkscape:zoom="6.3656639"
     inkscape:cx="37.388088"
     inkscape:cy="27.883973"
     inkscape:window-width="1920"
     inkscape:window-height="996"
     inkscape:window-x="0"
     inkscape:window-y="0"
     inkscape:window-maximized="1"
     inkscape:current-layer="svg1" />
  <defs
     id="defs3051">
    <style
       type="text/css"
       id="current-color-scheme">
      .ColorScheme-Text {
        color:#fcfcfc;
      }
      .ColorScheme-Highlight {
        color:#3daee9;
      }
      </style>
  </defs>
  <g
     id="g1"
     transform="translate(0,-32.4)">
    <path
       d="m 19.00001,48.400151 c 0,1.657663 -1.342355,3.000038 -3.00001,3.000038 -1.65626,0 -3.000009,-1.342375 -3.000009,-3.000038 0,-1.65634 1.343749,-2.999962 3.000009,-2.999962 1.657655,0 3.00001,1.343622 3.00001,2.999962 z"
       id="path72-3-75"
       style="color:#e5e9ef;fill:#af905e;fill-opacity:1;stroke-width:0.0357146" />
    <path
       d="m 15.232629,36.4 c -0.928045,-1.6e-5 -1.817181,0.345796 -2.47188,0.958807 -0.6547,0.612941 -1.022016,1.444917 -1.017567,2.30966 v -0.02131 c -0.0086,0.601299 -0.510205,1.060614 -1.154765,1.063211 -0.183649,-0.0029 -0.36289,-0.04872 -0.521358,-0.136365 l -0.0084,-0.0043 -0.0065,-0.0043 C 8.3880915,39.677595 6.2333454,40.219772 5.276502,41.767185 l -0.8071928,1.2358 -0.00693,0.01036 c -0.9557115,1.545606 -0.3810484,3.552061 1.2736746,4.448946 h 0.00236 v 0.002 c 0.3603449,0.193831 0.5808128,0.54753 0.5808128,0.93537 0,0.387662 -0.2204726,0.741542 -0.5808128,0.935369 -1.6551658,0.89218 -2.2316008,2.897071 -1.275958,4.440342 l 0.00236,0.002 0.7568864,1.21875 c 0.4513184,0.758847 1.2103701,1.318291 2.1060162,1.5554 0.8956425,0.237273 1.8563717,0.132341 2.6685316,-0.291907 l 0.0084,-0.0039 0.0084,-0.0039 c 0.262265,-0.142614 0.573041,-0.181859 0.866644,-0.108668 0.293442,0.07315 0.541996,0.252817 0.692857,0.498577 l 0.0039,0.0065 0.0039,0.0084 c 0.0953,0.149516 0.146693,0.318249 0.148632,0.492188 v -0.01036 c -1.9e-5,1.788616 1.581054,3.261926 3.50086,3.261926 h 1.527597 c 1.913571,1.69e-4 3.494082,-1.464279 3.503167,-3.247162 v -0.0039 -0.0065 c -0.0012,-0.286455 0.11915,-0.558409 0.336139,-0.760657 0.215182,-0.2005 0.505101,-0.310574 0.809479,-0.311077 0.192108,0.0076 0.379384,0.05589 0.546512,0.144884 l -0.002,-0.002 c 1.657639,0.889881 3.808858,0.355064 4.772269,-1.184659 l 0.800329,-1.242188 0.0039,-0.0065 c 0.467297,-0.747444 0.593771,-1.637675 0.354431,-2.473724 h 0.002 c -0.23914,-0.835853 -0.827948,-1.550038 -1.632547,-1.981398 -0.265335,-0.142217 -0.458403,-0.376117 -0.537368,-0.65199 -0.07891,-0.275522 -0.0375,-0.567564 0.116625,-0.81392 l 0.002,-0.0039 0.002,-0.0039 c 0.09851,-0.160341 0.24158,-0.291551 0.413884,-0.383524 l 0.0039,-0.002 0.0039,-0.0039 c 1.644919,-0.896513 2.218349,-2.889587 1.273671,-4.43182 l 0.153398,0.541193 V 43.268424 L 27.53106,43.014872 26.771886,41.789734 C 25.81656,40.241137 23.661829,39.698928 21.998868,40.586791 l -0.0039,0.0022 -0.0065,0.0043 c -0.263447,0.144384 -0.575836,0.184407 -0.871538,0.112872 -0.295817,-0.07153 -0.547549,-0.248699 -0.702149,-0.494318 l -0.002,-0.0022 -0.002,-0.0022 c -0.09644,-0.149536 -0.145611,-0.320336 -0.147582,-0.494329 l -0.002,0.04262 C 20.288249,38.874852 19.932403,38.020512 19.273165,37.388637 18.613945,36.756779 17.705876,36.399625 16.760124,36.4 Z m 0,2.181819 h 1.529777 c 0.313828,-1.25e-4 0.613516,0.118376 0.832349,0.328125 0.218811,0.20973 0.336035,0.491814 0.326994,0.784091 v 0.02131 0.02131 c 0.0054,0.557089 0.170804,1.101596 0.475622,1.580965 3.85e-4,6.04e-4 -3.78e-4,0.0014 0,0.002 0.468922,0.74174 1.23437,1.281459 2.128885,1.497867 0.896632,0.216908 1.852105,0.09296 2.650243,-0.34517 l -0.01376,0.0065 c 0.566758,-0.302597 1.256263,-0.128922 1.582373,0.398435 l 0.601392,0.969462 v 0.01036 l 0.153207,0.251418 c 0.321721,0.525225 0.139452,1.162725 -0.420748,1.468042 l 0.0084,-0.0039 c -0.531356,0.283628 -0.970431,0.696112 -1.275961,1.19105 -0.465494,0.74673 -0.59562,1.637073 -0.356716,2.471592 0.239223,0.835812 0.825444,1.550091 1.630386,1.981532 0.265434,0.142304 0.458457,0.374167 0.537371,0.649861 v 0.002 c 0.07866,0.274695 0.03652,0.565543 -0.116621,0.81179 -4e-4,6.35e-4 3.97e-4,0.0014 0,0.002 l -0.800329,1.240058 -0.0039,0.0065 c -0.327953,0.525329 -1.014834,0.69762 -1.580078,0.394176 l -0.002,-0.002 h -0.002 C 22.609524,54.050462 22.03963,53.900832 21.454908,53.886179 h -0.01376 -0.01376 c -0.930791,-0.0038 -1.824903,0.338912 -2.483318,0.952412 -0.658135,0.613415 -1.026361,1.446691 -1.02214,2.313922 v -0.01036 c -0.0026,0.607385 -0.507456,1.076093 -1.159336,1.076032 h -1.529776 c -0.654413,0 -1.159338,-0.470626 -1.159339,-1.080255 v -0.0065 -0.0039 c -0.0054,-0.554455 -0.171667,-1.097268 -0.473413,-1.574743 -0.461021,-0.746691 -1.219849,-1.294488 -2.11297,-1.517125 -0.895687,-0.223288 -1.851459,-0.105347 -2.6525278,0.330254 l 0.018294,-0.0084 c -0.2695099,0.140798 -0.5877547,0.176734 -0.8849091,0.09804 v -0.002 c -0.2971919,-0.07888 -0.5476998,-0.2619 -0.697467,-0.51372 l -0.00463,-0.01036 -0.7751923,-1.24211 v -0.002 c -0.3219584,-0.522528 -0.1390093,-1.157898 0.4207939,-1.459647 1.0808938,-0.582058 1.7492978,-1.662062 1.7492978,-2.825284 0,-1.162245 -0.667821,-2.240731 -1.747011,-2.823157 C 6.35067,45.272086 6.1667818,44.631208 6.490712,44.10498 c 4.132e-4,-6.74e-4 -4.155e-4,-0.0013 0,-0.002 l 0.8071918,-1.235796 0.00693,-0.01036 c 0.3261496,-0.527439 1.0157609,-0.701116 1.5824486,-0.398552 l -0.016006,-0.0084 c 0.5148125,0.284708 1.1021276,0.439654 1.7012746,0.445313 h 0.0039 0.0065 c 1.900917,1.84e-4 3.473609,-1.446242 3.500879,-3.217329 v -0.0085 -0.01064 c -0.0011,-0.285253 0.11816,-0.558656 0.334031,-0.760759 0.215799,-0.202059 0.5081,-0.315347 0.814054,-0.315342 z"
       id="path1715"
       style="fill:#e1e1e1;fill-opacity:1" />
  </g>
</svg>
