<?xml version="1.0" encoding="UTF-8" standalone="no"?>
<svg
   viewBox="0 0 32 32"
   version="1.1"
   id="svg1"
   sodipodi:docname="dialog-cancel.svg"
   inkscape:version="1.3.2 (091e20ef0f, 2023-11-25)"
   width="32"
   height="32"
   xmlns:inkscape="http://www.inkscape.org/namespaces/inkscape"
   xmlns:sodipodi="http://sodipodi.sourceforge.net/DTD/sodipodi-0.dtd"
   xmlns="http://www.w3.org/2000/svg"
   xmlns:svg="http://www.w3.org/2000/svg">
  <sodipodi:namedview
     id="namedview1"
     pagecolor="#ffffff"
     bordercolor="#999999"
     borderopacity="1"
     inkscape:showpageshadow="2"
     inkscape:pageopacity="0"
     inkscape:pagecheckerboard="0"
     inkscape:deskcolor="#d1d1d1"
     showgrid="false"
     inkscape:zoom="8.41899"
     inkscape:cx="14.609828"
     inkscape:cy="26.725296"
     inkscape:window-width="1920"
     inkscape:window-height="998"
     inkscape:window-x="0"
     inkscape:window-y="0"
     inkscape:window-maximized="1"
     inkscape:current-layer="svg1">
    <inkscape:grid
       id="grid1"
       units="px"
       originx="-2"
       originy="-42"
       spacingx="1"
       spacingy="1"
       empcolor="#0099e5"
       empopacity="0.30196078"
       color="#0099e5"
       opacity="0.14902"
       empspacing="5"
       dotted="false"
       gridanglex="30"
       gridanglez="30"
       visible="false" />
  </sodipodi:namedview>
  <defs
     id="defs3051">
    <style
       type="text/css"
       id="current-color-scheme">.ColorScheme-Text { color: #fcfcfc; } </style>
  </defs>
  <g
     id="system-log-out-7">
    <path
       style="color:#000000;overflow:visible;opacity:0;fill:#d1d5e9;fill-opacity:1;stroke-width:1.06667"
       id="path951"
       overflow="visible"
       d="M 16,0 C 7.17237,0 0,7.17237 0,16 0,24.82763 7.17237,32 16,32 24.82763,32 32,24.82763 32,16 32,7.17237 24.82763,0 16,0 Z"
       inkscape:connector-curvature="0" />
    <path
       sodipodi:type="arc"
       sodipodi:cx="16.184439"
       sodipodi:cy="16.168226"
       sodipodi:rx="11.370697"
       sodipodi:ry="11.354604"
       sodipodi:start="1.8148121"
       sodipodi:end="6.0278024"
       sodipodi:arc-type="arc"
       d="M 13.437263,27.186457 A 11.370697,11.354604 0 0 1 4.8479159,15.288564 11.370697,11.354604 0 0 1 15.174726,4.8584787 11.370697,11.354604 0 0 1 27.186346,13.299873"
       id="path7-7-75"
       class=" "
       sodipodi:open="true"
       style="opacity:1;fill:none;fill-opacity:1;stroke:#af905e;stroke-width:1.62713;stroke-linecap:round;stroke-miterlimit:4;stroke-dasharray:none;stroke-opacity:1;stop-color:#31363b" />
    <path
       d="m 28,21 c 0,3.866113 -3.133958,7 -7,7 -3.866018,0 -7,-3.133958 -7,-7 0,-3.866018 3.133982,-7 7,-7 3.866042,0 7,3.133982 7,7"
       id="path3950-3"
       class=" "
       style="opacity:1;fill:#666666;fill-opacity:1;stroke:none;stroke-width:0.0489" />
  </g>
  <path
     d="m 21.000014,21.944124 2.360245,2.360329 c 0.260753,0.260724 0.683495,0.260724 0.944191,0 0.260756,-0.260723 0.260756,-0.683407 0,-0.944123 l -2.360347,-2.360325 2.360347,-2.360327 c 0.260765,-0.260722 0.260765,-0.683418 0,-0.944133 -0.260695,-0.260722 -0.683428,-0.260722 -0.944187,0 l -2.360249,2.36033 -2.360335,-2.360331 c -0.260753,-0.260726 -0.683471,-0.260726 -0.944144,0 -0.260744,0.26071 -0.260744,0.683411 0,0.944129 l 2.360323,2.360332 -2.360323,2.360327 c -0.260744,0.260716 -0.260744,0.683402 0,0.944123 0.260673,0.260727 0.683395,0.260727 0.944144,0 z"
     style="fill:#ffffff;fill-opacity:1;fill-rule:evenodd;stroke:none;stroke-width:0.762915"
     id="path2838" />
</svg>
