<?xml version="1.0" encoding="UTF-8" standalone="no"?>
<svg
   width="32"
   height="32"
   version="1.1"
   id="svg1"
   sodipodi:docname="system-user-prompt.svg"
   inkscape:version="1.3.2 (091e20ef0f, 2023-11-25)"
   xmlns:inkscape="http://www.inkscape.org/namespaces/inkscape"
   xmlns:sodipodi="http://sodipodi.sourceforge.net/DTD/sodipodi-0.dtd"
   xmlns="http://www.w3.org/2000/svg"
   xmlns:svg="http://www.w3.org/2000/svg">
  <defs
     id="defs1" />
  <sodipodi:namedview
     id="namedview1"
     pagecolor="#ffffff"
     bordercolor="#999999"
     borderopacity="1"
     inkscape:showpageshadow="2"
     inkscape:pageopacity="0"
     inkscape:pagecheckerboard="0"
     inkscape:deskcolor="#d1d1d1"
     inkscape:zoom="5.953125"
     inkscape:cx="9.4068241"
     inkscape:cy="33.5958"
     inkscape:window-width="1920"
     inkscape:window-height="996"
     inkscape:window-x="0"
     inkscape:window-y="0"
     inkscape:window-maximized="1"
     inkscape:current-layer="svg1" />
  <style
     type="text/css"
     id="current-color-scheme">.ColorScheme-Text { color: #fcfcfc; } </style>
  <g
     id="system-user-prompt-1">
    <path
       style="fill:none"
       d="M 0,0 V 32 H 32 V 0 Z"
       id="path44-5-2" />
    <path
       d="M 27.037636,26 H 4.9623629 C 3.87858,26 3,25.127827 3,24.051949 V 18.948054 C 3,17.872175 3.87858,17 4.9623629,17 H 27.037636 C 28.121421,17 29,17.872175 29,18.948054 v 5.103895 C 29,25.127827 28.121421,26 27.037636,26 Z M 5,18 c 0,0 -1,0 -1,0.948054 V 24 c 0,1 1,1 1,1 H 27.037636 C 27.037636,25 28,25 28,24 v -5 c 0,-1 -1,-1 -1,-1 z"
       id="path493"
       style="color:#e5e9ef;fill:#af905e;fill-opacity:1;stroke-width:1.30346"
       sodipodi:nodetypes="ssssssssscsccccccc" />
    <circle
       cx="7"
       cy="21.5"
       r="1"
       id="circle501"
       style="color:#e5e9ef;fill:currentColor;fill-opacity:1;stroke-width:2.00004" />
    <circle
       cx="11"
       cy="21.5"
       r="1"
       id="circle503"
       style="color:#e5e9ef;fill:currentColor;fill-opacity:1;stroke-width:2.00004" />
    <path
       d="m 17.826506,22 a 0.6289622,0.51220505 0 0 1 0,-1.02441 h 6.289622 a 0.6289622,0.51220505 0 0 1 0,1.02441 z"
       id="path505"
       style="color:#e5e9ef;fill:currentColor;fill-opacity:1;stroke-width:1.13518" />
    <path
       d="M 27.037636,15 H 4.962363 C 3.87858,15 3,14.127827 3,13.051949 V 7.948054 C 3,6.872175 3.87858,6 4.962363,6 H 27.037636 C 28.121421,6 29,6.872175 29,7.948054 v 5.103895 C 29,14.127827 28.121421,15 27.037636,15 Z M 5,7 C 5,7 4,7 4,7.948054 V 13 c 0,1 1,1 1,1 H 27.037636 C 27.037636,14 28,14 28,13 V 8 C 28,7 27,7 27,7 Z"
       id="path493-2"
       style="color:#e5e9ef;fill:#af905e;fill-opacity:1;stroke-width:1.30346"
       sodipodi:nodetypes="ssssssssscsccccccc" />
    <circle
       cx="7"
       cy="10.5"
       r="1"
       id="circle501-7"
       style="color:#e5e9ef;fill:currentColor;fill-opacity:1;stroke-width:2.00004" />
    <circle
       cx="11"
       cy="10.5"
       r="1"
       id="circle503-0"
       style="color:#e5e9ef;fill:currentColor;fill-opacity:1;stroke-width:2.00004" />
    <path
       d="m 17.826506,11 a 0.6289622,0.51220505 0 0 1 0,-1.02441 h 6.289622 a 0.6289622,0.51220505 0 0 1 0,1.02441 z"
       id="path505-9"
       style="color:#e5e9ef;fill:currentColor;fill-opacity:1;stroke-width:1.13518" />
  </g>
</svg>
