<?xml version="1.0" encoding="UTF-8" standalone="no"?>
<svg
   viewBox="0 0 32 32"
   version="1.1"
   id="svg1"
   sodipodi:docname="system-shutdown.svg"
   width="32"
   height="32"
   inkscape:version="1.3.2 (091e20ef0f, 2023-11-25)"
   xmlns:inkscape="http://www.inkscape.org/namespaces/inkscape"
   xmlns:sodipodi="http://sodipodi.sourceforge.net/DTD/sodipodi-0.dtd"
   xmlns="http://www.w3.org/2000/svg"
   xmlns:svg="http://www.w3.org/2000/svg">
  <sodipodi:namedview
     id="namedview1"
     pagecolor="#ffffff"
     bordercolor="#999999"
     borderopacity="1"
     inkscape:showpageshadow="2"
     inkscape:pageopacity="0"
     inkscape:pagecheckerboard="0"
     inkscape:deskcolor="#d1d1d1"
     inkscape:zoom="12.245804"
     inkscape:cx="16.413785"
     inkscape:cy="22.701654"
     inkscape:window-width="1920"
     inkscape:window-height="996"
     inkscape:window-x="0"
     inkscape:window-y="0"
     inkscape:window-maximized="1"
     inkscape:current-layer="svg1"
     showgrid="false">
    <inkscape:grid
       id="grid1"
       units="px"
       originx="8"
       originy="-82.000004"
       spacingx="1"
       spacingy="1"
       empcolor="#0099e5"
       empopacity="0.30196078"
       color="#0099e5"
       opacity="0.14902"
       empspacing="5"
       dotted="false"
       gridanglex="30"
       gridanglez="30"
       visible="false" />
  </sodipodi:namedview>
  <defs
     id="defs3051">
    <style
       type="text/css"
       id="current-color-scheme">.ColorScheme-Text {color:#fcfcfc;}</style>
  </defs>
  <g
     id="system-shutdown-2"
     transform="translate(-47.00001)">
    <path
       style="color:#000000;overflow:visible;opacity:0;fill:#d1d5e9;fill-opacity:1;stroke-width:1.06667"
       id="path945"
       overflow="visible"
       d="M 63.000011,0 C 54.17142,0 47.00001,7.17141 47.00001,16 c 0,8.82859 7.17141,16 16.000001,16 8.82859,0 16,-7.17141 16,-16 0,-8.82859 -7.17141,-16 -16,-16 z"
       inkscape:connector-curvature="0" />
    <path
       style="opacity:1;fill:none;fill-opacity:1;stroke:#af905e;stroke-width:1.62811;stroke-linecap:round;stroke-miterlimit:4;stroke-dasharray:none;stroke-opacity:1;stop-color:#31363b"
       sodipodi:type="arc"
       sodipodi:cx="-63.192581"
       sodipodi:cy="-16.175861"
       sodipodi:rx="11.377996"
       sodipodi:ry="11.361771"
       sodipodi:start="4.9618481"
       sodipodi:end="2.8809218"
       sodipodi:open="true"
       sodipodi:arc-type="arc"
       transform="scale(-1)"
       d="m -60.383583,-27.185941 a 11.377996,11.361771 0 0 1 8.533137,11.911436 11.377996,11.361771 0 0 1 -10.312386,10.4137871 11.377996,11.361771 0 0 1 -12.023366,-8.3868881"
       id="path7-6"
       class=" " />
    <path
       d="m 75,20.999999 c 0,3.866112 -3.133958,6.999999 -7,6.999999 -3.866018,0 -7,-3.133958 -7,-6.999999 0,-3.866018 3.133982,-7 7,-7 3.866042,0 7,3.133982 7,7"
       id="path3950-3-5-9-5"
       class=" "
       style="opacity:1;fill:#666666;fill-opacity:1;stroke:none;stroke-width:0.0489" />
    <path
       d="m 69.862058,17.94475 c -0.248286,-0.186239 -0.310325,-0.496581 -0.155179,-0.74483 0.155179,-0.248259 0.496565,-0.341409 0.74481,-0.186181 1.272404,0.837912 2.048302,2.234542 2.048302,3.786261 0,2.482679 -2.017289,4.5 -4.5,4.5 -2.482711,0 -4.500001,-2.017321 -4.500001,-4.5 0,-1.520669 0.775877,-2.948281 2.048302,-3.75525 0.248285,-0.186239 0.589675,-0.0931 0.744811,0.15518 0.155193,0.248261 0.09313,0.558581 -0.155179,0.74482 -0.962089,0.62073 -1.551716,1.706969 -1.551716,2.85525 0,1.893099 1.520689,3.413745 3.413737,3.413745 1.893038,0 3.413722,-1.520675 3.413722,-3.413745 0,-1.148259 -0.589677,-2.234549 -1.551712,-2.85525 z"
       id="path7292-3"
       style="fill:#ffffff;fill-opacity:1;stroke-width:0.0160711" />
    <path
       d="m 67.472398,16.827631 c 0,-0.279366 0.217227,-0.527631 0.527597,-0.527631 0.310324,0 0.527597,0.248265 0.527597,0.527631 v 3.97233 c 0,0.310308 -0.217233,0.527629 -0.527597,0.527629 -0.310324,0 -0.527597,-0.21728 -0.527597,-0.527629 z"
       id="path7294-5"
       style="fill:#ffffff;fill-opacity:1;stroke-width:0.0160711" />
  </g>
</svg>
