<?xml version="1.0" encoding="UTF-8" standalone="no"?>
<svg
   width="32"
   height="32"
   version="1.1"
   id="svg1"
   sodipodi:docname="system-user-list.svg"
   inkscape:version="1.3.2 (091e20ef0f, 2023-11-25)"
   xmlns:inkscape="http://www.inkscape.org/namespaces/inkscape"
   xmlns:sodipodi="http://sodipodi.sourceforge.net/DTD/sodipodi-0.dtd"
   xmlns="http://www.w3.org/2000/svg"
   xmlns:svg="http://www.w3.org/2000/svg">
  <defs
     id="defs1">
    <linearGradient
       id="a-5"
       x1="16"
       x2="16"
       y1="1"
       y2="31"
       gradientUnits="userSpaceOnUse">
      <stop
         stop-color="#f4282c"
         offset="0"
         id="stop1009" />
      <stop
         stop-color="#fac136"
         offset="1"
         id="stop1011" />
    </linearGradient>
  </defs>
  <sodipodi:namedview
     id="namedview1"
     pagecolor="#ffffff"
     bordercolor="#999999"
     borderopacity="1"
     inkscape:showpageshadow="2"
     inkscape:pageopacity="0"
     inkscape:pagecheckerboard="0"
     inkscape:deskcolor="#d1d1d1"
     inkscape:zoom="5.953125"
     inkscape:cx="16.125984"
     inkscape:cy="15.958005"
     inkscape:window-width="1920"
     inkscape:window-height="996"
     inkscape:window-x="0"
     inkscape:window-y="0"
     inkscape:window-maximized="1"
     inkscape:current-layer="svg1" />
  <style
     type="text/css"
     id="current-color-scheme">
        .ColorScheme-Text {
            color:#fcfcfc;
        }
    </style>
  <g
     id="system-user-list-8">
    <path
       style="fill:none"
       d="M 0,0 V 32 H 32 V 0 Z"
       id="path84-3-9" />
    <path
       d="m 28,21 c 0,3.866113 -3.13396,7 -7,7 -3.86602,0 -7,-3.133956 -7,-7 0,-3.866016 3.13398,-7 7,-7 3.86604,0 7,3.133984 7,7"
       id="path3950-1"
       style="fill:#666666;fill-opacity:1;stroke-width:0.0489"
       class=" " />
    <path
       style="fill:none;fill-opacity:1;stroke:#af905e;stroke-width:1.62894;stroke-linecap:round;stroke-miterlimit:4;stroke-dasharray:none;stroke-opacity:1;stop-color:#31363b"
       sodipodi:type="arc"
       sodipodi:cx="-16.183596"
       sodipodi:cy="-16.197126"
       sodipodi:rx="11.36879"
       sodipodi:ry="11.382371"
       sodipodi:start="4.9762596"
       sodipodi:end="2.8869731"
       sodipodi:open="true"
       sodipodi:arc-type="arc"
       transform="scale(-1)"
       d="M -13.218398,-27.185527 A 11.36879,11.382371 0 0 1 -4.8618879,-15.1623 11.36879,11.382371 0 0 1 -15.254784,-4.8528055 11.36879,11.382371 0 0 1 -27.185846,-13.330166"
       id="path7-3-2"
       class=" " />
    <path
       d="m 16.96428,20.428571 c 0.63036,0 1.14286,-0.5125 1.14286,-1.142857 0,-0.630357 -0.5125,-1.142855 -1.14286,-1.142855 -0.63035,0 -1.14286,0.512498 -1.14286,1.142855 0,0.630357 0.51251,1.142857 1.14286,1.142857 z m 8,0 c 0.63036,0 1.14286,-0.5125 1.14286,-1.142857 0,-0.630357 -0.5125,-1.142855 -1.14286,-1.142855 -0.63035,0 -1.14286,0.512498 -1.14286,1.142855 0,0.630357 0.51251,1.142857 1.14286,1.142857 z M 25.53571,21 h -1.14285 c -0.31429,0 -0.59822,0.126785 -0.80536,0.332142 0.71964,0.394643 1.23036,1.107144 1.34107,1.953572 h 1.17857 c 0.31607,0 0.57143,-0.255357 0.57143,-0.571428 V 22.142857 C 26.67857,21.5125 26.16607,21 25.53571,21 Z m -4.57143,0 c 1.10536,0 2,-0.894643 2,-2 0,-1.105356 -0.89464,-2 -2,-2 -1.10536,0 -2,0.894644 -2,2 0,1.105357 0.89464,2 2,2 z m 1.37143,0.571428 H 22.1875 c -0.37143,0.178572 -0.78393,0.285714 -1.22322,0.285714 -0.43928,0 -0.85,-0.107142 -1.22321,-0.285714 h -0.14821 c -1.13572,0 -2.05715,0.921429 -2.05715,2.057144 v 0.514285 C 17.53571,24.616071 17.91964,25 18.39286,25 h 5.14285 c 0.47321,0 0.85715,-0.383929 0.85715,-0.857143 v -0.514285 c 0,-1.135715 -0.92144,-2.057144 -2.05715,-2.057144 z M 18.34107,21.332142 C 18.13393,21.126785 17.85,21 17.53571,21 H 16.39286 C 15.7625,21 15.25,21.5125 15.25,22.142857 v 0.571429 c 0,0.316071 0.25535,0.571428 0.57142,0.571428 h 1.17679 c 0.1125,-0.846428 0.62321,-1.558929 1.34286,-1.953572 z"
       id="path1562-7"
       style="fill:#ffffff;fill-opacity:1;stroke-width:0.0178573" />
  </g>
</svg>
