<?xml version="1.0" encoding="UTF-8" standalone="no"?>
<svg
   viewBox="0 0 32 32"
   version="1.1"
   id="svg1"
   sodipodi:docname="system-suspend.svg"
   width="32"
   height="32"
   inkscape:version="1.3.2 (091e20ef0f, 2023-11-25)"
   xmlns:inkscape="http://www.inkscape.org/namespaces/inkscape"
   xmlns:sodipodi="http://sodipodi.sourceforge.net/DTD/sodipodi-0.dtd"
   xmlns="http://www.w3.org/2000/svg"
   xmlns:svg="http://www.w3.org/2000/svg">
  <defs
     id="defs1" />
  <sodipodi:namedview
     id="namedview1"
     pagecolor="#ffffff"
     bordercolor="#999999"
     borderopacity="1"
     inkscape:showpageshadow="2"
     inkscape:pageopacity="0"
     inkscape:pagecheckerboard="0"
     inkscape:deskcolor="#d1d1d1"
     inkscape:zoom="12.245804"
     inkscape:cx="16.168804"
     inkscape:cy="28.662879"
     inkscape:window-width="1920"
     inkscape:window-height="996"
     inkscape:window-x="0"
     inkscape:window-y="0"
     inkscape:window-maximized="1"
     inkscape:current-layer="svg1" />
  <style
     type="text/css"
     id="current-color-scheme">.ColorScheme-Text {color:#fcfcfc;}</style>
  <g
     id="system-suspend-2">
    <path
       id="path74"
       d="M 0,0 V 32 H 32 V 0 Z"
       style="fill:none" />
    <path
       style="opacity:1;fill:none;fill-opacity:1;stroke:#af905e;stroke-width:1.62766;stroke-linecap:round;stroke-miterlimit:4;stroke-dasharray:none;stroke-opacity:1;stop-color:#31363b"
       sodipodi:type="arc"
       sodipodi:cx="16.202072"
       sodipodi:cy="16.160135"
       sodipodi:rx="11.387824"
       sodipodi:ry="11.345399"
       sodipodi:start="1.8083074"
       sodipodi:end="6.0161774"
       sodipodi:arc-type="arc"
       d="M 13.522696,27.18703 A 11.387824,11.345399 0 0 1 4.8416121,15.374097 11.387824,11.345399 0 0 1 15.078389,4.8701041 11.387824,11.345399 0 0 1 27.186365,13.166691"
       id="path7-7"
       class=" "
       sodipodi:open="true" />
    <path
       d="m 28.00003,21 c 0,3.866112 -3.133958,6.999999 -7,6.999999 -3.866018,0 -7,-3.133958 -7,-6.999999 0,-3.866018 3.133982,-7 7,-7 3.866042,0 7,3.133982 7,7"
       id="path3950-3-5-9-5-6"
       class=" "
       style="opacity:1;fill:#666666;fill-opacity:1;stroke:none;stroke-width:0.0489" />
    <path
       d="m 18,23.893052 v -5.786103 c 0.0065,-1.475932 1.993133,-1.475932 2,0 v 5.786103 c -0.0065,1.475931 -1.993127,1.475931 -2,0 z m 1.600002,-5.786103 z"
       id="path8-6-7-7-06"
       sodipodi:nodetypes="cccccccccc"
       style="fill:#ffffff;fill-opacity:1" />
    <path
       d="M 22,23.893054 V 18.10695 c 0.0062,-1.475933 1.993138,-1.475933 2,0 v 5.786104 c -0.0062,1.475929 -1.993127,1.475929 -2,0 z m 1.600004,-5.786104 z"
       id="path8-6-7-7-06-2"
       sodipodi:nodetypes="cccccccccc"
       style="fill:#ffffff;fill-opacity:1" />
  </g>
</svg>
