<?xml version="1.0" encoding="UTF-8" standalone="no"?>
<svg
   viewBox="0 0 32 32"
   version="1.1"
   id="svg1"
   sodipodi:docname="system-switch-user.svg"
   width="32"
   height="32"
   inkscape:version="1.3.2 (091e20ef0f, 2023-11-25)"
   xmlns:inkscape="http://www.inkscape.org/namespaces/inkscape"
   xmlns:sodipodi="http://sodipodi.sourceforge.net/DTD/sodipodi-0.dtd"
   xmlns="http://www.w3.org/2000/svg"
   xmlns:svg="http://www.w3.org/2000/svg">
  <sodipodi:namedview
     id="namedview1"
     pagecolor="#ffffff"
     bordercolor="#999999"
     borderopacity="1"
     inkscape:showpageshadow="2"
     inkscape:pageopacity="0"
     inkscape:pagecheckerboard="0"
     inkscape:deskcolor="#d1d1d1"
     inkscape:zoom="12.245804"
     inkscape:cx="15.842161"
     inkscape:cy="22.048369"
     inkscape:window-width="1920"
     inkscape:window-height="996"
     inkscape:window-x="0"
     inkscape:window-y="0"
     inkscape:window-maximized="1"
     inkscape:current-layer="svg1" />
  <defs
     id="defs3051">
    <style
       type="text/css"
       id="current-color-scheme">
      .ColorScheme-Text {
        color:#d8d8d8;
      }
      </style>
  </defs>
  <g
     id="system-switch-user-5"
     transform="translate(3.9999905,44)">
    <circle
       style="opacity:0;fill:#d1d5e9;fill-opacity:1;stroke-width:1.06667"
       id="circle955"
       r="16"
       cy="28"
       cx="12.00001"
       transform="scale(1,-1)" />
    <path
       style="opacity:1;fill:none;fill-opacity:1;stroke:#af905e;stroke-width:1.62894;stroke-linecap:round;stroke-miterlimit:4;stroke-dasharray:none;stroke-opacity:1;stop-color:#31363b"
       sodipodi:type="arc"
       sodipodi:cx="-12.179687"
       sodipodi:cy="27.806723"
       sodipodi:rx="11.36879"
       sodipodi:ry="11.382371"
       sodipodi:start="4.9762596"
       sodipodi:end="2.8869731"
       sodipodi:open="true"
       sodipodi:arc-type="arc"
       transform="scale(-1)"
       d="M -9.2144885,16.818322 A 11.36879,11.382371 0 0 1 -0.85797879,28.841549 11.36879,11.382371 0 0 1 -11.250875,39.151043 11.36879,11.382371 0 0 1 -23.181937,30.673683"
       id="path7-3"
       class=" " />
    <path
       d="m 24.00001,-23 c 0,3.866113 -3.133956,7 -7,7 -3.866016,0 -7,-3.133956 -7,-7 0,-3.866016 3.133984,-7 7,-7 3.866044,0 7,3.133984 7,7"
       id="path3950"
       style="opacity:1;fill:#666666;fill-opacity:1;stroke-width:0.0489"
       class=" " />
    <path
       d="m 14.525912,-26.5 c 0.842723,0 1.525842,0.685555 1.525842,1.531295 0,0.845647 -0.683119,1.531192 -1.525842,1.531192 -0.842733,0 -1.525902,-0.685545 -1.525902,-1.531192 0,-0.845729 0.683155,-1.531295 1.525902,-1.531295 m 5.667548,0.875025 h -3.362639 c 0.05913,0.20911 0.09268,0.428344 0.09268,0.65627 0,0.22792 -0.0336,0.447059 -0.09268,0.65623 h 3.362639 c 0.359664,0 0.653944,-0.295299 0.653944,-0.65623 0,-0.36094 -0.29428,-0.65627 -0.653944,-0.65627 m 1.089894,4.593773 c 0,0.845647 -0.683152,1.531202 -1.52585,1.531202 -0.84276,0 -1.52593,-0.685555 -1.52593,-1.531202 0,-0.845727 0.683153,-1.531285 1.52593,-1.531285 0.842698,0 1.52585,0.685545 1.52585,1.531285 m -3.83088,0.656233 h -3.36259 c -0.359677,0 -0.653957,-0.2953 -0.653957,-0.656233 0,-0.360929 0.29428,-0.656273 0.653957,-0.656273 h 3.36259 c -0.05922,0.209121 -0.09281,0.42835 -0.09281,0.656273 0,0.227928 0.03361,0.447067 0.09281,0.656233"
       fill-rule="evenodd"
       id="path1768-7"
       style="fill:#ffffff;fill-opacity:1" />
  </g>
</svg>
