<?xml version="1.0" encoding="UTF-8" standalone="no"?>
<svg
   viewBox="0 0 32 32"
   version="1.1"
   id="svg1"
   sodipodi:docname="system-users.svg"
   width="32"
   height="32"
   inkscape:version="1.3.2 (091e20ef0f, 2023-11-25)"
   xmlns:inkscape="http://www.inkscape.org/namespaces/inkscape"
   xmlns:sodipodi="http://sodipodi.sourceforge.net/DTD/sodipodi-0.dtd"
   xmlns="http://www.w3.org/2000/svg"
   xmlns:svg="http://www.w3.org/2000/svg">
  <sodipodi:namedview
     id="namedview1"
     pagecolor="#ffffff"
     bordercolor="#999999"
     borderopacity="1"
     inkscape:showpageshadow="2"
     inkscape:pageopacity="0"
     inkscape:pagecheckerboard="0"
     inkscape:deskcolor="#d1d1d1"
     inkscape:zoom="8.4189901"
     inkscape:cx="15.67884"
     inkscape:cy="-3.0882564"
     inkscape:window-width="1920"
     inkscape:window-height="996"
     inkscape:window-x="0"
     inkscape:window-y="0"
     inkscape:window-maximized="1"
     inkscape:current-layer="svg1" />
  <defs
     id="defs3051">
    <style
       type="text/css"
       id="current-color-scheme">
      .ColorScheme-Text {
        color:#fcfcfc;
      }
      </style>
    <linearGradient
       id="a-26"
       x1="16"
       x2="16"
       y1="-1121.5"
       y2="-1091.5"
       gradientUnits="userSpaceOnUse">
      <stop
         stop-color="#70d8c3"
         offset="0"
         id="stop1173" />
      <stop
         stop-color="#66e26b"
         offset="1"
         id="stop1175" />
    </linearGradient>
  </defs>
  <g
     id="system-users">
    <path
       style="fill:none"
       d="M 0,0 V 32 H 32 V 0 Z"
       id="path94" />
    <path
       d="m 27.999998,21 c 0,3.866113 -3.13396,7 -7,7 -3.86602,0 -7,-3.133956 -7,-7 0,-3.866016 3.13398,-7 7,-7 3.86604,0 7,3.133984 7,7"
       id="path3950-1-0"
       style="fill:#666666;fill-opacity:1;stroke-width:0.0489"
       class=" " />
    <path
       style="fill:none;fill-opacity:1;stroke:#af905e;stroke-width:1.62894;stroke-linecap:round;stroke-miterlimit:4;stroke-dasharray:none;stroke-opacity:1;stop-color:#31363b"
       sodipodi:type="arc"
       sodipodi:cx="-16.183596"
       sodipodi:cy="-16.197126"
       sodipodi:rx="11.36879"
       sodipodi:ry="11.382371"
       sodipodi:start="4.9762596"
       sodipodi:end="2.8869731"
       sodipodi:open="true"
       sodipodi:arc-type="arc"
       transform="scale(-1)"
       d="M -13.218398,-27.185527 A 11.36879,11.382371 0 0 1 -4.8618879,-15.1623 11.36879,11.382371 0 0 1 -15.254784,-4.8528055 11.36879,11.382371 0 0 1 -27.185846,-13.330166"
       id="path7-3-2-9"
       class=" " />
    <path
       d="m 18.729777,21 c 1.102899,0 1.995546,-0.89265 1.995546,-1.995546 0,-1.102889 -0.892647,-1.995548 -1.995546,-1.995548 -1.102898,0 -1.995545,0.892659 -1.995545,1.995548 0,1.102896 0.892647,1.995546 1.995545,1.995546 z m 1.368386,0.570159 h -0.14787 c -0.3706,0.178165 -0.782174,0.285068 -1.220489,0.285068 -0.438301,0 -0.848107,-0.106932 -1.220489,-0.285068 h -0.147856 c -1.133178,0 -2.052551,0.919375 -2.052551,2.052552 v 0.513148 c 0,0.472161 0.383064,0.85523 0.855224,0.85523 h 5.131411 c 0.47216,0 0.855224,-0.383069 0.855224,-0.85523 v -0.513148 c 0,-1.133177 -0.919374,-2.052552 -2.052551,-2.052552 z M 23.86119,21 c 0.944321,0 1.710478,-0.766148 1.710478,-1.710474 0,-0.944318 -0.766157,-1.710459 -1.710478,-1.710459 -0.944319,0 -1.710463,0.766141 -1.710463,1.710459 0,0.944326 0.766144,1.710474 1.710463,1.710474 z m 0.855222,0.570159 h -0.06771 c -0.24766,0.08548 -0.50957,0.142575 -0.787521,0.142575 -0.277968,0 -0.539876,-0.05694 -0.787536,-0.142575 h -0.06771 c -0.363469,0 -0.698441,0.105164 -0.992438,0.274381 0.434762,0.468602 0.707367,1.090425 0.707367,1.778171 v 0.684196 c 0,0.03918 -0.008,0.07662 -0.01063,0.114079 h 3.146532 c 0.47216,0 0.855239,-0.383074 0.855239,-0.855239 0,-1.102898 -0.892645,-1.995542 -1.995543,-1.995542 z"
       id="path3457-5-7-6"
       style="color:#000000;fill:#ffffff;fill-opacity:1;stroke:#ffffff;stroke-width:0.0178168;stroke-opacity:1"
       class="ColorScheme-Background  ColorSckeme-Background" />
  </g>
</svg>
