<?xml version="1.0" encoding="UTF-8" standalone="no"?>
<svg
   viewBox="0 0 32 32"
   version="1.1"
   id="svg1"
   sodipodi:docname="system-reboot-update.svg"
   inkscape:version="1.3.2 (091e20ef0f, 2023-11-25)"
   width="32"
   height="32"
   xmlns:inkscape="http://www.inkscape.org/namespaces/inkscape"
   xmlns:sodipodi="http://sodipodi.sourceforge.net/DTD/sodipodi-0.dtd"
   xmlns:xlink="http://www.w3.org/1999/xlink"
   xmlns="http://www.w3.org/2000/svg"
   xmlns:svg="http://www.w3.org/2000/svg">
  <sodipodi:namedview
     id="namedview1"
     pagecolor="#a7a7a7"
     bordercolor="#000000"
     borderopacity="0.25"
     inkscape:showpageshadow="2"
     inkscape:pageopacity="0.0"
     inkscape:pagecheckerboard="0"
     inkscape:deskcolor="#d1d1d1"
     inkscape:zoom="12.326157"
     inkscape:cx="15.576631"
     inkscape:cy="16.144529"
     inkscape:window-width="1920"
     inkscape:window-height="1004"
     inkscape:window-x="0"
     inkscape:window-y="0"
     inkscape:window-maximized="1"
     inkscape:current-layer="svg1" />
  <defs
     id="defs1">
    <style
       type="text/css"
       id="style1">.ColorScheme-Text {
        color:#d8dee9;
      }
      .ColorScheme-Highlight {
        color:#88c0d0;
      }</style>
    <linearGradient
       id="a-5"
       x1="16"
       x2="16"
       y1="1"
       y2="31"
       gradientUnits="userSpaceOnUse">
      <stop
         stop-color="#f4282c"
         offset="0"
         id="stop1009" />
      <stop
         stop-color="#fac136"
         offset="1"
         id="stop1011" />
    </linearGradient>
    <linearGradient
       inkscape:collect="always"
       xlink:href="#linearGradient52"
       id="linearGradient5"
       gradientUnits="userSpaceOnUse"
       gradientTransform="matrix(0.6875,0,0,0.6875,108.66985,103.7705)"
       x1="-199"
       y1="91"
       x2="-167"
       y2="91" />
    <linearGradient
       inkscape:collect="always"
       id="linearGradient52">
      <stop
         style="stop-color:#4e51ac;stop-opacity:1"
         offset="0"
         id="stop39" />
      <stop
         style="stop-color:#008080;stop-opacity:1"
         offset="1"
         id="stop40" />
    </linearGradient>
  </defs>
  <path
     id="path34"
     d="M 0,0 V 32 H 32 V 0 Z"
     style="fill:none" />
  <path
     style="fill:none;fill-opacity:1;stroke:#af905e;stroke-width:1.62983;stroke-linecap:round;stroke-miterlimit:4;stroke-dasharray:none;stroke-opacity:1;stop-color:#31363b"
     sodipodi:type="arc"
     sodipodi:cx="-16.20863"
     sodipodi:cy="-16.185461"
     sodipodi:rx="11.393441"
     sodipodi:ry="11.370189"
     sodipodi:start="4.9682955"
     sodipodi:end="2.8702093"
     sodipodi:arc-type="arc"
     transform="scale(-1)"
     d="m -13.324693,-27.185371 a 11.393441,11.370189 0 0 1 8.4729345,11.910178 11.393441,11.370189 0 0 1 -10.2690885,10.4079803 11.393441,11.370189 0 0 1 -12.064235,-8.2703053"
     id="path7-36-2"
     class=" "
     sodipodi:open="true" />
  <path
     d="m 16.066946,8.371867 c 0.0087,0.0079 0.01705,0.01635 0.02397,0.02568 l 2.682131,3.288371 c 0.119136,0.145203 0.0102,0.358248 -0.185498,0.362731 l -1.188492,0.03338 0.07243,3.586205 c 0.0074,0.371326 -0.305842,0.681368 -0.699626,0.692575 l -1.426267,0.03988 c -0.393779,0.01116 -0.718992,-0.280867 -0.726471,-0.6522 l -0.07154,-3.58676 -1.188583,0.03384 c -0.195733,0.0068 -0.313,-0.200301 -0.199592,-0.351997 l 2.547889,-3.436451 c 0.08396,-0.113164 0.254222,-0.130343 0.359194,-0.03618 z m -0.158009,0.543068 z"
     id="path8-2-1"
     style="fill:#fefeff;fill-opacity:1;stroke-width:0.297285"
     sodipodi:nodetypes="ccccccccccccccccccc" />
  <path
     d="m 28,21 c 0,3.866112 -3.133958,6.999999 -7,6.999999 -3.866018,0 -7,-3.133958 -7,-6.999999 0,-3.866018 3.133982,-7 7,-7 3.866042,0 7,3.133982 7,7"
     id="path3950-3-5-9-9"
     class=" "
     style="fill:#666666;fill-opacity:1;stroke:none;stroke-width:0.0489" />
  <path
     d="m 24.910472,21.463668 c 0.07764,0.121836 0.109094,0.272353 0.07703,0.423889 -5.14e-4,0.0042 -5.71e-4,0.007 -0.0025,0.01088 l -0.13443,-0.03025 0.133733,0.03046 c -0.122103,0.52671 -0.344637,1.005137 -0.643109,1.419868 -0.306727,0.426219 -0.693154,0.785009 -1.132748,1.060117 -0.0044,0.0045 -0.0098,0.0076 -0.01529,0.01098 l -5.8e-5,-1.6e-4 c -0.0044,0.0038 -0.01381,0.0081 -0.0251,0.01436 -0.0077,0.0045 -0.01466,0.0078 -0.02103,0.01121 -0.441762,0.265926 -0.934601,0.448881 -1.452723,0.532751 -0.498745,0.0807 -1.020631,0.06991 -1.542611,-0.04658 -0.0032,-0.0013 -0.0066,-0.0013 -0.0098,-0.0021 l 0.0307,-0.132679 -0.03079,0.132031 c -0.533658,-0.12054 -1.018338,-0.340202 -1.438501,-0.63483 -0.431799,-0.302738 -0.795274,-0.684192 -1.07393,-1.118073 -0.0044,-0.0044 -0.0074,-0.01004 -0.01104,-0.01522 l 1.73e-4,-6.1e-5 c -0.0043,-0.0045 -0.0081,-0.0137 -0.01457,-0.02466 -0.0043,-0.0077 -0.008,-0.01468 -0.01137,-0.0209 -0.269348,-0.436 -0.454753,-0.92253 -0.53966,-1.433903 -0.08179,-0.492315 -0.07079,-1.007501 0.04719,-1.522693 5.67e-4,-0.0039 5.67e-4,-0.0059 0.0018,-0.0095 l 0.13442,0.03025 -0.133778,-0.03041 c 0.122103,-0.526722 0.344638,-1.005146 0.643111,-1.419879 0.306712,-0.426204 0.693145,-0.785001 1.132707,-1.060077 0.0044,-0.0044 0.01,-0.0075 0.01535,-0.01104 l 6e-5,1.59e-4 c 0.0048,-0.0038 0.01375,-0.008 0.0249,-0.01427 0.0076,-0.0046 0.01463,-0.0078 0.02113,-0.01124 0.380931,-0.229303 0.799853,-0.396936 1.24019,-0.492451 0.37985,-0.0824 0.776034,-0.11122 1.177807,-0.0799 l -0.0331,-0.886922 c -0.0019,-0.03074 0.0075,-0.06218 0.02751,-0.08859 0.04578,-0.05994 0.132225,-0.07213 0.193032,-0.02686 l -0.08297,0.108726 0.0828,-0.10834 1.989477,1.47796 c 0.01071,0.0065 0.02078,0.01489 0.0295,0.02492 0.05019,0.0565 0.04437,0.142541 -0.01296,0.192009 l -2.78e-4,-2.6e-4 -1.874301,1.619203 c -0.02378,0.02378 -0.05638,0.03889 -0.09281,0.04019 -0.07607,0.0032 -0.140058,-0.05587 -0.142842,-0.130962 l -0.03961,-1.059677 c -0.309003,-0.03879 -0.614209,-0.02737 -0.906124,0.02846 -0.337035,0.06447 -0.657807,0.188248 -0.947769,0.362377 -0.0044,0.0031 -0.0075,0.0049 -0.01161,0.0081 l -0.01075,0.0072 c -0.0031,0.0024 -0.0059,0.0045 -0.0099,0.0065 -0.0046,0.0038 -0.0105,0.0057 -0.01599,0.0085 -0.311652,0.195847 -0.585276,0.450294 -0.80202,0.751636 -0.212113,0.294842 -0.37033,0.635134 -0.457266,1.010161 -0.08554,0.369014 -0.09416,0.73772 -0.03627,1.089752 0.05997,0.364745 0.191098,0.711011 0.381932,1.020606 0.0032,0.0043 0.0058,0.0072 0.0081,0.01157 l 0.0066,0.01062 c 0.0025,0.0038 0.0044,0.0062 0.0074,0.0097 0.0032,0.0045 0.0058,0.0106 0.0084,0.01596 0.198405,0.307629 0.456181,0.577722 0.761455,0.791679 0.298706,0.209372 0.643445,0.365548 1.023436,0.451404 0.373841,0.08439 0.747378,0.09297 1.104014,0.03584 0.36951,-0.05918 0.720307,-0.188622 1.033955,-0.377 0.0044,-0.0031 0.0077,-0.0051 0.01163,-0.0081 l 0.01063,-0.0071 c 0.0033,-0.0024 0.0066,-0.0045 0.01017,-0.0067 0.0044,-0.0038 0.01049,-0.0057 0.01597,-0.0085 0.311646,-0.195845 0.585272,-0.450289 0.802026,-0.751638 0.210445,-0.292507 0.367824,-0.629887 0.455146,-1.001406 l 3.11e-4,-0.0021 3.7e-5,-4.92e-4 5.46e-4,-0.0028 1.25e-4,-0.0013 5.68e-4,-0.0028 1.39e-4,-0.0011 c 5.49e-4,-0.0028 5.7e-4,-0.0044 0.0024,-0.008 l 1.1e-4,-3e-6 c 0.03729,-0.151501 0.132181,-0.274592 0.256268,-0.351555 0.123388,-0.07658 0.275857,-0.107734 0.429324,-0.07612 l 0.0044,4.93e-4 4.32e-4,9.7e-5 0.0033,4.33e-4 5.7e-4,1.72e-4 0.0033,4.31e-4 5.68e-4,1.4e-4 c 0.0033,5.32e-4 0.0044,0.0014 0.0078,0.0024 l 1.1e-5,1.09e-4 c 0.153475,0.03679 0.278178,0.130478 0.356218,0.253003 z"
     id="path1118-3-1-3"
     style="fill:#ffffff;fill-opacity:1;stroke-width:0.0197309" />
</svg>
