<?xml version="1.0" encoding="UTF-8" standalone="no"?>
<svg
   viewBox="0 0 32 32"
   version="1.1"
   id="svg1"
   sodipodi:docname="system-lock-screen.svg"
   width="32"
   height="32"
   inkscape:version="1.3.2 (091e20ef0f, 2023-11-25)"
   xmlns:inkscape="http://www.inkscape.org/namespaces/inkscape"
   xmlns:sodipodi="http://sodipodi.sourceforge.net/DTD/sodipodi-0.dtd"
   xmlns:xlink="http://www.w3.org/1999/xlink"
   xmlns="http://www.w3.org/2000/svg"
   xmlns:svg="http://www.w3.org/2000/svg">
  <sodipodi:namedview
     id="namedview1"
     pagecolor="#ffffff"
     bordercolor="#999999"
     borderopacity="1"
     inkscape:showpageshadow="2"
     inkscape:pageopacity="0"
     inkscape:pagecheckerboard="0"
     inkscape:deskcolor="#d1d1d1"
     inkscape:zoom="8.6590909"
     inkscape:cx="15.590551"
     inkscape:cy="16.39895"
     inkscape:window-width="1920"
     inkscape:window-height="996"
     inkscape:window-x="0"
     inkscape:window-y="0"
     inkscape:window-maximized="1"
     inkscape:current-layer="svg1" />
  <defs
     id="defs3051">
    <style
       type="text/css"
       id="current-color-scheme">.ColorScheme-Text {color:#fcfcfc;}</style>
    <radialGradient
       gradientUnits="userSpaceOnUse"
       r="11"
       fy="12"
       fx="162"
       cy="12"
       cx="162"
       id="radialGradient926"
       xlink:href="#linearGradient4"
       inkscape:collect="always"
       gradientTransform="matrix(1.454546,0,0,1.454546,-70.636365,31.545455)" />
    <linearGradient
       id="linearGradient4"
       inkscape:collect="always">
      <stop
         id="stop3"
         offset="0"
         style="stop-color:#07a8f9;stop-opacity:1;" />
      <stop
         id="stop4"
         offset="1"
         style="stop-color:#07a8f9;stop-opacity:0.01;" />
    </linearGradient>
  </defs>
  <g
     transform="translate(-149,-33)"
     id="system-lock-screen">
    <rect
       style="color:#000000;display:inline;overflow:visible;visibility:visible;opacity:0.01;fill:#000000;fill-opacity:0.00392157;stroke:none;stroke-width:6.66668;marker:none;enable-background:accumulate"
       id="rect4570-7-5"
       width="32"
       height="32"
       x="150"
       y="0" />
    <path
       id="rect5190-0-1"
       style="color:#000000;text-indent:0;text-transform:none;fill:url(#radialGradient926);fill-opacity:1;fill-rule:evenodd;stroke-width:1.4546;color-rendering:auto;image-rendering:auto;shape-rendering:auto"
       d="m 154.36366,0 h 23.27268 C 180.5454,0 182,1.454546 182,4.3636366 V 27.636366 C 182,30.54546 180.5454,32 177.63634,32 H 154.36366 C 151.4546,32 150,30.54546 150,27.636366 V 4.3636366 C 150,1.454546 151.4546,0 154.36366,0 Z m 11.63637,16 c 1.32551,0 2.39999,1.023247 2.39999,2.285736 0,0.845322 -0.48347,1.58169 -1.2,1.976736 v 2.975624 h -2.4 v -2.975624 c -0.71652,-0.395046 -1.2,-1.131414 -1.2,-1.976736 C 163.60002,17.023247 164.6745,16 166.00003,16 Z m 0,-10.285715 c -2.86374,0 -5.20092,2.225875 -5.20092,4.953119 v 2.74553 c -2.40125,0.192778 -2.77781,0.881177 -2.79909,3.38617 v 3.011152 3.008944 c 0.0301,3.438088 0.6813,3.466529 6.3997,3.466529 h 3.2006 c 5.71844,0 6.37063,-0.02864 6.3997,-3.466529 v -3.008944 -3.011152 c -0.0213,-2.504993 -0.39786,-3.193392 -2.79907,-3.38617 v -2.74553 c -9.8e-4,-2.727244 -2.3372,-4.953119 -5.20092,-4.953119 z m 0,1.904027 c 1.78996,0 3.20092,1.344327 3.20092,3.049092 v 2.67189 c -0.49185,-0.0031 -1.00307,-0.0064 -1.60063,-0.0064 h -3.2006 c -0.5967,0 -1.10701,9.49e-4 -1.59839,0.0064 v -2.67189 c 0,-1.704765 1.40873,-3.049092 3.1987,-3.049092 z"
       inkscape:connector-curvature="0" />
  </g>
  <g
     id="system-lock-screen-9"
     transform="translate(-95.00002)">
    <path
       style="color:#000000;overflow:visible;opacity:0;fill:#d1d5e9;fill-opacity:1;stroke-width:1.06667"
       id="path953"
       overflow="visible"
       d="m 111.00002,0 c -8.82763,0 -16,7.17237 -16,16 0,8.82763 7.17237,16 16,16 8.82763,0 16,-7.17237 16,-16 0,-8.82763 -7.17237,-16 -16,-16 z"
       inkscape:connector-curvature="0" />
    <path
       style="fill:none;fill-opacity:1;stroke:#af905e;stroke-width:1.62836;stroke-linecap:round;stroke-miterlimit:4;stroke-dasharray:none;stroke-opacity:1;stop-color:#31363b"
       sodipodi:type="arc"
       sodipodi:cx="-111.19934"
       sodipodi:cy="-16.164732"
       sodipodi:rx="11.388729"
       sodipodi:ry="11.354131"
       sodipodi:start="4.9565086"
       sodipodi:end="2.8737553"
       sodipodi:open="true"
       sodipodi:arc-type="arc"
       transform="scale(-1)"
       d="m -108.44666,-27.182218 a 11.388729,11.354131 0 0 1 8.605327,11.850893 11.388729,11.354131 0 0 1 -10.252937,10.4671465 11.388729,11.354131 0 0 1 -12.08774,-8.2957225"
       id="path7-6-6"
       class=" " />
    <path
       d="m 116.00002,14 c -3.86105,0 -7,3.138948 -7,7 0,3.861052 3.13895,7 7,7 3.86105,0 7,-3.138948 7,-7 0,-3.861052 -3.13895,-7 -7,-7 z m 10e-6,4.999999 z"
       id="path3582"
       style="fill:#666666;fill-opacity:1;stroke:none;stroke-width:0.0263157;stroke-opacity:1"
       class=" "
       sodipodi:nodetypes="ssssscccccccc" />
    <path
       d="m 118.137,19.15269 c 0,-1.128911 -0.9616,-2.05269 -2.13697,-2.05269 -1.17534,0 -2.13698,0.923718 -2.13698,2.05269 0,0.718519 0.39175,1.402642 1.06853,1.778949 L 114.29058,24.9 h 3.38331 l -0.60539,-3.934208 c 0.67673,-0.376071 1.06842,-1.060433 1.06842,-1.813101 z"
       id="path1290-3"
       style="fill:#ffffff;fill-opacity:1;stroke-width:0.0623303" />
  </g>
</svg>
