<?xml version="1.0" encoding="UTF-8" standalone="no"?>
<svg
   viewBox="0 0 32 32"
   version="1.1"
   id="svg1"
   sodipodi:docname="system-log-out-rtl.svg"
   width="32"
   height="32"
   inkscape:version="1.3.2 (091e20ef0f, 2023-11-25)"
   xmlns:inkscape="http://www.inkscape.org/namespaces/inkscape"
   xmlns:sodipodi="http://sodipodi.sourceforge.net/DTD/sodipodi-0.dtd"
   xmlns="http://www.w3.org/2000/svg"
   xmlns:svg="http://www.w3.org/2000/svg">
  <sodipodi:namedview
     id="namedview1"
     pagecolor="#ffffff"
     bordercolor="#999999"
     borderopacity="1"
     inkscape:showpageshadow="2"
     inkscape:pageopacity="0"
     inkscape:pagecheckerboard="0"
     inkscape:deskcolor="#d1d1d1"
     inkscape:zoom="8.6590909"
     inkscape:cx="16.052493"
     inkscape:cy="25.52231"
     inkscape:window-width="1920"
     inkscape:window-height="996"
     inkscape:window-x="0"
     inkscape:window-y="0"
     inkscape:window-maximized="1"
     inkscape:current-layer="svg1" />
  <defs
     id="defs3051">
    <style
       type="text/css"
       id="current-color-scheme">.ColorScheme-Text {color:#fcfcfc;}</style>
  </defs>
  <path
     style="color:#000000;overflow:visible;opacity:0;fill:#d1d5e9;fill-opacity:1;stroke-width:1.06667"
     id="path951"
     overflow="visible"
     d="M 16,0 C 7.17237,0 0,7.17237 0,16 0,24.82763 7.17237,32 16,32 24.82763,32 32,24.82763 32,16 32,7.17237 24.82763,0 16,0 Z"
     inkscape:connector-curvature="0" />
  <path
     sodipodi:type="arc"
     sodipodi:cx="16.184439"
     sodipodi:cy="16.168226"
     sodipodi:rx="11.370697"
     sodipodi:ry="11.354604"
     sodipodi:start="1.8148121"
     sodipodi:end="6.0278024"
     sodipodi:arc-type="arc"
     d="M 13.437263,27.186457 A 11.370697,11.354604 0 0 1 4.8479159,15.288564 11.370697,11.354604 0 0 1 15.174726,4.8584787 11.370697,11.354604 0 0 1 27.186346,13.299873"
     id="path7-7-75"
     class=" "
     sodipodi:open="true"
     style="fill:none;fill-opacity:1;stroke:#af905e;stroke-width:1.62713;stroke-linecap:round;stroke-miterlimit:4;stroke-dasharray:none;stroke-opacity:1;stop-color:#31363b" />
  <g
     id="g1"
     transform="rotate(180,21,21)">
    <path
       d="m 28,21 c 0,3.866113 -3.133958,7 -7,7 -3.866018,0 -7,-3.133958 -7,-7 0,-3.866018 3.133982,-7 7,-7 3.866042,0 7,3.133982 7,7"
       id="path3950-3"
       class=" "
       style="fill:#666666;fill-opacity:1;stroke:none;stroke-width:0.0489" />
    <path
       d="m 23.638558,21.035157 c 1.9e-4,0.109378 -0.04707,0.214399 -0.131316,0.291694 l -3.569508,3.28198 c -0.740391,0.680744 -1.850943,-0.340371 -1.110573,-1.0211 L 21.603576,21.035157 18.827161,18.4826 c -0.305831,-0.2823 -0.305831,-0.738823 0,-1.021108 v 0 c 0.306667,-0.281989 0.803906,-0.281989 1.110573,0 l 3.569508,3.281989 c 0.08423,0.07725 0.13144,0.18228 0.131316,0.291676 z m -0.448508,0 z"
       id="path4-3-2-3-6"
       style="fill:#ffffff;fill-opacity:1;stroke-width:0.215129"
       sodipodi:nodetypes="ccscccsscccccccccccc" />
  </g>
</svg>
