<?xml version="1.0" encoding="UTF-8"?>
<svg width="16px" height="16px" viewBox="0 0 16 16" version="1.1" xmlns="http://www.w3.org/2000/svg" xmlns:xlink="http://www.w3.org/1999/xlink">
    <title>apps/16/deepin-clone</title>
    <defs>
        <radialGradient cx="47.156569%" cy="18.8587223%" fx="47.156569%" fy="18.8587223%" r="79.4742743%" id="radialGradient-1">
            <stop stop-color="#00812B" offset="0%"></stop>
            <stop stop-color="#006174" offset="100%"></stop>
        </radialGradient>
        <linearGradient x1="50%" y1="1.85852605%" x2="50%" y2="100%" id="linearGradient-2">
            <stop stop-color="#FFFFFF" offset="0%"></stop>
            <stop stop-color="#21CCDF" offset="100%"></stop>
        </linearGradient>
    </defs>
    <g id="apps/16/deepin-clone" stroke="none" stroke-width="1" fill="none" fill-rule="evenodd">
        <g id="Group" transform="translate(0.5, 0.5)">
            <circle id="Oval" fill="url(#radialGradient-1)" cx="7.5" cy="7.5" r="7.5"></circle>
            <g id="编组" transform="translate(1.0714, 1.0714)" fill="url(#linearGradient-2)" fill-rule="nonzero">
                <path d="M6.42857143,0 C9.97897339,0 12.8571429,2.87816947 12.8571429,6.42857143 C12.8571429,9.90179074 10.102751,12.7316874 6.65914365,12.8530849 L6.42857143,12.8571429 L6.14167459,12.8508554 C6.04994893,12.846827 5.95872248,12.8408765 5.8680345,12.8330431 L6.13560152,12.8505667 C6.03523718,12.8460536 5.93527775,12.839227 5.83578593,12.8301166 L5.8680345,12.8330431 C5.78583766,12.8259431 5.7040832,12.8172964 5.62280035,12.8071321 L5.83578593,12.8301166 C5.73687787,12.8210597 5.63843194,12.8097456 5.54050975,12.7962035 L5.62280035,12.8071321 C5.54745097,12.7977098 5.47250687,12.7869835 5.39799136,12.7749763 C5.27006949,12.7543636 5.14341071,12.7299762 5.0181329,12.7019323 L5.21801234,12.7432104 C5.13931052,12.7282099 5.06100079,12.7117545 4.98311636,12.6938599 L5.0181329,12.7019323 C4.9419281,12.6848735 4.86623429,12.6664617 4.79107798,12.6467235 L4.98311636,12.6938599 C4.8868885,12.6717507 4.79130987,12.6474445 4.69644314,12.6209708 L4.79107798,12.6467235 C4.69419458,12.6212791 4.5982044,12.5936304 4.50316429,12.5638343 L4.69644314,12.6209708 C4.61537197,12.5983469 4.53482071,12.5741401 4.45482845,12.5483689 L4.50316429,12.5638343 C4.40916382,12.5343642 4.31609276,12.5027933 4.22400608,12.4691768 L4.45482845,12.5483689 C4.34476694,12.5129101 4.23576369,12.4744897 4.12792055,12.4331555 L4.22400608,12.4691768 C4.13839978,12.437926 4.05364419,12.4049072 3.96978351,12.3701647 L4.12792055,12.4331555 C4.05068112,12.4035511 3.97403679,12.3724522 3.898025,12.3398762 L3.96978351,12.3701647 C3.87977963,12.3328772 3.79080656,12.2936041 3.70291895,12.2524002 L3.898025,12.3398762 C3.8207095,12.3067415 3.74404842,12.2720787 3.66808114,12.2359064 C3.49298809,12.1525347 3.32158071,12.0611439 3.15434122,11.9619615 L3.19798488,11.987653 C3.11814398,11.9411543 3.03939588,11.8929848 2.96178848,11.8431925 L3.15434122,11.9619615 C3.07660094,11.9158572 2.99976125,11.8680692 2.9238706,11.8186205 L2.70452651,11.6691856 L3.3258369,10.7962981 C4.22530379,11.4365274 5.2999957,11.7857143 6.42857143,11.7857143 C9.38723973,11.7857143 11.7857143,9.38723973 11.7857143,6.42857143 C11.7857143,3.46990313 9.38723973,1.07142857 6.42857143,1.07142857 C3.46990313,1.07142857 1.07142857,3.46990313 1.07142857,6.42857143 L1.07146897,6.44962127 L2.14285714,6.42857143 L1.17516169,10.1346503 C0.434912204,9.08725316 0,7.80870189 0,6.42857143 C0,2.87816947 2.87816947,0 6.42857143,0 Z M7.21548605,2.14787912 L7.50734272,2.21414305 C7.60698003,2.23676497 7.67382638,2.33049347 7.66276339,2.43206589 L7.60096045,2.99949613 C7.59171826,3.08435129 7.63704102,3.16579862 7.71402195,3.20267345 L8.04062122,3.35911858 C8.11813536,3.39624882 8.21067744,3.38002318 8.27093595,3.3187369 L8.66558704,2.91735466 C8.73769283,2.84401903 8.8535062,2.83689222 8.93405961,2.90083366 L9.16951661,3.08773396 C9.24920281,3.15098701 9.26910841,3.26378313 9.21588646,3.35049104 L8.92012733,3.83233464 C8.87545244,3.90511789 8.88160977,3.99817768 8.93548466,4.06444036 L9.17816795,4.36292526 C9.23187087,4.42897642 9.32133947,4.45406689 9.40155674,4.42557214 L9.93095295,4.23752022 C10.0269608,4.20341636 10.1333053,4.24648728 10.1785222,4.33778899 L10.3116023,4.60650339 C10.3570498,4.69827067 10.3262947,4.80953424 10.2401682,4.86493224 L9.77399684,5.16478154 C9.70164717,5.21131807 9.66690154,5.29871387 9.6875494,5.38222308 L9.78698813,5.78439796 C9.80711888,5.86581576 9.87565668,5.92619648 9.95896249,5.93590464 L10.5257486,6.00195586 C10.6236609,6.01336621 10.6988756,6.09405414 10.7033916,6.19252553 L10.7142395,6.42906307 L10.7143818,6.4435436 L10.7114589,6.555146 C10.7096729,6.62334392 10.6580223,6.67985581 10.5902596,6.68775264 L9.98683003,6.75807417 C9.90014073,6.76817663 9.8298585,6.83303246 9.81283784,6.91863265 L9.72692937,7.35068288 C9.71081542,7.43172304 9.74590224,7.51437393 9.81539465,7.55907262 L10.2997397,7.87061153 C10.3835321,7.92450822 10.4152416,8.03162528 10.3742905,8.12244943 L10.2581534,8.3800259 C10.215128,8.47545054 10.1061051,8.52192365 10.0074674,8.48688562 L9.49598282,8.30519624 C9.41317494,8.27578126 9.32085725,8.30352982 9.26799006,8.37372559 L8.99265469,8.73930919 C8.94292259,8.80534226 8.93865698,8.8950798 8.98190132,8.96553243 L9.28631808,9.46148084 C9.33852789,9.5465398 9.32046844,9.65701882 9.24389158,9.72102567 L9.0370487,9.89391553 C8.95664198,9.96112357 8.83810537,9.95533252 8.76463277,9.88060677 L8.37820507,9.48758818 C8.31685055,9.42518721 8.22218935,9.40961794 8.14408091,9.44908094 L7.72795455,9.65932193 C7.65315789,9.6971117 7.60962876,9.77731649 7.61870247,9.86062479 L7.68141281,10.436386 C7.69239903,10.5372537 7.62653709,10.6305105 7.52780298,10.6538889 L7.27417518,10.7139434 C7.17360361,10.7377569 7.07135316,10.6814739 7.03767384,10.583763 L6.85565138,10.0556769 C6.82634283,9.97064653 6.74414649,9.91540846 6.65434503,9.92039383 L6.43980293,9.93230424 L6.41750491,9.93230424 L6.20296281,9.92039383 C6.11316135,9.91540846 6.03096501,9.97064653 6.00165646,10.0556769 L5.819634,10.583763 C5.78595468,10.6814739 5.68370423,10.7377569 5.58313266,10.7139434 L5.32950486,10.6538889 C5.23077075,10.6305105 5.16490881,10.5372537 5.17589503,10.436386 L5.23860537,9.86062479 C5.24767908,9.77731649 5.20414995,9.6971117 5.1293533,9.65932193 L4.71322693,9.44908094 C4.63511849,9.40961794 4.54045729,9.42518721 4.47910277,9.48758818 L4.09267507,9.88060677 C4.01920247,9.95533252 3.90066586,9.96112357 3.82025915,9.89391553 L3.61341626,9.72102567 C3.5368394,9.65701882 3.51877995,9.5465398 3.57098976,9.46148084 L3.87540652,8.96553243 C3.91865086,8.8950798 3.91438525,8.80534226 3.86465315,8.73930919 L3.58931778,8.37372559 C3.53645059,8.30352982 3.4441329,8.27578126 3.36132502,8.30519624 L2.84984039,8.48688562 C2.75120274,8.52192365 2.64217984,8.47545054 2.59915441,8.3800259 L2.48301734,8.12244943 C2.4420662,8.03162528 2.47377574,7.92450822 2.55756815,7.87061153 L3.04191319,7.55907262 C3.1114056,7.51437393 3.14649242,7.43172304 3.13037847,7.35068288 L3.04447,6.91863265 C3.02744934,6.83303246 2.95716711,6.76817663 2.87047781,6.75807417 L2.26704823,6.68775264 C2.1992855,6.67985581 2.14763497,6.62334392 2.1458489,6.555146 L2.14292609,6.4435436 L2.14306833,6.42906307 L2.15391622,6.19252553 C2.15843224,6.09405414 2.23364698,6.01336621 2.33155925,6.00195586 L2.89834535,5.93590464 C2.98165116,5.92619648 3.05018896,5.86581576 3.07031971,5.78439796 L3.16975844,5.38222308 C3.1904063,5.29871387 3.15566067,5.21131807 3.083311,5.16478154 L2.61713963,4.86493224 C2.53101315,4.80953424 2.50025802,4.69827067 2.54570552,4.60650339 L2.67878561,4.33778899 C2.72400254,4.24648728 2.83034708,4.20341636 2.92635489,4.23752022 L3.4557511,4.42557214 C3.53596837,4.45406689 3.62543697,4.42897642 3.6791399,4.36292526 L3.92182318,4.06444036 C3.97569807,3.99817768 3.9818554,3.90511789 3.93718051,3.83233464 L3.64142138,3.35049104 C3.58819943,3.26378313 3.60810503,3.15098701 3.68779123,3.08773396 L3.92324823,2.90083366 C4.00380164,2.83689222 4.11961501,2.84401903 4.1917208,2.91735466 L4.58637189,3.3187369 C4.6466304,3.38002318 4.73917248,3.39624882 4.81668662,3.35911858 L5.14328589,3.20267345 C5.22026682,3.16579862 5.26558958,3.08435129 5.25634739,2.99949613 L5.19454445,2.43206589 C5.18348146,2.33049347 5.25032781,2.23676497 5.34996513,2.21414305 L5.64182179,2.14787912 C5.74191576,2.12515351 5.84306467,2.18144076 5.87651229,2.27847948 L6.06078444,2.80990917 C6.09096368,2.89349008 6.17241374,2.94736191 6.2611391,2.94242562 C6.30674358,2.94002661 6.34676186,2.93842112 6.38119439,2.93761736 L6.42865392,2.93701402 C6.45750081,2.93701402 6.49193322,2.93781984 6.53195116,2.93943146 L6.59616875,2.94242562 C6.6848941,2.94736191 6.76634416,2.89349008 6.7965234,2.80990917 L6.98079555,2.27847948 C7.01424317,2.18144076 7.11539208,2.12515351 7.21548605,2.14787912 Z M3.89463296,5.83936017 L3.73378546,5.84743258 L3.70290786,5.85077434 C3.66355301,6.03728247 3.6428537,6.23066947 3.6428537,6.42889142 C3.6428537,7.72729254 4.53097053,8.81824703 5.73494745,9.12822247 C6.14611403,8.47667138 6.19111961,7.62464582 5.77915023,6.91109394 C5.40613968,6.2650207 4.74757719,5.88664788 4.0549582,5.84336861 L3.89463296,5.83936017 Z M7.07824994,6.91109394 C6.66628057,7.62464582 6.71128615,8.47667138 7.12357196,9.12758606 C8.325933,8.818857 9.21454647,7.72765553 9.21454647,6.42889142 C9.21454647,6.23066947 9.19384717,6.03728247 9.1535763,5.85028559 C8.33940488,5.76695437 7.51399107,6.15636817 7.07824994,6.91109394 Z M6.42878781,6.00245387 C6.19208312,6.00245387 6.00019606,6.19435558 6.00019606,6.43107833 C6.00019606,6.66780108 6.19208312,6.85970279 6.42878781,6.85970279 C6.6654925,6.85970279 6.85737956,6.66780108 6.85737956,6.43107833 C6.85737956,6.19435558 6.6654925,6.00245387 6.42878781,6.00245387 Z M6.42870009,3.64283243 C5.65533953,3.64283243 4.95558033,3.95798134 4.45028973,4.46785553 C4.77341625,5.24193501 5.53753171,5.78595473 6.42870009,5.78595473 C7.31986846,5.78595473 8.08398392,5.24193501 8.406577,4.46686917 C7.90181985,3.95798134 7.20206064,3.64283243 6.42870009,3.64283243 Z" id="形状结合"></path>
            </g>
        </g>
        <g id="Guide/16" transform="translate(0.5, 0.5)"></g>
    </g>
</svg>