<?xml version="1.0" encoding="UTF-8"?>
<svg width="16px" height="16px" viewBox="0 0 16 16" version="1.1" xmlns="http://www.w3.org/2000/svg" xmlns:xlink="http://www.w3.org/1999/xlink">
    <title>apps/16/org.deepin.browser</title>
    <defs>
        <linearGradient x1="50%" y1="0%" x2="50%" y2="98.1385523%" id="linearGradient-1">
            <stop stop-color="#FFFFFF" offset="0%"></stop>
            <stop stop-color="#EDEDED" offset="100%"></stop>
        </linearGradient>
        <linearGradient x1="47.5991349%" y1="17.8673453%" x2="55.2519021%" y2="50%" id="linearGradient-2">
            <stop stop-color="#4E56FD" offset="0%"></stop>
            <stop stop-color="#4F52FF" offset="100%"></stop>
        </linearGradient>
        <linearGradient x1="14.9103995%" y1="39.751666%" x2="94.3000646%" y2="64.2945178%" id="linearGradient-3">
            <stop stop-color="#6869FE" offset="0%"></stop>
            <stop stop-color="#5ABFFF" offset="100%"></stop>
        </linearGradient>
    </defs>
    <g id="apps/16/org.deepin.browser" stroke="none" fill="none">
        <g id="编组" stroke-width="1" fill-rule="evenodd" transform="translate(0.5, 0.5)">
            <path d="M13.2451996,12.3207948 C15.907651,9.14780873 15.4937809,4.41725191 12.3207948,1.75480044 C9.14780873,-0.907651029 4.41725191,-0.493780934 1.75480044,2.67920517 C-0.907651029,5.85219127 -0.493780934,10.5827481 2.67920517,13.2451996 C5.85219127,15.907651 10.5827481,15.4937809 13.2451996,12.3207948 Z" id="椭圆形" fill="url(#linearGradient-1)"></path>
            <path d="M6.13381291,5.54608403 C6.33049581,4.35893414 6.05566116,3.85257858 5.30930897,4.02701735 C4.18978068,4.28867551 3.55655983,6.09525522 3.57451419,7.03995362 C3.59172045,7.94528959 4.0368525,9.58512933 5.67740042,10.7705759 L5.8982273,10.9225248 C7.72008603,12.115937 5.72953517,14.0893227 4.23314805,11.8065813 C3.23555664,10.2847537 2.538793,8.03588218 2.14285714,5.05996678 L3.13207729,2.41977804 L4.5740826,1.33507781 L6.26464074,1.07142857 L7.5,1.75653877 L7.48133616,3.50379528 L6.13381291,5.54608403 Z" id="路径-39" fill="url(#linearGradient-2)"></path>
            <path d="M1.75480166,2.67920517 C3.54841555,0.541660861 6.28059988,-0.343711781 8.84286875,0.120067125 C10.0389263,0.457191101 11.3520011,1.30245415 11.8473051,2.66148646 C12.4541839,4.32666173 11.5521768,6.56542159 10.1890944,7.47335125 C7.97420963,8.94865429 5.53540345,8.19308361 5.61068712,6.65542045 C5.63584898,6.14149135 5.87587395,5.68404244 6.14413589,5.22789814 L6.30795445,4.95230123 C6.49470066,4.63803554 6.67706106,4.31915474 6.79468438,3.9778161 C7.11814852,3.03913486 7.11442842,2.1412173 6.50464243,1.62954645 C6.22597677,1.39571836 5.70001271,1.17891783 5.00509625,1.44172942 C4.26169449,1.72287775 3.24073832,2.62213138 2.88382581,4.16850916 C2.7561992,4.72147084 2.68182292,5.40038636 2.71449187,5.95099713 C2.79474089,7.30353478 3.45975402,8.51472867 4.35556873,9.5089455 L4.40557142,9.56395606 C4.80140743,9.99564995 6.36091507,11.2210721 7.91045582,11.3262899 C9.87430001,11.45964 12.0796901,10.5251482 13.1711145,9.22444017 C14.2177926,7.97705861 14.7157108,6.66249138 14.6648689,5.28073847 C15.3911303,7.63311451 14.9454354,10.2945451 13.2452088,12.3207948 C10.5827555,15.4937809 5.85219534,15.907651 2.67920703,13.2451996 C-0.493781278,10.5827481 -0.90765166,5.85219127 1.75480166,2.67920517 Z" id="路径" fill="url(#linearGradient-3)"></path>
        </g>
        <g id="Guide/16"></g>
    </g>
</svg>