<?xml version="1.0" encoding="UTF-8" standalone="no"?>
<svg
   viewBox="0 0 16 16"
   version="1.1"
   id="svg2"
   sodipodi:docname="window-unpin.svg"
   width="16"
   height="16"
   inkscape:version="1.3.2 (091e20ef0f, 2023-11-25)"
   xmlns:inkscape="http://www.inkscape.org/namespaces/inkscape"
   xmlns:sodipodi="http://sodipodi.sourceforge.net/DTD/sodipodi-0.dtd"
   xmlns="http://www.w3.org/2000/svg"
   xmlns:svg="http://www.w3.org/2000/svg">
  <defs
     id="defs2" />
  <sodipodi:namedview
     id="namedview2"
     pagecolor="#ffffff"
     bordercolor="#999999"
     borderopacity="1"
     inkscape:showpageshadow="2"
     inkscape:pageopacity="0"
     inkscape:pagecheckerboard="0"
     inkscape:deskcolor="#d1d1d1"
     inkscape:zoom="16.882174"
     inkscape:cx="7.5819617"
     inkscape:cy="12.735326"
     inkscape:window-width="1920"
     inkscape:window-height="996"
     inkscape:window-x="0"
     inkscape:window-y="0"
     inkscape:window-maximized="1"
     inkscape:current-layer="svg2" />
  <style
     type="text/css"
     id="current-color-scheme">
        .ColorScheme-Text {
            color:#fcfcfc;
        }
        .ColorScheme-NegativeText {
            color:#da4453;
        }
    </style>
  <g
     id="16-16-window-unpin"
     transform="translate(16,-53)">
    <rect
       style="opacity:0.00100002"
       width="16"
       height="16"
       x="-16"
       y="53"
       id="rect27-7-3" />
    <rect
       style="opacity:0.00100002"
       width="16"
       height="16"
       x="-16"
       y="53"
       id="rect27-2-7" />
    <path
       style="fill:#e1e1e1;fill-opacity:1;stroke-width:0.0402607"
       d="M -8.00001,67 C -8.204233,67 -9,66.881863 -9,66.736258 V 61 c 0,-0.14562 0.795767,-0.27402 0.99999,-0.27402 0.204217,0 1.0159109,0.129269 1.00001,0.27402 l -0.630128,5.736258 C -7.6460297,66.881017 -7.795793,67 -8.00001,67 Z"
       id="path6-3-3-3-5"
       sodipodi:nodetypes="sssssss" />
    <path
       style="fill:#c83771;fill-opacity:1;stroke-width:0.0402607"
       d="m -8,60.727 v 6.272007 c 0.197648,-0.006 1,-0.120468 1,-0.262715 V 61 c 0,-0.142354 -0.8023,-0.267744 -1,-0.273 z"
       id="path8-6-6-5-9"
       sodipodi:nodetypes="ccssc" />
    <path
       style="fill:#e1e1e1;fill-opacity:1;stroke-width:0.0402607"
       d="M -6,60 -6.200007,55.885926 C -6.2237672,55.397186 -6.75626,55 -7.44242,55 H -8.7575 C -9.443617,55 -10,55.396636 -10,55.885926 V 60 h -1 l 0.01563,1 H -5 v -1 z"
       id="path10-7-7-6-2"
       sodipodi:nodetypes="csssscccccc" />
    <path
       style="fill:#c83771;fill-opacity:1;stroke-width:0.0402607"
       d="M -5,60 H -6 V 55.885926 C -6,55.396618 -6.55634,55 -7.2425,55 H -8 v 6 h 3 z"
       id="path12-5-5-2-0-2"
       sodipodi:nodetypes="ccsscccc" />
  </g>
</svg>
