<?xml version="1.0" encoding="UTF-8"?>
<svg width="64px" height="64px" viewBox="0 0 64 64" version="1.1" xmlns="http://www.w3.org/2000/svg" xmlns:xlink="http://www.w3.org/1999/xlink">
    <title>apps/64/dde-calendar</title>
    <defs>
        <filter x="-9.5%" y="-7.4%" width="120.4%" height="122.2%" filterUnits="objectBoundingBox" id="filter-1">
            <feOffset dx="-0.139173101" dy="0.990268069" in="SourceAlpha" result="shadowOffsetOuter1"></feOffset>
            <feGaussianBlur stdDeviation="1.5" in="shadowOffsetOuter1" result="shadowBlurOuter1"></feGaussianBlur>
            <feColorMatrix values="0 0 0 0 0   0 0 0 0 0   0 0 0 0 0  0 0 0 0.2 0" type="matrix" in="shadowBlurOuter1" result="shadowMatrixOuter1"></feColorMatrix>
            <feMerge>
                <feMergeNode in="shadowMatrixOuter1"></feMergeNode>
                <feMergeNode in="SourceGraphic"></feMergeNode>
            </feMerge>
        </filter>
        <radialGradient cx="54.3240802%" cy="55.7793187%" fx="54.3240802%" fy="55.7793187%" r="61.9143954%" gradientTransform="translate(0.5432, 0.5578), scale(1, 0.8824), rotate(-144.9986), scale(1, 1.2647), translate(-0.5432, -0.5578)" id="radialGradient-2">
            <stop stop-color="#000000" offset="0%"></stop>
            <stop stop-color="#000000" stop-opacity="0.148218969" offset="100%"></stop>
        </radialGradient>
        <path d="M25.125,38.25 L25.125,35.4420068 L17.5006017,35.4420068 L23.9204272,27.5420068 C24.7234757,26.5388322 25.125,25.3923469 25.125,24.102551 C25.1067489,22.4903061 24.554653,21.1602041 23.4687124,20.1122449 C22.4010229,19.0553288 21.0093763,18.5179138 19.2937726,18.5 C17.7606799,18.5179138 16.4694144,19.0463719 15.4199759,20.0853741 C14.3796631,21.1512472 13.8230044,22.499263 13.75,24.1294218 L13.75,24.1294218 L16.5971721,24.1294218 C16.6975531,23.2337302 17.0169475,22.5395692 17.555355,22.0469388 C18.0755114,21.5543084 18.7279884,21.3079932 19.5127858,21.3079932 C20.3979643,21.325907 21.0823807,21.6080499 21.5660349,22.1544218 C22.031438,22.7007937 22.2641396,23.3412132 22.2641396,24.0756803 C22.2641396,24.3533447 22.2276374,24.6489229 22.154633,24.962415 C22.0451264,25.2938209 21.8398014,25.6520975 21.5386582,26.0372449 L21.5386582,26.0372449 L13.75,35.6032313 L13.75,38.25 L25.125,38.25 Z M32.8548193,38.125 L39.625,21.3131859 L39.625,18.5 L28.25,18.5 L28.25,24.1532922 L31.1143072,24.1532922 L31.1143072,21.3131859 L36.4180723,21.3131859 L29.6615964,38.125 L32.8548193,38.125 Z" id="path-3"></path>
        <filter x="-21.3%" y="-17.7%" width="142.5%" height="155.7%" filterUnits="objectBoundingBox" id="filter-4">
            <feOffset dx="0" dy="2" in="SourceAlpha" result="shadowOffsetOuter1"></feOffset>
            <feGaussianBlur stdDeviation="1.5" in="shadowOffsetOuter1" result="shadowBlurOuter1"></feGaussianBlur>
            <feColorMatrix values="0 0 0 0 0.000854821203   0 0 0 0 0.168099661   0 0 0 0 0.309386322  0 0 0 0.2 0" type="matrix" in="shadowBlurOuter1"></feColorMatrix>
        </filter>
        <linearGradient x1="69.8093701%" y1="71.0965544%" x2="57.0007078%" y2="57.7013487%" id="linearGradient-5">
            <stop stop-color="#C6C6C6" offset="0%"></stop>
            <stop stop-color="#E7E7E7" offset="53.0517663%"></stop>
            <stop stop-color="#F4F4F4" offset="100%"></stop>
        </linearGradient>
        <path d="M54,36.5 C54,36.5 52.7578833,40.9842333 52,42.5 C51,44.5 49.9672131,44.1321429 48,46.5 C46.0327869,48.8678571 47.3606557,49.325 44.4098361,51.8142857 C42.8284824,53.1483019 38.5,54 38.5,54 C50.7336066,54 54,42.9964286 54,36.5 Z" id="path-6"></path>
        <filter x="-12.9%" y="-5.7%" width="125.8%" height="122.9%" filterUnits="objectBoundingBox" id="filter-7">
            <feOffset dx="0" dy="1" in="SourceAlpha" result="shadowOffsetOuter1"></feOffset>
            <feGaussianBlur stdDeviation="0.5" in="shadowOffsetOuter1" result="shadowBlurOuter1"></feGaussianBlur>
            <feColorMatrix values="0 0 0 0 0   0 0 0 0 0   0 0 0 0 0  0 0 0 0.05 0" type="matrix" in="shadowBlurOuter1"></feColorMatrix>
        </filter>
    </defs>
    <g id="apps/64/dde-calendar" stroke="none" fill="none">
        <g id="编组-2" filter="url(#filter-1)" stroke-width="1" fill-rule="evenodd" transform="translate(32, 32) rotate(-8) translate(-32, -32)translate(5, 5)">
            <g id="编组">
                <rect id="矩形备份-2" fill="#FFFFFF" x="0" y="0" width="54" height="54" rx="9.75"></rect>
                <path d="M54,37 L54,44.25 C54,49.6347763 49.6347763,54 44.25,54 L39,54 C44.125,53.375 47.7291667,51.3958333 49.8125,48.0625 C51.8958333,44.7291667 53.2916667,41.0416667 54,37 Z" id="形状结合" fill-opacity="0.39" fill="url(#radialGradient-2)"></path>
                <g id="MARCH" transform="translate(11.5, 3)" fill="#E06164" fill-rule="nonzero">
                    <path d="M0.84875,10 L1.75875,10 L1.75875,6.815 C1.75875,6.2375 1.68,5.40625 1.63625,4.82 L1.67125,4.82 L2.17875,6.3075 L3.3075,9.37875 L3.9375,9.37875 L5.0575,6.3075 L5.57375,4.82 L5.60875,4.82 C5.55625,5.40625 5.4775,6.2375 5.4775,6.815 L5.4775,10 L6.4225,10 L6.4225,3.55125 L5.25,3.55125 L4.08625,6.815 C3.9375,7.24375 3.815,7.68125 3.66625,8.11 L3.6225,8.11 C3.47375,7.68125 3.3425,7.24375 3.19375,6.815 L2.0125,3.55125 L0.84875,3.55125 L0.84875,10 Z" id="路径"></path>
                    <path d="M9.345,6.5 C9.555,5.8 9.75625,5.09125 9.94,4.35625 L9.98375,4.35625 C10.17625,5.0825 10.36875,5.8 10.5875,6.5 L10.84125,7.36625 L9.0825,7.36625 L9.345,6.5 Z M7.2625,10 L8.295,10 L8.84625,8.1625 L11.08625,8.1625 L11.62875,10 L12.705,10 L10.57,3.55125 L9.3975,3.55125 L7.2625,10 Z" id="形状"></path>
                    <path d="M13.55375,10 L14.56875,10 L14.56875,7.40125 L15.61,7.40125 L17.07125,10 L18.2175,10 L16.6425,7.27 C17.45625,7.01625 17.99,6.42125 17.99,5.42375 C17.99,4.0325 16.9925,3.55125 15.6625,3.55125 L13.55375,3.55125 L13.55375,10 Z M14.56875,6.5875 L14.56875,4.37375 L15.54,4.37375 C16.47625,4.37375 16.98375,4.645 16.98375,5.42375 C16.98375,6.2025 16.47625,6.5875 15.54,6.5875 L14.56875,6.5875 Z" id="形状"></path>
                    <path d="M21.805,10.11375 C22.63625,10.11375 23.2925,9.78125 23.80875,9.18625 L23.26625,8.5475 C22.88125,8.9675 22.435,9.23 21.84,9.23 C20.7025,9.23 19.985,8.29375 19.985,6.7625 C19.985,5.24875 20.755,4.32125 21.86625,4.32125 C22.39125,4.32125 22.79375,4.5575 23.12625,4.89875 L23.6775,4.25125 C23.28375,3.8225 22.65375,3.4375 21.84875,3.4375 C20.22125,3.4375 18.94375,4.6975 18.94375,6.7975 C18.94375,8.90625 20.18625,10.11375 21.805,10.11375 Z" id="路径"></path>
                    <polygon id="路径" points="24.94625 10 25.96125 10 25.96125 7.06875 28.7175 7.06875 28.7175 10 29.7325 10 29.7325 3.55125 28.7175 3.55125 28.7175 6.185 25.96125 6.185 25.96125 3.55125 24.94625 3.55125"></polygon>
                </g>
                <g id="27" fill-rule="nonzero">
                    <use fill="black" fill-opacity="1" filter="url(#filter-4)" xlink:href="#path-3"></use>
                    <use fill="#2D394F" xlink:href="#path-3"></use>
                </g>
            </g>
            <g id="MONDAY" transform="translate(16.125, 40.5)" fill="#2D394F" fill-rule="nonzero">
                <path d="M0.485,6 L1.005,6 L1.005,4.18 C1.005,3.85 0.96,3.375 0.935,3.04 L0.955,3.04 L1.245,3.89 L1.89,5.645 L2.25,5.645 L2.89,3.89 L3.185,3.04 L3.205,3.04 C3.175,3.375 3.13,3.85 3.13,4.18 L3.13,6 L3.67,6 L3.67,2.315 L3,2.315 L2.335,4.18 C2.25,4.425 2.18,4.675 2.095,4.92 L2.07,4.92 C1.985,4.675 1.91,4.425 1.825,4.18 L1.15,2.315 L0.485,2.315 L0.485,6 Z" id="路径"></path>
                <path d="M6.035,6.065 C6.98,6.065 7.64,5.33 7.64,4.145 C7.64,2.96 6.98,2.25 6.035,2.25 C5.09,2.25 4.435,2.96 4.435,4.145 C4.435,5.33 5.09,6.065 6.035,6.065 Z M6.035,5.56 C5.425,5.56 5.03,5.005 5.03,4.145 C5.03,3.28 5.425,2.755 6.035,2.755 C6.645,2.755 7.045,3.28 7.045,4.145 C7.045,5.005 6.645,5.56 6.035,5.56 Z" id="形状"></path>
                <path d="M8.405,6 L8.955,6 L8.955,4.265 C8.955,3.865 8.91,3.44 8.88,3.06 L8.905,3.06 L9.29,3.83 L10.51,6 L11.105,6 L11.105,2.315 L10.555,2.315 L10.555,4.035 C10.555,4.435 10.6,4.88 10.63,5.26 L10.605,5.26 L10.22,4.48 L9,2.315 L8.405,2.315 L8.405,6 Z" id="路径"></path>
                <path d="M12.075,6 L13.06,6 C14.16,6 14.805,5.34 14.805,4.145 C14.805,2.945 14.16,2.315 13.03,2.315 L12.075,2.315 L12.075,6 Z M12.655,5.525 L12.655,2.79 L12.99,2.79 C13.78,2.79 14.205,3.225 14.205,4.145 C14.205,5.06 13.78,5.525 12.99,5.525 L12.655,5.525 Z" id="形状"></path>
                <path d="M16.275,4 C16.395,3.6 16.51,3.195 16.615,2.775 L16.64,2.775 C16.75,3.19 16.86,3.6 16.985,4 L17.13,4.495 L16.125,4.495 L16.275,4 Z M15.085,6 L15.675,6 L15.99,4.95 L17.27,4.95 L17.58,6 L18.195,6 L16.975,2.315 L16.305,2.315 L15.085,6 Z" id="形状"></path>
                <path d="M19.285,6 L19.865,6 L19.865,4.605 L20.975,2.315 L20.37,2.315 L19.94,3.295 C19.83,3.57 19.71,3.825 19.59,4.105 L19.57,4.105 C19.445,3.825 19.34,3.57 19.225,3.295 L18.8,2.315 L18.18,2.315 L19.285,4.605 L19.285,6 Z" id="路径"></path>
            </g>
            <g id="路径-11">
                <use fill="black" fill-opacity="1" filter="url(#filter-7)" xlink:href="#path-6"></use>
                <use fill="url(#linearGradient-5)" fill-rule="evenodd" xlink:href="#path-6"></use>
            </g>
        </g>
        <g id="Guide/64"></g>
    </g>
</svg>