<?xml version="1.0" encoding="UTF-8"?>
<svg width="64px" height="64px" viewBox="0 0 64 64" version="1.1" xmlns="http://www.w3.org/2000/svg" xmlns:xlink="http://www.w3.org/1999/xlink">
    <title>apps/64/deepin-clone</title>
    <defs>
        <filter x="-8.6%" y="-6.9%" width="117.2%" height="117.2%" filterUnits="objectBoundingBox" id="filter-1">
            <feOffset dx="0" dy="1" in="SourceAlpha" result="shadowOffsetOuter1"></feOffset>
            <feGaussianBlur stdDeviation="1.5" in="shadowOffsetOuter1" result="shadowBlurOuter1"></feGaussianBlur>
            <feColorMatrix values="0 0 0 0 0   0 0 0 0 0   0 0 0 0 0  0 0 0 0.2 0" type="matrix" in="shadowBlurOuter1" result="shadowMatrixOuter1"></feColorMatrix>
            <feMerge>
                <feMergeNode in="shadowMatrixOuter1"></feMergeNode>
                <feMergeNode in="SourceGraphic"></feMergeNode>
            </feMerge>
        </filter>
        <radialGradient cx="47.156569%" cy="18.8587223%" fx="47.156569%" fy="18.8587223%" r="79.4742743%" id="radialGradient-2">
            <stop stop-color="#00812B" offset="0%"></stop>
            <stop stop-color="#006174" offset="100%"></stop>
        </radialGradient>
        <linearGradient x1="50%" y1="1.85852605%" x2="50%" y2="100%" id="linearGradient-3">
            <stop stop-color="#FFFFFF" offset="0%"></stop>
            <stop stop-color="#21CCDF" offset="100%"></stop>
        </linearGradient>
    </defs>
    <g id="apps/64/deepin-clone" stroke="none" stroke-width="1" fill="none" fill-rule="evenodd">
        <g id="Group" filter="url(#filter-1)" transform="translate(3, 3)">
            <circle id="Oval" fill="url(#radialGradient-2)" cx="29" cy="29" r="29"></circle>
            <g id="编组" transform="translate(3.0712, 3.072)" fill="url(#linearGradient-3)" fill-rule="nonzero">
                <path d="M23.3963676,0.12209403 L23.4682434,0.115227485 C23.6874749,0.094589871 23.9075319,0.0766797715 24.1283489,0.0615344822 C24.4081381,0.0423478417 24.688828,0.0276116362 24.9706655,0.0173738129 C25.1462075,0.0109925891 25.3228861,0.00634517967 25.4999964,0.00347360668 L25.9287627,0 C40.248383,0 51.8567288,11.6083458 51.8567288,25.9279661 C51.8567288,40.1043902 40.4793891,51.6234942 26.357529,51.8524586 L25.9287627,51.8559322 C25.4119493,51.8559322 24.8975846,51.8407164 24.3861866,51.8105862 L24.6175289,51.8233514 C24.4528279,51.8151478 24.2885315,51.8054073 24.1246537,51.794144 L24.3861866,51.8105862 C24.2537889,51.8027857 24.1215901,51.7939856 23.9895991,51.784191 L24.1246537,51.794144 C23.98417,51.7844886 23.8439938,51.7737141 23.7041343,51.7618294 L23.9895991,51.784191 C23.8366824,51.7728436 23.6840447,51.7601615 23.5316999,51.7461528 L23.7041343,51.7618294 C23.548779,51.7486279 23.3938143,51.7340566 23.2392522,51.7181275 L23.5316999,51.7461528 C23.3917588,51.7332847 23.2520648,51.7192972 23.1126289,51.7041966 C21.4510625,51.5242533 19.826133,51.186257 18.2561712,50.7008762 C17.3724437,50.4276565 16.5061329,50.1077376 15.6605082,49.7430223 C15.369477,49.6175015 15.0808961,49.4866747 14.7948987,49.3506194 L14.9934416,49.4439121 C14.8936753,49.3974402 14.7942539,49.350352 14.6951823,49.3026526 L14.7948987,49.3506194 C14.6771728,49.2946146 14.5598846,49.2377239 14.4430435,49.1799527 L14.6951823,49.3026526 C14.5568848,49.2360672 14.4192689,49.1682907 14.282348,49.0993362 C11.6149798,47.7560289 9.21135558,45.9656944 7.16986374,43.8267214 C6.90303885,43.547254 6.64156644,43.2607355 6.38600819,42.9678707 C5.85056055,42.3542582 5.91392572,41.4227609 6.52753827,40.8873132 C7.14115081,40.3518656 8.07264814,40.4152307 8.60809579,41.0288433 C12.946742,46.0008472 19.2007693,48.9067797 25.9287627,48.9067797 C38.619611,48.9067797 48.9075763,38.6188144 48.9075763,25.9279661 C48.9075763,13.2371178 38.619611,2.94915254 25.9287627,2.94915254 C13.2379144,2.94915254 2.94994915,13.2371178 2.94994915,25.9279661 L2.94995768,25.9479938 L8.23384746,25.9475153 L2.6729379,37.405142 C0.96219508,33.9453328 0.000796610173,30.0489227 0.000796610173,25.9279661 L8.98836561e-13,25.947 L0.000796610173,25.9279661 C0.000796610173,25.1373578 0.036182493,24.3550144 0.105456863,23.5824331 C0.17476557,22.8095076 0.277972529,22.0464654 0.413589346,21.2946901 C0.504986689,20.7880651 0.611050493,20.2867724 0.731362311,19.7910502 C0.747412783,19.7249173 0.763716835,19.6588835 0.780273378,19.5929499 C0.821043412,19.4305873 0.863373447,19.2687263 0.907220332,19.1074902 C0.993445624,18.7904346 1.08543316,18.4761238 1.1831503,18.1643476 C1.2859576,17.8363337 1.39508434,17.511188 1.51040701,17.1889903 C1.55028326,17.077577 1.5909981,16.9662546 1.63245133,16.8552923 C1.70520355,16.6605483 1.78023476,16.466902 1.85750828,16.2743974 L1.84995795,16.2932284 C1.88584988,16.2036099 1.92222763,16.1142384 1.95908795,16.0251172 L1.85750828,16.2743974 C1.91122134,16.1405869 1.96601782,16.007328 2.02188685,15.8746316 L1.95908795,16.0251172 C2.02109551,15.8751947 2.08446869,15.7259805 2.14919197,15.5774901 L2.02188685,15.8746316 C2.07117224,15.7575722 2.1212923,15.6409506 2.17223958,15.5247741 C2.33618594,15.1509227 2.50869837,14.7816814 2.68952853,14.4172983 L2.64013253,14.5173765 C2.68774776,14.4203787 2.73595115,14.3237218 2.78473803,14.2274106 L2.68952853,14.4172983 C2.74848742,14.2984928 2.80833053,14.1802037 2.86904926,14.0624398 L2.78473803,14.2274106 C2.84431401,14.1098004 2.90476011,13.9927056 2.96606785,13.8761347 L2.86904926,14.0624398 C2.93335745,13.937714 2.99864784,13.8135773 3.06491021,13.6900398 L2.96606785,13.8761347 C3.03072244,13.7532 3.09633531,13.6308481 3.16289654,13.5090887 L3.06491021,13.6900398 C3.1224463,13.5827712 3.18071523,13.4759545 3.23971029,13.3695962 L3.16289654,13.5090887 C3.22110202,13.4026144 3.2800327,13.2965932 3.33968193,13.1910318 C3.39434961,13.0942863 3.44962084,12.997927 3.5054905,12.901959 C3.59238137,12.7526992 3.68096467,12.6039841 3.77098408,12.4562402 C3.96474954,12.1382257 4.16512212,11.82478 4.37195211,11.5160247 L4.27852117,11.6564825 C4.3572026,11.5373609 4.43684079,11.4189269 4.51742479,11.3011913 C4.65694517,11.097348 4.79930074,10.8955983 4.94443468,10.6959992 L4.87990535,10.7851406 C4.95608789,10.6794313 5.03304711,10.574319 5.11077467,10.469812 L4.94443468,10.6959992 C5.02444982,10.5859564 5.10530946,10.4765672 5.18700406,10.3678412 C5.34423717,10.1585823 5.50456323,9.95177995 5.66791436,9.7475021 L5.56658166,9.87503864 C5.64615561,9.77424202 5.72646199,9.6740504 5.80749278,9.57447182 C6.05939144,9.26491405 6.31829068,8.96128057 6.58394925,8.66381264 L6.47097171,8.79115197 C6.53677984,8.71648881 6.60301097,8.64220741 6.66966135,8.56831151 C6.94732926,8.26045854 7.23227366,7.95929634 7.52422353,7.66509594 L7.39999452,7.79113467 C7.48783133,7.70141166 7.57631459,7.61232401 7.66543675,7.52387925 L7.52422353,7.66509594 C7.61840255,7.57019094 7.71331057,7.47601039 7.80893849,7.38256339 C7.8829106,7.31027832 7.95731348,7.23843219 8.03214291,7.1670292 C8.29751704,6.91380655 8.56825589,6.66615729 8.84417163,6.42426924 C9.03862617,6.25379619 9.23564577,6.08618979 9.43517077,5.92151049 L9.3090748,6.02625308 C9.38346678,5.96406241 9.45821274,5.90228105 9.5333092,5.84091248 C9.75611691,5.65883476 9.98201007,5.48039067 10.2108983,5.30567064 L10.0576826,5.42352938 C10.1492727,5.3525324 10.2413514,5.28213552 10.3339127,5.21234462 C10.6657608,4.96213232 11.0038124,4.71970911 11.3477958,4.48534675 L11.192068,4.5922779 C11.2753425,4.53465065 11.3589708,4.47749837 11.4429488,4.42082499 L11.3477958,4.48534675 C11.4566063,4.4112121 11.5660104,4.33788403 11.6759994,4.26537114 L11.4429488,4.42082499 C11.578077,4.32963252 11.7141109,4.23967997 11.8510343,4.15098368 L11.6759994,4.26537114 C11.7694585,4.20375599 11.8633399,4.1427294 11.9576384,4.08229666 L11.8510343,4.15098368 C11.980359,4.06720964 12.1104771,3.98455629 12.241375,3.90303737 L11.9576384,4.08229666 C12.0760749,4.00639473 12.1951692,3.93142958 12.314911,3.85741166 L12.241375,3.90303737 C12.3480947,3.83657585 12.4553326,3.77086839 12.5630814,3.70592243 L12.314911,3.85741166 C12.4469567,3.77578807 12.5797899,3.69531638 12.7133963,3.61601062 L12.5630814,3.70592243 C12.6602249,3.64736886 12.7577835,3.58943428 12.8557519,3.53212414 L12.7133963,3.61601062 C12.8218992,3.55160568 12.9309122,3.4879697 13.0404277,3.42511018 L12.8557519,3.53212414 C12.9493827,3.47735145 13.0433878,3.42314913 13.1377624,3.36952194 C13.3244525,3.26343755 13.5125887,3.15960377 13.7021338,3.05805753 C13.9419664,2.92956963 14.1841207,2.80471145 14.4284572,2.68359238 L14.2774377,2.75906948 C14.371074,2.71188852 14.4650355,2.66525849 14.5593179,2.61918365 C14.8004466,2.50134657 15.0436743,2.38714097 15.2889299,2.27663807 C15.5488261,2.15953864 15.8109994,2.04659718 16.0753652,1.93789845 C16.3228016,1.83616052 16.5721586,1.73813933 16.8233667,1.64390437 L16.6265655,1.71864924 C16.7578963,1.66815452 16.889742,1.61869769 17.0220925,1.57028881 L16.8233667,1.64390437 C16.9395094,1.60033607 17.0560479,1.5575771 17.1729752,1.51563432 L17.0220925,1.57028881 C17.1411214,1.52675244 17.2605588,1.48406367 17.3803971,1.44222982 L17.1729752,1.51563432 C17.3032479,1.46890443 17.4340032,1.42318768 17.5652317,1.37849356 L17.3803971,1.44222982 C17.5122337,1.39620752 17.6445557,1.3512199 17.7773533,1.30727667 L17.5652317,1.37849356 C17.7050679,1.33086779 17.8454414,1.28440321 17.9863407,1.23911132 L17.7773533,1.30727667 C17.9018759,1.26607168 18.0268167,1.22578498 18.1521676,1.1864246 L17.9863407,1.23911132 C18.1094789,1.1995287 18.2330186,1.16084175 18.3569522,1.12305815 L18.1521676,1.1864246 C18.28118,1.14591451 18.4106268,1.10638565 18.5404994,1.06784676 L18.3569522,1.12305815 C18.4700014,1.08859291 18.5833782,1.05487931 18.697077,1.02192318 L18.9676428,0.945099226 L19.3000133,0.855078555 C19.4365429,0.819079081 19.5735133,0.784165194 19.7109146,0.750346686 L19.629519,0.770521195 C19.76275,0.737268444 19.8963891,0.705046329 20.0304272,0.673863811 L19.7109146,0.750346686 C19.8453009,0.717270255 19.9800994,0.685241659 20.115301,0.654270057 L20.0304272,0.673863811 C20.1168965,0.653747652 20.2035319,0.634064139 20.290331,0.614815678 L20.115301,0.654270057 C20.2541263,0.622468344 20.3933766,0.591781045 20.533042,0.562218077 C20.7348807,0.519494862 20.9375863,0.479119798 21.1411287,0.441122814 C21.4316996,0.386882639 21.7237084,0.337529423 22.0173327,0.293100636 L21.7430976,0.336101505 C21.8753381,0.314638186 22.0079142,0.294175137 22.1408178,0.274720374 C22.5562266,0.213911773 22.9748349,0.162953752 23.3963979,0.122091087 Z M28.9131782,9.94805639 L29.9092454,10.1742062 C30.3077947,10.2646939 30.5751801,10.6396079 30.5309281,11.0458976 L30.3094873,13.0790086 C30.2725185,13.4184292 30.4538095,13.7442185 30.7617332,13.8917178 L31.9122191,14.442815 C32.2222756,14.591336 32.592444,14.5264334 32.8334781,14.2812883 L34.2461641,12.8445073 C34.5345873,12.5511648 34.9978408,12.5226576 35.3200545,12.7784233 L36.1240838,13.4166432 C36.4428285,13.6696554 36.5224509,14.1208398 36.3095631,14.4676715 L35.2501499,16.1936421 C35.0714504,16.484775 35.0960797,16.8570142 35.3115792,17.1220649 L36.1697269,18.1775317 C36.3845386,18.4417364 36.742413,18.5420982 37.0632821,18.4281192 L38.9591314,17.7546763 C39.3431627,17.6182608 39.7685409,17.7905445 39.9494086,18.1557514 L40.4038213,19.0732985 C40.5856113,19.4403676 40.4625908,19.8854218 40.1180849,20.1070138 L38.4503019,21.1797601 C38.1609032,21.3659062 38.0219207,21.7154894 38.1045122,22.0495262 L38.4576185,23.477647 C38.5381415,23.8033182 38.8122927,24.0448411 39.1455159,24.0836738 L41.1792999,24.3206837 C41.5709489,24.3663251 41.8718079,24.6890768 41.889872,25.0829624 L41.9281937,25.9185645 L41.9287626,25.9764866 L41.9179014,26.3912042 C41.9112334,26.6458098 41.7184047,26.8567876 41.4654238,26.8862691 L39.2514033,27.1442831 C38.9046461,27.184693 38.6235172,27.4441163 38.5554345,27.7865171 L38.2494459,29.3253931 C38.1849901,29.6495537 38.3253374,29.9801572 38.603307,30.158952 L40.3419329,31.2772657 C40.6771025,31.4928525 40.8039407,31.9213206 40.6401361,32.2846172 L40.2458641,33.1590598 C40.0737624,33.5407584 39.6376708,33.7266509 39.2431202,33.5864987 L37.4172314,32.9379072 C37.0859998,32.8202472 36.7167291,32.9312414 36.5052603,33.2120246 L35.5230135,34.516228 C35.3240852,34.7803603 35.3070227,35.1393104 35.4800001,35.4211209 L36.5731343,37.2020289 C36.7819735,37.5422648 36.7097357,37.9841808 36.4034283,38.2402082 L35.7047287,38.8242172 C35.3831018,39.0930494 34.9089553,39.0698851 34.6150649,38.7709821 L33.2345534,37.3669245 C32.9891353,37.1173206 32.6104905,37.0550435 32.2980567,37.2128955 L30.812641,37.9633774 C30.5134545,38.1145365 30.3393379,38.4353556 30.3756328,38.7685888 L30.6006006,40.8340815 C30.6445455,41.237552 30.3810977,41.6105793 29.9861613,41.7040931 L29.1326209,41.906196 C28.7303346,42.0014501 28.3213328,41.7763181 28.1866155,41.3854743 L27.5360956,39.4981767 C27.4188614,39.1580551 27.090076,38.9371029 26.7308701,38.9570444 L25.9733587,38.999098 C25.9436509,39.0007472 25.9138744,39.0007472 25.8841666,38.999098 L25.1266552,38.9570444 C24.7674493,38.9371029 24.4386639,39.1580551 24.3214297,39.4981767 L23.6709098,41.3854743 C23.5361925,41.7763181 23.1271907,42.0014501 22.7249044,41.906196 L21.871364,41.7040931 C21.4764276,41.6105793 21.2129798,41.237552 21.2569247,40.8340815 L21.4818925,38.7685888 C21.5181873,38.4353556 21.3440708,38.1145365 21.0448842,37.9633774 L19.5594686,37.2128955 C19.2470348,37.0550435 18.86839,37.1173206 18.6229719,37.3669245 L17.2424604,38.7709821 C16.94857,39.0698851 16.4744234,39.0930494 16.1527966,38.8242172 L15.4540969,38.2402082 C15.1477896,37.9841808 15.0755518,37.5422648 15.284391,37.2020289 L16.3775252,35.4211209 C16.5505026,35.1393104 16.5334401,34.7803603 16.3345118,34.516228 L15.352265,33.2120246 C15.1407962,32.9312414 14.7715255,32.8202472 14.4402939,32.9379072 L12.6144051,33.5864987 C12.2198545,33.7266509 11.7837629,33.5407584 11.6116612,33.1590598 L11.2173892,32.2846172 C11.0535846,31.9213206 11.1804227,31.4928525 11.5155924,31.2772657 L13.2542183,30.158952 C13.5321879,29.9801572 13.6725352,29.6495537 13.6080794,29.3253931 L13.3020908,27.7865171 C13.2340081,27.4441163 12.9528792,27.184693 12.606122,27.1442831 L10.3921014,26.8862691 C10.1391206,26.8567876 9.94629191,26.6458098 9.93962391,26.3912042 L9.92876266,25.9764866 L9.92933163,25.9185645 L9.96765334,25.0829624 C9.9857174,24.6890768 10.2865764,24.3663251 10.6782254,24.3206837 L12.7120094,24.0836738 C13.0452326,24.0448411 13.3193838,23.8033182 13.3999068,23.477647 L13.7530131,22.0495262 C13.8356046,21.7154894 13.6966221,21.3659062 13.4072234,21.1797601 L11.7394404,20.1070138 C11.3949345,19.8854218 11.271914,19.4403676 11.453704,19.0732985 L11.9081167,18.1557514 C12.0889844,17.7905445 12.5143626,17.6182608 12.8983939,17.7546763 L14.7942432,18.4281192 C15.1151123,18.5420982 15.4729867,18.4417364 15.6877984,18.1775317 L16.5459461,17.1220649 C16.7614456,16.8570142 16.7860749,16.484775 16.6073754,16.1936421 L15.5479621,14.4676715 C15.3350744,14.1208398 15.4146968,13.6696554 15.7334415,13.4166432 L16.5374708,12.7784233 C16.8596845,12.5226576 17.322938,12.5511648 17.6113612,12.8445073 L19.0240472,14.2812883 C19.2650813,14.5264334 19.6352497,14.591336 19.9453062,14.442815 L21.0957921,13.8917178 C21.4037157,13.7442185 21.5850068,13.4184292 21.548038,13.0790086 L21.3265972,11.0458976 C21.2823452,10.6396079 21.5497306,10.2646939 21.9482799,10.1742062 L22.9443471,9.94805639 C23.344723,9.85715395 23.7493186,10.082303 23.8831091,10.4704579 L24.5328318,12.3582823 C24.6488313,12.6985251 24.9764635,12.9205314 25.3354668,12.9021545 C25.5762729,12.8897195 25.7740384,12.88351 25.9287626,12.88351 C26.0448058,12.88351 26.1850597,12.8870029 26.3495244,12.8939885 L26.5220585,12.9021545 C26.8810618,12.9205314 27.208694,12.6985251 27.3246935,12.3582823 L27.9744162,10.4704579 C28.1082067,10.082303 28.5128023,9.85715395 28.9131782,9.94805639 Z M28.3542291,27.7293843 C26.8166748,30.3925064 26.9841294,33.5722846 28.5183185,36.0056006 C33.0097265,34.8547935 36.3297362,30.779722 36.3297362,25.9291614 C36.3297362,25.1884852 36.2523235,24.4658911 36.1039493,23.7692209 C33.0637813,23.4573445 29.9813235,24.9111742 28.3542291,27.7293843 Z M15.9583118,23.7509333 L15.7533378,23.7690298 C15.6061625,24.4658911 15.5287498,25.1884852 15.5287498,25.9291614 C15.5287498,30.779722 18.8487595,34.8547935 23.3405831,36.0043873 C24.8743307,33.5722398 25.0418111,30.3925064 23.5042569,27.7293843 C21.9135102,24.9741302 18.9316872,23.5229633 15.9583118,23.7509333 Z M25.9292625,24.32782 C25.045565,24.32782 24.3291866,25.0442532 24.3291866,25.9280182 C24.3291866,26.8117832 25.045565,27.5282164 25.9292625,27.5282164 C26.81296,27.5282164 27.5293384,26.8117832 27.5293384,25.9280182 C27.5293384,25.0442532 26.81296,24.32782 25.9292625,24.32782 Z M25.929243,15.5278734 C23.0406837,15.5278734 20.4271591,16.7055271 18.5428388,18.607148 C19.7489824,21.4974765 22.6019028,23.5288641 25.929243,23.5288641 C29.2565832,23.5288641 32.1095036,21.4974765 33.3159529,18.6069362 C31.4313268,16.7055271 28.8178023,15.5278734 25.929243,15.5278734 Z" id="形状结合"></path>
            </g>
        </g>
        <g id="Guide/64" transform="translate(2, 2)"></g>
    </g>
</svg>