<?xml version="1.0" encoding="UTF-8"?>
<svg width="64px" height="64px" viewBox="0 0 64 64" version="1.1" xmlns="http://www.w3.org/2000/svg" xmlns:xlink="http://www.w3.org/1999/xlink">
    <title>apps/64/org.deepin.browser</title>
    <defs>
        <filter x="-8.6%" y="-6.9%" width="117.2%" height="117.2%" filterUnits="objectBoundingBox" id="filter-1">
            <feOffset dx="0" dy="1" in="SourceAlpha" result="shadowOffsetOuter1"></feOffset>
            <feGaussianBlur stdDeviation="1.5" in="shadowOffsetOuter1" result="shadowBlurOuter1"></feGaussianBlur>
            <feColorMatrix values="0 0 0 0 0   0 0 0 0 0   0 0 0 0 0  0 0 0 0.2 0" type="matrix" in="shadowBlurOuter1" result="shadowMatrixOuter1"></feColorMatrix>
            <feMerge>
                <feMergeNode in="shadowMatrixOuter1"></feMergeNode>
                <feMergeNode in="SourceGraphic"></feMergeNode>
            </feMerge>
        </filter>
        <linearGradient x1="50%" y1="0%" x2="50%" y2="98.1385523%" id="linearGradient-2">
            <stop stop-color="#FFFFFF" offset="0%"></stop>
            <stop stop-color="#EDEDED" offset="100%"></stop>
        </linearGradient>
        <linearGradient x1="47.4539744%" y1="17.8673453%" x2="55.5694413%" y2="50%" id="linearGradient-3">
            <stop stop-color="#4E56FD" offset="0%"></stop>
            <stop stop-color="#4F52FF" offset="100%"></stop>
        </linearGradient>
        <linearGradient x1="0%" y1="50%" x2="87.8403076%" y2="34.0932226%" id="linearGradient-4">
            <stop stop-color="#6B5BFE" offset="0%"></stop>
            <stop stop-color="#58CDFF" offset="100%"></stop>
        </linearGradient>
    </defs>
    <g id="apps/64/org.deepin.browser" stroke="none" fill="none">
        <g id="编组" filter="url(#filter-1)" stroke-width="1" fill-rule="evenodd" transform="translate(3, 3)">
            <path d="M51.2147716,47.6404067 C61.509584,35.3715271 59.9092863,17.0800407 47.6404067,6.78522837 C35.3715271,-3.50958398 17.0800407,-1.90928628 6.78522837,10.3595933 C-3.50958398,22.6284729 -1.90928628,40.9199593 10.3595933,51.2147716 C22.6284729,61.509584 40.9199593,59.9092863 51.2147716,47.6404067 Z" id="椭圆形" fill="url(#linearGradient-2)"></path>
            <path d="M24.5432075,21.1162375 C25.3239949,16.5398346 24.2329624,14.5878595 21.2701101,15.2603122 C16.8258316,16.2689911 14.3120855,23.2332647 14.3833603,26.8750293 C14.4534063,30.4540049 16.30992,37.0106278 23.2386156,41.6023182 L23.607985,41.8421451 C30.8403593,46.442689 22.9383147,54.0499909 16.9979904,45.2501382 C13.0377742,39.3835697 10.2717774,30.7142836 8.7,19.24228 L12.6269841,9.06448578 L18.3514248,4.88302115 L25.0625649,3.86666667 L29.9666667,6.50773189 L29.8925754,13.2433175 L24.5432075,21.1162375 Z" id="路径-39" fill="url(#linearGradient-3)"></path>
            <path d="M6.78523309,10.3595933 C13.7205401,2.09442199 24.2849862,-1.32901889 34.1924258,0.464259552 C38.8171818,1.76780559 43.8944043,5.03615605 45.8095797,10.291081 C48.1561778,16.7297587 44.6684171,25.3862968 39.3978318,28.8969582 C30.8336106,34.6014633 21.40356,31.6799233 21.6946569,25.7342924 C21.7919494,23.7470999 22.7200459,21.9782974 23.7573254,20.2145395 L24.3907572,19.1488981 C25.1128426,17.9337374 25.8179694,16.7007316 26.2727796,15.3808889 C27.5235076,11.7513215 27.5091232,8.27937355 25.1512841,6.30091294 C24.0737768,5.39677766 22.0400492,4.55848228 19.3530388,5.57468711 C16.478552,6.66179397 12.5308548,10.138908 11.1507931,16.1182354 C10.6573036,18.2563539 10.3697153,20.8814939 10.4960352,23.0105222 C10.8063314,28.2403345 13.3777156,32.9236175 16.8415324,36.7679226 L17.0348762,36.9806301 L17.2354281,37.1907217 C19.0383315,39.0148166 24.8305013,43.4041001 30.5870958,43.7949877 C38.1806267,44.3106081 46.7081351,40.6972396 50.9283093,35.6678353 C54.9754647,30.8446266 56.9007482,25.7616333 56.7041599,20.4188554 C59.5123704,29.5147095 57.7890168,39.8055743 51.2148073,47.6404067 C40.9199878,59.9092863 22.6284887,61.509584 10.3596005,51.2147716 C-1.90928761,40.9199593 -3.50958642,22.6284729 6.78523309,10.3595933 Z" id="路径" fill="url(#linearGradient-4)"></path>
            <path d="M6.78522837,10.3595933 C17.0800407,-1.90928628 35.3715271,-3.50958398 47.6404067,6.78522837 C59.9092863,17.0800407 61.509584,35.3715271 51.2147716,47.6404067 C40.9199593,59.9092863 22.6284729,61.509584 10.3595933,51.2147716 C-1.90928628,40.9199593 -3.50958398,22.6284729 6.78522837,10.3595933 Z M7.53827147,10.9914715 C-2.40756418,22.8444569 -0.861513863,40.5158929 10.9914715,50.4617285 C22.8444569,60.4075642 40.5158929,58.8615139 50.4617285,47.0085285 C60.4075642,35.1555431 58.8615139,17.4841071 47.0085285,7.53827147 C35.1555431,-2.40756418 17.4841071,-0.861513863 7.53827147,10.9914715 Z" id="形状" fill-opacity="0.08" fill="#000000" fill-rule="nonzero"></path>
        </g>
        <g id="Guide/64"></g>
    </g>
</svg>