<?xml version="1.0" encoding="UTF-8" standalone="no"?>
<svg
   width="32"
   height="32"
   version="1"
   id="svg14"
   sodipodi:docname="antimicro-symbolic.svg"
   inkscape:version="1.3.2 (091e20ef0f, 2023-11-25)"
   xmlns:inkscape="http://www.inkscape.org/namespaces/inkscape"
   xmlns:sodipodi="http://sodipodi.sourceforge.net/DTD/sodipodi-0.dtd"
   xmlns="http://www.w3.org/2000/svg"
   xmlns:svg="http://www.w3.org/2000/svg">
  <style
     id="current-color-scheme"
     type="text/css">.ColorScheme-Text { color:#eceff4; }
</style>
  <sodipodi:namedview
     id="namedview16"
     pagecolor="#201933"
     bordercolor="#000000"
     borderopacity="1"
     inkscape:showpageshadow="true"
     inkscape:pageopacity="0"
     inkscape:pagecheckerboard="true"
     inkscape:deskcolor="#201933"
     showgrid="false"
     inkscape:zoom="10.429825"
     inkscape:cx="15.820016"
     inkscape:cy="23.873843"
     inkscape:window-width="1920"
     inkscape:window-height="996"
     inkscape:window-x="0"
     inkscape:window-y="0"
     inkscape:window-maximized="1"
     inkscape:current-layer="svg14">
    <inkscape:grid
       type="xygrid"
       id="grid1266"
       originx="-31.999996"
       originy="-33"
       spacingy="1"
       spacingx="1"
       units="px"
       visible="false" />
  </sodipodi:namedview>
  <defs
     id="defs5">
    <style
       type="text/css"
       id="style646" />
  </defs>
  <g
     id="antimicro">
    <rect
       style="opacity:0.00100002"
       width="32"
       height="32"
       x="0"
       y="0"
       id="rect397" />
    <path
       d="m 21.026127,14.18176 h -0.03848 c -0.826082,0.02133 -1.478863,0.709344 -1.457554,1.538108 0.02191,0.812185 0.686866,1.457163 1.494467,1.457163 0.01391,0 0.02781,0 0.04153,-5.7e-4 0.826667,-0.02133 1.478863,-0.709345 1.45809,-1.536012 -0.02077,-0.813892 -0.687987,-1.458675 -1.497539,-1.458675 z"
       id="path1613"
       style="fill:#af905e;fill-opacity:1;stroke-width:0.0487623" />
    <path
       d="m 23.518367,10.193005 h -0.04 c -0.826666,0.02248 -1.478862,0.709345 -1.45809,1.537523 0.02191,0.812185 0.687988,1.457163 1.494857,1.457163 0.01391,0 0.02819,0 0.04267,-5.7e-4 0.826081,-0.02076 1.479448,-0.709345 1.45809,-1.535427 -0.02191,-0.813891 -0.687451,-1.458675 -1.497539,-1.458675 z"
       id="path1615"
       style="fill:#af905e;fill-opacity:1;stroke-width:0.0487623" />
    <path
       d="M 29.655103,21.748691 C 29.591103,18.18602 29.170335,14.583073 28.480226,10.94687 27.918141,8.420398 25.895626,6.170262 22.664344,6.0053 22.581114,6.002 22.500152,6 22.421103,6 20.264348,6 19.733668,7.240561 17.190373,7.240561 h -0.07581 c -0.368575,-0.0021 -0.73714,-0.0032 -1.10554,-0.0032 -0.368574,0 -0.742845,0.0012 -1.114657,0.0032 h -0.07581 c -2.543441,0 -3.076217,-1.240025 -5.2307305,-1.240025 -0.07886,0 -0.159999,0.0015 -0.243241,0.0053 -3.232013,0.164763 -5.317527,2.409149 -5.818316,4.941569 -0.6914499,3.636009 -1.1122189,7.237786 -1.1761959,10.800359 -0.01543,2.480587 2.4335309,4.130703 4.0495619,4.243831 0.06553,0.0048 0.130669,0.0074 0.195811,0.0074 3.029941,0 5.4452845,-5.276079 7.2953255,-5.276567 0.705541,0.0042 1.411814,0.0065 2.117356,0.0065 0.705541,0 1.405329,-0.0021 2.107847,-0.0065 1.85009,0 4.264603,5.277542 7.295813,5.277542 0.06514,0 0.130098,-0.0027 0.19581,-0.0074 1.615446,-0.113143 4.128027,-1.774508 4.047468,-4.24383 z m -4.189366,2.222487 c -0.0038,0 -0.0068,0 -0.01067,5.71e-4 -0.01447,0.0012 -0.02876,0.0015 -0.04324,0.0015 -0.272571,0 -0.68116,-0.204192 -1.149326,-0.575443 -0.624011,-0.494499 -1.262845,-1.199455 -1.880566,-1.881152 -1.31468,-1.450678 -2.556217,-2.820215 -4.266115,-2.8208 h -0.01219 c -0.695448,0.0042 -1.400599,0.0059 -2.095997,0.0059 -0.695448,0 -1.40689,-0.0021 -2.105166,-0.0065 h -0.01219 c -1.709362,0 -2.951434,1.370122 -4.2661155,2.8208 -0.617525,0.68155 -1.256604,1.386117 -1.880567,1.880566 -0.468195,0.371243 -0.876209,0.575444 -1.14879,0.575444 -0.01448,0 -0.02876,-5.7e-4 -0.04267,-0.0015 -0.0038,0 -0.0074,-5.71e-4 -0.01124,-0.0012 -0.663411,-0.04644 -2.164802,-0.925332 -2.164217,-2.199979 0.05981,-3.303449 0.432004,-6.71798 1.137527,-10.437079 0.173335,-0.867237 0.619817,-1.664013 1.258651,-2.244771 0.700763,-0.637324 1.621932,-1.002651 2.663445,-1.057557 0.05124,-0.0021 0.101334,-0.0033 0.149905,-0.0033 0.6139175,0 0.9765635,0.156191 1.5775585,0.415431 0.80648,0.347811 1.910507,0.82457 3.653368,0.82457 h 0.09124 c 0.364766,-0.0021 0.734458,-0.0032 1.099248,-0.0032 0.364766,0 0.728557,0.0012 1.090081,0.0032 h 0.09124 c 1.742862,0 2.846889,-0.476764 3.652782,-0.82457 0.600557,-0.25924 0.963251,-0.416001 1.578095,-0.416001 0.04857,0 0.09924,0.0012 0.150475,0.0033 2.360582,0.124763 3.572812,1.794696 3.924243,3.328611 0.703445,3.714711 1.074091,7.125145 1.133333,10.425376 0,0.01009 0,0.01981 5.75e-4,0.02991 0.04,1.224031 -1.501932,2.109944 -2.163831,2.15622 z"
       id="path1617"
       style="fill:#e1e1e1;fill-opacity:1;stroke-width:0.0487623" />
    <path
       d="m 12.483462,12.672079 h -1.511436 v -1.511436 c 0,-0.559449 -0.453908,-1.013329 -1.01333,-1.013329 -0.5594195,0 -1.0133285,0.453909 -1.0133285,1.013329 v 1.511436 h -1.511436 c -0.559449,0 -1.013329,0.453909 -1.013329,1.013329 0,0.55945 0.453909,1.013329 1.013329,1.013329 h 1.511436 v 1.511436 c 0,0.55945 0.453909,1.013329 1.0133285,1.013329 0.559422,0 1.01333,-0.453909 1.01333,-1.013329 v -1.511436 h 1.511436 c 0.55945,0 1.013329,-0.453908 1.013329,-1.013329 0,-0.559449 -0.453909,-1.013329 -1.013329,-1.013329 z"
       id="path1619"
       style="fill:#af905e;fill-opacity:1;stroke-width:0.0487623" />
  </g>
</svg>
