<?xml version="1.0" encoding="UTF-8" standalone="no"?>
<svg
   width="32"
   height="32"
   x="0"
   y="0"
   version="1.1"
   xml:space="preserve"
   id="svg1459"
   sodipodi:docname="thunderbird-symbolic.svg"
   inkscape:version="1.3.2 (091e20ef0f, 2023-11-25)"
   xmlns:inkscape="http://www.inkscape.org/namespaces/inkscape"
   xmlns:sodipodi="http://sodipodi.sourceforge.net/DTD/sodipodi-0.dtd"
   xmlns="http://www.w3.org/2000/svg"
   xmlns:svg="http://www.w3.org/2000/svg"><defs
   id="defs1463">
  
  
  
 
  
  
  
 </defs><sodipodi:namedview
   id="namedview1461"
   pagecolor="#02334b"
   bordercolor="#000000"
   borderopacity="1"
   inkscape:showpageshadow="2"
   inkscape:pageopacity="0"
   inkscape:pagecheckerboard="true"
   inkscape:deskcolor="#02334b"
   showgrid="true"
   inkscape:zoom="10.429825"
   inkscape:cx="15.628258"
   inkscape:cy="16.395289"
   inkscape:window-width="1920"
   inkscape:window-height="996"
   inkscape:window-x="0"
   inkscape:window-y="0"
   inkscape:window-maximized="1"
   inkscape:current-layer="svg1459"><inkscape:grid
     type="xygrid"
     id="grid1674"
     originx="-13.672213"
     originy="-20.158625"
     spacingy="1"
     spacingx="1"
     units="px"
     visible="true" /></sodipodi:namedview>
 
 
<g
   id="thunderbird-6"><rect
     style="opacity:0.00100002;fill:#bac8df;fill-opacity:1"
     width="32"
     height="32"
     x="0"
     y="0"
     id="rect9" /><path
     style="fill:#e1e1e1;fill-opacity:1;stroke:none;stroke-width:0.0545455;stroke-linecap:round;stroke-linejoin:round;stroke-miterlimit:4;stroke-dasharray:none;stroke-opacity:1"
     d="m 28,16 c 0,6.62744 -5.372583,12 -12,12 5.180235,-1.38802 8.727273,-7.63636 9.272727,-10.36364 -1.604013,1.203 -10.141397,4.62415 -14.22553,4.62415 -1.148981,0 -1.988435,0.23034 0.584708,4.68714 C 10.180753,26.5588 8.330088,25.23858 8.019993,24.96225 5.553393,22.76445 4,19.56362 4,16 4,9.37256 9.372583,4 16,4 22.627417,4 28,9.37256 28,16"
     id="path4135"
     inkscape:connector-curvature="0"
     sodipodi:nodetypes="cccccsssc" /><rect
     style="fill:#404040;fill-opacity:1;stroke:none;stroke-width:0.0545455;stroke-linecap:round;stroke-linejoin:round;stroke-miterlimit:4;stroke-dasharray:none;stroke-opacity:1"
     id="rect4137"
     width="18.553415"
     height="12.368943"
     x="8.6103315"
     y="10.14634"
     rx="1.6363636"
     ry="1.6363636"
     transform="rotate(7.0825502)" /><path
     style="color:#000000;font-style:normal;font-variant:normal;font-weight:normal;font-stretch:normal;font-size:medium;line-height:normal;font-family:sans-serif;text-indent:0;text-align:start;text-decoration:none;text-decoration-line:none;text-decoration-style:solid;text-decoration-color:#000000;letter-spacing:normal;word-spacing:normal;text-transform:none;writing-mode:lr-tb;direction:ltr;baseline-shift:baseline;text-anchor:start;white-space:normal;clip-rule:nonzero;display:inline;overflow:visible;visibility:visible;isolation:auto;mix-blend-mode:normal;color-interpolation:sRGB;color-interpolation-filters:linearRGB;solid-color:#000000;solid-opacity:1;fill:#af905e;fill-opacity:1;fill-rule:evenodd;stroke:none;stroke-width:1.09091;stroke-linecap:butt;stroke-linejoin:miter;stroke-miterlimit:4;stroke-dasharray:none;stroke-dashoffset:0;stroke-opacity:1;color-rendering:auto;image-rendering:auto;shape-rendering:auto;text-rendering:auto;enable-background:accumulate"
     d="m 25.785143,12.77069 c -3.011666,1.57958 -6.144087,3.52631 -7.893463,4.41507 -1.749376,0.88877 -2.687075,1.38693 -3.499354,1.38693 -0.812279,0 -1.322557,-0.42169 -2.071988,-1.17114 -0.749433,-0.74946 -3.888406,-3.6167 -5.232178,-4.61755 1.499972,1.70095 4.574506,5.08822 5.229439,5.81869 0.654934,0.73047 1.198074,0.94353 2.078904,0.94353 0.88083,0 1.88173,-0.45677 3.830948,-1.55553 1.949218,-1.09876 5.51027,-3.35984 7.557692,-5.22 z"
     id="path4139"
     inkscape:connector-curvature="0"
     sodipodi:nodetypes="czzzczzzc" /><path
     style="fill:#e1e1e1;fill-opacity:1;fill-rule:evenodd;stroke:none;stroke-width:0.545455px;stroke-linecap:butt;stroke-linejoin:miter;stroke-opacity:1"
     d="m 16,12.18182 c 0,0 4.658822,0.47771 5.405239,3.2634 0.746419,2.78563 -1.563234,6.08623 -1.563234,6.08623 5.65639,-3.26574 4.787099,-8.99961 4.339813,-10.986"
     id="path4153"
     inkscape:connector-curvature="0"
     sodipodi:nodetypes="czcc" /><path
     style="fill:#e1e1e1;fill-opacity:1;fill-rule:evenodd;stroke:none;stroke-width:0.545455px;stroke-linecap:butt;stroke-linejoin:miter;stroke-opacity:1"
     d="m 22.034091,10.375 c 0,0 0.607787,3.59629 0.607787,5.66138 0,2.06515 0.276115,5.65926 -2.278242,8.21362 6.12141,-1.64018 6,-6.05984 6,-12.61364 z"
     id="path4155"
     inkscape:connector-curvature="0"
     sodipodi:nodetypes="czccc" /><path
     style="fill:#af905e;fill-opacity:1;fill-rule:evenodd;stroke:none;stroke-width:0.545455px;stroke-linecap:butt;stroke-linejoin:miter;stroke-opacity:1"
     d="m 7.280801,23.09222 16.231518,1.56573 c 0,0 -0.351038,0.28161 -0.534934,0.41749 -0.183896,0.13587 -0.56829,0.39719 -0.56829,0.39719 L 7.660678,23.64018 Z"
     id="path4229"
     inkscape:connector-curvature="0"
     sodipodi:nodetypes="cczccc" /><path
     style="fill:#e1e1e1;fill-opacity:1;fill-rule:evenodd;stroke:none;stroke-width:0.545455px;stroke-linecap:butt;stroke-linejoin:miter;stroke-opacity:1"
     d="m 9.487633,23.63636 c 0,0 -4.942178,-3.81818 -4.942178,-8.72727 0,-4.90909 1.636363,-4.36364 1.636363,-4.36364 l 3.272728,1.09091 c 0,0 -2.181819,-1.13492 -2.181819,3.81819 0,4.9531 2.214906,8.18181 2.214906,8.18181 z"
     id="path4166"
     inkscape:connector-curvature="0"
     sodipodi:nodetypes="czcczc" /><path
     style="fill:#e1e1e1;fill-opacity:1;fill-rule:evenodd;stroke:none;stroke-width:0.545455px;stroke-linecap:butt;stroke-linejoin:miter;stroke-opacity:1"
     d="M 12.187363,27.37818 C 10.672843,26.97242 7.338225,24.99804 5.701924,22.16385 4.065622,19.32967 4.545455,14.90909 4.545455,14.90909 l 2.727278,-0.55434 c 0,0 -1.174044,3.62383 -0.633001,6.63169 0.541043,3.00791 1.104026,2.78334 5.547631,6.39174 z"
     id="path4170"
     inkscape:connector-curvature="0"
     sodipodi:nodetypes="czcczc" /><ellipse
     style="fill:#e1e1e1;fill-opacity:1;stroke:none;stroke-width:0.545455;stroke-linecap:round;stroke-linejoin:round;stroke-miterlimit:4;stroke-dasharray:none;stroke-opacity:1"
     id="path4174"
     cx="6.9647541"
     cy="16.405333"
     rx="2.869699"
     ry="2.4308035"
     transform="rotate(-30)" /><path
     style="fill:#e1e1e1;fill-opacity:1;fill-rule:evenodd;stroke:none;stroke-width:0.545455px;stroke-linecap:butt;stroke-linejoin:miter;stroke-opacity:1"
     d="m 11.636364,11.63636 c 0.292307,1.09091 0,3.27273 0.660894,4.28073 1.520924,-1.52094 3.157288,-3.18982 4.793651,-4.28073 z"
     id="path4176"
     inkscape:connector-curvature="0"
     sodipodi:nodetypes="cccc" /><path
     style="fill:#e1e1e1;fill-opacity:1;fill-rule:evenodd;stroke:none;stroke-width:0.545455px;stroke-linecap:butt;stroke-linejoin:miter;stroke-opacity:1"
     d="m 7.272727,17.63636 c 0,0 -0.163636,-2.72727 1.636364,-4.36363 1.8,-1.63637 3.818182,-1.65344 3.818182,-1.65344 L 6.471591,9.13065 Z"
     id="path4178"
     inkscape:connector-curvature="0"
     sodipodi:nodetypes="czccc" /><circle
     style="fill:#e6e6e6;fill-opacity:1;stroke:none;stroke-width:0.545455;stroke-linecap:round;stroke-linejoin:round;stroke-miterlimit:4;stroke-dasharray:none;stroke-opacity:1"
     id="path4180"
     cx="13.54399"
     cy="11.363629"
     r="0.27272728" /><path
     style="fill:#ffffff;fill-opacity:0;stroke:none;stroke-width:0.545455;stroke-linecap:round;stroke-linejoin:round;stroke-miterlimit:4;stroke-dasharray:none;stroke-opacity:1"
     d="M 28,16 C 28,10.54545 22.627417,4.54545 16,4.54545 9.372583,4.54545 4,10.54545 4,16 4,9.37256 9.372583,4 16,4 22.627417,4 28,9.37256 28,16 Z"
     id="path4188-9"
     inkscape:connector-curvature="0"
     sodipodi:nodetypes="cscsc" /><path
     style="fill:#af905e;fill-opacity:1;stroke:none;stroke-width:0.545455;stroke-linecap:round;stroke-linejoin:round;stroke-miterlimit:4;stroke-dasharray:none;stroke-opacity:1"
     d="m 16,28 c 6.627417,0 12,-5.37256 12,-12 0,4.95644 -4.436092,10.3632 -10.218791,11.3094 0,0 -0.540365,0.26274 -0.837406,0.3786 C 16.646762,27.80386 16,28 16,28 Z M 11.350566,26.44147 C 7.032142,24.50325 4,20.09773 4,16 c 0,5.29724 3.432342,9.79276 8.194355,11.38402 l -0.572316,-0.46129 z"
     id="path4188-9-2"
     inkscape:connector-curvature="0"
     sodipodi:nodetypes="ccczcccccc" /><path
     d="m 14.299995,11.949995 c 0,0.414417 -0.335585,0.750005 -0.75,0.750005 C 13.135935,12.7 12.8,12.364413 12.8,11.949995 12.8,11.535933 13.135935,11.2 13.549995,11.2 c 0.414415,0 0.75,0.335933 0.75,0.749995 z"
     id="path72-3-3-3"
     style="color:#e5e9ef;fill:#211c12;fill-opacity:1;stroke-width:0.0089288"
     class="ColorScheme-Text" /></g></svg>
