<?xml version="1.0" encoding="UTF-8" standalone="no"?>
<svg
   width="32"
   height="32"
   version="1.1"
   id="svg1"
   sodipodi:docname="yakuake-symbolic.svg"
   inkscape:version="1.3.2 (091e20ef0f, 2023-11-25)"
   xmlns:inkscape="http://www.inkscape.org/namespaces/inkscape"
   xmlns:sodipodi="http://sodipodi.sourceforge.net/DTD/sodipodi-0.dtd"
   xmlns="http://www.w3.org/2000/svg"
   xmlns:svg="http://www.w3.org/2000/svg">
  <defs
     id="defs1" />
  <sodipodi:namedview
     id="namedview1"
     pagecolor="#ffffff"
     bordercolor="#999999"
     borderopacity="1"
     inkscape:showpageshadow="2"
     inkscape:pageopacity="0"
     inkscape:pagecheckerboard="0"
     inkscape:deskcolor="#d1d1d1"
     inkscape:zoom="6.122902"
     inkscape:cx="15.842161"
     inkscape:cy="-10.125917"
     inkscape:window-width="1920"
     inkscape:window-height="996"
     inkscape:window-x="0"
     inkscape:window-y="0"
     inkscape:window-maximized="1"
     inkscape:current-layer="svg1" />
  <style
     type="text/css"
     id="current-color-scheme">.ColorScheme-Background{color:#181818;}.ColorScheme-ButtonBackground{color:#343434;}.ColorScheme-Highlight{color:#1a73e8;}.ColorScheme-Text{color:#232629;}.ColorScheme-ViewBackground{color:#242424;}.ColorScheme-NegativeText { color: #ff4747; } </style>
  <g
     id="yakuake-3">
    <rect
       id="rect11-5"
       width="32"
       height="32"
       opacity="0.00100002"
       style="fill:#fcfcfc;fill-opacity:1"
       x="0"
       y="0" />
    <path
       id="rect43"
       class="ColorScheme-Text"
       d="M 4,8 V 8 H 28 V 8 Z M 27,8 V 24 H 5 V 8 H 3 v 16 c 0,1 1,2 2,2 h 22 c 1,0 2,-1 2,-2 V 8 Z"
       fill-opacity=".3"
       style="color:#d1d5e9;fill:#e1e1e1;fill-opacity:0.6"
       sodipodi:nodetypes="cccccccccccccccc" />
    <path
       id="rect63"
       class="ColorScheme-Text"
       d="m 3,6 h 26 c 1,0 1,1 1,1 v 0 c 0,0 0,1 -1,1 H 3 C 2,8 2,7 2,7 V 7 C 2,7 2,6 3,6 Z"
       style="color:#d1d5e9;fill:#e1e1e1;fill-opacity:1;stroke-width:0.925815"
       sodipodi:nodetypes="scsssssss" />
    <path
       d="m 12.790732,15.931437 4.835756,-4.504991 c 1.238195,-1.145114 2.560012,0.253091 1.330287,1.407149 l -4.835756,4.505011 c -1.238257,1.145051 -2.560024,-0.253091 -1.330287,-1.407169 z m 5.101807,-4.223575 z"
       id="path8-6-7-36-2-9"
       style="color:#d6dbf1;fill:#e1e1e1;fill-opacity:0.6;stroke-width:0.221869"
       sodipodi:nodetypes="cccccccccc"
       class="ColorScheme-Text" />
    <path
       d="m 16.245654,20 h 6.508691 c 1.660873,0.0063 1.660873,1.993619 0,2 h -6.508691 c -1.660872,-0.0063 -1.660872,-1.993619 0,-2 z m 6.508691,0.399995 z"
       id="path8-6-7-36-2-9-3"
       style="color:#d6dbf1;fill:#af905e;fill-opacity:1;stroke-width:0.223758"
       sodipodi:nodetypes="cccccccccc"
       class="ColorScheme-Text" />
    <path
       d="m 14.790987,16.492286 c 2.68e-4,0.158754 -0.06321,0.311081 -0.176413,0.423228 l -4.797338,4.76219 C 8.8221979,22.657069 7.3380769,21.183803 8.3246859,20.196072 L 12.056116,16.492286 8.3246859,12.788501 c -0.411029,-0.409612 -0.411029,-1.072032 0,-1.481628 v 0 c 0.412147,-0.409164 1.0804031,-0.409164 1.4925501,0 l 4.797338,4.762164 c 0.113177,0.112165 0.176682,0.264488 0.176413,0.423249 z m -0.602771,0 z"
       id="path4-3-9-2-3-6"
       style="color:#d6dbf1;fill:#af905e;fill-opacity:1;stroke-width:0.30043"
       sodipodi:nodetypes="ccccccsscccccccccccc"
       class="ColorScheme-Text" />
  </g>
</svg>
