<svg height="32" width="32" xmlns="http://www.w3.org/2000/svg" xmlns:xlink="http://www.w3.org/1999/xlink">
  <filter id="a" color-interpolation-filters="sRGB" height="1.444" width="1.444" x="-.222" y="-.222">
    <feGaussianBlur stdDeviation="1.2025"/>
  </filter>
  <filter id="b" color-interpolation-filters="sRGB" height="1.2716" width="1.4405" x="-.22025" y="-.13579">
    <feGaussianBlur stdDeviation="1.1924025"/>
  </filter>
  <path d="m3.8125 3.919c-.46695.055-.823.4979-.8125 1.0938v16c.00005.5236.47642 1 1 1h3.5938l2.6875 2.6875c.29466.2953.78338.3745 1.1562.1875l1-.5c.32794-.1594.55359-.5105.5625-.875v-3.5938l2.7188-2.7187c.36548-.3697.36548-1.0366 0-1.4063l-11-11.5c-.3075-.3075-.62608-.408-.90625-.375z" filter="url(#b)" opacity=".2"/>
  <path d="m20.5 17.013c-3.5898 0-6.5 2.9102-6.5 6.5s2.9102 6.5 6.5 6.5 6.5-2.9102 6.5-6.5-2.9102-6.5-6.5-6.5z" filter="url(#a)" opacity=".2"/>
  <path d="m3 4.0128v16c.00005.5236.47642 1 1 1h3.5938l2.6875 2.6875c.29466.2953.78338.3745 1.1562.1875l1-.5c.32794-.1594.55359-.5105.5625-.875v-3.5938l2.7188-2.7187c.36548-.3697.36548-1.0366 0-1.4063l-11-11.5c-.81999-.8199-1.7356-.2346-1.7188.7188z" fill="#d8dee9"/>
  <path d="m4 20v-16l11 11.5-3 3v4l-1 .5-3-3z" fill="#3b4252"/>
  <path d="m14.871 19.25a6.5 6.5 0 0 1 8.8792-2.3792 6.5 6.5 0 0 1 2.3792 8.8792 6.5 6.5 0 0 1 -8.8792 2.3792 6.5 6.5 0 0 1 -2.3792-8.8792z" fill="#3b4252"/>
  <g fill="#8fbcbb">
    <path d="m18.244 27.533c2.3838 1.0713 5.2146.28466 6.7333-1.85l-3.5554.22066.031-.05369c-.87652.2468-1.8454.16142-2.6963-.32985-1.6289-.94044-2.2192-2.9935-1.3592-4.6458l-2.1791.14926c-.64947 2.3559.32326 4.9498 2.5383 6.2286.16442.09492.31752.20526.48714.28125z"/>
    <path d="m23.616 24.103 2.179-.14918c.64947-2.3559-.32326-4.9498-2.5383-6.2286-2.4753-1.4291-5.5948-.71222-7.2204 1.5686l3.5554-.22057-.031.05369c.87652-.2468 1.8454-.16142 2.6963.32985 1.6289.94044 2.2192 2.9935 1.3592 4.6457z"/>
  </g>
</svg>
