<svg height="32" width="32" xmlns="http://www.w3.org/2000/svg" xmlns:xlink="http://www.w3.org/1999/xlink">
  <filter id="a" color-interpolation-filters="sRGB" height="1.444" width="1.444" x="-.222" y="-.222">
    <feGaussianBlur stdDeviation="1.2025"/>
  </filter>
  <filter id="b" color-interpolation-filters="sRGB" height="1.2716" width="1.4405" x="-.22025" y="-.13579">
    <feGaussianBlur stdDeviation="1.1924025"/>
  </filter>
  <path d="m3.8125 3.919c-.46695.055-.823.4979-.8125 1.0938v16c.00005.5236.47642 1 1 1h3.5938l2.6875 2.6875c.29466.2953.78338.3745 1.1562.1875l1-.5c.32794-.1594.55359-.5105.5625-.875v-3.5938l2.7188-2.7187c.36548-.3697.36548-1.0366 0-1.4063l-11-11.5c-.3075-.3075-.62608-.408-.90625-.375z" filter="url(#b)" opacity=".2"/>
  <path d="m20.5 17.013c-3.5898 0-6.5 2.9102-6.5 6.5s2.9102 6.5 6.5 6.5 6.5-2.9102 6.5-6.5-2.9102-6.5-6.5-6.5z" filter="url(#a)" opacity=".2"/>
  <path d="m3 4.0128v16c.00005.5236.47642 1 1 1h3.5938l2.6875 2.6875c.29466.2953.78338.3745 1.1562.1875l1-.5c.32794-.1594.55359-.5105.5625-.875v-3.5938l2.7188-2.7187c.36548-.3697.36548-1.0366 0-1.4063l-11-11.5c-.81999-.8199-1.7356-.2346-1.7188.7188z" fill="#d8dee9"/>
  <path d="m4 20v-16l11 11.5-3 3v4l-1 .5-3-3z" fill="#3b4252"/>
  <path d="m14.221 20.818a6.5 6.5 0 0 1 7.9608-4.5962 6.5 6.5 0 0 1 4.5962 7.9608 6.5 6.5 0 0 1 -7.9608 4.5962 6.5 6.5 0 0 1 -4.5962-7.9608z" fill="#3b4252"/>
  <g fill="#8fbcbb">
    <path d="m19.623 27.946c2.5798.41785 5.1106-1.0747 6.0251-3.5297l-3.3772 1.1333.01605-.05989c-.78278.46526-1.7407.63355-2.6898.37925-1.8168-.4868-2.9183-2.3172-2.5153-4.1357l-2.0662.70816c-.01759 2.4437 1.5933 4.6974 4.0639 5.3594.18338.04914.35983.11609.54333.14559z"/>
    <path d="m23.924 23.243 2.0662-.70806c.01759-2.4437-1.5933-4.6974-4.0639-5.3594-2.7608-.73977-5.5885.76009-6.5684 3.384l3.3771-1.1332-.01605.05989c.78278-.46525 1.7408-.63355 2.6898-.37925 1.8168.4868 2.9183 2.3172 2.5153 4.1356z"/>
  </g>
</svg>
