<svg height="32" width="32" xmlns="http://www.w3.org/2000/svg" xmlns:xlink="http://www.w3.org/1999/xlink">
  <filter id="a" color-interpolation-filters="sRGB" height="1.444" width="1.444" x="-.222" y="-.222">
    <feGaussianBlur stdDeviation="1.2025"/>
  </filter>
  <filter id="b" color-interpolation-filters="sRGB" height="1.2716" width="1.4405" x="-.22025" y="-.13579">
    <feGaussianBlur stdDeviation="1.1924025"/>
  </filter>
  <path d="m3.8125 3.919c-.46695.055-.823.4979-.8125 1.0938v16c.00005.5236.47642 1 1 1h3.5938l2.6875 2.6875c.29466.2953.78338.3745 1.1562.1875l1-.5c.32794-.1594.55359-.5105.5625-.875v-3.5938l2.7188-2.7187c.36548-.3697.36548-1.0366 0-1.4063l-11-11.5c-.3075-.3075-.62608-.408-.90625-.375z" filter="url(#b)" opacity=".2"/>
  <path d="m20.5 17.013c-3.5898 0-6.5 2.9102-6.5 6.5s2.9102 6.5 6.5 6.5 6.5-2.9102 6.5-6.5-2.9102-6.5-6.5-6.5z" filter="url(#a)" opacity=".2"/>
  <path d="m3 4.0128v16c.00005.5236.47642 1 1 1h3.5938l2.6875 2.6875c.29466.2953.78338.3745 1.1562.1875l1-.5c.32794-.1594.55359-.5105.5625-.875v-3.5938l2.7188-2.7187c.36548-.3697.36548-1.0366 0-1.4063l-11-11.5c-.81999-.8199-1.7356-.2346-1.7188.7188z" fill="#d8dee9"/>
  <path d="m4 20v-16l11 11.5-3 3v4l-1 .5-3-3z" fill="#3b4252"/>
  <path d="m14 22.5a6.5 6.5 0 0 1 6.5-6.5 6.5 6.5 0 0 1 6.5 6.5 6.5 6.5 0 0 1 -6.5 6.5 6.5 6.5 0 0 1 -6.5-6.5z" fill="#3b4252"/>
  <g fill="#8fbcbb">
    <path d="m21.062 27.987c2.6001-.2641 4.6583-2.3608 4.9062-4.9688l-2.9688 1.9688v-.062c-.63569.652-1.5175 1.0625-2.5 1.0625-1.8809 0-3.4186-1.4829-3.5-3.3438l-1.8125 1.2188c.61549 2.365 2.7548 4.125 5.3125 4.125.18985 0 .37761.019.5625 0z"/>
    <path d="m24 22.331 1.8125-1.2187c-.61549-2.365-2.7548-4.125-5.3125-4.125-2.8582 0-5.2014 2.1806-5.4688 4.9687l2.9688-1.9687v.062c.63569-.652 1.5175-1.0625 2.5-1.0625 1.8809 0 3.4186 1.4829 3.5 3.3437z"/>
  </g>
</svg>
