<svg height="32" width="32" xmlns="http://www.w3.org/2000/svg" xmlns:xlink="http://www.w3.org/1999/xlink">
  <filter id="a" color-interpolation-filters="sRGB" height="7.7058" width="7.6696" x="-3.3348" y="-3.3529">
    <feGaussianBlur stdDeviation="1.3970381"/>
  </filter>
  <filter id="b" color-interpolation-filters="sRGB" height="1.324" width="1.324" x="-.16201" y="-.16199">
    <feGaussianBlur stdDeviation="1.214916"/>
  </filter>
  <path d="m13.875 13.013c-.22185.024-.43465.12479-.59375.28125l-3 3c-.82322.82322-2.2203 1.5569-3.4062 2.0312s-2.125.71875-2.125.71875c-.42557.10992-.75019.52922-.75.96875v3c0 .66667-.45458 2.1677-.9375 3.375s-.96875 2.1875-.96875 2.1875c-.29604.60868.22941 1.4422.90625 1.4375-.005.67684.82882 1.2023 1.4375.90625 0 0 .98019-.48583 2.1875-.96875s2.7083-.9375 3.375-.9375h3c.43953.00019.85883-.32443.96875-.75 0 0 .24436-.93903.71875-2.125s1.208-2.583 2.0312-3.4062l3-3c.38424-.37177.38424-1.0657 0-1.4375l-5-5c-.21786-.21661-.53949-.32383-.84375-.28125z" filter="url(#b)" opacity=".2"/>
  <path d="m11.5 21.013c.28799 0 .5.21201.5.5s-.21201.5-.5.5c-.0483 0-.12202-.0213-.15625-.0312-.0916-.0236-.18665-.0342-.28125-.0312-.004-.10661-.0252-.21256-.0625-.3125-.0122-.0383 0-.0367 0-.125 0-.28799.21201-.5.5-.5z" filter="url(#a)" opacity=".6"/>
  <path d="m13.875 12.013c-.22185.024-.43465.12479-.59375.28125l-3 3c-.82322.82322-2.2203 1.5569-3.4062 2.0312s-2.125.71875-2.125.71875c-.42557.10992-.75019.52922-.75.96875v3c0 .66667-.45458 2.1677-.9375 3.375s-.96875 2.1875-.96875 2.1875c-.29604.60868.22941 1.4422.90625 1.4375-.005.67684.82882 1.2023 1.4375.90625 0 0 .98019-.48583 2.1875-.96875s2.7083-.9375 3.375-.9375h3c.43953.00019.85883-.32443.96875-.75 0 0 .24436-.93903.71875-2.125s1.208-2.583 2.0312-3.4062l3-3c.38424-.37177.38424-1.0657 0-1.4375l-5-5c-.21786-.21661-.53949-.32383-.84375-.28125z" fill="#d8dee9"/>
  <path d="m14 13.013-3 3c-2 2-6 3-6 3v3c0 2-2 6-2 6l7.0625-7.0625c-.04572-.14363-.0625-.27872-.0625-.4375 0-.82843.67157-1.5 1.5-1.5s1.5.67157 1.5 1.5-.67157 1.5-1.5 1.5c-.14843 0-.3021-.0223-.4375-.0625l-7.0625 7.0625s4-2 6-2h3s1-4 3-6l3-3z" fill="#3b4252"/>
</svg>
