<?xml version="1.0" encoding="UTF-8"?>
<svg width="48px" height="48px" viewBox="0 0 48 48" version="1.1" xmlns="http://www.w3.org/2000/svg" xmlns:xlink="http://www.w3.org/1999/xlink">
    <title>apps/48/dde-calendar</title>
    <defs>
        <filter x="-9.1%" y="-6.3%" width="120.0%" height="122.5%" filterUnits="objectBoundingBox" id="filter-1">
            <feOffset dx="-0.139173101" dy="0.990268069" in="SourceAlpha" result="shadowOffsetOuter1"></feOffset>
            <feGaussianBlur stdDeviation="1" in="shadowOffsetOuter1" result="shadowBlurOuter1"></feGaussianBlur>
            <feColorMatrix values="0 0 0 0 0   0 0 0 0 0   0 0 0 0 0  0 0 0 0.2 0" type="matrix" in="shadowBlurOuter1" result="shadowMatrixOuter1"></feColorMatrix>
            <feMerge>
                <feMergeNode in="shadowMatrixOuter1"></feMergeNode>
                <feMergeNode in="SourceGraphic"></feMergeNode>
            </feMerge>
        </filter>
        <radialGradient cx="54.3240802%" cy="55.7793187%" fx="54.3240802%" fy="55.7793187%" r="61.9606804%" gradientTransform="translate(0.5432, 0.5578), scale(1, 0.8804), rotate(-144.9375), scale(1, 1.2647), translate(-0.5432, -0.5578)" id="radialGradient-2">
            <stop stop-color="#000000" offset="0%"></stop>
            <stop stop-color="#000000" stop-opacity="0.148218969" offset="100%"></stop>
        </radialGradient>
        <path d="M19.03125,28.8125 L19.03125,26.7065051 L13.3129513,26.7065051 L18.1278204,20.7815051 C18.7301068,20.0291241 19.03125,19.1692602 19.03125,18.2019133 C19.0175617,16.9927296 18.6034898,15.9951531 17.7890343,15.2091837 C16.9882671,14.4164966 15.9445322,14.0134354 14.6578294,14 C13.5080099,14.0134354 12.5395608,14.4097789 11.7524819,15.1890306 C10.9722473,15.9884354 10.5547533,16.9994473 10.5,18.2220663 L10.5,18.2220663 L12.6353791,18.2220663 C12.7106649,17.5502976 12.9502106,17.0296769 13.3540162,16.6602041 C13.7441336,16.2907313 14.2334913,16.1059949 14.8220894,16.1059949 C15.4859732,16.1194303 15.9992855,16.3310374 16.3620262,16.7408163 C16.7110785,17.1505952 16.8856047,17.6309099 16.8856047,18.1817602 C16.8856047,18.3900085 16.858228,18.6116922 16.8034747,18.8468112 C16.7213448,19.0953656 16.5673511,19.3640731 16.3414937,19.6529337 L16.3414937,19.6529337 L10.5,26.8274235 L10.5,28.8125 L19.03125,28.8125 Z M24.8286145,28.71875 L29.90625,16.1098894 L29.90625,14 L21.375,14 L21.375,18.2399691 L23.5232304,18.2399691 L23.5232304,16.1098894 L27.5010542,16.1098894 L22.4336973,28.71875 L24.8286145,28.71875 Z" id="path-3"></path>
        <filter x="-18.0%" y="-16.9%" width="136.1%" height="147.3%" filterUnits="objectBoundingBox" id="filter-4">
            <feOffset dx="0" dy="1" in="SourceAlpha" result="shadowOffsetOuter1"></feOffset>
            <feGaussianBlur stdDeviation="1" in="shadowOffsetOuter1" result="shadowBlurOuter1"></feGaussianBlur>
            <feColorMatrix values="0 0 0 0 0.000854821203   0 0 0 0 0.168099661   0 0 0 0 0.309386322  0 0 0 0.2 0" type="matrix" in="shadowBlurOuter1"></feColorMatrix>
        </filter>
        <linearGradient x1="69.7602459%" y1="71.0965544%" x2="56.9833471%" y2="57.7013487%" id="linearGradient-5">
            <stop stop-color="#C6C6C6" offset="0%"></stop>
            <stop stop-color="#E7E7E7" offset="53.0517663%"></stop>
            <stop stop-color="#F4F4F4" offset="100%"></stop>
        </linearGradient>
        <path d="M40,27 C40,27 39.3996933,30.3576945 38.71875,31.453125 C37.640625,33.1875 36.84375,32.53125 35.34375,34.359375 C33.84375,36.1875 34.875,36.515625 32.625,38.4375 C31.4192178,39.4674389 28.5,40 28.5,40 C37.828125,40 40,32.015625 40,27 Z" id="path-6"></path>
        <filter x="-17.4%" y="-7.7%" width="134.8%" height="130.8%" filterUnits="objectBoundingBox" id="filter-7">
            <feOffset dx="0" dy="1" in="SourceAlpha" result="shadowOffsetOuter1"></feOffset>
            <feGaussianBlur stdDeviation="0.5" in="shadowOffsetOuter1" result="shadowBlurOuter1"></feGaussianBlur>
            <feColorMatrix values="0 0 0 0 0   0 0 0 0 0   0 0 0 0 0  0 0 0 0.05 0" type="matrix" in="shadowBlurOuter1"></feColorMatrix>
        </filter>
    </defs>
    <g id="apps/48/dde-calendar" stroke="none" fill="none">
        <g id="编组-2" filter="url(#filter-1)" stroke-width="1" fill-rule="evenodd" transform="translate(24, 24) rotate(-8) translate(-24, -24)translate(4, 4)">
            <g id="编组" transform="translate(0, -0)">
                <rect id="矩形备份-2" fill="#FFFFFF" x="1.83238302e-12" y="-8.34160489e-14" width="40" height="40" rx="7.3125"></rect>
                <path d="M39.9991205,27.5050288 L40,32.6875 C40,36.7260822 36.7260822,40 32.6875,40 L29,40 C32.7583333,39.5404412 35.4013889,38.0851716 36.9291667,35.6341912 C38.4560827,33.1845933 39.4794006,30.4748725 39.9991205,27.5050288 Z" id="形状结合" fill-opacity="0.39" fill="url(#radialGradient-2)"></path>
                <g id="MARCH" transform="translate(8.5, 2.5)" fill="#E06164" fill-rule="nonzero">
                    <path d="M0.6365625,8 L1.3190625,8 L1.3190625,5.61125 C1.3190625,5.178125 1.26,4.5546875 1.2271875,4.115 L1.2534375,4.115 L1.6340625,5.230625 L2.480625,7.5340625 L2.953125,7.5340625 L3.793125,5.230625 L4.1803125,4.115 L4.2065625,4.115 C4.1671875,4.5546875 4.108125,5.178125 4.108125,5.61125 L4.108125,8 L4.816875,8 L4.816875,3.1634375 L3.9375,3.1634375 L3.0646875,5.61125 C2.953125,5.9328125 2.86125,6.2609375 2.7496875,6.5825 L2.716875,6.5825 C2.6053125,6.2609375 2.506875,5.9328125 2.3953125,5.61125 L1.509375,3.1634375 L0.6365625,3.1634375 L0.6365625,8 Z" id="路径"></path>
                    <path d="M7.00875,5.375 C7.16625,4.85 7.3171875,4.3184375 7.455,3.7671875 L7.4878125,3.7671875 C7.6321875,4.311875 7.7765625,4.85 7.940625,5.375 L8.1309375,6.0246875 L6.811875,6.0246875 L7.00875,5.375 Z M5.446875,8 L6.22125,8 L6.6346875,6.621875 L8.3146875,6.621875 L8.7215625,8 L9.52875,8 L7.9275,3.1634375 L7.048125,3.1634375 L5.446875,8 Z" id="形状"></path>
                    <path d="M10.1653125,8 L10.9265625,8 L10.9265625,6.0509375 L11.7075,6.0509375 L12.8034375,8 L13.663125,8 L12.481875,5.9525 C13.0921875,5.7621875 13.4925,5.3159375 13.4925,4.5678125 C13.4925,3.524375 12.744375,3.1634375 11.746875,3.1634375 L10.1653125,3.1634375 L10.1653125,8 Z M10.9265625,5.440625 L10.9265625,3.7803125 L11.655,3.7803125 C12.3571875,3.7803125 12.7378125,3.98375 12.7378125,4.5678125 C12.7378125,5.151875 12.3571875,5.440625 11.655,5.440625 L10.9265625,5.440625 Z" id="形状"></path>
                    <path d="M16.35375,8.0853125 C16.9771875,8.0853125 17.469375,7.8359375 17.8565625,7.3896875 L17.4496875,6.910625 C17.1609375,7.225625 16.82625,7.4225 16.38,7.4225 C15.526875,7.4225 14.98875,6.7203125 14.98875,5.571875 C14.98875,4.4365625 15.56625,3.7409375 16.3996875,3.7409375 C16.7934375,3.7409375 17.0953125,3.918125 17.3446875,4.1740625 L17.758125,3.6884375 C17.4628125,3.366875 16.9903125,3.078125 16.3865625,3.078125 C15.1659375,3.078125 14.2078125,4.023125 14.2078125,5.598125 C14.2078125,7.1796875 15.1396875,8.0853125 16.35375,8.0853125 Z" id="路径"></path>
                    <polygon id="路径" points="18.7096875 8 19.4709375 8 19.4709375 5.8015625 21.538125 5.8015625 21.538125 8 22.299375 8 22.299375 3.1634375 21.538125 3.1634375 21.538125 5.13875 19.4709375 5.13875 19.4709375 3.1634375 18.7096875 3.1634375"></polygon>
                </g>
                <g id="27" fill-rule="nonzero">
                    <use fill="black" fill-opacity="1" filter="url(#filter-4)" xlink:href="#path-3"></use>
                    <use fill="#2D394F" xlink:href="#path-3"></use>
                </g>
            </g>
            <g id="MONDAY" transform="translate(12, 30.5)" fill="#2D394F" fill-rule="nonzero">
                <path d="M0.36375,4 L0.75375,4 L0.75375,2.635 C0.75375,2.3875 0.72,2.03125 0.70125,1.78 L0.71625,1.78 L0.93375,2.4175 L1.4175,3.73375 L1.6875,3.73375 L2.1675,2.4175 L2.38875,1.78 L2.40375,1.78 C2.38125,2.03125 2.3475,2.3875 2.3475,2.635 L2.3475,4 L2.7525,4 L2.7525,1.23625 L2.25,1.23625 L1.75125,2.635 C1.6875,2.81875 1.635,3.00625 1.57125,3.19 L1.5525,3.19 C1.48875,3.00625 1.4325,2.81875 1.36875,2.635 L0.8625,1.23625 L0.36375,1.23625 L0.36375,4 Z" id="路径"></path>
                <path d="M4.52625,4.04875 C5.235,4.04875 5.73,3.4975 5.73,2.60875 C5.73,1.72 5.235,1.1875 4.52625,1.1875 C3.8175,1.1875 3.32625,1.72 3.32625,2.60875 C3.32625,3.4975 3.8175,4.04875 4.52625,4.04875 Z M4.52625,3.67 C4.06875,3.67 3.7725,3.25375 3.7725,2.60875 C3.7725,1.96 4.06875,1.56625 4.52625,1.56625 C4.98375,1.56625 5.28375,1.96 5.28375,2.60875 C5.28375,3.25375 4.98375,3.67 4.52625,3.67 Z" id="形状"></path>
                <path d="M6.30375,4 L6.71625,4 L6.71625,2.69875 C6.71625,2.39875 6.6825,2.08 6.66,1.795 L6.67875,1.795 L6.9675,2.3725 L7.8825,4 L8.32875,4 L8.32875,1.23625 L7.91625,1.23625 L7.91625,2.52625 C7.91625,2.82625 7.95,3.16 7.9725,3.445 L7.95375,3.445 L7.665,2.86 L6.75,1.23625 L6.30375,1.23625 L6.30375,4 Z" id="路径"></path>
                <path d="M9.05625,4 L9.795,4 C10.62,4 11.10375,3.505 11.10375,2.60875 C11.10375,1.70875 10.62,1.23625 9.7725,1.23625 L9.05625,1.23625 L9.05625,4 Z M9.49125,3.64375 L9.49125,1.5925 L9.7425,1.5925 C10.335,1.5925 10.65375,1.91875 10.65375,2.60875 C10.65375,3.295 10.335,3.64375 9.7425,3.64375 L9.49125,3.64375 Z" id="形状"></path>
                <path d="M12.20625,2.5 C12.29625,2.2 12.3825,1.89625 12.46125,1.58125 L12.48,1.58125 C12.5625,1.8925 12.645,2.2 12.73875,2.5 L12.8475,2.87125 L12.09375,2.87125 L12.20625,2.5 Z M11.31375,4 L11.75625,4 L11.9925,3.2125 L12.9525,3.2125 L13.185,4 L13.64625,4 L12.73125,1.23625 L12.22875,1.23625 L11.31375,4 Z" id="形状"></path>
                <path d="M14.46375,4 L14.89875,4 L14.89875,2.95375 L15.73125,1.23625 L15.2775,1.23625 L14.955,1.97125 C14.8725,2.1775 14.7825,2.36875 14.6925,2.57875 L14.6775,2.57875 C14.58375,2.36875 14.505,2.1775 14.41875,1.97125 L14.1,1.23625 L13.635,1.23625 L14.46375,2.95375 L14.46375,4 Z" id="路径"></path>
            </g>
            <g id="路径-11">
                <use fill="black" fill-opacity="1" filter="url(#filter-7)" xlink:href="#path-6"></use>
                <use fill="url(#linearGradient-5)" fill-rule="evenodd" xlink:href="#path-6"></use>
            </g>
        </g>
        <g id="Guide/48"></g>
    </g>
</svg>