<?xml version="1.0" encoding="UTF-8"?>
<svg width="512px" height="512px" viewBox="0 0 512 512" version="1.1" xmlns="http://www.w3.org/2000/svg" xmlns:xlink="http://www.w3.org/1999/xlink">
    <title>apps/512/org.deepin.browser</title>
    <defs>
        <filter x="-8.4%" y="-6.0%" width="114.3%" height="114.3%" filterUnits="objectBoundingBox" id="filter-1">
            <feOffset dx="-6.12835554" dy="5.14230088" in="SourceAlpha" result="shadowOffsetOuter1"></feOffset>
            <feGaussianBlur stdDeviation="10" in="shadowOffsetOuter1" result="shadowBlurOuter1"></feGaussianBlur>
            <feColorMatrix values="0 0 0 0 0   0 0 0 0 0   0 0 0 0 0  0 0 0 0.2 0" type="matrix" in="shadowBlurOuter1" result="shadowMatrixOuter1"></feColorMatrix>
            <feMerge>
                <feMergeNode in="shadowMatrixOuter1"></feMergeNode>
                <feMergeNode in="SourceGraphic"></feMergeNode>
            </feMerge>
        </filter>
        <linearGradient x1="50%" y1="0%" x2="50%" y2="98.1385523%" id="linearGradient-2">
            <stop stop-color="#FFFFFF" offset="0%"></stop>
            <stop stop-color="#EDEDED" offset="100%"></stop>
        </linearGradient>
        <linearGradient x1="38.3798131%" y1="23.2583893%" x2="75.4192061%" y2="50%" id="linearGradient-3">
            <stop stop-color="#4E56FD" offset="0%"></stop>
            <stop stop-color="#4F52FF" offset="100%"></stop>
        </linearGradient>
        <linearGradient x1="24.1024078%" y1="12.2730876%" x2="88.261449%" y2="56.7344125%" id="linearGradient-4">
            <stop stop-color="#6B5BFE" offset="0%"></stop>
            <stop stop-color="#58CDFF" offset="100%"></stop>
        </linearGradient>
    </defs>
    <g id="apps/512/org.deepin.browser" stroke="none" fill="none">
        <g id="编组" filter="url(#filter-1)" stroke-width="1" fill-rule="evenodd" transform="translate(256, 256) rotate(-50) translate(-256, -256)translate(24, 24)">
            <circle id="椭圆形" fill="url(#linearGradient-2)" cx="232" cy="232" r="232"></circle>
            <path d="M257.972882,165.070072 C290.130121,146.255128 296.510437,129.487605 277.11383,114.767503 C248.01892,92.6873498 192.254395,113.181866 170.232404,132.406149 C148.210414,151.630433 116.762539,198.114559 125.734826,266.247175 C134.707113,334.379791 47.2327554,325.112499 70.7330273,243.248911 C86.3998752,188.673186 125.449249,126.970481 187.88115,58.1407961 L270.681995,29.7446601 L325.877281,43.3163736 L366.696591,79.2732897 L375.72197,123.004205 L333.930707,157.296134 L257.972882,165.070072 Z" id="路径-39" fill="url(#linearGradient-3)"></path>
            <path d="M232,-7.84319924e-13 C318.313816,-7.84319924e-13 393.618538,47.1355343 433.577871,117.070308 C449.375254,152.116032 455.457606,200.044345 433.099342,238.808153 C405.707103,286.299655 334.720004,309.440494 286.101376,295.193042 C207.100529,272.042228 176.511929,199.226433 214.446659,170.435483 C229.523957,158.992414 248.750221,156.337635 268.083813,153.189217 L269.925303,152.887579 C280.66771,151.115848 291.403643,149.100814 301.44009,145.250925 C330.115653,134.251242 351.319509,116.308871 351.319509,91.684791 C351.319509,80.4318506 345.998725,63.6572954 325.953187,52.4157214 C304.509045,40.389807 262.898853,34.0771515 219.157702,56.3676682 C203.516518,64.3384252 185.949453,76.0755162 173.551297,87.7980261 C142.532089,117.12682 127.049575,157.915115 121.560962,199.711444 C119.201981,217.67532 121.172593,278.997055 149.490349,317.808433 C185.379473,366.996878 251.375999,400.676201 303.90059,400.676201 C354.271202,400.676201 395.322566,386.336728 427.054681,357.657781 C385.752164,421.642001 313.822702,464 232,464 C103.869938,464 -1.12225519e-13,360.130062 -1.12225519e-13,232 C-1.12225519e-13,103.869938 103.869938,-7.84319924e-13 232,-7.84319924e-13 Z" id="形状结合" fill="url(#linearGradient-4)"></path>
            <path d="M232,1.07138272e-11 C360.130062,1.07138272e-11 464,103.869938 464,232 C464,360.130062 360.130062,464 232,464 C103.869938,464 5.6931445e-13,360.130062 5.6931445e-13,232 C5.6931445e-13,103.869938 103.869938,1.07138272e-11 232,1.07138272e-11 Z M232,3.93220339 C106.041634,3.93220339 3.93220339,106.041634 3.93220339,232 C3.93220339,357.958366 106.041634,460.067797 232,460.067797 C357.958366,460.067797 460.067797,357.958366 460.067797,232 C460.067797,106.041634 357.958366,3.93220339 232,3.93220339 Z" id="椭圆形" fill-opacity="0.08" fill="#000000" fill-rule="nonzero"></path>
        </g>
        <g id="Guide/512"></g>
    </g>
</svg>