<?xml version="1.0" encoding="UTF-8"?>
<svg width="256px" height="256px" viewBox="0 0 256 256" version="1.1" xmlns="http://www.w3.org/2000/svg" xmlns:xlink="http://www.w3.org/1999/xlink">
    <title>apps/256/dde-calendar</title>
    <defs>
        <filter x="-8.3%" y="-6.2%" width="117.0%" height="118.0%" filterUnits="objectBoundingBox" id="filter-1">
            <feOffset dx="-0.556692404" dy="3.96107227" in="SourceAlpha" result="shadowOffsetOuter1"></feOffset>
            <feGaussianBlur stdDeviation="5" in="shadowOffsetOuter1" result="shadowBlurOuter1"></feGaussianBlur>
            <feColorMatrix values="0 0 0 0 0   0 0 0 0 0   0 0 0 0 0  0 0 0 0.2 0" type="matrix" in="shadowBlurOuter1" result="shadowMatrixOuter1"></feColorMatrix>
            <feMerge>
                <feMergeNode in="shadowMatrixOuter1"></feMergeNode>
                <feMergeNode in="SourceGraphic"></feMergeNode>
            </feMerge>
        </filter>
        <radialGradient cx="54.3240802%" cy="55.7793187%" fx="54.3240802%" fy="55.7793187%" r="61.9143954%" gradientTransform="translate(0.5432, 0.5578), scale(1, 0.8824), rotate(-144.9986), scale(1, 1.2647), translate(-0.5432, -0.5578)" id="radialGradient-2">
            <stop stop-color="#000000" offset="0%"></stop>
            <stop stop-color="#000000" stop-opacity="0.148218969" offset="100%"></stop>
        </radialGradient>
        <path d="M99.0911215,150.85514 L99.0911215,139.780625 L69.0210646,139.780625 L94.3403764,108.623616 C97.5075398,104.66717 99.0911215,100.145518 99.0911215,95.0586592 C99.0191405,88.7000858 96.8417157,83.4542628 92.558847,79.3211902 C88.3479593,75.1527921 82.8594091,73.0332676 76.0931965,72.9626168 C70.0467936,73.0332676 64.9541389,75.1174667 60.8152322,79.2152139 C56.712316,83.4189374 54.5168959,88.7354112 54.228972,95.1646354 L54.228972,95.1646354 L65.4580058,95.1646354 C65.8539012,91.6320946 67.1135685,88.8943756 69.2370075,86.9514782 C71.2884656,85.0085808 73.8617859,84.037132 76.9569683,84.037132 C80.4480461,84.1077829 83.1473331,85.2205332 85.0548292,87.3753831 C86.8903444,89.5302329 87.8081019,92.0559995 87.8081019,94.9526829 C87.8081019,96.0477706 87.66414,97.213509 87.376216,98.4498983 C86.9443301,99.7569384 86.134544,101.169955 84.9468577,102.688947 L84.9468577,102.688947 L54.228972,140.416482 L54.228972,150.85514 L99.0911215,150.85514 Z M129.576951,150.36215 L156.278037,84.0576116 L156.278037,72.9626168 L111.415888,72.9626168 L111.415888,95.2587785 L122.712501,95.2587785 L122.712501,84.0576116 L143.630154,84.0576116 L116.983118,150.36215 L129.576951,150.36215 Z" id="path-3"></path>
        <filter x="-17.1%" y="-16.0%" width="134.3%" height="144.9%" filterUnits="objectBoundingBox" id="filter-4">
            <feOffset dx="0" dy="5" in="SourceAlpha" result="shadowOffsetOuter1"></feOffset>
            <feGaussianBlur stdDeviation="5" in="shadowOffsetOuter1" result="shadowBlurOuter1"></feGaussianBlur>
            <feColorMatrix values="0 0 0 0 0.000854821203   0 0 0 0 0.168099661   0 0 0 0 0.309386322  0 0 0 0.2 0" type="matrix" in="shadowBlurOuter1"></feColorMatrix>
        </filter>
        <linearGradient x1="69.1755115%" y1="71.0965544%" x2="56.7766998%" y2="57.7013487%" id="linearGradient-5">
            <stop stop-color="#C6C6C6" offset="0%"></stop>
            <stop stop-color="#E7E7E7" offset="53.0517663%"></stop>
            <stop stop-color="#F4F4F4" offset="100%"></stop>
        </linearGradient>
        <path d="M211,141.981308 C211,141.981308 208.171907,159.63797 204.591121,165.398364 C198.921729,174.518692 194.731308,171.067757 186.843458,180.681075 C178.955607,190.294393 184.378505,192.01986 172.546729,202.126168 C166.206043,207.542171 150.85514,211 150.85514,211 C199.90771,211 211,168.356308 211,141.981308 Z" id="path-6"></path>
        <filter x="-6.7%" y="-2.9%" width="113.3%" height="111.6%" filterUnits="objectBoundingBox" id="filter-7">
            <feOffset dx="0" dy="2" in="SourceAlpha" result="shadowOffsetOuter1"></feOffset>
            <feGaussianBlur stdDeviation="1" in="shadowOffsetOuter1" result="shadowBlurOuter1"></feGaussianBlur>
            <feColorMatrix values="0 0 0 0 0   0 0 0 0 0   0 0 0 0 0  0 0 0 0.05 0" type="matrix" in="shadowBlurOuter1"></feColorMatrix>
        </filter>
    </defs>
    <g id="apps/256/dde-calendar" stroke="none" fill="none">
        <g id="编组-2" filter="url(#filter-1)" stroke-width="1" fill-rule="evenodd" transform="translate(128, 128) rotate(-8) translate(-128, -128)translate(22.5, 22.5)">
            <g id="编组" transform="translate(-0, -0)">
                <rect id="矩形备份-2" fill="#FFFFFF" x="-2.69663721e-12" y="2.35520312e-13" width="211" height="211" rx="39"></rect>
                <path d="M211,143.953271 L211,172 C211,193.539105 193.539105,211 172,211 L151.841121,211 C172.053738,208.535047 186.268302,200.729361 194.484813,187.582944 C202.701324,174.436526 208.206386,159.893302 211,143.953271 Z" id="形状结合" fill-opacity="0.39" fill="url(#radialGradient-2)"></path>
                <g id="MARCH" transform="translate(44.493, 11.4673)" fill="#E06164" fill-rule="nonzero">
                    <path d="M3.395,41 L7.035,41 L7.035,28.26 C7.035,25.95 6.72,22.625 6.545,20.28 L6.685,20.28 L8.715,26.23 L13.23,38.515 L15.75,38.515 L20.23,26.23 L22.295,20.28 L22.435,20.28 C22.225,22.625 21.91,25.95 21.91,28.26 L21.91,41 L25.69,41 L25.69,15.205 L21,15.205 L16.345,28.26 C15.75,29.975 15.26,31.725 14.665,33.44 L14.49,33.44 C13.895,31.725 13.37,29.975 12.775,28.26 L8.05,15.205 L3.395,15.205 L3.395,41 Z" id="路径"></path>
                    <path d="M37.38,27 C38.22,24.2 39.025,21.365 39.76,18.425 L39.935,18.425 C40.705,21.33 41.475,24.2 42.35,27 L43.365,30.465 L36.33,30.465 L37.38,27 Z M29.05,41 L33.18,41 L35.385,33.65 L44.345,33.65 L46.515,41 L50.82,41 L42.28,15.205 L37.59,15.205 L29.05,41 Z" id="形状"></path>
                    <path d="M54.215,41 L58.275,41 L58.275,30.605 L62.44,30.605 L68.285,41 L72.87,41 L66.57,30.08 C69.825,29.065 71.96,26.685 71.96,22.695 C71.96,17.13 67.97,15.205 62.65,15.205 L54.215,15.205 L54.215,41 Z M58.275,27.35 L58.275,18.495 L62.16,18.495 C65.905,18.495 67.935,19.58 67.935,22.695 C67.935,25.81 65.905,27.35 62.16,27.35 L58.275,27.35 Z" id="形状"></path>
                    <path d="M87.22,41.455 C90.545,41.455 93.17,40.125 95.235,37.745 L93.065,35.19 C91.525,36.87 89.74,37.92 87.36,37.92 C82.81,37.92 79.94,34.175 79.94,28.05 C79.94,21.995 83.02,18.285 87.465,18.285 C89.565,18.285 91.175,19.23 92.505,20.595 L94.71,18.005 C93.135,16.29 90.615,14.75 87.395,14.75 C80.885,14.75 75.775,19.79 75.775,28.19 C75.775,36.625 80.745,41.455 87.22,41.455 Z" id="路径"></path>
                    <polygon id="路径" points="99.785 41 103.845 41 103.845 29.275 114.87 29.275 114.87 41 118.93 41 118.93 15.205 114.87 15.205 114.87 25.74 103.845 25.74 103.845 15.205 99.785 15.205"></polygon>
                </g>
                <g id="27" fill-rule="nonzero">
                    <use fill="black" fill-opacity="1" filter="url(#filter-4)" xlink:href="#path-3"></use>
                    <use fill="#2D394F" xlink:href="#path-3"></use>
                </g>
            </g>
            <g id="MONDAY" transform="translate(63.007, 159.5257)" fill="#2D394F" fill-rule="nonzero">
                <path d="M1.94,23 L4.02,23 L4.02,15.72 C4.02,14.4 3.84,12.5 3.74,11.16 L3.82,11.16 L4.98,14.56 L7.56,21.58 L9,21.58 L11.56,14.56 L12.74,11.16 L12.82,11.16 C12.7,12.5 12.52,14.4 12.52,15.72 L12.52,23 L14.68,23 L14.68,8.26 L12,8.26 L9.34,15.72 C9,16.7 8.72,17.7 8.38,18.68 L8.28,18.68 C7.94,17.7 7.64,16.7 7.3,15.72 L4.6,8.26 L1.94,8.26 L1.94,23 Z" id="路径"></path>
                <path d="M24.14,23.26 C27.92,23.26 30.56,20.32 30.56,15.58 C30.56,10.84 27.92,8 24.14,8 C20.36,8 17.74,10.84 17.74,15.58 C17.74,20.32 20.36,23.26 24.14,23.26 Z M24.14,21.24 C21.7,21.24 20.12,19.02 20.12,15.58 C20.12,12.12 21.7,10.02 24.14,10.02 C26.58,10.02 28.18,12.12 28.18,15.58 C28.18,19.02 26.58,21.24 24.14,21.24 Z" id="形状"></path>
                <path d="M33.62,23 L35.82,23 L35.82,16.06 C35.82,14.46 35.64,12.76 35.52,11.24 L35.62,11.24 L37.16,14.32 L42.04,23 L44.42,23 L44.42,8.26 L42.22,8.26 L42.22,15.14 C42.22,16.74 42.4,18.52 42.52,20.04 L42.42,20.04 L40.88,16.92 L36,8.26 L33.62,8.26 L33.62,23 Z" id="路径"></path>
                <path d="M48.3,23 L52.24,23 C56.64,23 59.22,20.36 59.22,15.58 C59.22,10.78 56.64,8.26 52.12,8.26 L48.3,8.26 L48.3,23 Z M50.62,21.1 L50.62,10.16 L51.96,10.16 C55.12,10.16 56.82,11.9 56.82,15.58 C56.82,19.24 55.12,21.1 51.96,21.1 L50.62,21.1 Z" id="形状"></path>
                <path d="M65.1,15 C65.58,13.4 66.04,11.78 66.46,10.1 L66.56,10.1 C67,11.76 67.44,13.4 67.94,15 L68.52,16.98 L64.5,16.98 L65.1,15 Z M60.34,23 L62.7,23 L63.96,18.8 L69.08,18.8 L70.32,23 L72.78,23 L67.9,8.26 L65.22,8.26 L60.34,23 Z" id="形状"></path>
                <path d="M77.14,23 L79.46,23 L79.46,17.42 L83.9,8.26 L81.48,8.26 L79.76,12.18 C79.32,13.28 78.84,14.3 78.36,15.42 L78.28,15.42 C77.78,14.3 77.36,13.28 76.9,12.18 L75.2,8.26 L72.72,8.26 L77.14,17.42 L77.14,23 Z" id="路径"></path>
            </g>
            <g id="路径-11">
                <use fill="black" fill-opacity="1" filter="url(#filter-7)" xlink:href="#path-6"></use>
                <use fill="url(#linearGradient-5)" fill-rule="evenodd" xlink:href="#path-6"></use>
            </g>
        </g>
        <g id="Guide-256"></g>
    </g>
</svg>