<?xml version="1.0" encoding="UTF-8"?>
<svg width="256px" height="256px" viewBox="0 0 256 256" version="1.1" xmlns="http://www.w3.org/2000/svg" xmlns:xlink="http://www.w3.org/1999/xlink">
    <title>apps/256/org.deepin.browser</title>
    <defs>
        <filter x="-8.4%" y="-6.0%" width="114.3%" height="114.3%" filterUnits="objectBoundingBox" id="filter-1">
            <feOffset dx="-3.06417777" dy="2.57115044" in="SourceAlpha" result="shadowOffsetOuter1"></feOffset>
            <feGaussianBlur stdDeviation="5" in="shadowOffsetOuter1" result="shadowBlurOuter1"></feGaussianBlur>
            <feColorMatrix values="0 0 0 0 0   0 0 0 0 0   0 0 0 0 0  0 0 0 0.2 0" type="matrix" in="shadowBlurOuter1" result="shadowMatrixOuter1"></feColorMatrix>
            <feMerge>
                <feMergeNode in="shadowMatrixOuter1"></feMergeNode>
                <feMergeNode in="SourceGraphic"></feMergeNode>
            </feMerge>
        </filter>
        <linearGradient x1="50%" y1="0%" x2="50%" y2="98.1385523%" id="linearGradient-2">
            <stop stop-color="#FFFFFF" offset="0%"></stop>
            <stop stop-color="#EDEDED" offset="100%"></stop>
        </linearGradient>
        <linearGradient x1="38.3798131%" y1="23.2583893%" x2="75.4192061%" y2="50%" id="linearGradient-3">
            <stop stop-color="#4E56FD" offset="0%"></stop>
            <stop stop-color="#4F52FF" offset="100%"></stop>
        </linearGradient>
        <linearGradient x1="24.1024158%" y1="12.2730876%" x2="88.2614371%" y2="56.7344125%" id="linearGradient-4">
            <stop stop-color="#6B5BFE" offset="0%"></stop>
            <stop stop-color="#58CDFF" offset="100%"></stop>
        </linearGradient>
    </defs>
    <g id="apps/256/org.deepin.browser" stroke="none" fill="none">
        <g id="编组" filter="url(#filter-1)" stroke-width="1" fill-rule="evenodd" transform="translate(128, 128) rotate(-50) translate(-128, -128)translate(12, 12)">
            <circle id="椭圆形" fill="url(#linearGradient-2)" cx="116" cy="116" r="116"></circle>
            <path d="M128.986441,82.535036 C145.06506,73.127564 148.255218,64.7438024 138.556915,57.3837514 C124.00946,46.3436749 96.1271974,56.5909329 85.1162021,66.2030746 C74.1052068,75.8152163 58.3812693,99.0572797 62.8674129,133.123588 C67.3535566,167.189895 23.6163777,162.556249 35.3665136,121.624455 C43.1999376,94.3365929 62.7246247,63.4852404 93.9405749,29.0703981 L135.340997,14.8723301 L162.938641,21.6581868 L183.348295,39.6366448 L187.860985,61.5021026 L166.965354,78.6480672 L128.986441,82.535036 Z" id="路径-39" fill="url(#linearGradient-3)"></path>
            <path d="M116,-2.04827171e-13 C159.156012,-2.04827171e-13 196.807705,23.5667884 216.787691,58.532976 C224.687396,76.0561999 227.729227,100.021438 216.549671,119.404077 C202.853552,143.149827 167.360002,154.720247 143.050688,147.596521 C103.550264,136.021114 88.2559643,99.6132163 107.223329,85.2177415 C114.402995,79.768661 123.464278,78.3051998 132.661519,76.8183178 L134.077316,76.5888413 C139.742913,75.6658707 145.426095,74.6561734 150.720045,72.6254626 C165.057826,67.1256209 175.659754,58.1544354 175.659754,45.8423955 C175.659754,40.2159253 172.999362,31.8286477 162.976594,26.2078607 C152.254522,20.1949035 131.449426,17.0385757 109.578851,28.1838341 C101.758259,32.1692126 92.9747266,38.0377581 86.7756483,43.899013 C71.2660443,58.5634098 63.5247876,78.9575573 60.7804812,99.8557218 C59.6009905,108.83766 60.5862965,139.498528 74.7451744,158.904217 C92.6897364,183.498439 125.688,200.338101 151.950295,200.338101 C177.134964,200.338101 197.660245,193.168726 213.526138,178.829978 C192.875383,210.821412 156.910954,232 116,232 C51.934969,232 1.00912525e-11,180.065031 1.00912525e-11,116 C1.00912525e-11,51.934969 51.934969,-2.04827171e-13 116,-2.04827171e-13 Z" id="形状结合" fill="url(#linearGradient-4)"></path>
            <path d="M116,1.38415765e-12 C180.065031,1.38415765e-12 232,51.934969 232,116 C232,180.065031 180.065031,232 116,232 C51.934969,232 -1.65503219e-13,180.065031 -1.65503219e-13,116 C-1.65503219e-13,51.934969 51.934969,1.38415765e-12 116,1.38415765e-12 Z M116,1.96610169 C53.020817,1.96610169 1.96610169,53.020817 1.96610169,116 C1.96610169,178.979183 53.020817,230.033898 116,230.033898 C178.979183,230.033898 230.033898,178.979183 230.033898,116 C230.033898,53.020817 178.979183,1.96610169 116,1.96610169 Z" id="椭圆形" fill-opacity="0.08" fill="#000000" fill-rule="nonzero"></path>
        </g>
        <g id="Guide/256" transform="translate(0.0533, 0)"></g>
    </g>
</svg>